<svg version="1.1" xmlns="http://www.w3.org/2000/svg" xmlns:xlink="http://www.w3.org/1999/xlink" width="870.11804" height="870.11804" viewBox="0,0,870.11804,870.11804"><defs><radialGradient cx="320.00001" cy="180.00003" r="435.05902" gradientUnits="userSpaceOnUse" id="color-1"><stop offset="0" stop-color="#ff0000"/><stop offset="1" stop-color="#ff0000" stop-opacity="0"/></radialGradient><radialGradient cx="320.00001" cy="180.00003" r="183.18275" gradientUnits="userSpaceOnUse" id="color-2"><stop offset="0" stop-color="#ffbfbf"/><stop offset="1" stop-color="#ff0000"/></radialGradient></defs><g transform="translate(115.05901,255.05899)"><g stroke="none" stroke-width="0" stroke-miterlimit="10"><path d="M-115.05901,180.00003c0,-240.27662 194.7824,-435.05902 435.05902,-435.05902c240.27662,0 435.05902,194.7824 435.05902,435.05902c0,240.27662 -194.7824,435.05902 -435.05902,435.05902c-240.27662,0 -435.05902,-194.7824 -435.05902,-435.05902z" fill="url(#color-1)"/><path d="M136.81727,180.00003c0,-101.16904 82.0137,-183.18275 183.18275,-183.18275c101.16904,0 183.18275,82.0137 183.18275,183.18275c0,101.16904 -82.0137,183.18275 -183.18275,183.18275c-101.16904,0 -183.18275,-82.0137 -183.18275,-183.18275z" fill="url(#color-2)"/></g></g></svg>