<svg version="1.1" xmlns="http://www.w3.org/2000/svg" xmlns:xlink="http://www.w3.org/1999/xlink" width="164.48562" height="164.48562" viewBox="0,0,164.48562,164.48562"><g transform="translate(-237.75721,-85.75721)"><g stroke-miterlimit="10"><path d="M291.28517,168.00003c0,-15.85876 12.85607,-28.71483 28.71483,-28.71483c15.85877,0 28.71483,12.85608 28.71483,28.71483c0,15.85876 -12.85606,28.71483 -28.71483,28.71483c-15.85877,0 -28.71483,-12.85608 -28.71483,-28.71483z" fill="#b04646" stroke="none" stroke-width="0"/><path d="M299.63341,147.24432c-0.00994,-0.3564 0.11934,-0.79574 0.69825,-1.0852c0.34639,-0.17319 0.63911,-0.18541 0.87818,-0.11978c0.17941,-0.24308 0.48035,-0.44697 0.98518,-0.44697c1.25,0 1.25,1.25 1.25,1.25c-0.01309,9.94442 16.72767,15.19727 14.09311,25.95534c-1.17354,4.67261 1.3364,15.30293 -2.74981,16.96133c-6.67479,2.70899 -10.75577,-6.3984 -16.38673,-5.58355c-7.10197,-2.35358 -7.50109,-10.01565 -8.53927,-16.36046l0.036,-0.1031h-0.04026v-1.30435c0,-0.69036 0.55964,-1.25 1.25,-1.25c0.46331,0 0.86774,0.25206 1.08365,0.62653l0.09293,0.15488c1.19533,-6.48501 3.88272,-13.57763 5.36025,-16.04409c0.68526,-1.14209 1.12718,-1.92146 1.98851,-2.65059z" fill="#732d2d" stroke="none" stroke-width="0.5"/><path d="M291.77968,172.09441c-0.62078,-1.08495 0.46417,-1.70574 0.46417,-1.70574l-0.07518,0.11692c2.52879,-2.82705 0.66136,-3.50307 0.09679,-7.03951c0,0 -0.18993,-1.23549 1.04556,-1.42542c1.23549,-0.18993 1.42542,1.04556 1.42542,1.04556c0.22938,1.56417 1.39418,2.94817 1.58015,4.37298c0.28381,2.17439 -1.00488,3.28008 -2.28387,4.71233l-0.54729,0.38705c0,0 -1.08495,0.62078 -1.70574,-0.46417z" fill="#d1a1a1" stroke="none" stroke-width="0.5"/><path d="M335.12442,144.33002c0.69192,-0.9236 1.67704,-0.26684 1.67704,-0.26684l0.93488,0.69398c0.65906,0.82627 1.59559,1.44965 2.09189,2.3828c1.37281,2.58116 1.07315,6.20201 1.63695,9.02734c0.70691,3.5425 1.94754,6.58751 0.74091,10.18548c-7.44023,9.27226 -13.33644,-6.21981 -12.10977,-12.56392c0.67163,-3.47355 3.01967,-6.04759 4.70165,-9.07528c0,0 0.11202,-0.20164 0.32644,-0.38356z" fill="#732d2d" stroke="none" stroke-width="0.5"/><path d="M329.68057,177.99535l0.02538,-0.00784c1.035,0.14978 2.77734,0.33757 3.69605,0.7782c0.55014,0.26386 1.02556,0.68227 1.4398,1.13023c0.51023,0.55177 0.98324,1.15928 1.30527,1.83832c3.48046,7.339 -11.31638,11.9998 -11.28864,2.74654c0.0028,-0.9325 0.1944,-1.8822 0.55614,-2.74168c0.18916,-0.44941 1.04729,-1.37308 1.8184,-2.15338c0.0118,-0.81671 0.87112,-1.10314 0.87112,-1.10314l0.35905,-0.11098c0.00778,-0.00772 0.01509,-0.015 0.02191,-0.02184c0,0 0.53868,-0.53868 1.19551,-0.35444z" fill="#732d2d" stroke="none" stroke-width="0.5"/><path d="M237.75721,168.00003c0,-45.42144 36.82137,-82.24281 82.24281,-82.24281c45.42147,0 82.24281,36.82139 82.24281,82.24281c0,45.42144 -36.82134,82.24281 -82.24281,82.24281c-45.42147,0 -82.24281,-36.8214 -82.24281,-82.24281z" fill="none" stroke="none" stroke-width="0"/><path d="M309.98545,193.51365c0,1.25 -1.25,1.25 -1.25,1.25l-1.37715,-0.28972c-2.30728,-1.92271 -4.41746,-3.32234 -6.57371,-5.41512c-0.81186,-0.78796 -1.00179,-2.03037 -1.44126,-3.07289c-0.30979,-0.73488 -1.21908,-1.0388 -1.73728,-1.64501c-1.23053,-1.43953 -2.05216,-3.01275 -3.2812,-4.43684c0,0 -0.81349,-0.94907 0.13558,-1.76256c0.94907,-0.81349 1.76256,0.13558 1.76256,0.13558c0.76277,0.89526 1.55875,1.8336 2.31575,2.80247c-0.04316,-0.17878 -0.04316,-0.31133 -0.04316,-0.31133l0.13197,-0.9938c1.36858,-2.73548 2.53743,-7.0288 5.39026,-7.60217c0.26606,-0.35982 0.59219,-0.68234 0.96089,-0.96532c-2.19655,-0.24759 -3.98558,-0.11839 -5.54315,1.59097l-0.00003,-0.00002c-0.08409,0.3693 -0.35282,0.95945 -1.2117,0.95945c-1.25,0 -1.25,-1.25 -1.25,-1.25l0.28972,-1.01763c2.52767,-2.97701 5.40999,-3.14233 9.18054,-2.61112c0,0 0.00459,0.00065 0.01318,0.00217c-0.3607,-1.89366 -0.72139,-3.78733 -1.08209,-5.68099l-0.33578,-1.76289c0,0 -0.2339,-1.22792 0.99403,-1.46181c1.22793,-0.23389 1.46182,0.99403 1.46182,0.99403c0.37337,1.96019 0.96067,5.0435 1.42039,7.45704c1.14488,-4.45419 4.09462,-8.51746 8.01292,-10.90371l0.86051,-0.17813c0,0 1.25,0 1.25,1.25c0,0.97657 -0.76295,1.19019 -1.09673,1.23692c-3.48711,2.17269 -6.13581,6.15687 -6.83591,10.21717c0.47265,0.16055 0.92819,0.39824 1.35489,0.6959c2.35362,-3.3889 4.8747,-5.45879 9.33399,-4.58736l1.33985,1.0265c0,0 0.97609,0.78087 0.19522,1.75696c-0.78087,0.97609 -1.75696,0.19522 -1.75696,0.19522l-0.83407,-0.71263c-3.02881,-0.63092 -4.94746,1.74528 -6.50113,4.13763c0.29077,0.4252 0.5382,0.87999 0.73207,1.34945c3.99723,-1.99645 7.95721,-0.97293 10.57507,2.65336l-0.02188,1.89928c0,0 -0.30317,1.21268 -1.51585,0.90951c-1.21268,-0.30317 -0.90951,-1.51584 -0.90951,-1.51584l0.4129,0.16015c-1.91917,-2.72102 -4.86449,-3.5167 -7.90493,-1.61121c0,0 -0.06308,0.03785 -0.1678,0.07987c-0.05246,0.8182 -0.3188,1.60033 -0.85149,2.26946c4.07061,0.5616 7.96979,1.9018 7.48609,6.95125l-1.80674,1.27502c0,0 -1.21268,0.30317 -1.51585,-0.90951c-0.28821,-1.15283 0.79349,-1.4837 0.90097,-1.51356c-0.14522,-3.44311 -5.50728,-3.38069 -8.27972,-3.6317c0,0 -0.33984,-0.0309 -0.64826,-0.23797c-0.20635,0.04324 -0.4148,0.0842 -0.62322,0.12364c1.09528,2.17865 2.749,3.38518 5.25819,4.20534l0.17111,-0.24421c0,0 1.21267,-0.30317 1.51585,0.90951c0.30317,1.21268 -0.90951,1.51585 -0.90951,1.51585l-1.56802,0.19057c-3.3858,-1.1473 -5.58677,-2.92781 -6.99206,-6.09311c-0.04587,0.01086 -0.09108,0.02185 -0.13557,0.03297l-1.00504,-1.20673c-0.48408,-0.14867 -0.92186,-0.4031 -1.30767,-0.73428c-0.02445,1.77236 0.44338,3.33386 2.29785,4.58519l1.53661,0.36525c0,0 1.21268,0.30317 0.90951,1.51585c-0.30317,1.21268 -1.51585,0.90951 -1.51585,0.90951l-1.94165,-0.50432c-3.96683,-2.62518 -4.01112,-5.82245 -3.45662,-10.04c-0.91737,1.60485 -1.69459,3.87483 -2.09357,4.67326l0.13196,-0.12423c0,0 0,1.25 -1.25,1.25c-0.2346,0 -0.42516,-0.04403 -0.57997,-0.11556c1.09463,1.47824 2.05582,3.01731 2.63955,4.57478c0.24917,0.66482 1.3952,1.11366 1.80423,1.49105c0.67661,0.62426 0.87655,1.70211 1.63228,2.22783c1.14848,0.79894 2.51957,1.35912 3.71709,2.35704l-0.2233,-0.28972c0,0 1.25,0 1.25,1.25zM306.95052,174.15331c-0.30307,0.60614 -0.77044,0.71935 -1.13489,0.69596c-0.02612,0.14721 -0.03921,0.29751 -0.03795,0.45011c0.00707,0.86061 0.71725,2.71286 1.80662,2.46483c0.68297,-0.1555 1.30097,-0.51962 1.95145,-0.77944c0,0 1.17474,-0.42718 1.60192,0.74756c0.01259,0.03464 0.0238,0.06862 0.03368,0.10197c1.59943,-0.63953 2.48075,-1.71476 0.83346,-3.92692c-0.27384,-0.36774 -0.51339,-0.77387 -0.86145,-1.07233c-1.23376,-1.05793 -3.01429,-0.75898 -4.18057,0.18464c0.15816,0.27415 0.22853,0.65202 -0.01227,1.13362zM319.65353,184.63273l-0.0614,0.76305c0.04649,-0.27149 0.06614,-0.52544 0.0614,-0.76305z" fill="#d1a1a1" stroke="none" stroke-width="0.5"/><path d="M347.04367,163.84278c-1.11804,0.559 -1.67704,-0.55905 -1.67704,-0.55905l-0.09759,-0.45248c-0.68728,-0.56874 -1.11908,-0.83124 -1.66771,-0.9473c1.07035,3.38908 1.57455,6.83883 1.30095,9.66181l-0.51788,1.42581c0,0 -0.46424,1.1606 -1.62484,0.69636c-1.1606,-0.46424 -0.69636,-1.62484 -0.69636,-1.62484l0.35168,-0.7481c0.30924,-2.9348 -0.32502,-5.76209 -1.34877,-8.47968c-4.1251,0.92329 -5.68536,3.33039 -7.0933,7.4847l0.25933,0.44042c0,0 0.24516,1.22572 -0.98057,1.47088c-1.22573,0.24516 -1.47089,-0.98056 -1.47089,-0.98056l-0.17548,-1.7335c1.51385,-4.46286 3.4824,-7.33335 7.4471,-8.70015c-2.37689,-1.48986 -5.32878,-3.15449 -7.64839,-2.52573c-1.27265,0.34497 -2.28368,1.62751 -3.16582,2.51116l0.11141,0.28884c0,0 -0.30317,1.21268 -1.51585,0.90952c-1.21268,-0.30317 -0.90951,-1.51585 -0.90951,-1.51585l0.54619,-1.4503c1.20665,-1.20469 2.49799,-2.68498 4.22551,-3.14101c2.65215,-0.70012 5.51623,0.47483 8.09902,1.91432c-0.17208,-0.3426 -0.34485,-0.68325 -0.51702,-1.02193c-1.10249,-2.16887 -1.88387,-3.77923 -3.84754,-5.21532c0,0 -1.00001,-0.75 -0.25001,-1.75c0.75,-1 1.75,-0.25 1.75,-0.25c2.15839,1.65159 4.08573,4.26403 5.60098,7.24943c0.00542,-0.19908 0.00807,-0.39819 0.00773,-0.59725v-0.43479c0,0 0,-0.57145 0.38637,-0.94159c-0.1102,-0.91341 -0.1672,-1.83459 -0.169,-2.75406c0,0 0,-1.25 1.25,-1.25c1.25,0 1.25,1.25 1.25,1.25c-0.0021,0.958 0.06729,1.91862 0.20483,2.8667l0.01256,0.82895c0,0 0,0.62516 -0.44211,0.99125c-0.02195,0.89087 -0.09197,1.78134 -0.19637,2.66626c1.06466,0.18105 1.89282,0.59284 2.99545,1.45336l0.77195,1.28666c0,0 0.559,1.11805 -0.55905,1.67705z" fill="#d1a1a1" stroke="none" stroke-width="0.5"/><path d="M309.99401,151.32722c-0.55901,1.11803 -1.67705,0.55901 -1.67705,0.55901l-0.36816,-0.18649c-1.63272,-0.69995 -3.17402,-1.69934 -4.81751,-1.58182c0.13598,2.0428 0.773,3.81207 1.62196,5.78344c0.03814,0.0157 0.07699,0.03338 0.11653,0.05315c1.11804,0.55901 0.55903,1.67704 0.55903,1.67704l-2.47769,0.38345c-0.89598,-2.01733 -1.62801,-3.81163 -2.02244,-5.70944c-0.13687,0.24777 -0.26767,0.49962 -0.39247,0.75549c-0.85005,2.88691 -0.85562,6.56994 -1.29679,9.21699l0.19707,0.36089c0,0 0.30317,1.21268 -0.90951,1.51585c-1.21268,0.30317 -1.51585,-0.9095 -1.51585,-0.9095l-0.2377,-1.37823c0.22668,-1.36006 0.36834,-2.862 0.54261,-4.38616c-0.75443,-0.4352 -0.5223,-1.3637 -0.5223,-1.3637c0.38808,-1.54522 0.91872,-2.99346 1.59692,-4.34267c0.30111,-0.92691 0.68417,-1.79528 1.18439,-2.56927c0,0 0.29376,-0.44065 0.78569,-0.5571c0.06421,-0.10915 0.14365,-0.20107 0.22544,-0.27709c0.01776,-0.02189 0.03556,-0.04375 0.05342,-0.06557c0.00928,-0.15715 0.02093,-0.31597 0.03499,-0.47656c0,0 0.11317,-1.24487 1.35803,-1.1317c0.02637,0.0024 0.05213,0.0053 0.0773,0.00869c0.71546,-0.69491 1.49629,-1.34673 2.34386,-1.9549l1.82781,0.35066c0,0 0.8839,0.88387 0.00003,1.76777c-0.35286,0.35287 -0.70573,0.424 -1.00236,0.3821c-0.23108,0.17942 -0.45585,0.36292 -0.67437,0.55049c1.41288,0.26574 2.7562,0.9261 4.3287,1.59983l0.5014,0.24829c0,0 1.11803,0.55902 0.55901,1.67705z" fill="#d1a1a1" stroke="none" stroke-width="0.5"/><path d="M344.21757,180.51972c1.11805,0.55899 0.55906,1.67704 0.55906,1.67704l-0.26356,0.51891c-1.14942,1.88737 -2.68188,3.29982 -4.50894,4.52738c0,0 -0.90712,0.60475 -1.59181,-0.16248c-0.54738,0.43376 -1.14708,0.71335 -1.71821,0.56933c-0.22766,-0.05741 -0.43784,-0.12648 -0.63136,-0.2061c-1.07024,0.91956 -2.21705,0.87092 -4.05192,0.39587l-0.9887,-0.19357c0,0 -1.22573,-0.24514 -0.98059,-1.47087c0.24514,-1.22573 1.47087,-0.98059 1.47087,-0.98059l1.18523,0.24122c0.78267,0.25684 1.2595,0.47479 1.65004,0.2824c-0.48584,-1.40299 0.08969,-3.23662 1.12358,-4.65826l-0.43698,-0.08629c-0.01843,-0.11056 -0.03686,-0.22111 -0.05529,-0.33167c-3.12239,-0.42058 -3.67811,-0.91528 -3.06034,-4.40276l1.29081,-1.35496c0,0 0.88387,-0.88389 1.76776,-0.00001c0.88389,0.88388 0.00001,1.76776 0.00001,1.76776l-0.88308,0.81895c-0.62338,1.09335 0.16193,0.60967 1.65899,0.75046c0,0 0.02749,0.00306 0.07385,0.01235c0.00576,-0.00101 0.01155,-0.00201 0.01737,-0.00298c1.23299,-0.20551 1.4385,1.02748 1.4385,1.02748c0.00445,0.0267 0.0089,0.05339 0.01335,0.0801c0.35131,-0.20855 0.7133,-0.35991 1.07516,-0.43897c0.55905,-0.12213 1.14644,-0.12811 1.72749,-0.04792c0.13437,-0.17271 0.32893,-0.33062 0.60778,-0.39538c-0.12282,-1.40498 0.58888,-2.23413 2.55663,-3.00426l0.27108,-0.14958c0,0 1.11804,-0.559 1.67704,0.55904c0.55901,1.11804 -0.55903,1.67704 -0.55903,1.67704l-0.59852,0.2852c-1.33319,0.29255 -1.22495,0.36938 -0.5507,1.58262c0,0 0.20774,0.48473 0.0385,0.95943c0.1964,-0.01344 0.4217,0.02696 0.6759,0.15405zM339.39942,181.80304c-0.06913,-0.19335 -0.07327,-0.37799 -0.04347,-0.54355c-0.87195,-0.02387 -1.77166,0.26444 -2.24734,1.04281c-0.14017,0.22938 -0.32484,1.53273 -0.21713,2.31567c0.22985,0.18887 0.34514,0.40174 0.39318,0.60851c0.39722,-0.01044 0.49873,-1.0721 0.79967,-1.50043c0.44642,-0.63539 0.87928,-1.28023 1.31509,-1.923z" fill="#d1a1a1" stroke="none" stroke-width="0.5"/><path d="M310.22722,144.72245c-0.69338,-1.04006 0.34668,-1.73344 0.34668,-1.73344l0.36946,-0.17559c1.23783,-1.45758 2.10263,-1.87828 3.77891,-1.97031c0.22312,-0.36526 0.50945,-0.74873 0.86555,-1.15112c2.57363,-2.90819 10.23637,-0.84047 12.4769,1.76037c0.00886,0.01029 0.01766,0.02057 0.0264,0.03082c0.07151,-0.26892 0.25652,-0.544 0.66062,-0.74605c1.11804,-0.55901 1.67705,0.55902 1.67705,0.55902c0.1986,0.51686 0.69292,0.9936 1.23377,1.11228l0.69169,-0.06414c0,0 1.25,0 1.25,1.25c0,1.25 -1.25,1.25 -1.25,1.25l-1.48225,-0.06414c-0.65506,-0.25637 -1.2668,-0.67282 -1.77833,-1.18464c0.0713,1.06731 -0.59724,1.93156 -1.57907,2.55415c0.1237,0.19313 0.17198,0.3621 0.17198,0.3621c0.22282,0.80279 0.52136,1.59877 0.95692,2.30898l0.46419,0.41141c0,0 0.88389,0.88389 0,1.76777c-0.88389,0.88388 -1.76776,0 -1.76776,0l-0.84015,-0.89294c-0.53393,-0.90518 -0.92209,-1.89972 -1.217,-2.90842c0,0 -0.0146,-0.05111 -0.02724,-0.13527c-0.37004,0.38969 -0.94476,0.3897 -0.94476,0.3897c-0.62131,0 -1.38638,-0.04362 -2.21601,-0.13952c0.12068,0.66856 -0.46202,1.15414 -0.46202,1.15414c-1.19971,0.97602 -1.57618,1.03219 -1.50675,2.51799v1.30435c0,0 0,1.25 -1.25,1.25c-1.25,0 -1.25,-1.25 -1.25,-1.25v-1.30435c0.02742,-0.99038 0.16269,-1.68446 0.44907,-2.27333c-0.116,-0.10341 -0.22426,-0.24283 -0.3171,-0.42852c-0.55901,-1.11803 0.55901,-1.67705 0.55901,-1.67705l0.08344,-0.04172c-1.08011,-0.33115 -2.08374,-0.76573 -2.85039,-1.32128c-0.93762,1.24438 -1.36905,2.69239 -2.17372,4.13729c-0.04131,0.32295 -0.24411,1.11548 -1.23943,1.11548c-1.25,0 -1.25,-1.25 -1.25,-1.25l0.17813,-0.8605c1.06344,-1.75461 1.59207,-3.42272 2.75827,-4.92233c-0.30145,0.14042 -0.5642,0.4082 -0.92771,0.91152l-0.93489,0.69398c0,0 -1.04006,0.69338 -1.73343,-0.34669zM316.79276,142.35929c0.33418,0.40102 0.36134,0.77414 0.27962,1.07271c0.3245,0.12106 0.70195,0.20875 0.96501,0.30667c1.42393,0.53003 2.62944,0.87847 3.92754,1.061c0.21681,-0.06406 0.38929,-0.06407 0.38929,-0.06407l0.64029,0.01701c0.64328,0.11583 4.8975,-0.39751 3.21445,-1.62508c-1.7939,-1.30841 -8.0381,-4.04631 -9.56266,-0.98323c-0.00077,0.01923 -0.00184,0.03815 -0.00321,0.05676c0.05032,0.04645 0.1003,0.09899 0.14968,0.15823z" fill="#d1a1a1" stroke="none" stroke-width="0.5"/><path d="M330.99555,190.9856c0,0.97392 -0.75882,1.18902 -1.09401,1.23653c-0.61381,0.38316 -1.20262,0.80825 -1.76644,1.2613c0,0 -0.28048,0.22438 -0.66102,0.28223c-0.20414,0.94386 -1.33019,1.61378 -1.90963,2.44612l-1.94648,0.35907c0,0 -1.00174,0.14311 -1.33137,-0.72949c-2.79141,0.53835 -7.27413,0.62739 -6.78136,-1.75872c-0.68498,-0.54654 -1.34039,-1.11694 -2.10524,-1.6222l-0.55663,-1.47485c0,0 0,-1.25 1.25,-1.25c0.91133,0 1.15825,0.66442 1.22514,1.02445c0.51601,0.38864 0.99385,0.80158 1.48658,1.19743c0.64531,-0.52964 1.87019,-0.84817 3.21553,-0.98299c0.00554,-0.19502 0.04476,-0.33228 0.04476,-0.33228c0.37563,-1.12953 1.09205,-2.23917 2.08053,-2.90238l1.29529,-0.17813c0,0 1.25,0 1.25,1.25c0,1.25 -1.25,1.25 -1.25,1.25l-0.00905,-0.17813c-0.40425,0.18678 -0.68804,0.60574 -0.85004,1.04737c1.20499,0.07781 2.26938,0.29529 2.84051,0.63139c0.23728,0.13964 0.51387,0.27805 0.78652,0.42781c0.14751,-0.2855 0.36425,-0.45888 0.36425,-0.45888c0.7355,-0.58609 1.50623,-1.13197 2.31165,-1.61751l0.86053,-0.17814c0,0 1.25,0 1.25,1.25zM324.63421,193.8674c0.04665,-0.05568 0.02141,-0.10433 -0.05873,-0.14659c0.00494,0.01092 0.00982,0.02201 0.01463,0.03324c0.0165,0.03851 0.03117,0.0763 0.0441,0.11335z" fill="#d1a1a1" stroke="none" stroke-width="0.5"/><path d="M291.28517,168c0,-15.85876 12.85607,-28.71483 28.71483,-28.71483c15.85877,0 28.71483,12.85608 28.71483,28.71483c0,15.85876 -12.85606,28.71483 -28.71483,28.71483c-15.85877,0 -28.71483,-12.85608 -28.71483,-28.71483z" fill="none" stroke="#732d2d" stroke-width="3.5"/></g></g></svg>