<svg version="1.1" xmlns="http://www.w3.org/2000/svg" xmlns:xlink="http://www.w3.org/1999/xlink" width="164.48562" height="164.48562" viewBox="0,0,164.48562,164.48562"><g transform="translate(-237.75719,-97.75719)"><g stroke-miterlimit="10"><path d="M291.28517,180.00001c0,-15.85876 12.85607,-28.71483 28.71483,-28.71483c15.85877,0 28.71483,12.85608 28.71483,28.71483c0,15.85876 -12.85606,28.71483 -28.71483,28.71483c-15.85877,0 -28.71483,-12.85608 -28.71483,-28.71483z" fill="#4d9dff" stroke="none" stroke-width="0"/><path d="M318.50378,160.88886c0.50568,-0.53412 1.28553,-0.27416 1.28553,-0.27416l0.77199,0.29668c0.65793,0.42458 1.31587,0.84916 1.9738,1.27374c8.008,9.46124 14.74463,14.92798 7.82387,26.16461l0.11946,0.04778l-0.65078,1.62694c-0.17726,0.47474 -0.63486,0.81279 -1.17141,0.81279c-0.52567,0 -0.97555,-0.32448 -1.16028,-0.78408l-0.47405,-1.10612c-1.76382,-3.53707 -2.92367,-7.39299 -4.27733,-11.10465c-0.24475,-0.67108 -0.64198,-1.44609 -0.8324,-2.24218c-0.12873,0.72143 -0.14917,1.46158 -0.30418,2.178c-0.46073,2.12944 -1.35508,4.06345 -2.59344,5.84246c-1.56762,2.25202 -3.66984,4.84986 -6.90403,4.0278c-1.11881,-0.28438 -2.21584,-1.64751 -3.26273,-1.16106c-7.61047,7.6339 -1.77365,-3.77586 -1.10447,-5.8852c0.30237,-0.95311 -1.79047,-1.3843 -1.82111,-2.38376c-0.0253,-0.82544 1.52449,-1.96336 2.49822,-2.46446c-0.60402,-0.49219 -1.19731,-2.00128 -0.86444,-2.6617c0.08503,-0.16869 3.56191,-1.16172 4.1149,-1.52054c1.38116,-0.89619 1.38338,-4.37857 2.69616,-5.30246c-0.00939,-0.06177 -0.01426,-0.12503 -0.01426,-0.18942c0,-0.24734 0.07184,-0.4779 0.19579,-0.67196l1.29989,-2.11231l0.01332,0.00819l0.01273,-0.04875c0.45025,-0.61963 0.90051,-1.23926 1.35076,-1.8589c0,0 0.51629,-0.70991 1.27848,-0.50727z" fill="#6a7a25" stroke="none" stroke-width="0.5"/><path d="M338.18647,170.60632c1.11805,-0.55899 1.67704,0.55906 1.67704,0.55906l0.21775,0.45088c0.75615,2.27594 3.05296,2.87391 3.56243,5.06241l0.23943,-0.13682l0.12455,0.21797c0.01013,-0.00024 0.02029,-0.00036 0.03048,-0.00036c0.69036,0 1.25,0.55964 1.25,1.25v1.32318c0,0.31901 -0.1195,0.6101 -0.31618,0.83097c-1.15777,5.1419 -3.64175,9.59696 -7.01214,13.59973c-4.88217,9.00228 -15.55105,15.25161 -22.60032,4.7136c-0.34623,-0.15932 -0.77407,-0.51191 -0.67918,-1.27108c0.00009,-0.00073 0.00018,-0.00146 0.00028,-0.00219c-0.06832,-0.36773 -0.01718,-0.87695 0.59695,-1.24543c0.89035,-0.53421 1.48488,0.1149 1.6607,0.35007c2.31818,0.62398 6.98557,2.44354 8.09708,1.88251c7.76595,-3.91986 11.54204,-13.22504 11.6252,-21.18311c-0.06723,-1.35718 -0.11029,-2.72331 0.01336,-4.07652l0.84694,-0.9725c-0.07962,-0.37408 -0.07039,-0.98436 0.66564,-1.35236z" fill="#6a7a25" stroke="none" stroke-width="0.5"/><path d="M293.31759,175.36455c-0.19534,-0.22055 -0.31392,-0.51064 -0.31392,-0.82843c0,-0.16467 0.03184,-0.3219 0.0897,-0.46588l0.48443,-1.2918c0.43547,-1.1981 0.56224,-2.19078 1.08143,-2.93697c0.00629,-0.12559 0.03111,-0.24629 0.07179,-0.35943l0.77223,-2.31668c0.10336,-0.33609 0.34462,-0.61178 0.65774,-0.76105c0.02142,-0.13839 0.06554,-0.26929 0.12844,-0.38876l0.96903,-1.93805c0.17218,-0.36322 0.51431,-0.6302 0.92369,-0.69823l0.33739,-0.47234c0.17754,-0.25521 0.44778,-0.4411 0.76196,-0.50889c1.80049,-2.82843 3.88147,-6.0497 6.41133,-8.17364c0,0 0.96027,-0.80023 1.76051,0.16004c0.48603,0.58323 0.32263,1.10742 0.1194,1.42915c-0.03055,0.40066 -0.1993,0.65764 -0.40321,0.82247c-0.57356,1.59869 -1.50114,2.79597 -1.89194,4.55728c0.07213,0.04421 0.14532,0.098 0.21924,0.16268c0.94072,0.82313 0.11759,1.76385 0.11759,1.76385c-0.8503,0.95188 -1.43817,2.13006 -1.92546,3.30974l-0.01657,0.01697l0.00734,0.00341l-0.83739,1.80533c-0.05233,0.11963 -0.12285,0.2295 -0.20806,0.32609c-0.22391,0.45517 -0.5789,0.88353 -0.79056,1.34121l-0.64728,1.45637c-0.12581,0.30109 -0.36604,0.54245 -0.66634,0.66977c-0.0627,0.67873 -0.24894,1.35889 -0.48897,1.96977l-0.01519,0.01427l0.0078,0.00334l-0.48484,1.1313c-0.15541,0.38666 -0.4985,0.67769 -0.91651,0.76032l-0.45742,0.8386c-0.18605,0.35749 -0.53981,0.61375 -0.95698,0.66451l-0.3709,0.66762c-0.20991,0.39545 -0.62591,0.66477 -1.10482,0.66477c-0.20498,0 -0.39843,-0.04934 -0.56914,-0.13679l-0.56269,0.76965c-0.22665,0.31774 -0.59829,0.52491 -1.01833,0.52491c-0.69036,0 -1.25,-0.55964 -1.25,-1.25v-1.03919c-0.19494,-0.32876 -0.38423,-0.91371 0.20072,-1.49866c0.23616,-0.23616 0.47231,-0.34612 0.69161,-0.38047z" fill="#6a7a25" stroke="none" stroke-width="0.5"/><path d="M300.63965,190.71695c1.18585,-0.39528 1.58114,0.79057 1.58114,0.79057l-0.13657,0.00759c0.36173,0.36262 0.67214,0.77033 0.9431,1.20762c0.12352,0.10646 0.24705,0.21291 0.37057,0.31937l0.11231,-0.08735l1.15094,1.47978c0.16914,0.21322 0.27015,0.48292 0.27015,0.77622c0,0.69036 -0.55964,1.25 -1.25,1.25c-0.38936,0 -0.73714,-0.17802 -0.96639,-0.4571l-0.77024,-0.92428c-0.35388,-0.30144 -0.70775,-0.60287 -1.06163,-0.90431c0,0 -0.36666,-0.31428 -0.44883,-0.78005c-0.04051,-0.03685 -0.0798,-0.07427 -0.11775,-0.11212l-0.46737,-0.98479c0,0 -0.39528,-1.18585 0.79057,-1.58114z" fill="#6a7a25" stroke="none" stroke-width="0.5"/><path d="M329.16614,159.34273c-0.22486,-0.17146 -0.45037,-0.34206 -0.6766,-0.5117c0,0 -1,-0.75 -0.25001,-1.75c0.75,-1 1.75,-0.25001 1.75,-0.25001c0.37002,0.27757 0.73764,0.55833 1.10335,0.84159l0.71603,0.3162c0.32692,0.25221 0.60285,0.56076 0.83588,0.90666c0.14915,0.11925 0.2981,0.23874 0.44688,0.35843l-0.14183,0.15998c0.01461,0.02842 0.029,0.057 0.04317,0.08574l0.18393,-0.15328l0.10196,0.12236l0.18846,-0.10769l0.65071,1.13871c0.11152,0.18704 0.17559,0.40566 0.17559,0.63924c0,0.69036 -0.55964,1.25 -1.25,1.25c-0.38936,0 -0.73713,-0.17802 -0.96638,-0.4571l-0.76,-0.91199c-0.50383,-0.40034 -1.00988,-0.79796 -1.51897,-1.19164l-0.03064,-0.00964c0,0 -0.36276,-0.14511 -0.60154,-0.47588z" fill="#6a7a25" stroke="none" stroke-width="0.5"/><path d="M291.28517,180.00001c0,-15.85876 12.85607,-28.71483 28.71483,-28.71483c15.85877,0 28.71483,12.85608 28.71483,28.71483c0,15.85876 -12.85606,28.71483 -28.71483,28.71483c-15.85877,0 -28.71483,-12.85608 -28.71483,-28.71483z" fill="none" stroke="#3f82d3" stroke-width="3.5"/><path d="M291.30533,181.08606c-0.0134,-0.36036 -0.02016,-0.72242 -0.02016,-1.08605c0,-11.65284 6.94118,-21.68449 16.91448,-26.18587" fill="none" stroke="#4d591b" stroke-width="3.5"/><path d="M310.16654,168.45971c0,1.25 -1.25,1.25 -1.25,1.25h-2.11961c-1.17829,-0.00055 -2.33714,0.1897 -3.44987,0.25668c-0.20625,0.40666 -0.62833,0.68536 -1.1155,0.68536h-2.5v-0.02526l-0.07554,0.02298c-2.93975,-0.35504 -5.13178,-0.50578 -7.18309,-1.78215l-0.26463,0.39694l-1.39695,-0.9313c-0.34463,-0.22257 -0.57275,-0.61005 -0.57275,-1.05081c0,-0.6204 0.45197,-1.13523 1.0446,-1.2332c0.03373,-0.66023 0.57974,-1.18519 1.24835,-1.18519c0.04347,0 0.08642,0.00222 0.12875,0.00655l2.43167,0.22107c0.44747,-0.00043 0.89493,-0.00085 1.34239,-0.00127c0,0 1.25,0 1.25,1.25c0,0.73777 -0.43544,1.0401 -0.79232,1.16398c0.29886,0.06927 0.59557,0.14256 0.88488,0.21438c0.0758,-0.01907 0.15435,-0.03123 0.23494,-0.03575l2.48542,-0.16035l0.01786,0.27691c1.99861,-0.44153 3.94994,-0.58853 6.28177,-0.58956h2.11961c0,0 1.25,0 1.25,1.25z" fill-opacity="0.55686" fill="#d4d4d4" stroke="none" stroke-width="0.5"/><path d="M345.16718,182.87938c0,0 -0.39429,0.06958 -0.77596,-0.09317l-0.9355,0.10275c-0.05059,0.00623 -0.10211,0.00944 -0.15438,0.00944c-0.69036,0 -1.25,-0.55964 -1.25,-1.25c0,-0.62153 0.45362,-1.13711 1.04784,-1.23374l2.43823,-0.44331l0.03103,0.17069c0.08505,-0.0088 0.17088,-0.01646 0.25732,-0.02286c0.74135,-0.25982 1.49716,-0.46981 2.26716,-0.60867l2.00712,-0.05379c0,0 0.1023,-0.00255 0.24909,0.02308l0.05504,-0.00786c0.06451,-0.01027 0.13066,-0.0156 0.19806,-0.0156c0.69036,0 1.25,0.55964 1.25,1.25c0,0.62742 -0.46225,1.14687 -1.06477,1.23637l-2.44571,0.40762l-0.00507,-0.03039c-1.0565,0.18652 -2.11301,0.37298 -3.16952,0.55943z" fill-opacity="0.55686" fill="#d4d4d4" stroke="none" stroke-width="0.5"/><path d="M336.49871,186.0564l0.78093,-0.23367l-0.03087,-0.23215l1.53004,-0.20344c0.0604,-0.00896 0.12222,-0.01361 0.18511,-0.01361c0.69036,0 1.25,0.55964 1.25,1.25c0,0.57561 -0.38907,1.06035 -0.91857,1.20559l-0.16395,0.04905c-0.06887,1.14354 -1.24685,1.14354 -1.24685,1.14354l-1.33555,-0.00241c-0.39951,0.05041 -0.80068,0.07148 -1.20276,0.0717l0.01463,0.07625l-1.93941,0.37217c-0.43895,0.12542 -0.8779,0.25082 -1.31685,0.37624c0,0 -1.20191,0.34341 -1.54531,-0.8585c-0.3434,-1.20191 0.8585,-1.54531 0.8585,-1.54531c0.20402,-0.05829 0.40803,-0.11658 0.61205,-0.17487c0.08478,-0.05066 0.17606,-0.09156 0.27229,-0.12115l2.34437,-0.78145c0.59547,-0.19707 1.21859,-0.31949 1.85217,-0.37799z" fill-opacity="0.55686" fill="#d4d4d4" stroke="none" stroke-width="0.5"/><path d="M307.76862,194.32207c0.09207,0.0442 0.18338,0.08408 0.27398,0.11997c0.32666,-0.61944 1.10944,-0.61944 1.10944,-0.61944c1.52026,0.00058 3.04097,-0.06833 4.55735,-0.17686l0.03339,0.0095l-0.00019,-0.01055l2.49586,-0.04535c0.0088,-0.00018 0.01761,-0.00028 0.02644,-0.00028c0.69036,0 1.25,0.55964 1.25,1.25c0,0.62256 -0.45511,1.13881 -1.05078,1.23421l-0.70418,0.12618c-0.2476,0.81968 -1.19108,0.81969 -1.19108,0.81969h-0.79719c-0.6657,0 -1.28563,0.01236 -1.87419,0.01965c-1.53098,0.34985 -3.08352,0.37192 -4.56501,-0.24359l-0.03449,0.20694l-1.3928,-0.23213c-0.60251,-0.0895 -1.06477,-0.60896 -1.06477,-1.23638c0,-0.69036 0.55964,-1.25 1.25,-1.25h1.41307v0.12987z" fill-opacity="0.55686" fill="#d4d4d4" stroke="none" stroke-width="0.5"/><path d="M317.32254,174.11201c0,-1.25 1.25,-1.25 1.25,-1.25l0.22437,0.02457c3.45274,-0.69469 5.82186,-1.41341 8.62051,-1.26185c0.06489,-0.01054 0.12997,-0.02106 0.19525,-0.03156v-0.37976h2.5c0.69036,0 1.25,0.55964 1.25,1.25c0,0.63082 -0.46728,1.1525 -1.07459,1.23779l-1.9858,0.31355c-2.11521,0.33331 -4.02224,0.69053 -6.14803,0.85822c-1.01314,0.15418 -1.99653,0.28978 -2.86402,0.46446l-0.71768,0.02458c0,0 -1.25,0 -1.25,-1.25z" fill-opacity="0.55686" fill="#d4d4d4" stroke="none" stroke-width="0.5"/><path d="M300.85245,183.33447c0.142,-0.88501 0.81679,-1.03359 1.18726,-1.04682c0.29003,-0.19245 0.59844,-0.23101 0.59844,-0.23101c3.82934,-0.47868 7.51881,-0.22025 11.3634,-0.38681l2.154,-0.09237c0.02049,-0.001 0.04111,-0.00151 0.06185,-0.00151c0.69036,0 1.25,0.55964 1.25,1.25c0,0.64883 -0.49435,1.18221 -1.12695,1.24402l-2.10462,0.23385l-0.01567,-0.14107l-0.1115,0.00478c-0.1518,0.00645 -0.30334,0.01222 -0.45464,0.01738c-3.65396,1.04093 -7.59539,1.23649 -11.3385,0.65029l-0.42688,-0.06849c0,0 -1.23422,-0.19803 -1.03619,-1.43224z" fill-opacity="0.55686" fill="#d4d4d4" stroke="none" stroke-width="0.5"/><path d="M323.88468,201.96804c0,0 -1.24313,0.13085 -1.37399,-1.11228c-0.13085,-1.24313 1.11228,-1.37398 1.11228,-1.37398c0.97339,-0.10246 1.94978,-0.19797 2.92717,-0.29402c0.36833,-0.41939 0.97188,-0.41939 0.97188,-0.41939l2.22567,0.00672c2.41989,-0.51819 4.04263,-0.80004 5.85659,-0.71895c0.06219,-0.01105 0.12436,-0.02221 0.1865,-0.03347l-0.0179,-0.25057l2.48077,-0.1772c0.03362,-0.00271 0.06761,-0.0041 0.10193,-0.0041c0.69036,0 1.25,0.55964 1.25,1.25c0,0.62837 -0.46364,1.14844 -1.06749,1.23677l-1.2808,0.21034c-4.39687,0.87534 -8.91296,1.21068 -13.37261,1.68012z" fill-opacity="0.55686" fill="#d4d4d4" stroke="none" stroke-width="0.5"/><path d="M315.22338,207.83964c-0.05916,-0.02157 -0.11808,-0.04367 -0.17674,-0.06633c0,0 -1.1606,-0.46423 -0.69636,-1.62483c0.46423,-1.1606 1.62483,-0.69636 1.62483,-0.69636c2.94118,1.23317 7.09378,0.60806 10.25819,0.62334l0.11269,0.05855l0.0081,-0.04048l2.33242,0.46648c0.58424,0.10493 1.02756,0.61583 1.02756,1.23027c0,0.67194 -0.53018,1.22004 -1.19503,1.24881l-2.48943,0.12447l-0.01377,-0.27537c-3.0542,0.58862 -6.0483,0.54181 -9.33703,-0.1077l-1.15477,-0.65669c0,0 -0.15174,-0.10116 -0.30066,-0.28415z" fill-opacity="0.55686" fill="#d4d4d4" stroke="none" stroke-width="0.5"/><path d="M294.21674,201.4446c0.69338,-1.04006 1.73344,-0.34669 1.73344,-0.34669l0.13167,0.26672c0.85943,0.08185 1.778,0.08847 2.69788,0.11461c0.27065,-0.9075 1.29113,-0.82246 1.29113,-0.82246c0.84823,0.07107 1.69645,0.14214 2.54468,0.21321l0.05032,0.02378l0.00271,-0.0159l2.44384,0.41679c0.6004,0.09134 1.06043,0.60981 1.06043,1.23572c0,0.63892 -0.47935,1.16588 -1.09804,1.24086l-2.45925,0.33678l-0.0426,-0.31106c-2.05991,0.4612 -3.8405,0.33143 -6.72812,0.05642l-1.2814,-0.67533c0,0 -1.04006,-0.69338 -0.34669,-1.73344z" fill-opacity="0.55686" fill="#d4d4d4" stroke="none" stroke-width="0.5"/><path d="M289.25081,181.86203c0.25147,-0.06342 0.4575,-0.04625 0.4575,-0.04625c0.84823,0.07107 1.69645,0.14214 2.54468,0.21322l0.05025,0.02412l0.00277,-0.01624l2.44384,0.41679c0.6004,0.09134 1.06043,0.60981 1.06043,1.23572c0,0.65498 -0.50376,1.19231 -1.14497,1.24565l-2.47562,0.23515l-0.01443,-0.15193c-0.97978,0.20399 -1.92919,0.17986 -3.65085,-0.0079l-0.8123,-2.34418c0,0 0.38583,-1.1575 1.5387,-0.80415z" fill-opacity="0.55686" fill="#d4d4d4" stroke="none" stroke-width="0.5"/><path d="M341.59086,158.50496c0.25653,-0.29871 0.60865,-0.41609 0.60865,-0.41609l1.25688,-0.29002c0.73363,0.10611 1.59278,-0.10553 2.2009,0.31834c0.08951,0.06239 0.17403,0.12993 0.25434,0.20184l0.03008,-0.03958l1.19963,0.91155c0.30637,0.22782 0.50485,0.59259 0.50485,1.00372c0,0.69036 -0.55964,1.25 -1.25,1.25c-0.05188,0 -0.10301,-0.00316 -0.15323,-0.0093l-2.45011,-0.26702c-0.82155,-0.05861 -1.6431,-0.11722 -2.46465,-0.17584c0,0 -1.24682,-0.08906 -1.15776,-1.33589c0.08906,-1.24682 1.33589,-1.15776 1.33589,-1.15776c0.02818,0.00202 0.05636,0.00403 0.08454,0.00605z" fill-opacity="0.55686" fill="#d4d4d4" stroke="none" stroke-width="0.5"/><path d="M312.11829,149.20396c-0.02374,-0.28314 0.06057,-0.61166 0.3891,-0.94018c0.71976,-0.71974 1.4395,-0.26729 1.68199,-0.07443c1.41543,0.16657 2.5607,0.35374 3.70721,0.65039h0.0761l0.02157,-0.22897l2.4759,0.23325c0.64162,0.05293 1.14584,0.59044 1.14584,1.24572c0,0.69036 -0.55964,1.25 -1.25,1.25h-2.42259c-1.78244,0.29388 -3.4382,0.23551 -5.25868,0.23551c0,0 -1.25,0 -1.25,-1.25c0,-0.6641 0.35282,-0.97537 0.68357,-1.12128z" fill-opacity="0.55686" fill="#d4d4d4" stroke="none" stroke-width="0.5"/><path d="M325.033,161.53556c-0.87383,0.13286 -1.76197,0.35683 -2.89213,0.60798c0,0 -1.22023,0.27116 -1.4914,-0.94907c-0.19872,-0.89424 0.40353,-1.27877 0.73951,-1.42041c0.25332,-0.80729 1.18727,-0.80729 1.18727,-0.80729l0.77224,0.00173c0.92537,0.0487 1.78227,-0.0361 2.5599,-0.00313c0.8821,-0.05207 1.81125,-0.02044 2.9369,0.12327l0.07939,0.06485l0.0122,-0.04186l1.26341,0.36834c0.53372,0.14243 0.92685,0.62922 0.92685,1.20783c0,0.69036 -0.55964,1.25 -1.25,1.25c-0.05286,0 -0.10496,-0.00328 -0.15609,-0.00965l-2.10156,-0.23351l0.02495,-0.22455c-0.85935,0.0681 -1.70269,0.08379 -2.61143,0.06547z" fill-opacity="0.55686" fill="#d4d4d4" stroke="none" stroke-width="0.5"/><path d="M237.7572,180.00001c0,-45.42144 36.82137,-82.24281 82.24281,-82.24281c45.42147,0 82.24281,36.82139 82.24281,82.24281c0,45.42144 -36.82134,82.24281 -82.24281,82.24281c-45.42147,0 -82.24281,-36.8214 -82.24281,-82.24281z" fill="none" stroke="none" stroke-width="0"/></g></g></svg>