<svg version="1.1" xmlns="http://www.w3.org/2000/svg" xmlns:xlink="http://www.w3.org/1999/xlink" width="319.48562" height="319.48562" viewBox="0,0,319.48562,319.48562"><g transform="translate(-160.25723,-20.25724)"><g stroke-miterlimit="10"><path d="M264.52835,185.79677c-3.20145,-30.63615 19.03878,-58.06695 49.67493,-61.2684c30.63617,-3.20145 58.06696,19.0388 61.2684,49.67493c3.20145,30.63615 -19.03876,58.06695 -49.67493,61.2684c-30.63617,3.20145 -58.06696,-19.0388 -61.2684,-49.67493z" fill="#b04545" stroke="none" stroke-width="0"/><path d="M264.54616,185.96459c2.68937,-1.45303 4.98054,-3.47759 8.76172,-3.62739c11.11064,-0.44015 22.37915,0.82438 33.6833,0.54556c11.33248,-0.27952 22.64196,-2.13941 34.02716,-1.63666c6.67208,0.29462 12.87139,2.54874 19.4305,3.51551c5.22172,0.76964 10.06203,-0.96114 15.21242,-1.08216c-0.44953,6.92581 -2.18251,13.55856 -4.98358,19.63263c-11.0596,-0.22504 -22.13919,-0.76766 -33.13548,-0.42388c-1.64894,0.05155 -3.27635,1.08114 -4.90304,1.09111c-2.05503,0.0126 -11.29119,0.93426 -12.71244,0.42207c-4.54066,-1.63637 -8.61651,-1.2725 -13.28047,-2.23065c-2.77587,-0.57027 -5.55005,-1.80308 -8.38394,-2.01029c-3.05867,-0.22365 -6.18937,1.4759 -9.19554,0.89574c-5.91532,-1.14159 -12.14656,-5.12327 -18.24774,-5.29794c-0.21706,-0.00621 -0.42286,0.0163 -0.61893,0.06364c-1.26114,0.12821 -2.38369,0.72512 -3.19072,1.61376c-1.19909,-3.65631 -2.03556,-7.49248 -2.46323,-11.47105z" fill="#a36767" stroke="none" stroke-width="0"/><path d="M325.79677,235.4717c-23.16116,2.42032 -44.49028,-9.70047 -54.90308,-28.99699c3.33966,1.05137 16.44875,4.96525 19.8055,4.73824c2.03927,-0.13791 4.87939,-1.47011 6.86285,-1.05249c7.50723,1.58064 15.24451,3.56807 22.79521,4.36443c5.72464,0.60377 12.30527,-1.61406 17.99635,-1.63667c7.20092,-0.0286 14.38574,0.1247 21.60676,0.27278c0.83522,0.01713 2.47773,0.23208 4.53535,0.46739c-8.99185,11.89245 -22.70063,20.17152 -38.69894,21.84332z" fill="#a36767" stroke="none" stroke-width="0"/><path d="M269.54116,156.21926c1.68084,0.82314 3.71427,1.52056 4.39015,1.8585c5.97961,2.9898 11.32171,5.08439 18.05712,4.89229c4.74752,-0.1354 9.67681,-1.02618 14.45714,-0.81833c3.96133,0.17224 9.10193,1.15982 13.09332,0.27278c7.67994,-1.70675 16.07502,-3.31635 23.57777,-5.7739c3.93676,-1.2895 7.391,-3.55347 11.299,-4.85088c1.04823,-0.348 7.30417,-1.36776 12.09834,-2.59629c4.81119,7.25339 7.99038,15.74339 8.95767,24.99987c0.00007,0.00073 0.00016,0.00146 0.00023,0.0022c-4.47052,0.39979 -8.84065,1.55643 -13.50125,0.66367c-6.80374,-1.30328 -13.38697,-3.355 -20.33682,-3.62306c-11.83785,-0.45659 -23.4881,1.33628 -35.25822,1.63666c-7.81754,0.1995 -15.73494,-0.6134 -23.44228,-0.54556c-3.95596,0.03482 -12.12068,-0.1496 -18.40106,1.71977c0.66703,-6.2845 2.39189,-12.29853 5.00889,-17.83772z" fill="#a36767" stroke="none" stroke-width="0"/><path d="M288.76639,133.77891c0.02686,0.06165 0.05494,0.12266 0.08418,0.18298c-0.10826,1.5698 3.40022,2.90699 4.4981,3.29909c0.7817,0.27918 2.83258,-0.02326 3.20785,0.5601c0.50452,0.78428 0.65465,1.85298 1.38801,2.42903c1.22812,0.96468 6.00033,1.10592 7.64587,1.49438c3.73489,0.88169 7.52954,1.17567 11.27459,0.23941c2.19448,-0.54862 3.71687,-4.13695 6.41809,-3.45926c0.84339,0.21159 1.25256,1.43186 2.52304,1.56329c6.32981,0.6548 13.65361,-2.44558 19.15489,-5.19622c0.77127,-0.38564 2.57601,-1.25344 4.52562,-2.2365c3.51693,2.19376 6.78125,4.77217 9.72886,7.68329c-0.77567,0.18292 -1.43525,0.33114 -1.92212,0.40683c-6.26002,0.9732 -11.24126,4.62536 -17.23327,6.37148c-6.91208,2.01423 -14.48774,3.89849 -21.41987,5.30769c-2.71145,0.5512 -8.98854,-0.30394 -11.9285,-0.30394c-6.21515,0 -12.31191,0.88048 -18.5491,0.84949c-4.60838,-0.0229 -8.78654,-4.12103 -13.22134,-5.84049c3.78794,-5.18908 8.46102,-9.71912 13.8251,-13.35065z" fill="#813333" stroke="none" stroke-width="0"/><path d="M314.2033,124.52837c8.31895,-0.86932 16.40156,0.13728 23.82688,2.67851c-0.36429,0.18098 -0.73122,0.35637 -1.10302,0.52143c-1.60996,0.71473 -4.15524,1.7951 -5.96423,1.65215c-1.52177,-0.12026 -3.45907,-1.08357 -5.15015,-1.2331c-5.42492,-0.4797 -11.32745,2.44696 -16.25295,3.81348c-1.02981,0.28571 -6.99014,-2.31053 -10.64765,-3.60987c4.77558,-1.94728 9.90353,-3.25959 15.29111,-3.82259z" fill="#a36767" stroke="none" stroke-width="0"/><path d="M264.75318,187.65273c1.45744,-0.02624 3.26829,-0.7466 4.69379,-0.8359c6.32817,-0.39642 12.59071,-1.02566 18.923,-1.09027c4.62835,-0.04723 9.02565,1.11485 13.61766,1.38405c6.63026,0.38869 13.79713,0.17467 20.41915,-0.20936c14.33474,-0.83131 28.89294,-2.411 43.29076,-0.77712c3.59441,0.40789 6.59002,0.98951 9.63411,0.98352c-0.82934,6.5003 -2.79175,12.69436 -5.70086,18.35229c-0.35062,-0.1527 -0.64754,-0.25078 -0.84963,-0.27943c-4.58609,-0.65029 -13.43499,1.50215 -19.54023,0.79981c-3.61116,-0.41542 -14.32448,-0.63452 -18.0772,-0.50803c-4.33319,0.14605 -9.84573,2.47825 -14.35397,2.08004c-9.53162,-0.84192 -18.59111,-4.00724 -28.19364,-4.0776c-4.32904,-0.03172 -13.94457,-2.916 -18.31883,-1.21926c-0.20386,0.07907 -0.38793,0.18163 -0.55541,0.30386c-0.20783,0.11481 -0.40619,0.24383 -0.59389,0.38562c-2.14412,-4.75394 -3.64897,-9.8837 -4.39483,-15.29222z" fill="#9d4a4a" stroke="none" stroke-width="0"/><path d="M325.79677,235.4717c-20.71383,2.16458 -39.96234,-7.30133 -51.24734,-23.12913c0.23611,0.0245 0.39852,0.04051 0.45633,0.04932c6.18957,0.94314 12.04998,0.97734 18.34605,1.14509c6.47494,0.17253 12.39123,4.0974 18.63472,4.17072c6.85036,0.08044 13.50482,-1.3018 20.30645,-1.97189c7.15882,-0.70528 15.20463,0.32896 22.44261,0.46186c1.98299,0.03641 4.74733,0.23575 7.5606,0.15839c-8.95482,10.42169 -21.75472,17.57484 -36.4994,19.11564z" fill="#a24141" stroke="none" stroke-width="0"/><path d="M267.84281,160.20913c0.01893,0.00608 0.03691,0.01188 0.05393,0.0174c7.96016,2.58593 15.37622,4.24139 23.65458,5.23444c27.38151,3.28459 50.83998,-6.5112 76.76506,-13.34972c3.80244,6.57904 6.31449,14.04599 7.15529,22.09205c0.11543,1.10467 0.1978,2.20518 0.24788,3.30053c-0.08987,0.00566 -0.1801,0.00914 -0.27073,0.01023c-5.40413,0.0654 -10.27082,-1.81635 -15.84079,-1.30185c-5.51319,0.50926 -11.57341,-0.92692 -17.19027,-0.56938c-1.12106,0.07136 -2.45751,-0.95739 -3.81067,-0.81599c-2.9974,0.31322 -5.88709,1.56107 -8.98009,1.85689c-14.52666,1.38933 -29.33019,-0.03066 -43.75873,-0.99539c-2.74523,-0.18356 -15.73933,0.13141 -21.58294,1.58075c0.28415,-5.94775 1.51493,-11.68985 3.55747,-17.05997z" fill="#9d4a4a" stroke="none" stroke-width="0"/><path d="M288.8386,133.7301c0.23715,0.02233 0.47638,0.03625 0.71736,0.04151c3.96616,0.84319 8.68321,1.4842 12.68149,1.9252c14.15349,1.5611 29.69823,-0.4652 43.30047,-5.28741c6.22836,3.21479 11.80462,7.57774 16.42134,12.8396c-10.37954,2.90648 -20.68701,6.32556 -30.95462,9.11197c-14.4029,3.90865 -29.62035,4.85533 -44.45758,2.64309c-4.89109,-0.72926 -9.57869,-2.32407 -14.27479,-3.8677c4.1812,-6.90218 9.83098,-12.86174 16.56633,-17.40626z" fill="#9d4a4a" stroke="none" stroke-width="0"/><path d="M265.60236,192.33732c0.5324,0.08098 0.97305,0.14359 1.27053,0.19175c9.97148,1.61433 20.29864,1.12953 30.39536,0.7553c14.06297,-0.52123 24.57401,-1.5645 39.16644,-1.99108c13.4504,-0.3932 25.99543,-0.38813 38.53665,-1.78242c-0.36461,2.11398 -0.84953,4.19166 -1.44812,6.22485c-1.18807,0.40657 -2.38092,0.79962 -3.57956,1.17633c-21.19421,6.66101 -43.60445,6.86217 -65.50337,4.50936c-8.14016,-0.87457 -16.86115,-0.63946 -24.82315,-2.22884c-2.88378,-0.57566 -6.7169,-2.29845 -10.20016,-3.08864c-0.69372,-0.19528 -1.41551,-0.31696 -2.15539,-0.35695c-0.26759,-0.02462 -0.53102,-0.04008 -0.78956,-0.04524c-0.32315,-1.10635 -0.61345,-2.22815 -0.86966,-3.36442z" fill="#b77d7d" stroke="none" stroke-width="0"/><path d="M325.79677,235.4717c-17.48753,1.82743 -33.93066,-4.63475 -45.41921,-16.21625c4.95529,0.51514 9.95626,0.76373 15.07482,1.29531c19.0019,1.97343 38.70536,3.99554 57.67177,0.66403c1.89558,-0.33297 3.76832,-0.69828 5.62209,-1.09354c-8.64875,8.36377 -20.0555,14.00304 -32.94947,15.35045z" fill="#b77d7d" stroke="none" stroke-width="0"/><path d="M266.04678,165.80712c1.1259,1.09603 2.5043,1.92372 4.02638,2.39482c0.30723,0.09509 0.62032,0.17565 0.93838,0.24096c2.97409,0.70896 6.44696,1.07065 7.01939,1.15381c11.06658,1.60766 22.59733,0.92649 33.79453,0.35053c20.60295,-1.05977 40.67471,-4.31836 60.44298,-9.44663c1.04285,2.80136 1.86984,5.71677 2.45896,8.72841c-12.56308,1.79976 -24.1527,2.41258 -37.9543,2.17771c-15.47069,-0.26327 -30.65749,1.99815 -46.10975,2.0066c-5.33391,0.00292 -10.66944,0.09271 -16.00165,-0.04183c-3.15641,-0.07964 -6.55876,-1.33461 -9.84271,-1.57274c0.30039,-2.03108 0.71158,-4.03066 1.22779,-5.99162z" fill="#b77d7d" stroke="none" stroke-width="0"/><path d="M278.14591,143.1358c7.49626,1.0914 14.48795,0.88037 22.38493,0.215c16.64689,-1.4026 32.82098,-4.65285 49.34577,-6.93751c1.40652,-0.19447 2.82691,-0.36626 4.25831,-0.52139c2.6458,2.04815 5.10742,4.33215 7.35106,6.82456c-8.96999,2.24579 -18.03793,4.14059 -27.14854,5.38173c-15.44937,2.10466 -31.3856,2.66894 -46.96091,2.33098c-4.2812,-0.09289 -9.01828,-1.82576 -13.42789,-1.89502c1.28823,-1.8834 2.69022,-3.68642 4.19728,-5.39834z" fill="#b77d7d" stroke="none" stroke-width="0"/><path d="M298.73683,230.00294c3.65751,-1.29934 9.61784,-3.89558 10.64765,-3.60987c4.9255,1.36652 10.82803,4.29318 16.25295,3.81348c1.69108,-0.14953 3.62838,-1.11284 5.15015,-1.2331c1.80899,-0.14296 4.35427,0.93741 5.96423,1.65214c0.3718,0.16506 0.73873,0.34045 1.10302,0.52143c-7.42532,2.54123 -15.50793,3.54782 -23.82688,2.67851c-5.38759,-0.563 -10.51553,-1.87531 -15.29111,-3.82259z" fill="#a36767" stroke="none" stroke-width="0"/><path d="M264.52835,185.79677c-3.20145,-30.63615 19.03878,-58.06695 49.67493,-61.2684c30.63617,-3.20145 58.06696,19.0388 61.2684,49.67493c3.20145,30.63615 -19.03876,58.06695 -49.67493,61.2684c-30.63617,3.20145 -58.06696,-19.0388 -61.2684,-49.67493z" fill="none" stroke="#732d2d" stroke-width="3.5"/><path d="M160.25724,180.00005c0,-88.2235 71.51931,-159.74281 159.74281,-159.74281c88.22356,0 159.74281,71.51935 159.74281,159.74281c0,88.2235 -71.51925,159.74281 -159.74281,159.74281c-88.22356,0 -159.74281,-71.51937 -159.74281,-159.74281z" fill="none" stroke="none" stroke-width="0"/></g></g></svg>