<svg version="1.1" xmlns="http://www.w3.org/2000/svg" xmlns:xlink="http://www.w3.org/1999/xlink" width="329.7716" height="329.7716" viewBox="0,0,329.7716,329.7716"><defs><radialGradient cx="240.00001" cy="180.00001" r="99.32498" gradientUnits="userSpaceOnUse" id="color-1"><stop offset="0" stop-color="#ff1919"/><stop offset="1" stop-color="#ff1919" stop-opacity="0"/></radialGradient><radialGradient cx="240" cy="180.00001" r="164.8858" gradientUnits="userSpaceOnUse" id="color-2"><stop offset="0" stop-color="#ff1919"/><stop offset="1" stop-color="#ff1919" stop-opacity="0"/></radialGradient></defs><g transform="translate(-75.1142,-15.1142)"><g stroke="none" stroke-miterlimit="10"><path d="M140.67503,180.00001c0,-54.85566 44.46931,-99.32498 99.32498,-99.32498c54.85566,0 99.32498,44.46931 99.32498,99.32498c0,54.85566 -44.46931,99.32498 -99.32498,99.32498c-54.85566,0 -99.32498,-44.46931 -99.32498,-99.32498z" fill="url(#color-1)" fill-rule="nonzero" stroke-width="0"/><path d="M75.1142,180.00001c0,-91.06389 73.82189,-164.8858 164.8858,-164.8858c91.06389,0 164.8858,73.82189 164.8858,164.8858c0,91.06389 -73.82189,164.8858 -164.8858,164.8858c-91.06389,0 -164.8858,-73.82189 -164.8858,-164.8858z" fill="url(#color-2)" fill-rule="nonzero" stroke-width="0"/><path d="M239.01001,241.44001c0,-16.15 -6.04,-30.27 -18.11,-42.34c-12.07,-12.07 -26.18,-18.11 -42.34,-18.11v-1.98c16.16,0 30.27,-6.04 42.34,-18.14c12.07,-12.1 18.11,-26.21 18.11,-42.31h1.98c0,16.15 6.04,30.27 18.11,42.34c12.07,12.07 26.18,18.11 42.34,18.11v1.98c-16.15,0 -30.27,6.04 -42.34,18.11c-12.07,12.07 -18.11,26.18 -18.11,42.34z" fill="#ff0000" fill-rule="evenodd" stroke-width="1"/><path d="M239.06305,238.14837c0,-15.28477 -5.71641,-28.64828 -17.13975,-40.07164c-11.42336,-11.42336 -24.7774,-17.13975 -40.07164,-17.13975v-1.87393c15.29424,0 28.64828,-5.71641 40.07164,-17.16815c11.42336,-11.45174 17.13975,-24.80581 17.13975,-40.04325h1.87393c0,15.28476 5.7164,28.64829 17.13975,40.07164c11.42336,11.42336 24.77741,17.13975 40.07164,17.13975v1.87393c-15.28477,0 -28.64828,5.71641 -40.07164,17.13975c-11.42335,11.42336 -17.13975,24.7774 -17.13975,40.07164z" fill="#ffffff" fill-rule="evenodd" stroke-width="1"/></g></g></svg>