<svg version="1.1" xmlns="http://www.w3.org/2000/svg" xmlns:xlink="http://www.w3.org/1999/xlink" width="616.73772" height="616.73772" viewBox="0,0,616.73772,616.73772"><defs><radialGradient cx="320" cy="180" r="308.36886" gradientUnits="userSpaceOnUse" id="color-1"><stop offset="0" stop-color="#ff0000"/><stop offset="1" stop-color="#ff0000" stop-opacity="0"/></radialGradient><radialGradient cx="320" cy="180" r="216.22694" gradientUnits="userSpaceOnUse" id="color-2"><stop offset="0" stop-color="#0017ff"/><stop offset="1" stop-color="#0017ff" stop-opacity="0"/></radialGradient><radialGradient cx="320" cy="180" r="105.86433" gradientUnits="userSpaceOnUse" id="color-3"><stop offset="0" stop-color="#ff0000"/><stop offset="1" stop-color="#ff0000" stop-opacity="0"/></radialGradient><linearGradient x1="164.65293" y1="179.99999" x2="475.34706" y2="179.99999" gradientUnits="userSpaceOnUse" id="color-4"><stop offset="0" stop-color="#ff0000"/><stop offset="1" stop-color="#2b00ff"/></linearGradient><linearGradient x1="214.13568" y1="180" x2="425.86434" y2="180" gradientUnits="userSpaceOnUse" id="color-5"><stop offset="0" stop-color="#ff8c8c"/><stop offset="1" stop-color="#9a8cff"/></linearGradient></defs><g transform="translate(-11.63114,128.36886)"><g stroke="none" stroke-miterlimit="10"><path d="M11.63114,180c0,-170.3074 138.06144,-308.36886 308.36886,-308.36886c170.3074,0 308.36886,138.06144 308.36886,308.36886c0,170.3074 -138.06144,308.36886 -308.36886,308.36886c-170.3074,0 -308.36886,-138.06144 -308.36886,-308.36886z" fill="url(#color-1)" fill-rule="nonzero" stroke-width="0"/><path d="M103.77306,180c0,-119.41883 96.8081,-216.22694 216.22694,-216.22694c119.41883,0 216.22694,96.8081 216.22694,216.22694c0,119.41883 -96.8081,216.22694 -216.22694,216.22694c-119.41883,0 -216.22694,-96.8081 -216.22694,-216.22694z" fill="url(#color-2)" fill-rule="nonzero" stroke-width="0"/><path d="M214.13567,180c0,-58.46725 47.39708,-105.86433 105.86433,-105.86433c58.46725,0 105.86433,47.39708 105.86433,105.86433c0,58.46725 -47.39708,105.86433 -105.86433,105.86433c-58.46725,0 -105.86433,-47.39708 -105.86433,-105.86433z" fill="url(#color-3)" fill-rule="nonzero" stroke-width="0"/><path d="M317.49685,335.34707c0,-40.83424 -15.27175,-76.53575 -45.78997,-107.05395c-30.51822,-30.51822 -66.19443,-45.78997 -107.05395,-45.78997v-5.00629c40.85952,0 76.53575,-15.27175 107.05395,-45.86582c30.51822,-30.59407 45.78997,-66.27029 45.78997,-106.97812h5.00629c0,40.83424 15.27175,76.53575 45.78997,107.05395c30.51822,30.51822 66.19443,45.78997 107.05395,45.78997v5.00629c-40.83424,0 -76.53575,15.27175 -107.05395,45.78997c-30.51822,30.51822 -45.78997,66.19443 -45.78997,107.05395z" fill="url(#color-4)" fill-rule="evenodd" stroke-width="1"/><path d="M318.29418,285.86433c0,-27.82731 -10.40724,-52.15678 -31.20447,-72.95403c-20.79725,-20.79725 -45.10949,-31.20447 -72.95403,-31.20447v-3.41165c27.84455,0 52.15678,-10.40724 72.95403,-31.25616c20.79725,-20.84892 31.20447,-45.16121 31.20447,-72.90235h3.41165c0,27.82727 10.40723,52.15679 31.20447,72.95403c20.79725,20.79725 45.10951,31.20447 72.95403,31.20447v3.41165c-27.82731,0 -52.15678,10.40724 -72.95403,31.20447c-20.79724,20.79725 -31.20447,45.10949 -31.20447,72.95403z" fill="url(#color-5)" fill-rule="evenodd" stroke-width="1"/></g></g></svg>