<svg version="1.1" xmlns="http://www.w3.org/2000/svg" xmlns:xlink="http://www.w3.org/1999/xlink" width="2961.08108" height="2961.08108" viewBox="0,0,2961.08108,2961.08108"><defs><radialGradient cx="319.99997" cy="180.00003" r="1480.54054" gradientUnits="userSpaceOnUse" id="color-1"><stop offset="0" stop-color="#000000"/><stop offset="1" stop-color="#000000" stop-opacity="0"/></radialGradient><radialGradient cx="320.00002" cy="180.00003" r="253.15631" gradientUnits="userSpaceOnUse" id="color-2"><stop offset="0" stop-color="#000000"/><stop offset="1" stop-color="#000000"/></radialGradient><radialGradient cx="320.00002" cy="180.00003" r="90.99415" gradientUnits="userSpaceOnUse" id="color-3"><stop offset="0" stop-color="#ffffff"/><stop offset="1" stop-color="#000000"/></radialGradient></defs><g transform="translate(1160.54054,1300.54051)"><g stroke="none" stroke-width="0" stroke-miterlimit="10"><path d="M-1160.54054,180.00003c0,-817.68049 662.86005,-1480.54054 1480.54054,-1480.54054c817.68049,0 1480.54054,662.86005 1480.54054,1480.54054c0,817.68049 -662.86005,1480.54054 -1480.54054,1480.54054c-817.68049,0 -1480.54054,-662.86005 -1480.54054,-1480.54054z" fill="url(#color-1)"/><path d="M66.8437,180.00003c0,-139.81438 113.34193,-253.15631 253.15631,-253.15631c139.81438,0 253.15631,113.34193 253.15631,253.15631c0,139.81438 -113.34193,253.15631 -253.15631,253.15631c-139.81438,0 -253.15631,-113.34193 -253.15631,-253.15631z" fill="url(#color-2)"/><path d="M229.00587,180.00003c0,-50.25468 40.73946,-90.99415 90.99415,-90.99415c50.25468,0 90.99415,40.73946 90.99415,90.99415c0,50.25468 -40.73946,90.99415 -90.99415,90.99415c-50.25468,0 -90.99415,-40.73946 -90.99415,-90.99415z" fill="url(#color-3)"/></g></g></svg>