<svg version="1.1" xmlns="http://www.w3.org/2000/svg" xmlns:xlink="http://www.w3.org/1999/xlink" width="170.02628" height="170.02628" viewBox="0,0,170.02628,170.02628"><defs><radialGradient cx="320.00005" cy="168.00003" r="84.98814" gradientUnits="userSpaceOnUse" id="color-1"><stop offset="0" stop-color="#06010c"/><stop offset="1" stop-color="#060010"/></radialGradient></defs><g transform="translate(-234.98687,-82.98689)"><g stroke-miterlimit="10"><path d="M320.00001,83.0119c46.93764,0 84.98814,38.05047 84.98814,84.98814c0,46.93764 -38.05047,84.98814 -84.98814,84.98814c-46.93764,0 -84.98813,-38.05047 -84.98813,-84.98814c0,-46.93764 38.05046,-84.98814 84.98813,-84.98814z" fill="url(#color-1)" stroke="#5600ce" stroke-width="0.05"/><path d="M257.46609,150.2616c0.38474,-0.76949 0.90188,-1.14178 1.41474,-1.29912c-4.34557,-2.30831 -5.94171,-8.32963 -4.03993,-15.30878c4.62596,-16.97638 35.26676,-43.56663 46.10482,-17.43106c0.12831,1.57558 0.51611,3.15139 0.38491,4.72672c-0.65155,7.82325 -7.75134,15.55943 -12.12008,21.67349c-2.92816,4.09797 -5.81954,8.173 -10.80071,9.83094c-5.48998,1.82729 -12.08517,1.16728 -17.80659,1.73958l-2.01911,-0.57767c0,0 -2.23607,-1.11802 -1.11805,-3.3541z" fill="#000000" stroke="none" stroke-width="0.5"/><path d="M349.16581,163.65905c0.14155,1.67061 0.62566,3.34733 0.42465,5.01183c-0.83909,6.94818 -7.72723,12.76043 -14.03554,14.72929c-0.39581,0.12354 -0.79503,0.22884 -1.19698,0.31856c2.55183,1.92547 4.79427,4.40412 6.61661,7.65843c6.88228,12.29029 -2.33205,23.70747 -11.99452,30.81948c-1.299,0.95612 -2.45496,2.15513 -3.91072,2.84963c-4.29468,2.04885 -6.44406,1.67499 -11.01741,1.85282l-3.38643,-1.40545c-9.89707,0.85669 -21.45189,-5.55832 -24.97622,-14.8731c-6.0404,-15.96471 7.62092,-30.18212 22.27082,-33.35205c-11.41237,-14.83743 21.82068,-46.7657 41.20575,-13.60944z" fill="#000000" stroke="none" stroke-width="0.5"/><path d="M381.67256,217.70398c0.17992,0.12072 0.36069,0.27457 0.54,0.46768c1.70112,1.83199 -0.13086,3.53311 -0.13086,3.53311c-8.19748,7.53306 -29.85379,12.68628 -33.84699,-2.88501c-5.2169,-20.34304 21.56495,-37.70495 38.62796,-36.64072c1.90801,0.88638 4.25274,1.15535 5.72405,2.65915c4.77713,4.88263 2.33273,11.48438 0.58531,16.85082c-2.17783,6.68825 -6.27702,11.9645 -11.49947,16.01496z" fill="#000000" stroke="none" stroke-width="0.5"/><path d="M333.91146,141.16968c-0.33855,1.94672 -2.45456,1.94672 -2.45456,1.94672c-1.36302,-0.04698 -2.82921,0.38134 -4.08907,-0.14093c-1.68999,-0.70057 -3.12647,-1.989 -4.34364,-3.35477c-3.82648,-4.29363 -2.96142,-11.80315 2.77106,-13.98538c-3.83641,-0.61725 -7.64114,-2.45493 -10.96884,-5.81725c-11.57493,-11.69536 2.37989,-37.40919 12.11292,-26.88815c0.17306,-0.04157 0.34674,-0.08022 0.52104,-0.11579c6.88293,-1.4044 13.86611,1.3791 19.56354,4.75647c6.65479,13.62132 -3.34618,26.31856 -15.36446,28.09294c5.3098,2.04511 8.67286,9.20993 4.21633,14.35049c-0.51333,0.59213 -1.20249,0.92705 -1.96431,1.15566z" fill="#000000" stroke="none" stroke-width="0.5"/><path d="M375.33533,158.31911c0.07428,-0.32185 0.18126,-0.59136 0.31101,-0.81675c-30.80788,-17.5474 -14.69288,-66.03838 16.28094,-31.63313c3.27296,7.0824 5.95108,14.58465 6.28017,22.46167c0.19708,4.71727 -0.96582,9.40564 -5.32009,12.2512c-3.33515,2.17956 -7.47665,1.73014 -11.14889,1.76268l-4.52931,-1.02755c0,0 -2.43598,-0.56215 -1.87383,-2.99813z" fill="#000000" stroke="none" stroke-width="0.5"/><path d="M250.75951,173.36548l0.0721,-0.02078c1.78321,1.03672 3.42278,2.34271 4.88834,3.79418c4.03389,5.36172 14.34687,17.30186 11.59448,24.53781c-3.91623,10.29564 -13.48396,3.84302 -17.74319,-1.47394c-6.87269,-8.57943 -12.11546,-42.12822 1.18826,-26.83726z" fill="#000000" stroke="none" stroke-width="0.5"/><path d="M304.0261,239.61482c0.39448,-0.01737 0.79633,-0.03762 1.20677,-0.05986c0,0 2.49655,-0.1314 2.62794,2.36515c0.13139,2.49654 -2.36515,2.62794 -2.36515,2.62794c-8.08027,0.41368 -17.2579,-0.33908 -22.87969,-7.03902c-2.12701,-2.53493 -5.0761,-5.55663 -1.86259,-9.28096c1.02754,-1.19089 3.02483,-1.06794 4.59773,-1.06185c1.32867,0.00514 2.56965,0.68242 3.83281,1.0945c4.19039,1.36703 8.29313,2.91004 11.42496,6.15216c0.90526,0.93715 2.95735,3.09471 3.41722,5.20192z" fill="#000000" stroke="none" stroke-width="0.5"/><path d="M338.54577,245.69604c0.10065,0.20181 0.18392,0.43538 0.24395,0.70549c0.54234,2.44046 -1.89812,2.98281 -1.89812,2.98281c-3.21436,0.69899 -10.21643,2.21913 -12.39725,-1.69121c-1.08859,-1.95191 -0.81249,-4.55441 -0.1938,-6.70201c0.98525,-3.41999 10.14122,-5.92876 12.58782,-5.24241c5.86622,1.64567 6.77549,5.27439 2.7185,9.17955c-0.31903,0.30709 -0.67729,0.55629 -1.0611,0.76778z" fill="#000000" stroke="none" stroke-width="0.5"/><path d="M291.87989,168.18375c-0.98347,0.51875 -1.96629,0.99886 -2.93547,0.66045c-7.2045,-2.51561 -5.90864,-6.44225 -2.76962,-11.31503c0.98643,-1.53126 2.20848,-3.47152 4.01467,-3.70714c8.00664,-1.04449 9.11991,8.80874 5.10947,13.11091c-0.83324,0.89384 -2.15876,1.02158 -3.41905,1.25082z" fill="#000000" stroke="none" stroke-width="0.5"/><path d="M362.24579,178.12898c0.32174,-2.47921 2.80095,-2.15748 2.80095,-2.15748l0.22218,0.03274c-1.06869,-2.68513 -2.11167,-5.38635 -2.93307,-8.11139c-0.60919,-2.02105 -2.54614,-4.3114 -1.50934,-6.1501c1.20869,-2.14353 4.29606,-2.60449 6.71141,-3.0754c3.65747,-0.71308 6.0437,3.00575 7.99041,5.04588c3.27559,3.43277 7.7083,9.93627 3.12995,14.77108c-1.61185,1.70213 -3.89023,2.31869 -6.21549,2.55962c0.03274,0.7597 -0.20557,1.82592 -1.62146,2.35688c-2.34082,0.87781 -3.21863,-1.46301 -3.21863,-1.46301c-0.08551,-0.22801 -0.17188,-0.4561 -0.25901,-0.68427c-0.04569,0.00178 -0.09117,0.00364 -0.13643,0.00558l-2.80401,-0.32918c0,0 -2.47921,-0.32173 -2.15747,-2.80094z" fill="#000000" stroke="none" stroke-width="0.5"/><path d="M296.68895,87.06304c0.55705,-0.81005 1.54581,-1.05724 1.54581,-1.05724l2.68855,-0.67078c1.68483,-0.17506 3.50769,-1.21561 5.0545,-0.52518c4.20747,1.87805 3.69977,6.46745 1.62584,9.47056c-0.7553,1.0937 -2.27594,1.38078 -3.47062,1.96336c-3.01619,1.47083 -5.93233,3.34936 -9.21172,4.06094c-4.26939,0.92639 -7.84722,0.88291 -8.02211,-4.98631c-0.04092,-1.37335 1.40369,-2.38284 2.31838,-3.40807c2.8241,-3.1654 3.57125,-3.05959 7.2844,-4.77662c0,0 0.06844,-0.03111 0.18697,-0.07067z" fill="#000000" stroke="none" stroke-width="0.5"/></g></g></svg>