<svg version="1.1" xmlns="http://www.w3.org/2000/svg" xmlns:xlink="http://www.w3.org/1999/xlink" width="164.48562" height="164.48562" viewBox="0,0,164.48562,164.48562"><g transform="translate(-237.75719,-97.75719)"><g stroke-miterlimit="10"><path d="M291.28517,180.00001c0,-15.85876 12.85607,-28.71483 28.71483,-28.71483c15.85877,0 28.71483,12.85608 28.71483,28.71483c0,15.85876 -12.85606,28.71483 -28.71483,28.71483c-15.85877,0 -28.71483,-12.85608 -28.71483,-28.71483z" fill="#b0a7a7" stroke="none" stroke-width="0"/><path d="M291.28517,180.00001c0,-15.85876 12.85607,-28.71483 28.71483,-28.71483c15.85877,0 28.71483,12.85608 28.71483,28.71483c0,15.85876 -12.85606,28.71483 -28.71483,28.71483c-15.85877,0 -28.71483,-12.85608 -28.71483,-28.71483z" fill="none" stroke="#736d6d" stroke-width="3.5"/><path d="M302.30546,169.0607c2.54967,-3.63825 8.35477,-8.88365 13.27388,-7.50015c3.12024,0.87757 4.30363,5.30598 2.75887,7.9558c-2.42577,4.16109 -7.92537,8.51865 -13,7.25c-1.37633,0 -2.57949,-0.74147 -3.23181,-1.84675c-1.30888,-0.74794 -0.54489,-4.79734 0.19905,-5.8589z" fill="#736d6d" stroke="none" stroke-width="0.5"/><path d="M305.81501,185.87832c5.71879,-3.05002 19.35055,3.07152 16.38804,11.36656c-0.35604,0.99689 -3.41452,1.31688 -4.16697,1.40951c-2.02982,0.24988 -16.3053,-3.426 -15.88306,-7.38171c-0.20245,-0.46102 -0.31481,-0.97055 -0.31481,-1.50633c0,-2.06574 1.6703,-3.74135 3.73402,-3.74996c0.07947,-0.04803 0.16036,-0.09411 0.24279,-0.13807z" fill="#736d6d" stroke="none" stroke-width="0.5"/><path d="M337.94238,176.83938c2.88895,5.77826 -4.35783,8.32033 -8.88539,5.30197c-0.53604,-0.35736 -0.41292,-1.23319 -0.46875,-1.875c-0.07265,-0.83524 -0.04593,-1.60898 0.06211,-2.31668c-0.0408,-0.22157 -0.06211,-0.44996 -0.06211,-0.68332c0,-1.54781 0.93773,-2.8766 2.27607,-3.44924c2.36366,-1.88894 5.84473,-1.1971 7.00869,2.94133z" fill="#736d6d" stroke="none" stroke-width="0.5"/><path d="M237.75719,180c0,-45.42144 36.82137,-82.24281 82.24281,-82.24281c45.42147,0 82.24281,36.8214 82.24281,82.24281c0,45.42144 -36.82134,82.24281 -82.24281,82.24281c-45.42147,0 -82.24281,-36.8214 -82.24281,-82.24281z" fill="none" stroke="none" stroke-width="0"/></g></g></svg>