<svg version="1.1" xmlns="http://www.w3.org/2000/svg" xmlns:xlink="http://www.w3.org/1999/xlink" width="100.97736" height="37.48924" viewBox="0,0,100.97736,37.48924"><g transform="translate(-269.21734,-163.57341)"><g fill="#ff0000" stroke="none" stroke-width="0.5" stroke-miterlimit="10"><path d="M294.24185,200.93008c-6.56965,0.41596 -12.97075,-0.24743 -19.58501,-0.60871c-1.49347,-0.08157 -4.80036,-0.73197 -5.25385,-2.56271c-2.07437,-8.37429 13.85233,-4.52434 17.01962,-4.31572c11.82765,0.77905 25.01361,0.65564 36.0628,-3.2997c7.50141,-2.68533 15.88222,-3.99126 22.21166,-8.83071c4.86416,-3.71911 9.65753,-7.5305 14.43437,-11.36111c2.13089,-1.70879 3.03857,-5.08181 5.68595,-6.14557c0.20484,-0.08231 0.43884,-0.13829 0.69195,-0.16872c0.57657,-0.10795 1.18704,-0.08181 1.78674,0.10212c0.19916,0.06108 0.38956,0.13725 0.5703,0.22684c1.63079,0.61837 2.95612,2.02215 2.0145,4.0585c-0.02551,0.13334 -0.0585,0.26664 -0.09922,0.39941c-0.16834,0.54887 -0.45118,1.0311 -0.81428,1.42853c-14.32049,24.02069 -49.98364,29.51099 -74.72552,31.07755z"/></g></g></svg>