<svg version="1.1" xmlns="http://www.w3.org/2000/svg" xmlns:xlink="http://www.w3.org/1999/xlink" width="461.70964" height="461.70964" viewBox="0,0,461.70964,461.70964"><defs><radialGradient cx="320.00001" cy="180.00002" r="230.85482" gradientUnits="userSpaceOnUse" id="color-1"><stop offset="0" stop-color="#ff1919"/><stop offset="1" stop-color="#ff1919" stop-opacity="0"/></radialGradient><radialGradient cx="320.00001" cy="180.00002" r="97.20203" gradientUnits="userSpaceOnUse" id="color-2"><stop offset="0" stop-color="#ffffff"/><stop offset="1" stop-color="#ff4444"/></radialGradient></defs><g transform="translate(-89.1452,50.8548)"><g stroke="none" stroke-width="0" stroke-miterlimit="10"><path d="M89.1452,180.00002c0,-127.49768 103.35714,-230.85482 230.85482,-230.85482c127.49768,0 230.85482,103.35714 230.85482,230.85482c0,127.49768 -103.35714,230.85482 -230.85482,230.85482c-127.49768,0 -230.85482,-103.35714 -230.85482,-230.85482z" fill="url(#color-1)"/><path d="M222.79799,180.00002c0,-53.6832 43.51883,-97.20203 97.20203,-97.20203c53.6832,0 97.20203,43.51883 97.20203,97.20203c0,53.6832 -43.51883,97.20203 -97.20203,97.20203c-53.6832,0 -97.20203,-43.51883 -97.20203,-97.20203z" fill="url(#color-2)"/></g></g></svg>