<svg version="1.1" xmlns="http://www.w3.org/2000/svg" xmlns:xlink="http://www.w3.org/1999/xlink" width="532.65364" height="532.65364" viewBox="0,0,532.65364,532.65364"><defs><radialGradient cx="240" cy="180" r="186.74724" gradientUnits="userSpaceOnUse" id="color-1"><stop offset="0" stop-color="#ff0000"/><stop offset="1" stop-color="#ff0000" stop-opacity="0"/></radialGradient><radialGradient cx="240" cy="180" r="266.32682" gradientUnits="userSpaceOnUse" id="color-2"><stop offset="0" stop-color="#ff0000"/><stop offset="1" stop-color="#ff0000" stop-opacity="0"/></radialGradient><radialGradient cx="240" cy="180" r="91.43112" gradientUnits="userSpaceOnUse" id="color-3"><stop offset="0" stop-color="#ff0000"/><stop offset="1" stop-color="#ff0000" stop-opacity="0"/></radialGradient></defs><g transform="translate(26.32682,86.32682)"><g stroke="none" stroke-miterlimit="10"><path d="M53.25276,180c0,-103.13764 83.60959,-186.74724 186.74724,-186.74724c103.13764,0 186.74724,83.60959 186.74724,186.74724c0,103.13764 -83.60959,186.74724 -186.74724,186.74724c-103.13764,0 -186.74724,-83.60959 -186.74724,-186.74724z" fill="url(#color-1)" fill-rule="nonzero" stroke-width="0"/><path d="M-26.32682,180c0,-147.08822 119.23858,-266.32682 266.32682,-266.32682c147.08822,0 266.32682,119.23858 266.32682,266.32682c0,147.08822 -119.23858,266.32682 -266.32682,266.32682c-147.08822,0 -266.32682,-119.23858 -266.32682,-266.32682z" fill="url(#color-2)" fill-rule="nonzero" stroke-width="0"/><path d="M148.56888,180c0,-50.49601 40.93511,-91.43112 91.43112,-91.43112c50.49601,0 91.43112,40.93511 91.43112,91.43112c0,50.49601 -40.93511,91.43112 -91.43112,91.43112c-50.49601,0 -91.43112,-40.93511 -91.43112,-91.43112z" fill="url(#color-3)" fill-rule="nonzero" stroke-width="0"/><path d="M237.83812,314.16754c0,-35.26703 -13.18965,-66.10111 -39.54711,-92.45855c-26.35746,-26.35746 -57.16969,-39.54711 -92.45855,-39.54711v-4.32375c35.28886,0 66.10111,-13.18965 92.45855,-39.61262c26.35746,-26.42297 39.54711,-57.23521 39.54711,-92.39306h4.32375c0,35.26703 13.18965,66.10111 39.54711,92.45855c26.35746,26.35746 57.16969,39.54711 92.45855,39.54711v4.32375c-35.26703,0 -66.10111,13.18965 -92.45855,39.54711c-26.35746,26.35746 -39.54711,57.16969 -39.54711,92.45855z" fill="#ff0000" fill-rule="evenodd" stroke-width="1"/><path d="M238.52675,271.43112c0,-24.03342 -8.98835,-45.04589 -26.95015,-63.00771c-17.96182,-17.96182 -38.9594,-26.95015 -63.00771,-26.95015v-2.94652c24.04831,0 45.04589,-8.98835 63.00771,-26.99479c17.96182,-18.00644 26.95015,-39.00407 26.95015,-62.96307h2.94652c0,24.03339 8.98834,45.0459 26.95015,63.00771c17.96182,17.96182 38.95942,26.95015 63.00771,26.95015v2.94652c-24.03342,0 -45.04589,8.98835 -63.00771,26.95015c-17.96181,17.96182 -26.95015,38.9594 -26.95015,63.00771z" fill="#ff8c8c" fill-rule="evenodd" stroke-width="1"/></g></g></svg>