<svg version="1.1" xmlns="http://www.w3.org/2000/svg" xmlns:xlink="http://www.w3.org/1999/xlink" width="164.48562" height="164.48562" viewBox="0,0,164.48562,164.48562"><g transform="translate(-237.75719,-97.75719)"><g stroke-miterlimit="10"><path d="M291.28517,180.00001c0,-15.85876 12.85607,-28.71483 28.71483,-28.71483c15.85877,0 28.71483,12.85608 28.71483,28.71483c0,15.85876 -12.85606,28.71483 -28.71483,28.71483c-15.85877,0 -28.71483,-12.85608 -28.71483,-28.71483z" fill="#b04646" stroke="none" stroke-width="0"/><path d="M291.28517,180.00001c0,-15.85876 12.85607,-28.71483 28.71483,-28.71483c15.85877,0 28.71483,12.85608 28.71483,28.71483c0,15.85876 -12.85606,28.71483 -28.71483,28.71483c-15.85877,0 -28.71483,-12.85608 -28.71483,-28.71483z" fill="#a0815e" stroke="#876d50" stroke-width="3.5"/><path d="M324.79672,175.9728c0.08531,0.05611 0.15907,0.11461 0.2226,0.17473c-0.06122,-0.13483 -0.11275,-0.2475 -0.15178,-0.33345c-0.27472,-0.60509 -0.53823,-1.11323 -0.7922,-1.53389l-1.6685,0.45639l-0.4286,0.544c-0.05834,-0.1266 -0.11813,-0.25249 -0.17928,-0.37772l-0.16942,0.04635c0,0 -0.38268,-0.44458 -0.31918,-0.98679c-0.13638,-0.24849 -0.27693,-0.49482 -0.42059,-0.73949c-0.72992,0.72956 -1.44069,2.01184 -2.21267,3.39446c0.99087,0.1317 1.87341,0.27352 2.56456,0.40373c0.38595,0.10736 0.77189,0.21472 1.15784,0.32208l0.66595,-1.01293c0,0 0.6869,-1.04435 1.73125,-0.35746zM325.15419,177.70405l-0.64769,0.98432c-0.0005,0.03462 -0.00208,0.07019 -0.00481,0.10677c-0.04622,0.61771 -0.37565,0.90642 -0.69624,1.04049c-0.54233,0.90267 -1.02182,1.66772 -1.62966,2.41143c0.07128,0.02744 0.14547,0.05611 0.22207,0.08559c0.31532,0.03951 0.54989,0.1796 0.54989,0.1796l-0.00322,0.02717c0.92715,0.34143 2.00342,0.67669 2.55798,0.49546c1.11838,-0.3655 0.37688,-1.63648 0.54584,-2.64672c-0.19042,-0.1479 -0.39553,-0.29735 -0.61625,-0.44855c0,0 -1.02088,-0.72132 -0.29956,-1.7422c0.17962,-0.25423 0.37783,-0.40042 0.57423,-0.47661c-0.11443,-0.2748 -0.22649,-0.53578 -0.33085,-0.77437c0.00123,0.41869 -0.2217,0.75762 -0.2217,0.75762zM318.91551,182.00817c1.00203,-0.86251 1.58944,-1.5941 2.13927,-2.44583c-0.12664,-0.03544 -0.25328,-0.07089 -0.37992,-0.10634c-0.93854,-0.17508 -1.84978,-0.27437 -2.73636,-0.31326c-0.06823,0.11742 -0.15691,0.22563 -0.26563,0.31921c-0.52322,0.45037 -1.31247,0.39131 -1.76284,-0.13191c-0.04615,-0.05361 -0.08695,-0.11003 -0.12245,-0.16858c-9.344,0.55644 -15.95412,6.90466 -23.35309,-1.58806c0,0 -0.81546,-0.94737 0.13191,-1.76284c0.94737,-0.81546 1.76284,0.13191 1.76284,0.13191c5.08592,5.9955 7.02506,3.60112 11.21377,1.54399c-1.02253,0.06291 -1.6147,-1.57132 -2.61327,-1.98301c-3.5313,-1.45587 -6.82711,-2.2642 -10.19003,-4.1855l2.67386,-2.55118c0,0 1.05318,-0.6733 1.72646,0.37989c0.6733,1.05318 -0.37989,1.72646 -0.37989,1.72646l-0.84055,0.07756c2.27516,-0.08464 4.97326,0.94581 7.15353,1.88672c-0.49947,-0.73428 -0.91098,-1.52334 -1.1962,-2.39594c-0.34084,-1.04277 -1.36849,-1.91751 -1.32286,-3.01361c0.02154,-0.51762 1.04155,-0.50951 1.18311,-1.00786c0.3978,-1.40033 -0.6698,-4.68058 -0.75816,-6.27114l1.03639,-1.39729c0,0 0.80042,-0.96012 1.76054,-0.15969c0.96012,0.80042 0.15969,1.76054 0.15969,1.76054l-0.56453,0.52302c0.28011,1.36504 0.71097,3.39138 0.741,5.07497c1.51209,-0.09105 3.14882,0.16187 4.32044,-0.49887c1.43946,-0.81178 1.16813,-1.89407 3.41782,-1.04771c3.67893,1.38406 5.12729,5.53549 5.77729,9.29053c0.52582,-0.88899 1.21289,-1.80037 1.97039,-2.55478c-0.89572,-1.40446 -1.79038,-2.79894 -2.46418,-4.28039c-0.47526,-1.04492 -1.34438,-2.1652 -1.05867,-3.277c0.27784,-1.08119 4.6492,-0.83221 4.46702,-2.3354c-0.36163,-2.98379 -3.02562,-5.80393 -3.52653,-8.95992c0,0 -0.18941,-1.23556 1.04615,-1.42498c1.23556,-0.18941 1.42498,1.04615 1.42498,1.04615c0.44386,3.02203 3.72725,6.42721 3.55538,9.34811c-0.10568,1.79611 -1.20093,2.6066 -2.65647,3.3268c-0.47495,0.23501 -1.00731,0.38979 -1.53697,0.40615c-0.20511,0.00633 -0.63208,-0.50877 -0.51129,-0.34288c1.23546,1.69669 2.36758,3.29716 3.4078,4.96985c0.67339,-0.27191 1.33904,-0.32432 1.94491,-0.05445c1.31417,0.58536 2.3618,1.36827 3.16718,2.28631c0.13914,-3.65167 0.44846,-7.14235 0.9356,-7.86733c2.19442,-3.26589 8.30204,2.26612 5.60973,-4.57753c-0.01699,-0.61209 -0.034,-1.22417 -0.05099,-1.83627l0.74588,-1.23545c0,0 0.94737,-0.81546 1.76284,0.13191c0.62273,0.72346 0.21744,1.37 -0.00893,1.63521c0.00005,0.2673 0.00009,0.53461 0.00015,0.80191c0.84392,1.94568 2.4325,4.69131 0.28382,6.56278c-1.51403,1.31868 -5.27565,-1.52512 -6.28665,-0.06004c-0.4978,0.72139 0.82827,4.13119 0.64118,5.35346c-0.19716,1.28797 -0.61479,2.72995 -0.94204,4.18207c0.90716,-0.31699 1.81789,-0.61326 2.71463,-0.84005c1.06728,-0.26992 2.87909,-0.19156 3.83441,-0.77445c0.64133,-0.39131 0.41296,-1.44474 0.62809,-2.16455c0.58544,-1.95891 0.68654,-3.20861 3.112,-3.80119c0.41964,-0.10252 1.01314,0.04409 1.61516,0.2736c0.40415,-0.20037 0.848,-0.11715 0.848,-0.11715c0.38958,0.07519 0.77915,0.15038 1.16873,0.22558l1.47916,-0.02996c0,0 1.24984,-0.01996 1.26981,1.22988c0.01996,1.24984 -1.22988,1.26981 -1.22988,1.26981l-0.76196,0.00938c-0.0637,0.1856 -0.18782,0.37696 -0.40229,0.56156c-0.90586,0.77973 -1.69112,-0.05228 -1.7582,-0.12669c-0.59063,-0.36926 -1.15923,-0.92872 -1.82042,-0.82956c-1.60706,0.241 -1.31011,4.46347 -2.65569,5.50488c-1.1479,0.88843 -3.41553,0.86552 -4.76561,1.20503c-1.22607,0.30832 -2.48166,0.76081 -3.71424,1.21073c-0.02536,0.4558 -0.01991,0.90282 0.027,1.33612c5.46214,0.56336 5.04345,10.31596 12.75065,3.62546c1.51799,-1.25626 2.4743,-1.55764 4.26426,-1.49321c0.24123,-0.16818 1.00918,-0.59674 1.68621,0.1898c0.81546,0.94737 -0.13191,1.76284 -0.13191,1.76284l-1.22026,0.56728c-1.50864,-0.13245 -1.84857,-0.15301 -2.96737,0.86804c-5.41917,4.6181 -8.22449,2.7261 -12.99634,-1.11983c-0.12142,3.14693 -3.10344,6.11717 -0.53357,10.93909c1.23468,2.31668 4.33645,0.01211 8.12216,4.34829c0.34277,0.40757 0.72115,0.79654 1.13855,1.13195c0.45419,0.08842 0.75964,0.44327 0.75964,0.44327l-1.32012,2.20018c-0.93066,-0.56945 -1.7537,-1.32394 -2.47282,-2.14447c-3.2936,-3.87297 -6.05206,-0.51601 -8.436,-4.80782c-3.37279,-6.07206 1.4945,-9.26271 0.28302,-12.71316c0.02673,0.32729 0.02422,0.63809 -0.06973,0.83108c-0.37284,0.76587 -0.86675,1.2354 -1.4347,1.49766c-1.65218,2.29116 -4.05456,4.01021 -6.92466,4.43161c0.06321,0.16228 0.09512,0.3599 0.07712,0.60046c-0.02219,0.29659 -0.10968,0.51734 -0.23013,0.68153c0.59977,0.80231 1.18157,1.6101 1.76302,2.44023l0.00442,0.01559l0.0042,-0.00278l0.90761,1.36629c0.35557,0.51877 0.27115,1.23304 -0.21656,1.65284c-0.39841,0.34293 -0.95105,0.3905 -1.39089,0.16268l-0.95226,-0.46612c-1.62723,0.77089 2.42593,4.60229 2.45682,4.69383c0.3531,1.04638 0.20862,2.23647 -0.03849,3.31281c-0.60903,2.65285 -2.88072,2.8064 -4.61965,4.34311l-1.19851,0.27747c0,0 -1.24652,-0.09324 -1.15328,-1.33976c0.06876,-0.91929 0.76477,-1.1099 1.12547,-1.14663c1.81823,-1.30923 4.26227,-1.91511 3.47022,-4.79782c-0.49316,-1.79493 -2.93854,-1.35765 -2.98889,-3.65807c-0.02328,-1.06402 0.85521,-3.28574 1.92967,-3.83365c-0.71047,-0.97421 -1.28723,-1.74142 -1.65791,-2.64115c-2.19136,-0.08621 -5.06394,0.14895 -5.07324,2.68459c-0.00357,0.97439 0.4365,2.02275 0.6108,2.96849c0.30351,1.64676 0.01974,2.7036 1.19633,3.97269l0.02784,0.10371l0.0293,-0.01779l0.63799,1.05103c0.32523,0.51504 0.2331,1.20425 -0.24242,1.61356c-0.2951,0.25401 -0.67481,0.34597 -1.03063,0.28401l-1.57376,-0.26261l0.01697,-0.10176c-1.7119,0.06099 -3.41655,0.11614 -5.0772,0.53826l-1.90084,-0.87132c0,0 -0.98543,-0.76905 -0.21637,-1.75447c0.76905,-0.98543 1.75447,-0.21637 1.75447,-0.21637l-0.24865,0.41808c1.22308,-0.30632 3.45814,-0.8889 5.00275,-0.57707c-1.61441,-3.19278 -2.28341,-8.94747 0.39108,-11.01493c-3.2415,-0.35085 -6.78203,-1.45627 -6.82957,0.23056c-0.02708,0.96098 -0.20868,3.70516 -1.07605,4.12002c-2.89831,1.38624 -9.32818,-5.32135 -10.75784,-6.97682c0,0 -0.81546,-0.94737 0.13191,-1.76284c0.94737,-0.81546 1.76284,0.13191 1.76284,0.13191c0.85536,0.9973 6.54565,4.71954 7.60283,6.04558c-0.24705,-1.43017 -0.54224,-4.73566 0.54189,-5.48378c0.1521,-0.10496 13.85902,3.68004 11.24242,-0.47475c-0.16374,-0.46458 -0.32747,-0.92915 -0.49122,-1.39372l-0.96059,-1.11598c-0.45037,-0.52322 -0.39131,-1.31247 0.13191,-1.76284c0.2951,-0.25401 0.67481,-0.34597 1.03063,-0.28401l1.57376,0.26261l-0.02587,0.155c1.28541,-0.01596 2.53396,0.06664 3.7916,0.2139c0.01074,-0.01009 0.0168,-0.01531 0.0168,-0.01531zM307.4493,176.66626c1.77279,-0.645 4.98788,-0.63376 8.01854,-0.39153c-0.37866,-3.75297 -1.07152,-7.13851 -4.49048,-9.52829c-0.45663,-0.31918 -0.89365,0.67645 -1.39281,0.92387c-0.54316,0.26923 -1.156,0.39177 -1.7574,0.46807c-1.46423,0.18579 -2.55797,-0.13361 -3.85061,0.24541c0.34304,0.70811 0.31932,1.5897 0.69001,2.29351c0.51256,0.97318 1.41314,1.69218 2.01681,2.61163c0.41939,0.63879 1.20699,1.3066 1.02743,2.04937c-0.14521,0.60069 -0.53221,1.21336 -1.03922,1.63276c0.25094,-0.10527 0.5099,-0.20734 0.77775,-0.3048zM316.47538,188.37896c1.47918,-0.80997 4.52375,-1.85194 6.96389,-3.14321c-0.26401,-0.0671 -0.52779,-0.14372 -0.78864,-0.22476l-0.0162,0.13626c-1.39677,-0.26411 -4.79663,-0.30721 -6.77033,-0.93483c0.11039,0.29143 0.22077,0.58286 0.33115,0.87429c0.46381,1.72968 0.40252,2.90833 -0.014,3.69482c0.09591,0.00044 0.19175,0.00166 0.28745,0.00355c-0.00042,-0.13129 0.00178,-0.26655 0.00667,-0.40612z" fill="#876d50" stroke="none" stroke-width="0.5"/><path d="M237.7572,180.00001c0,-45.42144 36.82137,-82.24281 82.24281,-82.24281c45.42147,0 82.24281,36.82139 82.24281,82.24281c0,45.42144 -36.82134,82.24281 -82.24281,82.24281c-45.42147,0 -82.24281,-36.8214 -82.24281,-82.24281z" fill="none" stroke="none" stroke-width="0"/></g></g></svg>