<svg version="1.1" xmlns="http://www.w3.org/2000/svg" xmlns:xlink="http://www.w3.org/1999/xlink" width="305.55348" height="305.55348" viewBox="0,0,305.55348,305.55348"><defs><radialGradient cx="320.00001" cy="180.00003" r="152.77674" gradientUnits="userSpaceOnUse" id="color-1"><stop offset="0" stop-color="#ff8c8c"/><stop offset="1" stop-color="#ff8c8c" stop-opacity="0"/></radialGradient><radialGradient cx="320.00001" cy="180.00003" r="64.32705" gradientUnits="userSpaceOnUse" id="color-2"><stop offset="0" stop-color="#ffffff"/><stop offset="1" stop-color="#ff8080"/></radialGradient></defs><g transform="translate(-167.22328,-27.22329)"><g stroke="none" stroke-width="0" stroke-miterlimit="10"><path d="M167.22328,180.00003c0,-84.37632 68.40042,-152.77674 152.77674,-152.77674c84.37632,0 152.77674,68.40042 152.77674,152.77674c0,84.37632 -68.40042,152.77674 -152.77674,152.77674c-84.37632,0 -152.77674,-68.40042 -152.77674,-152.77674z" fill="url(#color-1)"/><path d="M255.67297,180.00003c0,-35.52685 28.8002,-64.32705 64.32705,-64.32705c35.52685,0 64.32705,28.8002 64.32705,64.32705c0,35.52685 -28.8002,64.32705 -64.32705,64.32705c-35.52685,0 -64.32705,-28.8002 -64.32705,-64.32705z" fill="url(#color-2)"/></g></g></svg>