<svg version="1.1" xmlns="http://www.w3.org/2000/svg" xmlns:xlink="http://www.w3.org/1999/xlink" width="640" height="640" viewBox="0,0,640,640"><defs><radialGradient cx="320.00006" cy="180.00003" r="320" gradientUnits="userSpaceOnUse" id="color-1"><stop offset="0" stop-color="#ffffff"/><stop offset="1" stop-color="#ffffff" stop-opacity="0"/></radialGradient><radialGradient cx="320.00001" cy="180.00001" r="15.48799" gradientUnits="userSpaceOnUse" id="color-2"><stop offset="0" stop-color="#ffffff"/><stop offset="1" stop-color="#ffffff"/></radialGradient></defs><g transform="translate(0,139.99998)"><g stroke="none" stroke-width="0" stroke-miterlimit="10"><path d="M0.00001,180.00003c0,-176.73126 143.26879,-320 320,-320c176.73127,0 320,143.26879 320,320c0,176.73127 -143.26879,320 -320,320c-176.73126,0 -320,-143.26879 -320,-320z" fill="url(#color-1)"/><path d="M304.51202,180.00001c0,-8.55378 6.93421,-15.48799 15.48799,-15.48799c8.55378,0 15.48799,6.93421 15.48799,15.48799c0,8.55378 -6.93421,15.48799 -15.48799,15.48799c-8.55378,0 -15.48799,-6.93421 -15.48799,-15.48799z" fill="url(#color-2)"/></g></g></svg>