<svg version="1.1" xmlns="http://www.w3.org/2000/svg" xmlns:xlink="http://www.w3.org/1999/xlink" width="251.03431" height="251.03431" viewBox="0,0,251.03431,251.03431"><defs><radialGradient cx="240" cy="180" r="72.39469" gradientUnits="userSpaceOnUse" id="color-1"><stop offset="0" stop-color="#ff4040"/><stop offset="1" stop-color="#ff4040" stop-opacity="0"/></radialGradient><radialGradient cx="240" cy="180" r="125.51716" gradientUnits="userSpaceOnUse" id="color-2"><stop offset="0" stop-color="#ff4040"/><stop offset="1" stop-color="#ff4040" stop-opacity="0"/></radialGradient></defs><g transform="translate(-114.48284,-54.48284)"><g stroke="none" stroke-miterlimit="10"><path d="M167.60531,180c0,-39.98248 32.41221,-72.39469 72.39469,-72.39469c39.98248,0 72.39469,32.41221 72.39469,72.39469c0,39.98248 -32.41221,72.39469 -72.39469,72.39469c-39.98248,0 -72.39469,-32.41221 -72.39469,-72.39469z" fill="url(#color-1)" fill-rule="nonzero" stroke-width="0"/><path d="M114.48284,180c0,-69.32121 56.19595,-125.51716 125.51716,-125.51716c69.32121,0 125.51716,56.19595 125.51716,125.51716c0,69.32121 -56.19595,125.51716 -125.51716,125.51716c-69.32121,0 -125.51716,-56.19595 -125.51716,-125.51716z" fill="url(#color-2)" fill-rule="nonzero" stroke-width="0"/><path d="M239.01,241.44c0,-16.15 -6.04,-30.27 -18.11,-42.34c-12.07,-12.07 -26.18,-18.11 -42.34,-18.11v-1.98c16.16,0 30.27,-6.04 42.34,-18.14c12.07,-12.1 18.11,-26.21 18.11,-42.31h1.98c0,16.15 6.04,30.27 18.11,42.34c12.07,12.07 26.18,18.11 42.34,18.11v1.98c-16.15,0 -30.27,6.04 -42.34,18.11c-12.07,12.07 -18.11,26.18 -18.11,42.34z" fill="#ff4444" fill-rule="evenodd" stroke-width="1"/><path d="M239.15851,232.2234c0,-13.72735 -5.13394,-25.7292 -15.39332,-35.98859c-10.25939,-10.25939 -22.25274,-15.39332 -35.98859,-15.39332v-1.68299c13.73585,0 25.7292,-5.13394 35.98859,-15.41882c10.25939,-10.28488 15.39332,-22.27825 15.39332,-35.96309h1.68299c0,13.72734 5.13393,25.72921 15.39332,35.98859c10.25939,10.25939 22.25275,15.39332 35.98859,15.39332v1.68299c-13.72735,0 -25.7292,5.13394 -35.98859,15.39332c-10.25938,10.25939 -15.39332,22.25274 -15.39332,35.98859z" fill="#ffffff" fill-rule="evenodd" stroke-width="1"/></g></g></svg>