<svg version="1.1" xmlns="http://www.w3.org/2000/svg" xmlns:xlink="http://www.w3.org/1999/xlink" width="640" height="640" viewBox="0,0,640,640"><defs><radialGradient cx="320.00006" cy="180.00002" r="320" gradientUnits="userSpaceOnUse" id="color-1"><stop offset="0" stop-color="#ff0000"/><stop offset="1" stop-color="#ff0000" stop-opacity="0"/></radialGradient><radialGradient cx="320.00006" cy="180.00002" r="134.73684" gradientUnits="userSpaceOnUse" id="color-2"><stop offset="0" stop-color="#ffffff"/><stop offset="1" stop-color="#ff0000"/></radialGradient></defs><g transform="translate(-0.00003,139.99998)"><g stroke="none" stroke-width="0" stroke-miterlimit="10"><path d="M0.00003,180.00002c0,-176.73124 143.26876,-320 320,-320c176.73124,0 320,143.26876 320,320c0,176.73124 -143.26876,320 -320,320c-176.73124,0 -320,-143.26876 -320,-320z" fill="url(#color-1)"/><path d="M185.26318,180.00002c0,-74.41311 60.32373,-134.73684 134.73684,-134.73684c74.41311,0 134.73684,60.32373 134.73684,134.73684c0,74.41311 -60.32373,134.73684 -134.73684,134.73684c-74.41311,0 -134.73684,-60.32373 -134.73684,-134.73684z" fill="url(#color-2)"/></g></g></svg>