<svg version="1.1" xmlns="http://www.w3.org/2000/svg" xmlns:xlink="http://www.w3.org/1999/xlink" width="365.73562" height="365.73562" viewBox="0,0,365.73562,365.73562"><g transform="translate(-137.1322,14.86779)"><g stroke-miterlimit="10"><path d="M264.52835,173.79676c-3.20145,-30.63615 19.03878,-58.06695 49.67493,-61.2684c30.63617,-3.20145 58.06696,19.0388 61.2684,49.67493c3.20145,30.63615 -19.03876,58.06695 -49.67493,61.2684c-30.63617,3.20145 -58.06696,-19.0388 -61.2684,-49.67493z" fill="#b04646" stroke="none" stroke-width="0"/><path d="M264.54614,173.96458c2.68937,-1.45303 4.98054,-3.47759 8.76172,-3.62739c11.11064,-0.44015 22.37915,0.82438 33.6833,0.54556c11.33248,-0.27952 22.64196,-2.13941 34.02716,-1.63666c6.67208,0.29462 12.87139,2.54874 19.4305,3.51551c5.22172,0.76964 10.06203,-0.96114 15.21242,-1.08216c-0.44953,6.92581 -2.18251,13.55856 -4.98358,19.63263c-11.0596,-0.22504 -22.13919,-0.76766 -33.13548,-0.42388c-1.64894,0.05155 -3.27635,1.08114 -4.90304,1.09111c-2.05503,0.0126 -11.29119,0.93426 -12.71244,0.42207c-4.54066,-1.63637 -8.61651,-1.2725 -13.28047,-2.23065c-2.77587,-0.57027 -5.55005,-1.80308 -8.38394,-2.01029c-3.05867,-0.22365 -6.18937,1.4759 -9.19554,0.89574c-5.91532,-1.14159 -12.14656,-5.12327 -18.24774,-5.29794c-0.21706,-0.00621 -0.42286,0.0163 -0.61893,0.06364c-1.26114,0.12821 -2.38369,0.72512 -3.19072,1.61376c-1.19909,-3.65631 -2.03556,-7.49248 -2.46323,-11.47105z" fill="#813333" stroke="none" stroke-width="0"/><path d="M325.79675,223.47169c-23.16116,2.42032 -44.49028,-9.70047 -54.90308,-28.99699c3.33966,1.05137 16.44875,4.96525 19.8055,4.73824c2.03927,-0.13791 4.87939,-1.47011 6.86285,-1.05249c7.50723,1.58064 15.24451,3.56807 22.79521,4.36443c5.72464,0.60377 12.30527,-1.61406 17.99635,-1.63667c7.20092,-0.0286 14.38574,0.1247 21.60676,0.27278c0.83522,0.01713 2.47773,0.23208 4.53535,0.46739c-8.99185,11.89245 -22.70063,20.17152 -38.69894,21.84332z" fill="#813333" stroke="none" stroke-width="0"/><path d="M269.54116,144.21925c1.68084,0.82314 3.71427,1.52056 4.39015,1.8585c5.97961,2.9898 11.32171,5.08439 18.05712,4.89229c4.74752,-0.1354 9.67681,-1.02618 14.45714,-0.81833c3.96133,0.17224 9.10193,1.15982 13.09332,0.27278c7.67994,-1.70675 16.07502,-3.31635 23.57777,-5.7739c3.93676,-1.2895 7.391,-3.55347 11.299,-4.85088c1.04823,-0.348 7.30417,-1.36776 12.09834,-2.59629c4.81119,7.25339 7.99038,15.74339 8.95767,24.99987c0.00007,0.00073 0.00016,0.00146 0.00023,0.0022c-4.47052,0.39979 -8.84065,1.55643 -13.50125,0.66367c-6.80374,-1.30328 -13.38697,-3.355 -20.33682,-3.62306c-11.83785,-0.45659 -23.4881,1.33628 -35.25822,1.63666c-7.81754,0.1995 -15.73494,-0.6134 -23.44228,-0.54556c-3.95596,0.03482 -12.12068,-0.1496 -18.40106,1.71977c0.66703,-6.2845 2.39189,-12.29853 5.00889,-17.83772z" fill="#813333" stroke="none" stroke-width="0"/><path d="M288.76637,121.7789c0.02686,0.06165 0.05494,0.12266 0.08418,0.18298c-0.10826,1.5698 3.40022,2.90699 4.4981,3.29909c0.7817,0.27918 2.83258,-0.02326 3.20785,0.5601c0.50452,0.78428 0.65465,1.85298 1.38801,2.42903c1.22812,0.96468 6.00033,1.10592 7.64587,1.49438c3.73489,0.88169 7.52954,1.17567 11.27459,0.23941c2.19448,-0.54862 3.71687,-4.13695 6.41809,-3.45926c0.84339,0.21159 1.25256,1.43186 2.52304,1.56329c6.32981,0.6548 13.65361,-2.44558 19.15489,-5.19622c0.77127,-0.38564 2.57601,-1.25344 4.52562,-2.2365c3.51693,2.19376 6.78125,4.77217 9.72886,7.68329c-0.77567,0.18292 -1.43525,0.33114 -1.92212,0.40683c-6.26002,0.9732 -11.24126,4.62536 -17.23327,6.37148c-6.91208,2.01423 -14.48774,3.89849 -21.41987,5.30769c-2.71145,0.5512 -8.98854,-0.30394 -11.9285,-0.30394c-6.21515,0 -12.31191,0.88048 -18.5491,0.84949c-4.60838,-0.0229 -8.78654,-4.12103 -13.22134,-5.84049c3.78794,-5.18908 8.46102,-9.71912 13.8251,-13.35065z" fill="#813333" stroke="none" stroke-width="0"/><path d="M314.20328,112.52836c8.31895,-0.86932 16.40156,0.13728 23.82688,2.67851c-0.36429,0.18098 -0.73122,0.35637 -1.10302,0.52143c-1.60996,0.71473 -4.15524,1.7951 -5.96423,1.65215c-1.52177,-0.12026 -3.45907,-1.08357 -5.15015,-1.2331c-5.42492,-0.4797 -11.32745,2.44696 -16.25295,3.81348c-1.02981,0.28571 -6.99014,-2.31053 -10.64765,-3.60987c4.77558,-1.94728 9.90353,-3.25959 15.29111,-3.82259z" fill="#813333" stroke="none" stroke-width="0"/><path d="M264.75318,175.65272c1.45744,-0.02624 3.26829,-0.7466 4.69379,-0.8359c6.32817,-0.39642 12.59071,-1.02566 18.923,-1.09027c4.62835,-0.04723 9.02565,1.11485 13.61766,1.38405c6.63026,0.38869 13.79713,0.17467 20.41915,-0.20936c14.33474,-0.83131 28.89294,-2.411 43.29076,-0.77712c3.59441,0.40789 6.59002,0.98951 9.63411,0.98352c-0.82934,6.5003 -2.79175,12.69436 -5.70086,18.35229c-0.35062,-0.1527 -0.64754,-0.25078 -0.84963,-0.27943c-4.58609,-0.65029 -13.43499,1.50215 -19.54023,0.79981c-3.61116,-0.41542 -14.32448,-0.63452 -18.0772,-0.50803c-4.33319,0.14605 -9.84573,2.47825 -14.35397,2.08004c-9.53162,-0.84192 -18.59111,-4.00724 -28.19364,-4.0776c-4.32904,-0.03172 -13.94457,-2.916 -18.31883,-1.21926c-0.20386,0.07907 -0.38793,0.18163 -0.55541,0.30386c-0.20783,0.11481 -0.40619,0.24383 -0.59389,0.38562c-2.14412,-4.75394 -3.64897,-9.8837 -4.39483,-15.29222z" fill="#a24141" stroke="none" stroke-width="0"/><path d="M325.79675,223.47169c-20.71383,2.16458 -39.96234,-7.30133 -51.24734,-23.12913c0.23611,0.0245 0.39852,0.04051 0.45633,0.04932c6.18957,0.94314 12.04998,0.97734 18.34605,1.14509c6.47494,0.17253 12.39123,4.0974 18.63472,4.17072c6.85036,0.08044 13.50482,-1.3018 20.30645,-1.97189c7.15882,-0.70528 15.20463,0.32896 22.44261,0.46186c1.98299,0.03641 4.74733,0.23575 7.5606,0.15839c-8.95482,10.42169 -21.75472,17.57484 -36.4994,19.11564z" fill="#a24141" stroke="none" stroke-width="0"/><path d="M267.84281,148.20912c0.01893,0.00608 0.03691,0.01188 0.05393,0.0174c7.96016,2.58593 15.37622,4.24139 23.65458,5.23444c27.38151,3.28459 50.83998,-6.5112 76.76506,-13.34972c3.80244,6.57904 6.31449,14.04599 7.15529,22.09205c0.11543,1.10467 0.1978,2.20518 0.24788,3.30053c-0.08987,0.00566 -0.1801,0.00914 -0.27073,0.01023c-5.40413,0.0654 -10.27082,-1.81635 -15.84079,-1.30185c-5.51319,0.50926 -11.57341,-0.92692 -17.19027,-0.56938c-1.12106,0.07136 -2.45751,-0.95739 -3.81067,-0.81599c-2.9974,0.31322 -5.88709,1.56107 -8.98009,1.85689c-14.52666,1.38933 -29.33019,-0.03066 -43.75873,-0.99539c-2.74523,-0.18356 -15.73933,0.13141 -21.58294,1.58075c0.28415,-5.94775 1.51493,-11.68985 3.55747,-17.05997z" fill="#a24141" stroke="none" stroke-width="0"/><path d="M288.83858,121.73009c0.23715,0.02233 0.47638,0.03625 0.71736,0.04151c3.96616,0.84319 8.68321,1.4842 12.68149,1.9252c14.15349,1.5611 29.69823,-0.4652 43.30047,-5.28741c6.22836,3.21479 11.80462,7.57774 16.42134,12.8396c-10.37954,2.90648 -20.68701,6.32556 -30.95462,9.11197c-14.4029,3.90865 -29.62035,4.85533 -44.45758,2.64309c-4.89109,-0.72926 -9.57869,-2.32407 -14.27479,-3.8677c4.1812,-6.90218 9.83098,-12.86174 16.56633,-17.40626z" fill="#a24141" stroke="none" stroke-width="0"/><path d="M265.60234,180.33731c0.5324,0.08098 0.97305,0.14359 1.27053,0.19175c9.97148,1.61433 20.29864,1.12953 30.39536,0.7553c14.06297,-0.52123 24.57401,-1.5645 39.16644,-1.99108c13.4504,-0.3932 25.99543,-0.38813 38.53665,-1.78242c-0.36461,2.11398 -0.84953,4.19166 -1.44812,6.22485c-1.18807,0.40657 -2.38092,0.79962 -3.57956,1.17633c-21.19421,6.66101 -43.60445,6.86217 -65.50337,4.50936c-8.14016,-0.87457 -16.86115,-0.63946 -24.82315,-2.22884c-2.88378,-0.57566 -6.7169,-2.29845 -10.20016,-3.08864c-0.69372,-0.19528 -1.41551,-0.31696 -2.15539,-0.35695c-0.26759,-0.02462 -0.53102,-0.04008 -0.78956,-0.04524c-0.32315,-1.10635 -0.61345,-2.22815 -0.86966,-3.36442z" fill="#8b3838" stroke="none" stroke-width="0"/><path d="M325.79675,223.47169c-17.48753,1.82743 -33.93066,-4.63475 -45.41921,-16.21625c4.95529,0.51514 9.95626,0.76373 15.07482,1.29531c19.0019,1.97343 38.70536,3.99554 57.67177,0.66403c1.89558,-0.33297 3.76832,-0.69828 5.62209,-1.09354c-8.64875,8.36377 -20.0555,14.00304 -32.94947,15.35045z" fill="#8b3838" stroke="none" stroke-width="0"/><path d="M266.04676,153.80711c1.1259,1.09603 2.5043,1.92372 4.02638,2.39482c0.30723,0.09509 0.62032,0.17565 0.93838,0.24096c2.97409,0.70896 6.44696,1.07065 7.01939,1.15381c11.06658,1.60766 22.59733,0.92649 33.79453,0.35053c20.60295,-1.05977 40.67471,-4.31836 60.44298,-9.44663c1.04285,2.80136 1.86984,5.71677 2.45896,8.72841c-12.56308,1.79976 -24.1527,2.41258 -37.9543,2.17771c-15.47069,-0.26327 -30.65749,1.99815 -46.10975,2.0066c-5.33391,0.00292 -10.66944,0.09271 -16.00165,-0.04183c-3.15641,-0.07964 -6.55876,-1.33461 -9.84271,-1.57274c0.30039,-2.03108 0.71158,-4.03066 1.22779,-5.99162z" fill="#8b3838" stroke="none" stroke-width="0"/><path d="M278.14589,131.13579c7.49626,1.0914 14.48795,0.88037 22.38493,0.215c16.64689,-1.4026 32.82098,-4.65285 49.34577,-6.93751c1.40652,-0.19447 2.82691,-0.36626 4.25831,-0.52139c2.6458,2.04815 5.10742,4.33215 7.35106,6.82456c-8.96999,2.24579 -18.03793,4.14059 -27.14854,5.38173c-15.44937,2.10466 -31.3856,2.66894 -46.96091,2.33098c-4.2812,-0.09289 -9.01828,-1.82576 -13.42789,-1.89502c1.28823,-1.8834 2.69022,-3.68642 4.19728,-5.39834z" fill="#8b3838" stroke="none" stroke-width="0"/><path d="M298.56505,217.88843c3.65751,-1.29934 9.61784,-3.89558 10.64765,-3.60987c4.9255,1.36652 10.82803,4.29318 16.25295,3.81348c1.69108,-0.14953 3.62838,-1.11284 5.15015,-1.2331c1.80899,-0.14296 4.35427,0.93741 5.96423,1.65214c0.3718,0.16506 0.73873,0.34045 1.10302,0.52143c-7.42532,2.54123 -15.50793,3.54782 -23.82688,2.67851c-5.38759,-0.563 -10.51553,-1.87531 -15.29111,-3.82259z" fill="#702d2d" stroke="none" stroke-width="0"/><path d="M264.52835,173.79676c-3.20145,-30.63615 19.03878,-58.06695 49.67493,-61.2684c30.63617,-3.20145 58.06696,19.0388 61.2684,49.67493c3.20145,30.63615 -19.03876,58.06695 -49.67493,61.2684c-30.63617,3.20145 -58.06696,-19.0388 -61.2684,-49.67493z" fill="none" stroke="#732d2d" stroke-width="3.5"/><path d="M348.55564,151.74107c-4.33738,3.21952 -8.68023,6.38291 -13.04117,9.48897c2.34602,3.27613 4.89316,6.37444 7.83821,9.12554c13.09219,-10.63825 25.63599,-19.00717 30.12851,-16.66097c10.87212,5.67788 12.6781,69.45717 1.15451,72.66713c-1.58846,0.44248 -16.53506,-4.71494 -19.67468,-5.76199c-12.84058,-3.50188 -25.83896,-6.21055 -38.22159,-10.94209c-0.60176,0.64894 -1.20097,1.30322 -1.79756,1.96314c0,0 -3.76771,4.1643 -7.93199,0.39659c-2.89565,-2.61989 -1.95606,-5.43153 -1.11482,-6.90149c-1.22094,-0.77392 -2.31294,-2.15828 -2.31294,-4.63465c0,-5.61577 5.61577,-5.61577 5.61577,-5.61577l3.03807,0.59287c0.6537,0.32872 1.31043,0.64846 1.96999,0.95976c5.3807,-5.21993 12.77984,-12.11603 20.57197,-18.85864c-3.08737,-3.08313 -5.79316,-6.45318 -8.31851,-9.98352c-15.56383,10.72485 -31.46395,20.71949 -48.26117,29.93086c0,0 -0.90964,0.49884 -2.16138,0.67672c1.43802,2.86059 2.76339,5.66712 3.98877,8.58187l0.67153,-0.44769l4.16989,6.25487c0.62178,0.90389 0.98575,1.9989 0.98575,3.17895c0,3.1015 -2.51427,5.61577 -5.61577,5.61577c-0.9432,0 -1.83211,-0.23254 -2.6125,-0.64339l-6.21769,-3.10885l0.25498,-0.50996l-1.41201,-0.26098c-6.25732,-8.60465 -8.2186,-13.80636 -9.43791,-23.49478l-2.37502,-4.43338c0,0 -2.65188,-4.95019 2.29831,-7.60207c4.95019,-2.65188 7.60207,2.29831 7.60207,2.29831l0.40398,0.75409c2.08826,1.08205 2.67801,3.40172 2.82505,4.22627c0.65219,-0.61607 1.23143,-0.93372 1.23143,-0.93372c16.51943,-9.05903 32.1393,-18.89137 47.43635,-29.43888c-0.99087,-1.55618 -1.98032,-3.12145 -2.98321,-4.6865c-2.94765,0.8921 -6.21677,1.10283 -9.20133,1.89133c-16.64244,4.39686 -34.60804,5.62377 -48.70161,15.7469c-0.12683,0.25334 -0.27654,0.50666 -0.45326,0.75168c-0.28737,1.37007 -1.1677,2.81741 -3.35235,3.72768c-5.18379,2.15992 -7.3437,-3.02387 -7.3437,-3.02387c-14.54429,-37.14873 55.59016,-98.1573 75.85954,-78.95789c6.42797,6.08867 2.8903,39.54421 2.67181,48.77619c-0.54507,0.88709 -1.00197,1.85754 -1.44593,2.84019c1.38548,2.15682 2.72918,4.34773 4.08044,6.53025c4.17802,-2.97881 8.34032,-6.01083 12.49894,-9.09486c5.99493,-4.44585 12.05426,-8.28392 17.70633,-12.77097c-1.30012,-1.00945 -2.28668,-2.6154 -3.53861,-3.71647l-0.90108,-0.2402c0,0 -2.61403,-1.30704 -3.12765,-3.92109c-0.93199,-1.34204 -2.30341,-4.26051 0.61506,-7.17898c3.97096,-3.97096 7.94189,0 7.94189,0c2.45825,2.466 5.06828,4.78066 7.7541,7.00247c0.14037,-0.15378 0.28023,-0.30858 0.41959,-0.4644l2.45506,2.52292l5.81942,3.87962c1.54827,0.99992 2.57317,2.74072 2.57317,4.72091c0,3.1015 -2.51427,5.61577 -5.61577,5.61577c-1.08986,0 -2.10722,-0.31046 -2.96843,-0.84778l-1.61687,-0.97011c-6.56909,5.5578 -13.70128,10.10136 -20.82392,15.38834z" fill="#dadada" stroke="none" stroke-width="0.5"/><path d="M137.13221,168.00003c0,-100.99508 81.87273,-182.86781 182.86781,-182.86781c100.99515,0 182.86781,81.87277 182.86781,182.86781c0,100.99508 -81.87266,182.86781 -182.86781,182.86781c-100.99515,0 -182.86781,-81.8728 -182.86781,-182.86781z" fill="none" stroke="none" stroke-width="0"/></g></g></svg>