<svg version="1.1" xmlns="http://www.w3.org/2000/svg" xmlns:xlink="http://www.w3.org/1999/xlink" width="164.48562" height="164.48562" viewBox="0,0,164.48562,164.48562"><g transform="translate(-237.75719,-97.75719)"><g stroke-miterlimit="10"><path d="M291.28517,180.00001c0,-15.85876 12.85607,-28.71483 28.71483,-28.71483c15.85877,0 28.71483,12.85608 28.71483,28.71483c0,15.85876 -12.85606,28.71483 -28.71483,28.71483c-15.85877,0 -28.71483,-12.85608 -28.71483,-28.71483z" fill="#f1f8ff" stroke="none" stroke-width="0"/><path d="M296.36636,166.45056c-0.4115,-1.39685 0.79846,-2.48582 0.79846,-2.48582c2.81939,-2.51861 12.66221,-10.05618 16.88621,-9.48943c4.72807,0.63439 10.47612,6.25864 12.40724,9.89304c0.69882,1.31519 3.15676,-0.29353 4.44483,0.45411c5.01945,2.91347 12.04207,15.4894 11.21934,21.43054c-0.13462,0.97213 -4.89371,7.24131 -5.8967,8.59367c-0.73253,4.43239 -7.28165,8.90147 -11.95433,8.943c-0.72156,0.00642 -0.9216,-1.53091 -1.63452,-1.41938c-2.37948,0.37222 -4.1287,3.55412 -6.50284,3.1492c-0.77733,-0.13258 -0.15717,-1.99644 -0.92467,-2.17746c-0.89502,-0.2111 -7.77619,2.43563 -13.14671,-1.13781c-6.03841,-4.01784 -7.88494,-12.63794 -8.99308,-19.25564c-0.9816,-6.00567 0.3757,-10.06866 2.85938,-15.44779z" fill="#4d9dff" stroke="none" stroke-width="0.5"/><path d="M291.28517,180.00001c0,-15.85876 12.85607,-28.71483 28.71483,-28.71483c15.85877,0 28.71483,12.85608 28.71483,28.71483c0,15.85876 -12.85606,28.71483 -28.71483,28.71483c-15.85877,0 -28.71483,-12.85608 -28.71483,-28.71483z" fill="none" stroke="#a7b4bf" stroke-width="3.5"/><path d="M310.73326,155.44853c0.80956,0.95243 -0.14287,1.76198 -0.14287,1.76198c-1.2699,1.07941 -2.85717,2.4286 -4.12707,3.50801c0,0 -0.95243,0.80956 -1.76198,-0.14287c-0.80956,-0.95243 0.14286,-1.76199 0.14286,-1.76199c1.2699,-1.07941 2.53981,-2.15883 3.80971,-3.23824l0.31738,-0.26977c0,0 0.95242,-0.80956 1.76198,0.14287z" fill-opacity="0.67843" fill="#f4faff" stroke="none" stroke-width="0.5"/><path d="M320.68807,159.55679c1.07311,0.11198 1.07311,1.24108 1.07311,1.24108l-2.08816,1.1337c-0.54536,-0.49454 -1.00573,-1.07083 -1.40743,-1.69407l-0.23406,0.19151l-0.75719,-0.92546l-0.86872,-0.4964c-0.675,-0.33732 -1.35,-0.67464 -2.025,-1.01196c0,0 -1.11803,-0.55901 -0.55902,-1.67705c0.55901,-1.11803 1.67705,-0.55902 1.67705,-0.55902c0.50567,0.25296 1.01134,0.50593 1.51701,0.75889c0.12565,-0.04244 0.26024,-0.06544 0.40021,-0.06544c0.34517,0 0.65767,0.1399 0.88388,0.36611v0l1.03177,1.03176c0.17088,0.17088 0.29252,0.391 0.3418,0.63725l0.29309,0.35822l-0.22264,0.18216c0.32972,0.14612 0.64693,0.32538 0.94428,0.52871z" fill-opacity="0.67843" fill="#f4faff" stroke="none" stroke-width="0.5"/><path d="M331.24987,167.47547c-0.69337,1.04007 -1.73344,0.3467 -1.73344,0.3467l-0.13339,-0.09212c-0.81862,-0.15592 -3.1283,-0.59587 -3.94692,-0.75179c0,0 -1.22792,-0.23388 -0.99403,-1.46181c0.23389,-1.22792 1.46182,-0.99403 1.46182,-0.99403c0.53497,0.1019 1.06994,0.20379 1.60491,0.30569c0.22236,-0.20356 0.51858,-0.32777 0.84381,-0.32777c0.20995,0 0.4078,0.05175 0.58151,0.14321l1.6041,0.80205c0.17865,0.08469 0.33402,0.21049 0.45388,0.36519c0.23609,0.19916 0.82307,0.81669 0.25775,1.66467z" fill-opacity="0.67843" fill="#f4faff" stroke="none" stroke-width="0.5"/><path d="M339.24478,178.69492c-0.97609,0.78086 -1.75695,-0.19523 -1.75695,-0.19523l-0.86121,-1.07877c-0.83447,-1.27603 -1.78452,-2.48029 -2.80617,-3.61201c0,0 -0.83621,-0.92912 0.09292,-1.76533c0.92912,-0.83621 1.76533,0.09292 1.76533,0.09292c1.07695,1.2 2.08652,2.46902 2.97174,3.8167l0.78959,0.98477c0,0 0.78086,0.9761 -0.19523,1.75696z" fill-opacity="0.67843" fill="#f4faff" stroke="none" stroke-width="0.5"/><path d="M338.73031,187.50369c-1.11804,-0.55901 -0.55902,-1.67705 -0.55902,-1.67705l0.58403,-1.16426l0.36055,-0.96149l-0.13908,-0.30599c0,0 -0.51725,-1.13796 0.62071,-1.65521c1.13796,-0.51725 1.65521,0.62071 1.65521,0.62071l0.08311,0.18285c0.16821,0.14276 0.29816,0.32923 0.37228,0.54188l0.5987,1.59653c0.05786,0.14398 0.08971,0.30121 0.08971,0.46588c0,0.69036 -0.55964,1.25 -1.25,1.25c-0.15063,0 -0.29503,-0.02664 -0.42876,-0.07547l-0.31038,0.62261c0,0 -0.55901,1.11803 -1.67705,0.55902z" fill-opacity="0.67843" fill="#f4faff" stroke="none" stroke-width="0.5"/><path d="M330.75656,198.5265c1.0147,-1.71608 2.13171,-3.18549 3.53724,-4.45783l0.14363,-0.26332l-0.10511,-0.0709l0.77382,-1.14727c0.14866,-0.2273 0.36933,-0.40323 0.62962,-0.49538c0.26105,-0.27419 0.71986,-0.5493 1.39479,-0.23779c1.13495,0.52382 0.61113,1.65877 0.61113,1.65877c-0.35143,0.76136 -0.70287,1.52272 -1.0543,2.28408l-0.01127,0.01191l0.00444,0.00218l-1.0038,2.03901c-0.19894,0.42669 -0.6317,0.72241 -1.13353,0.72241c-0.16245,0 -0.31767,-0.03099 -0.46005,-0.08738c-0.68529,0.83856 -1.38498,1.65011 -1.73974,2.31656l-1.37284,-1.05838l-0.8309,-0.1221c0.06613,-0.12277 0.13255,-0.24437 0.19932,-0.36481l-0.07693,-0.05931c0,0 0.13773,-0.41317 0.49449,-0.67046z" fill-opacity="0.67843" fill="#f4faff" stroke="none" stroke-width="0.5"/><path d="M324.84486,203.65208l-0.00535,-0.00095c-0.37472,0.43712 -0.74944,0.87423 -1.12416,1.31135c0,0 -0.83046,0.93427 -1.76472,0.10381c-0.74057,-0.65829 -0.3723,-1.3818 -0.18777,-1.6535c-0.14593,-0.20451 -0.23178,-0.45485 -0.23178,-0.72523c0,-0.48503 0.27625,-0.90553 0.67998,-1.11276l2.65997,-1.43229c0,0 0.81567,-0.43922 1.42073,0.14078l0.04673,-0.01668c0.13901,-0.05335 0.28997,-0.08259 0.44776,-0.08259c0.69036,0 1.25,0.55964 1.25,1.25c0,0.51954 -0.31697,0.96505 -0.76807,1.15371l-2.25816,1.00442l-0.02663,-0.05986c-0.04618,0.03994 -0.09235,0.07987 -0.13853,0.11981z" fill-opacity="0.67843" fill="#f4faff" stroke="none" stroke-width="0.5"/><path d="M312.74138,204.96683c-0.36442,0.06196 -0.72856,0.12554 -1.09251,0.18983c0,0 -1.23098,0.21723 -1.44821,-1.01375c-0.21723,-1.23098 1.01375,-1.44822 1.01375,-1.44822c1.27062,-0.22403 2.54305,-0.44368 3.82317,-0.60466l-0.01443,-0.05594l2.39333,-0.61758c0.10801,-0.03043 0.22195,-0.04671 0.3397,-0.04671c0.69036,0 1.25,0.55964 1.25,1.25c0,0.58089 -0.39623,1.06923 -0.93317,1.2095l-2.37724,0.67921l-0.00936,-0.03277l-0.08315,0.05543c-0.36275,0.04668 -0.72499,0.09733 -1.08679,0.15103c-0.23203,0.10256 -0.46999,0.1858 -0.70896,0.24747z" fill-opacity="0.67843" fill="#f4faff" stroke="none" stroke-width="0.5"/><path d="M333.27331,162.99234c-0.75,1 -1.75,0.24998 -1.75,0.24998l-1.23599,-1.1548l-0.38665,-0.96662l-0.12765,-0.07659l0.02805,-0.04675l-0.15419,-0.03986c-0.45091,-0.44649 -0.90183,-0.893 -1.35274,-1.33949c0,0 -0.88389,-0.88388 0,-1.76776c0.88389,-0.88388 1.76777,0 1.76777,0c0.15269,0.15448 0.30536,0.30897 0.45805,0.46345c0.03382,-0.00275 0.06802,-0.00415 0.10254,-0.00415c0.32069,0 0.61318,0.12077 0.83445,0.3193l1.8485,1.64311c0.26011,0.22906 0.42422,0.56457 0.42422,0.93841c0,0.26653 -0.08342,0.51356 -0.22556,0.71644c0.0899,0.29083 0.07526,0.65727 -0.2308,1.06534z" fill-opacity="0.67843" fill="#f4faff" stroke="none" stroke-width="0.5"/><path d="M343.03932,174.34589c-1.16683,0.44833 -1.61516,-0.7185 -1.61516,-0.7185l-0.38004,-1.00278l-0.67888,-2.37605c-0.02731,-0.08795 -0.04517,-0.18007 -0.05239,-0.27516c-0.16357,-0.32715 -0.32715,-0.65431 -0.49072,-0.98146c0,0 -0.55902,-1.11803 0.55902,-1.67705c1.11804,-0.55901 1.67705,0.55902 1.67705,0.55902c0.27513,0.55027 0.55027,1.10055 0.82541,1.65082l0.81418,1.62832c0.09145,0.17371 0.14321,0.37157 0.14321,0.58152c0,0.25313 -0.07524,0.48869 -0.20457,0.68552l0.12141,0.31063c0,0 0.44833,1.16683 -0.71851,1.61516z" fill-opacity="0.67843" fill="#f4faff" stroke="none" stroke-width="0.5"/><path d="M313.51347,182.17122c-0.38181,-1.4029 -1.44466,-2.52376 -2.14533,-3.79772c0,0 -0.5064,-0.92073 0.25359,-1.53812c-1.12379,-0.18319 -2.03022,-0.31036 -2.93299,-0.32354c-0.04269,0.31938 -0.20598,0.6006 -0.44256,0.79636l-1.90818,1.6009c-2.97288,2.49415 -3.87977,3.75501 -5.29871,7.36685c0,0 -0.45707,1.16344 -1.62051,0.70637c-1.16344,-0.45707 -0.70637,-1.62051 -0.70637,-1.62051c0.9482,-2.4136 1.78416,-3.99773 3.03841,-5.49001c-1.27137,-0.53506 -1.85836,-1.90555 -0.07936,-4.21958c0.62823,-0.81717 1.93081,-0.72371 2.90883,-1.04917c3.03257,-1.00918 4.98978,-0.64493 8.08861,-0.12846l0.00084,-0.01701c0,0 1.25,0 1.25,1.25c0,0.64263 -0.33038,0.95488 -0.65143,1.1066c0.19114,0.17411 0.29036,0.35453 0.29036,0.35453c0.10707,0.19467 2.36197,4.261 2.39442,4.45642c0.28788,1.73367 -0.05327,5.82392 -3.30461,5.42285c-0.63374,-0.07818 -0.97724,-0.65229 -1.27808,-1.29931c-0.08951,-0.04192 -0.18167,-0.09712 -0.27605,-0.16791c-0.6777,-0.50828 -0.55166,-1.13138 -0.40002,-1.48022l0.00444,-0.02427l-0.09821,0.00982l-0.20469,-2.04679c-0.0052,-0.04632 -0.00788,-0.09341 -0.00788,-0.14112c0,-0.69036 0.55964,-1.25 1.25,-1.25c0.51967,0 0.96527,0.31712 1.15385,0.7684l0.66679,1.50026c0.03514,-0.41276 0.05615,-0.7408 0.05484,-0.74561zM313.35235,183.94084l-0.20692,0.56617c0.07049,0.23466 0.14417,-0.09069 0.20692,-0.56617zM304.0363,177.25059c-0.20034,0.04262 -0.39826,0.09355 -0.59084,0.16317c-0.20884,0.07549 -0.72508,0.44527 -0.50318,0.4366c0.37735,-0.01474 0.74701,-0.31443 1.09402,-0.59977z" fill-opacity="0.67843" fill="#f4faff" stroke="none" stroke-width="0.5"/><path d="M322.21561,182.28906c1.05358,0.67266 0.38092,1.72624 0.38092,1.72624l-1.22732,1.87522c-1.60808,1.11977 -3.8376,2.86825 -6.12498,3.93302c0.07695,0.16221 0.12001,0.34364 0.12001,0.53511c0,0.69036 -0.55964,1.25 -1.25,1.25c-0.01142,0 -0.02281,-0.00015 -0.03416,-0.00046l-1.61646,-0.03802l0.00046,-0.01957l-0.04772,0.01756c-1.09319,-0.10841 -2.18585,-0.2169 -3.27803,-0.32918l-1.01352,0.1472c-0.06549,0.0106 -0.13268,0.0161 -0.20117,0.0161c-0.35565,0 -0.67661,-0.14853 -0.90423,-0.38694c-0.71043,-0.07727 -1.42067,-0.15715 -2.13075,-0.24068c0,0 -1.24144,-0.14605 -1.09538,-1.38749c0.14605,-1.24144 1.38749,-1.09538 1.38749,-1.09538c1.26502,0.14885 2.53061,0.286 3.79681,0.4176l1.20655,-0.20109l0.0301,0.18057c3.17616,-1.36585 6.32684,-2.51743 9.36018,-4.53866l0.91497,-1.48023c0,0 0.67266,-1.05358 1.72624,-0.38092z" fill-opacity="0.67843" fill="#f4faff" stroke="none" stroke-width="0.5"/><path d="M315.54684,178.80288c0,-0.23235 0.04319,-0.4215 0.11351,-0.5755c-0.07292,-0.41079 -0.16838,-0.84173 -0.25565,-1.27281l-0.61801,-1.77675c-0.4899,-1.40849 -0.974,-2.81906 -1.4456,-4.23379c0,0 -0.39528,-1.18585 0.79057,-1.58114c1.18585,-0.39528 1.58114,0.79057 1.58114,0.79057c0.06571,0.19715 0.13167,0.39422 0.19786,0.59121c0.02013,-0.00096 0.04039,-0.00145 0.06076,-0.00145c0.58089,0 1.06923,0.39623 1.2095,0.93317l0.40511,1.4179l-0.15694,0.04484c0.04061,0.26039 0.0711,0.52281 0.09207,0.78651c0.45776,1.34859 0.53368,2.73382 0.72641,4.75885l-1.45072,1.3684c0,0 -1.25,0 -1.25,-1.25z" fill-opacity="0.67843" fill="#f4faff" stroke="none" stroke-width="0.5"/><path d="M301.45552,193.07207c0.58824,-1.10294 1.69118,-0.51471 1.69118,-0.51471c0.71787,0.3832 1.43573,0.76639 2.1536,1.14959l1.49045,0.65604c0.03491,0.0134 0.06983,0.02865 0.10445,0.04598l0.63468,0.27936c0.45352,0.18756 0.77261,0.63432 0.77261,1.1556c0,0.69036 -0.55964,1.25 -1.25,1.25c-0.07677,0 -0.15192,-0.00692 -0.22487,-0.02017l-1.32701,-0.21715l-0.61363,0.06719l-2.39999,-0.6c-0.55665,-0.12632 -0.9722,-0.62414 -0.9722,-1.21902c0,-0.20958 0.05158,-0.40712 0.14274,-0.58061c-0.27288,-0.26816 -0.57205,-0.75829 -0.20202,-1.4521z" fill-opacity="0.67843" fill="#f4faff" stroke="none" stroke-width="0.5"/><path d="M323.25228,188.44304c0.88386,0.88391 -0.00006,1.76777 -0.00006,1.76777l-0.29575,0.29573c-0.58926,0.58926 -1.17851,1.17851 -1.76777,1.76777c0,0 -0.88388,0.88388 -1.76777,0c-0.88388,-0.88388 0,-1.76777 0,-1.76777c0.58926,-0.58926 1.17851,-1.17851 1.76777,-1.76777l0.29581,-0.29579c0,0 0.88391,-0.88386 1.76777,0.00006z" fill-opacity="0.67843" fill="#f4faff" stroke="none" stroke-width="0.5"/><path d="M301.79148,171.31566c0.88391,0.88386 0.00005,1.76777 0.00005,1.76777l-0.20637,0.20639c-0.34393,0.34392 -0.68785,0.68784 -1.03178,1.03177c0,0 -0.88389,0.88388 -1.76777,-0.00001c-0.88388,-0.88389 0.00001,-1.76777 0.00001,-1.76777c0.34393,-0.34392 0.68785,-0.68784 1.03178,-1.03177l0.20631,-0.20632c0,0 0.88386,-0.88391 1.76777,-0.00005z" fill-opacity="0.67843" fill="#f4faff" stroke="none" stroke-width="0.5"/><path d="M237.7572,180.00001c0,-45.42144 36.82137,-82.24281 82.24281,-82.24281c45.42147,0 82.24281,36.82139 82.24281,82.24281c0,45.42144 -36.82134,82.24281 -82.24281,82.24281c-45.42147,0 -82.24281,-36.8214 -82.24281,-82.24281z" fill="none" stroke="none" stroke-width="0"/></g></g></svg>