<svg version="1.1" xmlns="http://www.w3.org/2000/svg" xmlns:xlink="http://www.w3.org/1999/xlink" width="436.93695" height="349.84986" viewBox="0,0,436.93695,349.84986"><defs><radialGradient cx="240.00001" cy="180.00001" r="116.36637" gradientUnits="userSpaceOnUse" id="color-1"><stop offset="0" stop-color="#b3baff" stop-opacity="0.28235"/><stop offset="1" stop-color="#b3baff" stop-opacity="0"/></radialGradient><radialGradient cx="325.58559" cy="113.93394" r="116.36637" gradientUnits="userSpaceOnUse" id="color-2"><stop offset="0" stop-color="#b3baff" stop-opacity="0.28235"/><stop offset="1" stop-color="#b3baff" stop-opacity="0"/></radialGradient><radialGradient cx="121.38139" cy="231.05106" r="116.36637" gradientUnits="userSpaceOnUse" id="color-3"><stop offset="0" stop-color="#b3baff" stop-opacity="0.28235"/><stop offset="1" stop-color="#b3baff" stop-opacity="0"/></radialGradient></defs><g transform="translate(-5.01501,2.43243)"><g stroke="none" stroke-width="0" stroke-miterlimit="10"><path d="M123.63364,180.00001c0,-64.26737 52.099,-116.36637 116.36637,-116.36637c64.26737,0 116.36637,52.099 116.36637,116.36637c0,64.26737 -52.099,116.36637 -116.36637,116.36637c-64.26737,0 -116.36637,-52.099 -116.36637,-116.36637z" fill="url(#color-1)"/><path d="M209.21922,113.93394c0,-64.26737 52.099,-116.36637 116.36637,-116.36637c64.26737,0 116.36637,52.099 116.36637,116.36637c0,64.26737 -52.099,116.36637 -116.36637,116.36637c-64.26737,0 -116.36637,-52.099 -116.36637,-116.36637z" fill="url(#color-2)"/><path d="M5.01502,231.05106c0,-64.26737 52.099,-116.36637 116.36637,-116.36637c64.26737,0 116.36637,52.099 116.36637,116.36637c0,64.26737 -52.099,116.36637 -116.36637,116.36637c-64.26737,0 -116.36637,-52.099 -116.36637,-116.36637z" fill="url(#color-3)"/></g></g></svg>