<svg version="1.1" xmlns="http://www.w3.org/2000/svg" xmlns:xlink="http://www.w3.org/1999/xlink" width="164.48562" height="164.48562" viewBox="0,0,164.48562,164.48562"><g transform="translate(-237.75719,-97.75719)"><g stroke-miterlimit="10"><path d="M291.28517,180.00001c0,-15.85876 12.85607,-28.71483 28.71483,-28.71483c15.85877,0 28.71483,12.85608 28.71483,28.71483c0,15.85876 -12.85606,28.71483 -28.71483,28.71483c-15.85877,0 -28.71483,-12.85608 -28.71483,-28.71483z" fill="#b04646" stroke="none" stroke-width="0"/><path d="M291.28517,180.00001c0,-15.85876 12.85607,-28.71483 28.71483,-28.71483c15.85877,0 28.71483,12.85608 28.71483,28.71483c0,15.85876 -12.85606,28.71483 -28.71483,28.71483c-15.85877,0 -28.71483,-12.85608 -28.71483,-28.71483z" fill="#83352c" stroke="#4e0f08" stroke-width="3.5"/><path d="M326.66875,179.7424c0.02805,0.09818 0.04579,0.19063 0.05472,0.27764c0.04156,-0.14212 0.07601,-0.26114 0.1025,-0.35174c0.18653,-0.63782 0.31831,-1.19484 0.40026,-1.67934l-1.56229,-0.74258l-0.67972,0.13269c0.03838,-0.13401 0.07519,-0.26843 0.11054,-0.40323l-0.15864,-0.0754c0,0 0,-0.5866 0.40185,-0.95611c0.05874,-0.2773 0.11292,-0.55569 0.16366,-0.83484c-1.02915,0.07676 -2.40436,0.58491 -3.89143,1.12918c0.66506,0.74623 1.24142,1.42946 1.6803,1.97903c0.22247,0.33315 0.44494,0.6663 0.66741,0.99945l1.16553,-0.33325c0,0 1.2019,-0.3434 1.54531,0.8585zM325.81026,181.28771l-1.13303,0.32348c-0.02296,0.02591 -0.04737,0.05184 -0.0733,0.07778c-0.43801,0.43801 -0.87603,0.44191 -1.20647,0.33438c-0.99991,0.33033 -1.86241,0.59736 -2.80827,0.76448c0.03612,0.0673 0.07365,0.13743 0.11247,0.20974c0.2132,0.23565 0.2996,0.49485 0.2996,0.49485l-0.02017,0.01849c0.47995,0.86362 1.07694,1.81984 1.61547,2.04426c1.08606,0.45259 1.35323,-0.99442 2.14033,-1.64986c-0.04783,-0.23632 -0.10579,-0.4834 -0.17443,-0.74198c0,0 -0.30316,-1.21268 0.90952,-1.51584c0.30199,-0.0755 0.54758,-0.05699 0.74613,0.01339c0.09255,-0.28292 0.17787,-0.55382 0.25443,-0.80273c-0.27221,0.31813 -0.66227,0.42957 -0.66227,0.42957zM318.27409,180.47987c1.32212,0 2.24458,-0.17127 3.21694,-0.4581c-0.07286,-0.10948 -0.14571,-0.21896 -0.21857,-0.32844c-0.5971,-0.74497 -1.22296,-1.41469 -1.86952,-2.02254c-0.12831,0.04448 -0.26612,0.06864 -0.40956,0.06864c-0.69036,0 -1.25,-0.55964 -1.25,-1.25c0,-0.07074 0.00588,-0.14012 0.01717,-0.20765c-7.44482,-5.67403 -16.59603,-5.17496 -16.6633,-16.43846c0,0 0,-1.25 1.25,-1.25c1.25,0 1.25,1.25 1.25,1.25c-0.05667,7.86189 2.97503,7.31223 7.49166,8.48573c-0.81602,-0.61939 -0.1987,-2.24429 -0.68694,-3.20774c-1.7266,-3.40712 -3.69717,-6.16984 -4.99253,-9.81987l3.69083,-0.18919c0,0 1.23744,0.17677 1.06066,1.41421c-0.17677,1.23744 -1.41421,1.06066 -1.41421,1.06066l-0.68765,-0.48957c1.77956,1.4201 3.15221,3.96124 4.19082,6.0967c0.10048,-0.88235 0.30335,-1.74884 0.65644,-2.59625c0.42195,-1.01267 0.21375,-2.34604 0.9634,-3.14701c0.35401,-0.37825 1.12178,0.29332 1.55418,0.00797c1.21503,-0.8018 2.54583,-3.98437 3.5165,-5.2475l1.69703,-0.3829c0,0 1.23299,-0.2055 1.43849,1.02749c0.2055,1.23299 -1.02749,1.43849 -1.02749,1.43849l-0.76906,0.02812c-0.67822,1.2173 -1.67359,3.03414 -2.74916,4.32973c1.20541,0.91744 2.28089,2.17688 3.59991,2.44044c1.62055,0.32381 2.12096,-0.67346 3.27386,1.43563c1.88534,3.449 0.27478,7.54024 -1.68226,10.81023c0.97847,-0.33074 2.09376,-0.57325 3.16002,-0.65084c0.23736,-1.64878 0.46902,-3.28931 0.9248,-4.85167c0.32148,-1.10199 0.39361,-2.51804 1.33545,-3.17428c0.91591,-0.63818 4.06654,2.40227 4.9091,1.14415c1.67246,-2.49733 1.4932,-6.37262 3.17243,-9.09133c0,0 0.66249,-1.06 1.72249,-0.39751c1.06,0.66249 0.39751,1.72249 0.39751,1.72249c-1.63508,2.57996 -1.36804,7.30273 -3.40381,9.40436c-1.25183,1.29233 -2.61065,1.19209 -4.18365,0.78838c-0.51328,-0.13173 -1.01773,-0.36172 -1.42983,-0.69485c-0.15958,-0.12901 -0.14715,-0.79795 -0.16382,-0.59342c-0.17051,2.0919 -0.35658,4.04346 -0.65941,5.9898c0.68775,0.23322 1.22643,0.62775 1.50957,1.22753c0.61414,1.30097 0.89739,2.57778 0.90888,3.79897c2.4877,-2.67683 4.99935,-5.12062 5.84151,-5.35229c3.79372,-1.04364 4.81376,7.1335 7.23786,0.19032c0.38643,-0.47499 0.77285,-0.94998 1.15928,-1.42497l1.37127,-0.44976c0,0 1.25,0 1.25,1.25c0,0.95456 -0.72895,1.18017 -1.07353,1.2335c-0.17434,0.20262 -0.34869,0.40524 -0.52303,0.60786c-0.6297,2.02518 -1.21688,5.14244 -4.06626,5.15908c-2.00775,0.01172 -3.00347,-4.59757 -4.72548,-4.14673c-0.8479,0.22199 -2.06732,3.67137 -3.00649,4.47567c-0.98966,0.84753 -2.24689,1.66796 -3.44223,2.55503c0.89433,0.35156 1.77785,0.72115 2.60544,1.13427c0.98498,0.49169 2.30703,1.73305 3.41133,1.9145c0.74134,0.12181 1.25549,-0.82556 1.88812,-1.23077c1.72164,-1.10274 2.61353,-1.98393 4.83837,-0.85074c0.38493,0.19606 0.7391,0.69436 1.04564,1.26105c0.43702,0.1118 0.71912,0.46442 0.71912,0.46442c0.24621,0.31114 0.49241,0.62227 0.73862,0.93341l1.1406,0.94226c0,0 0.96028,0.80023 0.16005,1.76051c-0.80023,0.96028 -1.76051,0.16005 -1.76051,0.16005l-0.58361,-0.48997c-0.16936,0.09911 -0.38827,0.16317 -0.67124,0.16317c-1.19523,0 -1.2476,-1.14286 -1.24989,-1.24301c-0.20674,-0.66517 -0.27271,-1.46012 -0.83852,-1.81631c-1.37521,-0.86574 -3.90477,2.52818 -5.60397,2.43965c-1.44958,-0.07552 -3.15327,-1.57221 -4.39798,-2.19565c-1.13038,-0.56618 -2.37718,-1.04234 -3.60487,-1.50545c-0.31657,0.32891 -0.60406,0.67126 -0.85118,1.03026c3.77224,3.99031 -2.9074,11.10867 7.29857,11.06589c1.97003,0.03817 2.89143,0.43362 4.20601,1.65018c0.29254,0.02991 1.15416,0.20609 1.15416,1.24388c0,1.25 -1.25,1.25 -1.25,1.25l-1.29491,-0.36612c-1.05699,-1.08458 -1.30121,-1.32192 -2.81525,-1.27794c-7.1199,-0.03525 -8.01177,-3.29931 -9.11938,-9.32715c-2.14499,2.30585 -6.34276,2.61161 -7.54074,7.94265c-0.57557,2.56128 3.27869,2.83815 3.31909,8.59423c-0.0061,0.53251 0.02692,1.07415 0.12446,1.60066c0.28655,0.36331 0.28655,0.83152 0.28655,0.83152l-2.43585,0.80631c-0.33386,-1.03872 -0.46543,-2.14748 -0.47516,-3.23849c0.03039,-5.08397 -4.25023,-4.33927 -3.25716,-9.14725c1.405,-6.80232 7.1754,-6.04524 8.50819,-9.45067c-0.19326,0.26549 -0.39791,0.49941 -0.59502,0.58439c-0.78221,0.33722 -1.46285,0.37087 -2.06439,0.19912c-2.74687,0.65864 -5.6891,0.39426 -8.13925,-1.15873c-0.05796,0.16423 -0.1627,0.33482 -0.33328,0.5054c-0.21031,0.21031 -0.42062,0.32054 -0.61902,0.3664c-0.06884,0.99934 -0.15487,1.99112 -0.25574,2.99959l-0.00682,0.0147l0.005,0.00063l-0.20345,1.62761c-0.06895,0.62514 -0.59889,1.11141 -1.2424,1.11141c-0.52567,0 -0.97555,-0.32448 -1.16028,-0.78408l-0.41764,-0.9745c-1.73618,-0.4773 -1.16379,5.07068 -1.20009,5.16021c-0.41501,1.0234 -1.30089,1.83112 -2.19035,2.48567c-2.19223,1.61328 -4.01411,0.24767 -6.33455,0.27792l-1.08936,-0.57158c0,0 -0.88391,-0.88386 -0.00005,-1.76777c0.65183,-0.65187 1.30369,-0.34228 1.60102,-0.13481c2.23214,0.1939 4.47973,1.32912 5.76004,-1.3724c0.79719,-1.6821 -1.34143,-2.94598 0.12114,-4.72231c0.67649,-0.82161 2.79168,-1.93235 3.96346,-1.64666c0.09708,-1.20185 0.16046,-2.15958 0.46648,-3.0833c-1.60459,-1.49492 -3.93513,-3.19068 -5.59636,-1.27498c-0.63837,0.73616 -0.98876,1.8178 -1.47363,2.64829c-0.84427,1.44608 -1.74879,2.06194 -1.68497,3.79135l-0.04656,0.09676l0.03381,0.00563l-0.20213,1.21278c-0.0895,0.60252 -0.60895,1.06477 -1.23637,1.06477c-0.38936,0 -0.73714,-0.17802 -0.96639,-0.4571l-1.02143,-1.22571l0.07925,-0.06605c-1.33724,-1.07057 -2.66517,-2.14083 -4.19916,-2.90427l-0.87222,-1.90043c0,0 -0.24515,-1.22573 0.98058,-1.47087c1.22573,-0.24515 1.47087,0.98058 1.47087,0.98058l-0.4612,0.15465c1.12681,0.56574 3.20082,1.58229 4.16805,2.82629c0.85931,-3.473 4.10647,-8.27092 7.48222,-8.09308c-2.22785,-2.38057 -4.19007,-5.52811 -5.32654,-4.28067c-0.64744,0.71066 -2.5753,2.672 -3.50332,2.42058c-3.10097,-0.84014 -3.59833,-10.11848 -3.60189,-12.30583c0,0 0,-1.25 1.25,-1.25c1.25,0 1.25,1.25 1.25,1.25c-0.00233,1.31387 1.88206,7.84713 1.81823,9.54181c0.74576,-1.24509 2.67844,-3.9429 3.98816,-3.80264c0.18375,0.01968 8.103,11.83032 8.83034,6.97441c0.17898,-0.45892 0.35796,-0.91784 0.53693,-1.37676v-1.47246c0,-0.69036 0.55964,-1.25 1.25,-1.25c0.38936,0 0.73714,0.17802 0.96639,0.4571l1.02143,1.22571l-0.12072,0.1006c0.98462,0.82647 1.87701,1.70359 2.73411,2.63564c0.01472,-0.00064 0.02272,-0.00064 0.02272,-0.00064zM313.06876,168.95102c1.76438,0.66767 4.19376,2.77362 6.33268,4.93432c2.16134,-3.0914 3.84485,-6.1093 2.81264,-10.15095c-0.13786,-0.5398 -1.11859,-0.07031 -1.65832,-0.20843c-0.5873,-0.15029 -1.13171,-0.45722 -1.63729,-0.79173c-1.23094,-0.81441 -1.85152,-1.77001 -3.07848,-2.32603c-0.20196,0.76047 -0.79506,1.41315 -0.97326,2.18839c-0.2464,1.07195 -0.03291,2.2044 -0.17521,3.29506c-0.09887,0.75774 0.06239,1.77768 -0.55826,2.22348c-0.50193,0.36053 -1.19492,0.57241 -1.85279,0.55951c0.25886,0.08392 0.52172,0.1755 0.7883,0.27638zM312.2686,183.71642c1.64947,0.3511 4.6367,1.54758 7.32847,2.1608c-0.15632,-0.22309 -0.30625,-0.45324 -0.45108,-0.68483l-0.10117,0.0927c-0.88631,-1.11138 -3.43495,-3.36201 -4.52138,-5.12527c-0.10646,0.29289 -0.21292,0.58577 -0.31938,0.87866c-0.77687,1.6135 -1.59224,2.46682 -2.421,2.79117c0.0724,0.0629 0.14424,0.12635 0.21554,0.19021c0.08533,-0.09978 0.17524,-0.20086 0.27,-0.30345z" fill="#4e0f08" stroke="none" stroke-width="0.5"/><path d="M332.98211,167.37727c0.24832,-0.11453 0.49772,-0.20444 0.74668,-0.26555c0.09932,-0.02438 0.1991,-0.0415 0.2993,-0.05248l-0.00394,-0.02755l1.41728,-0.20247c0.06451,-0.01027 0.13067,-0.0156 0.19807,-0.0156c0.69036,0 1.25,0.55964 1.25,1.25c0,0.29906 -0.10502,0.57359 -0.2802,0.78872l-0.75301,0.9411c0.00375,0.03941 0.00566,0.07935 0.00566,0.11974c0,0.27621 -0.08959,0.53149 -0.24129,0.73838l-1.01908,1.42672l-0.00176,-0.00126l-0.17276,0.24124l-0.00569,-0.00408l0.00302,0.00779c-0.26566,0.36499 -0.58679,0.83364 -0.94129,1.34242c0.12398,2.31301 -0.59181,5.17234 -1.42837,5.89415c-0.64944,0.56036 -1.49602,0.54577 -2.36721,0.23298c-0.04148,0.34571 -0.22957,0.74287 -0.81361,0.95525c-0.11983,0.04358 -0.23189,0.07048 -0.3365,0.08367c0.50382,0.68436 0.8104,1.54456 0.95192,2.3716c0.22909,1.33878 -0.28519,2.6766 -0.59555,4.02276c0.6727,-0.37594 1.15814,0.34642 1.46012,1.35644l0.45634,-0.91268c0.20043,-0.42281 0.63114,-0.7152 1.13014,-0.7152c0.63664,0 1.16212,0.47594 1.24004,1.09143l0.2029,1.42036l-0.03055,0.00436c0.01801,0.08878 0.03135,0.17877 0.03929,0.27018c0.1707,1.96602 -2.18222,4.46363 -1.87761,6.40352c0.06871,0.43755 0.76849,0.6022 0.82515,1.04147c0.2885,2.2365 -1.1406,5.13413 -1.41946,7.40883l-2.81237,0.22843c0,0 -0.99999,-0.75001 -0.24999,-1.75c0.32042,-0.42722 0.68646,-0.53503 1.00067,-0.51838c0.51177,-1.69135 1.25479,-3.70658 1.03865,-4.8358c-0.08166,-0.42662 -0.77484,-0.58151 -0.81891,-1.01363c-0.08761,-0.859 0.2579,-1.70861 0.44987,-2.55101c-0.08365,0.01764 -0.17038,0.02692 -0.25927,0.02692c-0.69036,0 -1.25,-0.55964 -1.25,-1.25c0,-0.0674 0.00534,-0.13356 0.01561,-0.19807l0.20248,-1.41727l0.00068,0.0001c0.04987,-0.29213 0.09605,-0.58494 0.1459,-0.87708l-0.00987,0.01152c-0.22929,0.27078 -0.57175,0.44268 -0.95436,0.44268c-0.69036,0 -1.25,-0.55964 -1.25,-1.25c0,-0.01428 0.00024,-0.0285 0.00071,-0.04267l0.04219,-1.43347l0.0151,0.00044l-0.01293,-0.04607c0.08949,-0.86656 0.12836,-1.73985 0.26847,-2.59967c0.12004,-0.73666 0.31471,-1.45991 0.5104,-2.18017c0.06743,-0.24818 0.53316,-0.74804 0.27753,-0.71988c-0.44503,0.04904 -0.74185,1.10856 -1.0733,0.80756c-1.9855,-1.80309 -1.15064,-3.81347 -0.23368,-5.70269c-0.0615,0.00931 -0.12447,0.01413 -0.18857,0.01413c-0.08856,0 -0.17496,-0.00921 -0.25831,-0.02672l0.01569,0.05604c0.03515,0.11539 0.05405,0.23786 0.05405,0.36475c0,0.50467 -0.29907,0.93948 -0.72965,1.13688c-0.1974,0.43058 -0.63221,0.72965 -1.13688,0.72965c-0.42534,0 -0.80106,-0.21244 -1.02685,-0.53701l-1.44341,-2.02078l0.00979,-0.00699c-0.0177,-0.01902 -0.0353,-0.03813 -0.0528,-0.05736c-1.83057,-2.01072 -2.71592,-5.73878 -3.50033,-8.91273c-0.30784,-0.79008 -0.61016,-1.60119 -0.91535,-2.44044c0,0 -0.23114,-0.63564 0.11419,-1.14181l0.01612,-1.35346c0.00463,-0.45387 0.25116,-0.8498 0.6168,-1.06501c-0.01749,-0.04671 -0.03498,-0.09342 -0.05246,-0.14013l0.0059,-0.06513l-0.02317,0.00618l-0.49763,-1.86707c-0.03223,-0.1109 -0.0495,-0.22816 -0.0495,-0.34945c0,-0.69036 0.55964,-1.25 1.25,-1.25c0.55306,0 1.02222,0.35917 1.18697,0.85698l0.2362,0.66135c-0.00103,-0.02081 -0.00155,-0.04175 -0.00155,-0.06282c0,-0.69036 0.55964,-1.25 1.25,-1.25c0.38571,0 0.73061,0.17469 0.95991,0.44928l1.60918,1.90177l-0.01103,0.00933c0.02514,0.02404 0.05009,0.0483 0.07485,0.07279c0.75483,0.74661 0.92682,1.97608 1.49846,2.8551c0.17699,-0.09604 0.37978,-0.15058 0.5953,-0.15058c0.20302,0 0.39473,0.0484 0.56423,0.13428c0.28941,-0.00362 0.57311,0.03148 0.84413,0.13065c0.13423,0.04911 0.26536,0.10679 0.39322,0.17201c0.00941,-0.00192 0.0188,-0.00373 0.02816,-0.00544c1.5336,-0.27961 3.63893,-1.05568 5.04714,0.38021c0.56444,0.57554 0.70367,1.51329 0.53563,2.42355zM320.05568,162.04875l0.00095,-0.01379l-0.00458,0.00131l-0.00116,-0.00407l-0.00539,0.00192c0.00965,0.02528 0.01931,0.05056 0.02898,0.07583c-0.0064,-0.02094 -0.01266,-0.04135 -0.0188,-0.06121zM330.71779,177.09153c-0.13148,0.11703 -0.26085,0.2216 -0.38725,0.31127c0.11356,0.13188 0.21834,0.24072 0.26241,0.12764c0.056,-0.1437 0.09653,-0.29018 0.12484,-0.43891zM329.92339,169.93358c0.08322,-0.09919 0.16767,-0.19736 0.25324,-0.29425c-0.08641,-0.0707 -0.17144,-0.14984 -0.25577,-0.23318c0.00304,0.17892 0.00354,0.35556 0.00254,0.52744z" fill="#df5224" stroke="none" stroke-width="0.5"/><path d="M317.30814,191.74844c0.97609,0.78087 0.19522,1.75695 0.19522,1.75695c-1.04116,1.30145 -2.24696,2.8087 -3.28812,4.11015c0,0 -0.78087,0.97609 -1.75695,0.19522c-0.97609,-0.78087 -0.19522,-1.75695 -0.19522,-1.75695c1.04116,-1.30145 2.08232,-2.6029 3.12348,-3.90434l0.16465,-0.20581c0,0 0.78087,-0.97609 1.75695,-0.19522z" fill="#df5224" stroke="none" stroke-width="0.5"/><path d="M298.28432,185.00053c-1.44908,-0.99728 -0.51855,-4.68357 -0.19497,-6.14413l-0.39898,0.69821c-0.21221,0.38786 -0.62406,0.65089 -1.09734,0.65089c-0.69036,0 -1.25,-0.55964 -1.25,-1.25c0,-0.16036 0.0302,-0.31366 0.08521,-0.45454l0.64936,-1.78507l0.01218,0.00443l0.00025,-0.03715c1.42319,-3.32155 2.39914,-6.93348 4.19221,-10.07207c0.52105,-0.91205 0.77839,-2.07772 1.62446,-2.70021c0.0079,-0.00581 0.01585,-0.0115 0.02385,-0.01706c0.00238,-0.00264 0.00476,-0.00527 0.00714,-0.0079l-0.01399,-0.00933l0.81128,-1.21691c0.22257,-0.34463 0.61005,-0.57276 1.05082,-0.57276c0.69036,0 1.25,0.55964 1.25,1.25c0,0.12924 -0.01961,0.2539 -0.05603,0.37116l-0.06575,0.23012c0.27892,0.17 0.53279,0.47945 0.53279,1.04278c0,0.05267 -0.00222,0.10311 -0.00647,0.15144c0.37252,0.21642 0.62299,0.61976 0.62299,1.08161c0,0.14496 -0.02467,0.28415 -0.07005,0.41361l-0.68232,2.10248c-0.19247,0.61401 -0.36574,1.22785 -0.52325,1.84267c0.19039,-0.24548 0.38658,-0.48892 0.58918,-0.73027l0.12453,-0.04542l-0.03039,-0.03799l1.01976,-0.81581c0.21512,-0.17514 0.48962,-0.28013 0.78864,-0.28013c0.69036,0 1.25,0.55964 1.25,1.25c0,0.14845 -0.02588,0.29086 -0.07337,0.42297l-0.6073,1.82189l-0.35083,-0.11694c-0.78439,3.13287 -2.37303,6.32715 -4.13226,8.95574c-0.03088,0.59729 -0.08054,1.1988 -0.15214,1.80682l-0.12354,0.12986l0.07176,0.02884l-0.46588,1.15902c-0.1778,0.47369 -0.63486,0.81081 -1.17066,0.81081c-0.43439,0 -0.81703,-0.22158 -1.04106,-0.55788c-0.7859,0.6464 -1.60281,1.03711 -2.19983,0.62623z" fill="#df5224" stroke="none" stroke-width="0.5"/><path d="M320.29402,198.50988c0.90363,-0.25818 1.32199,0.35712 1.47398,0.67842c0.15665,-0.07067 0.33047,-0.10999 0.51348,-0.10999c0.69036,0 1.25,0.55964 1.25,1.25c0,0.27621 -0.08959,0.53149 -0.24128,0.73838l-1.01908,1.42673c0,0 -0.72654,1.01717 -1.74371,0.29063c-0.6879,-0.49135 -0.57829,-1.11562 -0.43524,-1.4683l-0.65665,-1.26056c0,0 -0.3434,-1.20191 0.85851,-1.5453z" fill="#df5224" stroke="none" stroke-width="0.5"/><path d="M341.05366,190.71377l0.3653,0.1967l-1.17308,2.17857c-0.20723,0.40374 -0.62774,0.67998 -1.11276,0.67998c-0.69036,0 -1.25,-0.55964 -1.25,-1.25c0,-0.12924 0.01961,-0.2539 0.05603,-0.37116l0.39593,-1.38577c0.68712,-3.01954 1.80641,-5.89587 2.68145,-8.87116c0,0 0.26674,-0.90694 1.125,-0.91142l0.31781,-0.9534c0.15709,-0.51078 0.63267,-0.88205 1.19497,-0.88205c0.69036,0 1.25,0.55964 1.25,1.25v2.26058h-0.30506c0.12722,1.60675 -0.20759,2.95125 -1.01878,5.19438l-0.03159,0.03346l0.01465,0.00651l-0.81045,1.82349c-0.18858,0.45128 -0.63418,0.7684 -1.15385,0.7684c-0.12627,0 -0.24816,-0.01872 -0.36306,-0.05354c-0.05979,0.09579 -0.1206,0.19126 -0.18248,0.28642z" fill="#df5224" stroke="none" stroke-width="0.5"/><path d="M237.7572,180.00001c0,-45.42144 36.82137,-82.24281 82.24281,-82.24281c45.42147,0 82.24281,36.82139 82.24281,82.24281c0,45.42144 -36.82134,82.24281 -82.24281,82.24281c-45.42147,0 -82.24281,-36.8214 -82.24281,-82.24281z" fill="none" stroke="none" stroke-width="0"/></g></g></svg>