<svg version="1.1" xmlns="http://www.w3.org/2000/svg" xmlns:xlink="http://www.w3.org/1999/xlink" width="506.00601" height="426.42643" viewBox="0,0,506.00601,426.42643"><defs><radialGradient cx="212.97298" cy="180.75075" r="116.36637" gradientUnits="userSpaceOnUse" id="color-1"><stop offset="0" stop-color="#b3baff" stop-opacity="0.28235"/><stop offset="1" stop-color="#b3baff" stop-opacity="0"/></radialGradient><radialGradient cx="298.55856" cy="113.18318" r="116.36637" gradientUnits="userSpaceOnUse" id="color-2"><stop offset="0" stop-color="#b3baff" stop-opacity="0.28235"/><stop offset="1" stop-color="#b3baff" stop-opacity="0"/></radialGradient><radialGradient cx="197.95796" cy="240.81081" r="116.36637" gradientUnits="userSpaceOnUse" id="color-3"><stop offset="0" stop-color="#b3baff" stop-opacity="0.28235"/><stop offset="1" stop-color="#b3baff" stop-opacity="0"/></radialGradient><radialGradient cx="103.36337" cy="83.15315" r="116.36637" gradientUnits="userSpaceOnUse" id="color-4"><stop offset="0" stop-color="#b3baff" stop-opacity="0.28235"/><stop offset="1" stop-color="#b3baff" stop-opacity="0"/></radialGradient><radialGradient cx="376.63663" cy="276.84685" r="116.36637" gradientUnits="userSpaceOnUse" id="color-5"><stop offset="0" stop-color="#b3baff" stop-opacity="0.28235"/><stop offset="1" stop-color="#b3baff" stop-opacity="0"/></radialGradient></defs><g transform="translate(13.003,33.21322)"><g stroke="none" stroke-width="0" stroke-miterlimit="10"><path d="M96.60661,180.75075c0,-64.26737 52.099,-116.36637 116.36637,-116.36637c64.26737,0 116.36637,52.099 116.36637,116.36637c0,64.26737 -52.099,116.36637 -116.36637,116.36637c-64.26737,0 -116.36637,-52.099 -116.36637,-116.36637z" fill="url(#color-1)"/><path d="M182.19219,113.18318c0,-64.26737 52.099,-116.36637 116.36637,-116.36637c64.26737,0 116.36637,52.099 116.36637,116.36637c0,64.26737 -52.099,116.36637 -116.36637,116.36637c-64.26737,0 -116.36637,-52.099 -116.36637,-116.36637z" fill="url(#color-2)"/><path d="M81.59159,240.81081c0,-64.26737 52.099,-116.36637 116.36637,-116.36637c64.26737,0 116.36637,52.099 116.36637,116.36637c0,64.26737 -52.099,116.36637 -116.36637,116.36637c-64.26737,0 -116.36637,-52.099 -116.36637,-116.36637z" fill="url(#color-3)"/><path d="M-13.003,83.15315c0,-64.26737 52.099,-116.36637 116.36637,-116.36637c64.26737,0 116.36637,52.099 116.36637,116.36637c0,64.26737 -52.099,116.36637 -116.36637,116.36637c-64.26737,0 -116.36637,-52.099 -116.36637,-116.36637z" fill="url(#color-4)"/><path d="M260.27026,276.84685c0,-64.26737 52.099,-116.36637 116.36637,-116.36637c64.26737,0 116.36637,52.099 116.36637,116.36637c0,64.26737 -52.099,116.36637 -116.36637,116.36637c-64.26737,0 -116.36637,-52.099 -116.36637,-116.36637z" fill="url(#color-5)"/></g></g></svg>