<svg version="1.1" xmlns="http://www.w3.org/2000/svg" xmlns:xlink="http://www.w3.org/1999/xlink" width="1035.08994" height="759.75976" viewBox="0,0,1035.08994,759.75976"><g transform="translate(160.84796,183.28552)"><g stroke="none" stroke-miterlimit="10"><path d="M206.02133,139.56061c4.70473,1.78668 7.77191,4.46262 13.1903,5.40587c8.21282,1.42973 16.01822,0.65666 24.32149,3.06052c7.47057,2.16279 15.98129,7.61003 23.32796,7.39867c12.97468,-0.00509 22.40149,5.41641 34.93794,7.5261c16.59908,2.79337 33.17025,0.83167 49.91298,-0.30986c16.58292,-4.12113 34.20857,-2.20139 51.08517,-4.52995c11.91029,-1.64333 22.49414,-8.78914 34.36141,-11.55412c-5.35566,-5.60872 -1.93624,-15.65377 -3.10797,-22.83178c-2.64598,-16.20932 -12.44656,-35.99643 -23.70141,-47.12489c-0.95924,-2.87396 -3.10903,-8.00806 -5.52128,-9.93404c-2.22519,-1.77664 -16.22444,-3.00933 -19.95895,-3.9522c-16.07217,-4.05777 -28.94252,-13.43529 -45.97744,-13.42861c-22.60835,0.00886 -50.72845,4.48149 -70.7577,15.75264c-4.235,2.38318 -6.47596,6.95322 -10.47642,9.41616c-2.32076,1.42881 -4.8601,3.19496 -5.81483,5.7476c-2.87001,1.9709 -6.45384,2.80638 -9.1974,4.94981c-4.98677,3.89597 -6.27676,10.85442 -9.80078,15.67194c-9.47305,12.95017 -19.63962,24.29141 -26.81656,38.72355c0,0 -0.00218,0.00435 -0.00653,0.01258zM10.57196,159.31221c0.11869,-0.92516 0.79958,-1.58321 0.79958,-1.58321l3.51455,-3.38266c4.33127,-2.89611 7.51505,-4.24299 12.27671,-6.14391c3.01272,-1.20273 6.21197,-4.01959 9.38952,-4.63161c1.24612,-0.24002 2.65886,0.8484 3.79634,0.28576c0.92231,-0.45622 0.46629,-2.19038 1.29294,-2.80313c1.49803,-1.11041 3.55571,-1.17282 5.21603,-2.0216c3.15587,-1.61333 4.25724,-3.56065 7.70918,-4.47709c0.96748,-0.25685 2.02947,0.23172 3.003,-0.00118c2.55978,-0.61235 5.35819,-2.76279 7.81412,-3.84222c3.91082,-7.82932 13.79005,-9.34726 19.80518,-15.42711c14.37601,-14.53072 26.30516,-31.71799 41.24457,-45.46845c0.53989,-4.04812 31.67188,-40.72315 36.81254,-44.50824c8.35122,-6.14906 17.39165,-6.53721 24.01813,-15.02443c6.69807,-2.30672 10.90154,-7.89116 16.51181,-12.01849c2.91399,-2.14375 36.90448,-17.67378 39.91921,-18.43868c4.05469,-1.02878 17.1195,-2.2352 18.47607,-4.72517c4.9964,-2.53442 20.66378,-6.28293 23.86847,-9.64109c1.81625,-1.90322 4.22655,-6.53983 6.45636,-7.86889c8.80667,-5.24919 29.23024,4.11967 38.85348,4.1159c4.31883,0.03927 7.16708,2.04949 11.08609,3.06554c18.32203,4.7502 50.3289,-4.88435 69.07083,4.47743c6.96953,-0.00274 26.78611,14.91057 32.56851,20.02187c2.10506,1.86074 2.0812,5.47325 4.21819,7.29725c1.55863,1.33035 7.18015,2.57725 9.46435,4.85966c4.76095,4.75722 8.58931,13.43409 14.71539,16.25041c1.73084,1.72948 2.28772,4.60378 4.35937,5.90577c2.79812,1.75857 8.40976,3.08209 11.18554,6.61077c0.80421,1.02234 10.4096,15.32457 11.14947,15.79356c0.90057,0.57084 2.35227,-0.54397 3.19694,0.10671c6.8602,5.28463 9.59962,18.21705 14.26419,24.71984c3.29356,4.59148 8.06788,7.46753 7.77344,13.98937c6.15879,5.6663 7.12283,12.42665 11.7342,19.00094c9.03959,12.88746 21.42233,22.93453 33.98092,32.45339c2.67741,2.02936 6.86797,2.40035 9.31688,4.76119c1.21663,1.17288 1.77827,3.12962 3.31262,3.83786c12.7844,-0.35707 25.13096,7.06882 36.84942,10.56832c8.98318,2.68266 19.59166,1.95091 27.94931,7.21062c8.01296,5.0428 13.07484,13.83934 20.71221,19.13922c1.65028,4.57612 6.47334,14.23477 3.15045,19.34709c-4.52488,6.96161 -48.59654,10.21373 -58.68419,10.21768c-28.04681,0.01099 -57.56379,-2.2636 -84.27235,4.51881c-28.7732,0.12333 -57.12045,3.03204 -86.02191,3.05997c-30.12491,0.8693 -60.62583,6.60793 -90.69565,0.51919c-21.88001,-4.43353 -58.9246,-0.46506 -83.36148,-0.45548c-29.19097,0.01144 -56.64035,-2.9808 -85.57174,-2.96947c-5.40179,-0.14663 -11.63183,2.25346 -17.1898,2.98766c-20.03048,2.646 -42.14316,0.03861 -62.38859,0.04654c-17.56705,-0.03281 -34.83276,-4.1992 -51.62839,-7.55415c-10.315,-2.06044 -23.40899,0.07606 -33.9636,0.08019c-8.3968,-0.02404 -16.33886,-1.56514 -24.4222,-3.02571c-4.2433,-0.76672 -16.23656,2.45778 -19.44509,-0.75385c-1.38234,-1.38368 -0.84989,-3.97882 -0.3121,-5.85929c0.60778,-2.12521 21.68302,-28.91237 25.04738,-34.09815c4.25495,-2.90027 8.23465,-5.73255 12.07362,-8.5252z" fill="#ffaa4e" fill-rule="nonzero" stroke-width="0.5"/><path d="M172.94882,58.43667c34.88795,-47.14837 90.82757,-77.65803 153.90437,-77.68275c63.0768,-0.02473 119.04078,30.44107 153.96436,77.56208l5.26027,7.11548c32.09781,43.48103 70.27298,95.18998 127.72258,117.69031l26.00635,10.18997l-78.42387,0.03074l-84.02581,0.03294l-300.8418,0.11792l-84.02457,0.03294l-78.4272,0.03074l26.0013,-10.21035c57.43071,-22.54536 95.56523,-74.28422 127.6298,-117.79002zM101.81593,236.05881l-200.22432,0.07848c-10.22229,0.00401 -19.00164,-7.26626 -20.90478,-17.30828c-1.90276,-10.04201 3.60854,-20.01892 13.12376,-23.7573l130.70951,-51.31576c45.70011,-17.94262 77.10963,-60.41702 111.56008,-107.00296l2.67577,-3.61791c42.56037,-57.51702 110.95402,-94.88711 188.08048,-94.91735c77.12646,-0.03023 145.54767,37.28623 188.15312,94.77035l2.68117,3.61534c34.48524,46.55882 65.92758,89.00868 111.64392,106.91547l130.74637,51.21326c9.521,3.73092 15.03765,13.70351 13.14448,23.74701c-1.89745,10.04351 -10.66976,17.32066 -20.89121,17.32466l-200.22604,0.07848c-27.74184,98.20548 -117.96681,170.19076 -225.06841,170.23274c-107.10341,0.04198 -197.38641,-71.87245 -225.204,-170.05625zM146.42524,236.04132c26.30327,74.33429 97.24975,127.57022 180.57792,127.53756c83.32827,-0.03266 154.23204,-53.32419 180.4775,-127.67909l-45.98157,0.01802c-23.8643,50.28709 -75.09389,85.10169 -134.5126,85.12499c-59.41444,0.02329 -110.67217,-34.75115 -134.57588,-85.01951zM326.88654,65.82616c43.59525,-0.01709 81.10109,26.21727 97.52206,63.76595l-194.99534,0.07643c16.39277,-37.56155 53.87803,-63.8253 97.47328,-63.84238zM326.86987,23.28999c-73.78736,0.02893 -134.98259,53.71477 -146.77032,124.14819c-1.03291,6.16812 0.70337,12.47982 4.74616,17.25505c4.04326,4.77523 9.98273,7.52495 16.23859,7.5225l251.68699,-0.09865c6.2571,-0.00245 12.19403,-2.75683 16.23307,-7.53522c4.03904,-4.77841 5.77209,-11.09146 4.73178,-17.25877c-11.83989,-70.42415 -73.0789,-124.06201 -146.86627,-124.03309z" fill="#000000" fill-rule="evenodd" stroke-width="1"/><path d="M192.45579,236.04471c23.90371,50.26836 75.11623,84.97139 134.53067,84.94811c59.41872,-0.02329 110.60316,-34.76646 134.46746,-85.05354l46.07387,-0.05614c-26.24546,74.35489 -97.19634,127.7131 -180.52461,127.74576c-83.32817,0.03267 -154.32182,-53.26992 -180.62509,-127.6042z" fill="#ffaa4e" fill-rule="evenodd" stroke-width="0.5"/><path d="M172.94882,58.43667c34.88795,-47.14837 90.82757,-77.65803 153.90437,-77.68275c63.0768,-0.02473 119.04078,30.44107 153.96436,77.56208l5.26027,7.11548c32.09781,43.48103 70.27298,95.18998 127.72258,117.69031l26.00635,10.18997l-78.42387,0.03074l-84.02581,0.03294l-300.8418,0.11792l-84.02457,0.03294l-78.4272,0.03074l26.0013,-10.21035c57.43071,-22.54536 95.56523,-74.28422 127.6298,-117.79002zM101.81593,236.05881l-200.22432,0.07848c-10.22229,0.00401 -19.00164,-7.26626 -20.90478,-17.30828c-1.90276,-10.04201 3.60854,-20.01892 13.12376,-23.7573l130.70951,-51.31576c45.70011,-17.94262 77.10963,-60.41702 111.56008,-107.00296l2.67577,-3.61791c42.56037,-57.51702 110.95402,-94.88711 188.08048,-94.91735c77.12646,-0.03023 145.54767,37.28623 188.15312,94.77035l2.68117,3.61534c34.48524,46.55882 65.92758,89.00868 111.64392,106.91547l130.74637,51.21326c9.521,3.73092 15.03765,13.70351 13.14448,23.74701c-1.89745,10.04351 -10.66976,17.32066 -20.89121,17.32466l-200.22604,0.07848c-27.74184,98.20548 -117.96681,170.19076 -225.06841,170.23274c-107.10341,0.04198 -197.38641,-71.87245 -225.204,-170.05625zM146.42524,236.04132c26.30327,74.33429 97.24975,127.57022 180.57792,127.53756c83.32827,-0.03266 154.23204,-53.32419 180.4775,-127.67909l-45.98157,0.01802c-23.8643,50.28709 -75.09389,85.10169 -134.5126,85.12499c-59.41444,0.02329 -110.67217,-34.75115 -134.57588,-85.01951zM326.88654,65.82616c43.59525,-0.01709 81.10109,26.21727 97.52206,63.76595l-194.99534,0.07643c16.39277,-37.56155 53.87803,-63.8253 97.47328,-63.84238z" fill="#000000" fill-rule="evenodd" stroke-width="1"/><path d="M-160.84796,576.47424v-759.75976h1035.08994v759.75976z" fill="none" fill-rule="nonzero" stroke-width="0"/></g></g></svg>