<svg version="1.1" xmlns="http://www.w3.org/2000/svg" xmlns:xlink="http://www.w3.org/1999/xlink" width="114.2786" height="114.2786" viewBox="0,0,114.2786,114.2786"><defs><radialGradient cx="320.00001" cy="180.00002" r="57.1393" gradientUnits="userSpaceOnUse" id="color-1"><stop offset="0" stop-color="#ffd9d9"/><stop offset="1" stop-color="#ffd9d9" stop-opacity="0"/></radialGradient><radialGradient cx="320" cy="180" r="27.5" gradientUnits="userSpaceOnUse" id="color-2"><stop offset="0" stop-color="#ffffff"/><stop offset="1" stop-color="#ab4040"/></radialGradient></defs><g transform="translate(-262.8607,-122.86071)"><g stroke="none" stroke-width="0" stroke-miterlimit="10"><path d="M262.8607,180.00002c0,-31.55719 25.58212,-57.1393 57.1393,-57.1393c31.55719,0 57.1393,25.58212 57.1393,57.1393c0,31.55719 -25.58212,57.1393 -57.1393,57.1393c-31.55719,0 -57.1393,-25.58212 -57.1393,-57.1393z" fill="url(#color-1)"/><path d="M292.5,180c0,-15.18783 12.31217,-27.5 27.5,-27.5c15.18783,0 27.5,12.31217 27.5,27.5c0,15.18783 -12.31217,27.5 -27.5,27.5c-15.18783,0 -27.5,-12.31217 -27.5,-27.5z" fill="url(#color-2)"/></g></g></svg>