<svg version="1.1" xmlns="http://www.w3.org/2000/svg" xmlns:xlink="http://www.w3.org/1999/xlink" width="192.67557" height="192.67557" viewBox="0,0,192.67557,192.67557"><defs><radialGradient cx="240" cy="180" r="52.94768" gradientUnits="userSpaceOnUse" id="color-1"><stop offset="0" stop-color="#ff8c8c"/><stop offset="1" stop-color="#ff8c8c" stop-opacity="0"/></radialGradient><radialGradient cx="240" cy="180" r="96.33779" gradientUnits="userSpaceOnUse" id="color-2"><stop offset="0" stop-color="#ff8c8c"/><stop offset="1" stop-color="#ff8c8c" stop-opacity="0"/></radialGradient></defs><g transform="translate(-143.66221,-83.66221)"><g stroke="none" stroke-miterlimit="10"><path d="M187.05232,180c0,-29.24219 23.70549,-52.94768 52.94768,-52.94768c29.24219,0 52.94768,23.70549 52.94768,52.94768c0,29.24219 -23.70549,52.94768 -52.94768,52.94768c-29.24219,0 -52.94768,-23.70549 -52.94768,-52.94768z" fill="url(#color-1)" fill-rule="nonzero" stroke-width="0"/><path d="M143.66221,180c0,-53.20588 43.13191,-96.33779 96.33779,-96.33779c53.20588,0 96.33779,43.13191 96.33779,96.33779c0,53.20588 -43.13191,96.33779 -96.33779,96.33779c-53.20588,0 -96.33779,-43.13191 -96.33779,-96.33779z" fill="url(#color-2)" fill-rule="nonzero" stroke-width="0"/><path d="M239.01,241.44c0,-16.15 -6.04,-30.27 -18.11,-42.34c-12.07,-12.07 -26.18,-18.11 -42.34,-18.11v-1.98c16.16,0 30.27,-6.04 42.34,-18.14c12.07,-12.1 18.11,-26.21 18.11,-42.31h1.98c0,16.15 6.04,30.27 18.11,42.34c12.07,12.07 26.18,18.11 42.34,18.11v1.98c-16.15,0 -30.27,6.04 -42.34,18.11c-12.07,12.07 -18.11,26.18 -18.11,42.34z" fill="#ff7272" fill-rule="evenodd" stroke-width="1"/><path d="M239.35652,219.9346c0,-10.49714 -3.92586,-19.67481 -11.77109,-27.52004c-7.84523,-7.84523 -17.0164,-11.77109 -27.52004,-11.77109v-1.28696c10.50364,0 19.67481,-3.92586 27.52004,-11.79059c7.84523,-7.86472 11.77109,-17.03591 11.77109,-27.50054h1.28696c0,10.49713 3.92585,19.67482 11.77109,27.52004c7.84523,7.84523 17.01641,11.77109 27.52004,11.77109v1.28696c-10.49714,0 -19.67481,3.92586 -27.52004,11.77109c-7.84522,7.84523 -11.77109,17.0164 -11.77109,27.52004z" fill="#ffffff" fill-rule="evenodd" stroke-width="1"/></g></g></svg>