<svg version="1.1" xmlns="http://www.w3.org/2000/svg" xmlns:xlink="http://www.w3.org/1999/xlink" width="100.97735" height="37.48925" viewBox="0,0,100.97735,37.48925"><g transform="translate(-268.71734,-162.57342)"><g fill="#ff0000" stroke="none" stroke-width="0.5" stroke-miterlimit="10"><path d="M344.67018,162.70601c6.56965,-0.41597 12.97076,0.24743 19.58502,0.60871c1.49347,0.08158 4.80035,0.73197 5.25384,2.56271c2.07438,8.37429 -13.85233,4.52433 -17.01961,4.31571c-11.82765,-0.77906 -25.01361,-0.65564 -36.0628,3.29971c-7.50141,2.68532 -15.88222,3.99126 -22.21166,8.83071c-4.86416,3.71911 -9.65753,7.53049 -14.43436,11.36111c-2.13089,1.70879 -3.03857,5.08181 -5.68596,6.14557c-0.20484,0.08231 -0.43884,0.13829 -0.69195,0.16872c-0.57657,0.10795 -1.18704,0.08181 -1.78673,-0.10212c-0.19916,-0.06108 -0.38956,-0.13725 -0.57031,-0.22685c-1.63078,-0.61837 -2.95612,-2.02214 -2.01449,-4.05849c0.02551,-0.13334 0.0585,-0.26664 0.09922,-0.39941c0.16834,-0.54887 0.45118,-1.0311 0.81429,-1.42853c14.32049,-24.02069 49.98364,-29.51099 74.72551,-31.07755z"/></g></g></svg>