<svg version="1.1" xmlns="http://www.w3.org/2000/svg" xmlns:xlink="http://www.w3.org/1999/xlink" width="335.65679" height="335.65679" viewBox="0,0,335.65679,335.65679"><defs><radialGradient cx="320" cy="180" r="95.57108" gradientUnits="userSpaceOnUse" id="color-1"><stop offset="0" stop-color="#de9b84"/><stop offset="1" stop-color="#de9b84" stop-opacity="0"/></radialGradient></defs><g transform="translate(-152.17161,-12.17161)"><g stroke-miterlimit="10"><path d="M224.42892,180c0,-52.78245 42.78863,-95.57108 95.57108,-95.57108c52.78245,0 95.57108,42.78863 95.57108,95.57108c0,52.78245 -42.78863,95.57108 -95.57108,95.57108c-52.78245,0 -95.57108,-42.78863 -95.57108,-95.57108z" fill="url(#color-1)" stroke="none" stroke-width="0"/><path d="M291.28517,180.00001c0,-15.85876 12.85607,-28.71483 28.71483,-28.71483c15.85877,0 28.71483,12.85608 28.71483,28.71483c0,15.85876 -12.85606,28.71483 -28.71483,28.71483c-15.85877,0 -28.71483,-12.85608 -28.71483,-28.71483z" fill="#b04646" stroke="none" stroke-width="0"/><path d="M291.28517,180.00001c0,-15.85876 12.85607,-28.71483 28.71483,-28.71483c15.85877,0 28.71483,12.85608 28.71483,28.71483c0,15.85876 -12.85606,28.71483 -28.71483,28.71483c-15.85877,0 -28.71483,-12.85608 -28.71483,-28.71483z" fill="#83352c" stroke="#4e0f08" stroke-width="3.5"/><path d="M326.66875,179.7424c0.02805,0.09818 0.04579,0.19063 0.05472,0.27764c0.04156,-0.14212 0.07601,-0.26114 0.1025,-0.35174c0.18653,-0.63782 0.31831,-1.19484 0.40026,-1.67934l-1.56229,-0.74258l-0.67972,0.13269c0.03838,-0.13401 0.07519,-0.26843 0.11054,-0.40323l-0.15864,-0.0754c0,0 0,-0.5866 0.40185,-0.95611c0.05874,-0.2773 0.11292,-0.55569 0.16366,-0.83484c-1.02915,0.07676 -2.40436,0.58491 -3.89143,1.12918c0.66506,0.74623 1.24142,1.42946 1.6803,1.97903c0.22247,0.33315 0.44494,0.6663 0.66741,0.99945l1.16553,-0.33325c0,0 1.2019,-0.3434 1.54531,0.8585zM325.81026,181.28771l-1.13303,0.32348c-0.02296,0.02591 -0.04737,0.05184 -0.0733,0.07778c-0.43801,0.43801 -0.87603,0.44191 -1.20647,0.33438c-0.99991,0.33033 -1.86241,0.59736 -2.80827,0.76448c0.03612,0.0673 0.07365,0.13743 0.11247,0.20974c0.2132,0.23565 0.2996,0.49485 0.2996,0.49485l-0.02017,0.01849c0.47995,0.86362 1.07694,1.81984 1.61547,2.04426c1.08606,0.45259 1.35323,-0.99442 2.14033,-1.64986c-0.04783,-0.23632 -0.10579,-0.4834 -0.17443,-0.74198c0,0 -0.30316,-1.21268 0.90952,-1.51584c0.30199,-0.0755 0.54758,-0.05699 0.74613,0.01339c0.09255,-0.28292 0.17787,-0.55382 0.25443,-0.80273c-0.27221,0.31813 -0.66227,0.42957 -0.66227,0.42957zM318.27409,180.47987c1.32212,0 2.24458,-0.17127 3.21694,-0.4581c-0.07286,-0.10948 -0.14571,-0.21896 -0.21857,-0.32844c-0.5971,-0.74497 -1.22296,-1.41469 -1.86952,-2.02254c-0.12831,0.04448 -0.26612,0.06864 -0.40956,0.06864c-0.69036,0 -1.25,-0.55964 -1.25,-1.25c0,-0.07074 0.00588,-0.14012 0.01717,-0.20765c-7.44482,-5.67403 -16.59603,-5.17496 -16.6633,-16.43846c0,0 0,-1.25 1.25,-1.25c1.25,0 1.25,1.25 1.25,1.25c-0.05667,7.86189 2.97503,7.31223 7.49166,8.48573c-0.81602,-0.61939 -0.1987,-2.24429 -0.68694,-3.20774c-1.7266,-3.40712 -3.69717,-6.16984 -4.99253,-9.81987l3.69083,-0.18919c0,0 1.23744,0.17677 1.06066,1.41421c-0.17677,1.23744 -1.41421,1.06066 -1.41421,1.06066l-0.68765,-0.48957c1.77956,1.4201 3.15221,3.96124 4.19082,6.0967c0.10048,-0.88235 0.30335,-1.74884 0.65644,-2.59625c0.42195,-1.01267 0.21375,-2.34604 0.9634,-3.14701c0.35401,-0.37825 1.12178,0.29332 1.55418,0.00797c1.21503,-0.8018 2.54583,-3.98437 3.5165,-5.2475l1.69703,-0.3829c0,0 1.23299,-0.2055 1.43849,1.02749c0.2055,1.23299 -1.02749,1.43849 -1.02749,1.43849l-0.76906,0.02812c-0.67822,1.2173 -1.67359,3.03414 -2.74916,4.32973c1.20541,0.91744 2.28089,2.17688 3.59991,2.44044c1.62055,0.32381 2.12096,-0.67346 3.27386,1.43563c1.88534,3.449 0.27478,7.54024 -1.68226,10.81023c0.97847,-0.33074 2.09376,-0.57325 3.16002,-0.65084c0.23736,-1.64878 0.46902,-3.28931 0.9248,-4.85167c0.32148,-1.10199 0.39361,-2.51804 1.33545,-3.17428c0.91591,-0.63818 4.06654,2.40227 4.9091,1.14415c1.67246,-2.49733 1.4932,-6.37262 3.17243,-9.09133c0,0 0.66249,-1.06 1.72249,-0.39751c1.06,0.66249 0.39751,1.72249 0.39751,1.72249c-1.63508,2.57996 -1.36804,7.30273 -3.40381,9.40436c-1.25183,1.29233 -2.61065,1.19209 -4.18365,0.78838c-0.51328,-0.13173 -1.01773,-0.36172 -1.42983,-0.69485c-0.15958,-0.12901 -0.14715,-0.79795 -0.16382,-0.59342c-0.17051,2.0919 -0.35658,4.04346 -0.65941,5.9898c0.68775,0.23322 1.22643,0.62775 1.50957,1.22753c0.61414,1.30097 0.89739,2.57778 0.90888,3.79897c2.4877,-2.67683 4.99935,-5.12062 5.84151,-5.35229c3.79372,-1.04364 4.81376,7.1335 7.23786,0.19032c0.38643,-0.47499 0.77285,-0.94998 1.15928,-1.42497l1.37127,-0.44976c0,0 1.25,0 1.25,1.25c0,0.95456 -0.72895,1.18017 -1.07353,1.2335c-0.17434,0.20262 -0.34869,0.40524 -0.52303,0.60786c-0.6297,2.02518 -1.21688,5.14244 -4.06626,5.15908c-2.00775,0.01172 -3.00347,-4.59757 -4.72548,-4.14673c-0.8479,0.22199 -2.06732,3.67137 -3.00649,4.47567c-0.98966,0.84753 -2.24689,1.66796 -3.44223,2.55503c0.89433,0.35156 1.77785,0.72115 2.60544,1.13427c0.98498,0.49169 2.30703,1.73305 3.41133,1.9145c0.74134,0.12181 1.25549,-0.82556 1.88812,-1.23077c1.72164,-1.10274 2.61353,-1.98393 4.83837,-0.85074c0.38493,0.19606 0.7391,0.69436 1.04564,1.26105c0.43702,0.1118 0.71912,0.46442 0.71912,0.46442c0.24621,0.31114 0.49241,0.62227 0.73862,0.93341l1.1406,0.94226c0,0 0.96028,0.80023 0.16005,1.76051c-0.80023,0.96028 -1.76051,0.16005 -1.76051,0.16005l-0.58361,-0.48997c-0.16936,0.09911 -0.38827,0.16317 -0.67124,0.16317c-1.19523,0 -1.2476,-1.14286 -1.24989,-1.24301c-0.20674,-0.66517 -0.27271,-1.46012 -0.83852,-1.81631c-1.37521,-0.86574 -3.90477,2.52818 -5.60397,2.43965c-1.44958,-0.07552 -3.15327,-1.57221 -4.39798,-2.19565c-1.13038,-0.56618 -2.37718,-1.04234 -3.60487,-1.50545c-0.31657,0.32891 -0.60406,0.67126 -0.85118,1.03026c3.77224,3.99031 -2.9074,11.10867 7.29857,11.06589c1.97003,0.03817 2.89143,0.43362 4.20601,1.65018c0.29254,0.02991 1.15416,0.20609 1.15416,1.24388c0,1.25 -1.25,1.25 -1.25,1.25l-1.29491,-0.36612c-1.05699,-1.08458 -1.30121,-1.32192 -2.81525,-1.27794c-7.1199,-0.03525 -8.01177,-3.29931 -9.11938,-9.32715c-2.14499,2.30585 -6.34276,2.61161 -7.54074,7.94265c-0.57557,2.56128 3.27869,2.83815 3.31909,8.59423c-0.0061,0.53251 0.02692,1.07415 0.12446,1.60066c0.28655,0.36331 0.28655,0.83152 0.28655,0.83152l-2.43585,0.80631c-0.33386,-1.03872 -0.46543,-2.14748 -0.47516,-3.23849c0.03039,-5.08397 -4.25023,-4.33927 -3.25716,-9.14725c1.405,-6.80232 7.1754,-6.04524 8.50819,-9.45067c-0.19326,0.26549 -0.39791,0.49941 -0.59502,0.58439c-0.78221,0.33722 -1.46285,0.37087 -2.06439,0.19912c-2.74687,0.65864 -5.6891,0.39426 -8.13925,-1.15873c-0.05796,0.16423 -0.1627,0.33482 -0.33328,0.5054c-0.21031,0.21031 -0.42062,0.32054 -0.61902,0.3664c-0.06884,0.99934 -0.15487,1.99112 -0.25574,2.99959l-0.00682,0.0147l0.005,0.00063l-0.20345,1.62761c-0.06895,0.62514 -0.59889,1.11141 -1.2424,1.11141c-0.52567,0 -0.97555,-0.32448 -1.16028,-0.78408l-0.41764,-0.9745c-1.73618,-0.4773 -1.16379,5.07068 -1.20009,5.16021c-0.41501,1.0234 -1.30089,1.83112 -2.19035,2.48567c-2.19223,1.61328 -4.01411,0.24767 -6.33455,0.27792l-1.08936,-0.57158c0,0 -0.88391,-0.88386 -0.00005,-1.76777c0.65183,-0.65187 1.30369,-0.34228 1.60102,-0.13481c2.23214,0.1939 4.47973,1.32912 5.76004,-1.3724c0.79719,-1.6821 -1.34143,-2.94598 0.12114,-4.72231c0.67649,-0.82161 2.79168,-1.93235 3.96346,-1.64666c0.09708,-1.20185 0.16046,-2.15958 0.46648,-3.0833c-1.60459,-1.49492 -3.93513,-3.19068 -5.59636,-1.27498c-0.63837,0.73616 -0.98876,1.8178 -1.47363,2.64829c-0.84427,1.44608 -1.74879,2.06194 -1.68497,3.79135l-0.04656,0.09676l0.03381,0.00563l-0.20213,1.21278c-0.0895,0.60252 -0.60895,1.06477 -1.23637,1.06477c-0.38936,0 -0.73714,-0.17802 -0.96639,-0.4571l-1.02143,-1.22571l0.07925,-0.06605c-1.33724,-1.07057 -2.66517,-2.14083 -4.19916,-2.90427l-0.87222,-1.90043c0,0 -0.24515,-1.22573 0.98058,-1.47087c1.22573,-0.24515 1.47087,0.98058 1.47087,0.98058l-0.4612,0.15465c1.12681,0.56574 3.20082,1.58229 4.16805,2.82629c0.85931,-3.473 4.10647,-8.27092 7.48222,-8.09308c-2.22785,-2.38057 -4.19007,-5.52811 -5.32654,-4.28067c-0.64744,0.71066 -2.5753,2.672 -3.50332,2.42058c-3.10097,-0.84014 -3.59833,-10.11848 -3.60189,-12.30583c0,0 0,-1.25 1.25,-1.25c1.25,0 1.25,1.25 1.25,1.25c-0.00233,1.31387 1.88206,7.84713 1.81823,9.54181c0.74576,-1.24509 2.67844,-3.9429 3.98816,-3.80264c0.18375,0.01968 8.103,11.83032 8.83034,6.97441c0.17898,-0.45892 0.35796,-0.91784 0.53693,-1.37676v-1.47246c0,-0.69036 0.55964,-1.25 1.25,-1.25c0.38936,0 0.73714,0.17802 0.96639,0.4571l1.02143,1.22571l-0.12072,0.1006c0.98462,0.82647 1.87701,1.70359 2.73411,2.63564c0.01472,-0.00064 0.02272,-0.00064 0.02272,-0.00064zM313.06876,168.95102c1.76438,0.66767 4.19376,2.77362 6.33268,4.93432c2.16134,-3.0914 3.84485,-6.1093 2.81264,-10.15095c-0.13786,-0.5398 -1.11859,-0.07031 -1.65832,-0.20843c-0.5873,-0.15029 -1.13171,-0.45722 -1.63729,-0.79173c-1.23094,-0.81441 -1.85152,-1.77001 -3.07848,-2.32603c-0.20196,0.76047 -0.79506,1.41315 -0.97326,2.18839c-0.2464,1.07195 -0.03291,2.2044 -0.17521,3.29506c-0.09887,0.75774 0.06239,1.77768 -0.55826,2.22348c-0.50193,0.36053 -1.19492,0.57241 -1.85279,0.55951c0.25886,0.08392 0.52172,0.1755 0.7883,0.27638zM312.2686,183.71642c1.64947,0.3511 4.6367,1.54758 7.32847,2.1608c-0.15632,-0.22309 -0.30625,-0.45324 -0.45108,-0.68483l-0.10117,0.0927c-0.88631,-1.11138 -3.43495,-3.36201 -4.52138,-5.12527c-0.10646,0.29289 -0.21292,0.58577 -0.31938,0.87866c-0.77687,1.6135 -1.59224,2.46682 -2.421,2.79117c0.0724,0.0629 0.14424,0.12635 0.21554,0.19021c0.08533,-0.09978 0.17524,-0.20086 0.27,-0.30345z" fill="#4e0f08" stroke="none" stroke-width="0.5"/><path d="M332.98211,167.37727c0.24832,-0.11453 0.49772,-0.20444 0.74668,-0.26555c0.09932,-0.02438 0.1991,-0.0415 0.2993,-0.05248l-0.00394,-0.02755l1.41728,-0.20247c0.06451,-0.01027 0.13067,-0.0156 0.19807,-0.0156c0.69036,0 1.25,0.55964 1.25,1.25c0,0.29906 -0.10502,0.57359 -0.2802,0.78872l-0.75301,0.9411c0.00375,0.03941 0.00566,0.07935 0.00566,0.11974c0,0.27621 -0.08959,0.53149 -0.24129,0.73838l-1.01908,1.42672l-0.00176,-0.00126l-0.17276,0.24124l-0.00569,-0.00408l0.00302,0.00779c-0.26566,0.36499 -0.58679,0.83364 -0.94129,1.34242c0.12398,2.31301 -0.59181,5.17234 -1.42837,5.89415c-0.64944,0.56036 -1.49602,0.54577 -2.36721,0.23298c-0.04148,0.34571 -0.22957,0.74287 -0.81361,0.95525c-0.11983,0.04358 -0.23189,0.07048 -0.3365,0.08367c0.50382,0.68436 0.8104,1.54456 0.95192,2.3716c0.22909,1.33878 -0.28519,2.6766 -0.59555,4.02276c0.6727,-0.37594 1.15814,0.34642 1.46012,1.35644l0.45634,-0.91268c0.20043,-0.42281 0.63114,-0.7152 1.13014,-0.7152c0.63664,0 1.16212,0.47594 1.24004,1.09143l0.2029,1.42036l-0.03055,0.00436c0.01801,0.08878 0.03135,0.17877 0.03929,0.27018c0.1707,1.96602 -2.18222,4.46363 -1.87761,6.40352c0.06871,0.43755 0.76849,0.6022 0.82515,1.04147c0.2885,2.2365 -1.1406,5.13413 -1.41946,7.40883l-2.81237,0.22843c0,0 -0.99999,-0.75001 -0.24999,-1.75c0.32042,-0.42722 0.68646,-0.53503 1.00067,-0.51838c0.51177,-1.69135 1.25479,-3.70658 1.03865,-4.8358c-0.08166,-0.42662 -0.77484,-0.58151 -0.81891,-1.01363c-0.08761,-0.859 0.2579,-1.70861 0.44987,-2.55101c-0.08365,0.01764 -0.17038,0.02692 -0.25927,0.02692c-0.69036,0 -1.25,-0.55964 -1.25,-1.25c0,-0.0674 0.00534,-0.13356 0.01561,-0.19807l0.20248,-1.41727l0.00068,0.0001c0.04987,-0.29213 0.09605,-0.58494 0.1459,-0.87708l-0.00987,0.01152c-0.22929,0.27078 -0.57175,0.44268 -0.95436,0.44268c-0.69036,0 -1.25,-0.55964 -1.25,-1.25c0,-0.01428 0.00024,-0.0285 0.00071,-0.04267l0.04219,-1.43347l0.0151,0.00044l-0.01293,-0.04607c0.08949,-0.86656 0.12836,-1.73985 0.26847,-2.59967c0.12004,-0.73666 0.31471,-1.45991 0.5104,-2.18017c0.06743,-0.24818 0.53316,-0.74804 0.27753,-0.71988c-0.44503,0.04904 -0.74185,1.10856 -1.0733,0.80756c-1.9855,-1.80309 -1.15064,-3.81347 -0.23368,-5.70269c-0.0615,0.00931 -0.12447,0.01413 -0.18857,0.01413c-0.08856,0 -0.17496,-0.00921 -0.25831,-0.02672l0.01569,0.05604c0.03515,0.11539 0.05405,0.23786 0.05405,0.36475c0,0.50467 -0.29907,0.93948 -0.72965,1.13688c-0.1974,0.43058 -0.63221,0.72965 -1.13688,0.72965c-0.42534,0 -0.80106,-0.21244 -1.02685,-0.53701l-1.44341,-2.02078l0.00979,-0.00699c-0.0177,-0.01902 -0.0353,-0.03813 -0.0528,-0.05736c-1.83057,-2.01072 -2.71592,-5.73878 -3.50033,-8.91273c-0.30784,-0.79008 -0.61016,-1.60119 -0.91535,-2.44044c0,0 -0.23114,-0.63564 0.11419,-1.14181l0.01612,-1.35346c0.00463,-0.45387 0.25116,-0.8498 0.6168,-1.06501c-0.01749,-0.04671 -0.03498,-0.09342 -0.05246,-0.14013l0.0059,-0.06513l-0.02317,0.00618l-0.49763,-1.86707c-0.03223,-0.1109 -0.0495,-0.22816 -0.0495,-0.34945c0,-0.69036 0.55964,-1.25 1.25,-1.25c0.55306,0 1.02222,0.35917 1.18697,0.85698l0.2362,0.66135c-0.00103,-0.02081 -0.00155,-0.04175 -0.00155,-0.06282c0,-0.69036 0.55964,-1.25 1.25,-1.25c0.38571,0 0.73061,0.17469 0.95991,0.44928l1.60918,1.90177l-0.01103,0.00933c0.02514,0.02404 0.05009,0.0483 0.07485,0.07279c0.75483,0.74661 0.92682,1.97608 1.49846,2.8551c0.17699,-0.09604 0.37978,-0.15058 0.5953,-0.15058c0.20302,0 0.39473,0.0484 0.56423,0.13428c0.28941,-0.00362 0.57311,0.03148 0.84413,0.13065c0.13423,0.04911 0.26536,0.10679 0.39322,0.17201c0.00941,-0.00192 0.0188,-0.00373 0.02816,-0.00544c1.5336,-0.27961 3.63893,-1.05568 5.04714,0.38021c0.56444,0.57554 0.70367,1.51329 0.53563,2.42355zM320.05568,162.04875l0.00095,-0.01379l-0.00458,0.00131l-0.00116,-0.00407l-0.00539,0.00192c0.00965,0.02528 0.01931,0.05056 0.02898,0.07583c-0.0064,-0.02094 -0.01266,-0.04135 -0.0188,-0.06121zM330.71779,177.09153c-0.13148,0.11703 -0.26085,0.2216 -0.38725,0.31127c0.11356,0.13188 0.21834,0.24072 0.26241,0.12764c0.056,-0.1437 0.09653,-0.29018 0.12484,-0.43891zM329.92339,169.93358c0.08322,-0.09919 0.16767,-0.19736 0.25324,-0.29425c-0.08641,-0.0707 -0.17144,-0.14984 -0.25577,-0.23318c0.00304,0.17892 0.00354,0.35556 0.00254,0.52744z" fill="#df5224" stroke="none" stroke-width="0.5"/><path d="M317.30814,191.74844c0.97609,0.78087 0.19522,1.75695 0.19522,1.75695c-1.04116,1.30145 -2.24696,2.8087 -3.28812,4.11015c0,0 -0.78087,0.97609 -1.75695,0.19522c-0.97609,-0.78087 -0.19522,-1.75695 -0.19522,-1.75695c1.04116,-1.30145 2.08232,-2.6029 3.12348,-3.90434l0.16465,-0.20581c0,0 0.78087,-0.97609 1.75695,-0.19522z" fill="#df5224" stroke="none" stroke-width="0.5"/><path d="M298.28432,185.00053c-1.44908,-0.99728 -0.51855,-4.68357 -0.19497,-6.14413l-0.39898,0.69821c-0.21221,0.38786 -0.62406,0.65089 -1.09734,0.65089c-0.69036,0 -1.25,-0.55964 -1.25,-1.25c0,-0.16036 0.0302,-0.31366 0.08521,-0.45454l0.64936,-1.78507l0.01218,0.00443l0.00025,-0.03715c1.42319,-3.32155 2.39914,-6.93348 4.19221,-10.07207c0.52105,-0.91205 0.77839,-2.07772 1.62446,-2.70021c0.0079,-0.00581 0.01585,-0.0115 0.02385,-0.01706c0.00238,-0.00264 0.00476,-0.00527 0.00714,-0.0079l-0.01399,-0.00933l0.81128,-1.21691c0.22257,-0.34463 0.61005,-0.57276 1.05082,-0.57276c0.69036,0 1.25,0.55964 1.25,1.25c0,0.12924 -0.01961,0.2539 -0.05603,0.37116l-0.06575,0.23012c0.27892,0.17 0.53279,0.47945 0.53279,1.04278c0,0.05267 -0.00222,0.10311 -0.00647,0.15144c0.37252,0.21642 0.62299,0.61976 0.62299,1.08161c0,0.14496 -0.02467,0.28415 -0.07005,0.41361l-0.68232,2.10248c-0.19247,0.61401 -0.36574,1.22785 -0.52325,1.84267c0.19039,-0.24548 0.38658,-0.48892 0.58918,-0.73027l0.12453,-0.04542l-0.03039,-0.03799l1.01976,-0.81581c0.21512,-0.17514 0.48962,-0.28013 0.78864,-0.28013c0.69036,0 1.25,0.55964 1.25,1.25c0,0.14845 -0.02588,0.29086 -0.07337,0.42297l-0.6073,1.82189l-0.35083,-0.11694c-0.78439,3.13287 -2.37303,6.32715 -4.13226,8.95574c-0.03088,0.59729 -0.08054,1.1988 -0.15214,1.80682l-0.12354,0.12986l0.07176,0.02884l-0.46588,1.15902c-0.1778,0.47369 -0.63486,0.81081 -1.17066,0.81081c-0.43439,0 -0.81703,-0.22158 -1.04106,-0.55788c-0.7859,0.6464 -1.60281,1.03711 -2.19983,0.62623z" fill="#df5224" stroke="none" stroke-width="0.5"/><path d="M320.29402,198.50988c0.90363,-0.25818 1.32199,0.35712 1.47398,0.67842c0.15665,-0.07067 0.33047,-0.10999 0.51348,-0.10999c0.69036,0 1.25,0.55964 1.25,1.25c0,0.27621 -0.08959,0.53149 -0.24128,0.73838l-1.01908,1.42673c0,0 -0.72654,1.01717 -1.74371,0.29063c-0.6879,-0.49135 -0.57829,-1.11562 -0.43524,-1.4683l-0.65665,-1.26056c0,0 -0.3434,-1.20191 0.85851,-1.5453z" fill="#df5224" stroke="none" stroke-width="0.5"/><path d="M341.05366,190.71377l0.3653,0.1967l-1.17308,2.17857c-0.20723,0.40374 -0.62774,0.67998 -1.11276,0.67998c-0.69036,0 -1.25,-0.55964 -1.25,-1.25c0,-0.12924 0.01961,-0.2539 0.05603,-0.37116l0.39593,-1.38577c0.68712,-3.01954 1.80641,-5.89587 2.68145,-8.87116c0,0 0.26674,-0.90694 1.125,-0.91142l0.31781,-0.9534c0.15709,-0.51078 0.63267,-0.88205 1.19497,-0.88205c0.69036,0 1.25,0.55964 1.25,1.25v2.26058h-0.30506c0.12722,1.60675 -0.20759,2.95125 -1.01878,5.19438l-0.03159,0.03346l0.01465,0.00651l-0.81045,1.82349c-0.18858,0.45128 -0.63418,0.7684 -1.15385,0.7684c-0.12627,0 -0.24816,-0.01872 -0.36306,-0.05354c-0.05979,0.09579 -0.1206,0.19126 -0.18248,0.28642z" fill="#df5224" stroke="none" stroke-width="0.5"/><path d="M282.31661,158.36031c-2.14305,-1.28738 -0.85567,-3.43043 -0.85567,-3.43043l0.27763,-0.46216c0.84564,-1.40579 1.70897,-2.78679 2.60087,-4.13949c-0.05906,-1.05231 0.69247,-1.88295 0.69247,-1.88295c1.14756,-1.26836 2.23451,-2.50613 3.31397,-3.70205c1.81373,-2.3061 3.77379,-4.50174 5.94612,-6.56579c1.36693,-1.29879 2.32663,-3.32046 4.13256,-3.86266c0.21069,-0.06326 0.42284,-0.11613 0.63628,-0.15986l-0.01895,-0.07878l4.80739,-1.15664c0.20388,-0.05372 0.41794,-0.08233 0.63869,-0.08233c1.38071,0 2.5,1.11929 2.5,2.5c0,0.94886 -0.52862,1.77426 -1.30742,2.19776l-4.30483,2.44593c-4.21969,2.35931 -7.13049,5.57804 -10.19559,9.06408c-1.86172,2.58229 -3.55096,5.3228 -5.15545,7.99753l-0.27763,0.46216c0,0 -1.28738,2.14305 -3.43043,0.85567z" fill="#df5224" stroke="none" stroke-width="0.5"/><path d="M364.37137,209.20125c1.23823,-1.50532 2.48645,-3.00244 3.74545,-4.49035c0.91932,-1.08647 2.25721,-1.90644 2.80279,-3.22095c0.54557,-1.3145 0.20113,-2.83933 0.3017,-4.259l0.47849,-4.95007c0.10846,-1.28063 1.18229,-2.2862 2.49099,-2.2862c1.15812,0 2.13231,0.78748 2.41632,1.85619l1.37886,4.74827c2.16484,4.60461 1.91711,10.37204 2.09507,15.3289c0.06289,1.75175 0.79496,3.66463 0.0649,5.25825c-0.8473,1.84952 -2.91235,2.84204 -4.40769,4.22139c-0.69124,0.63762 -6.97408,6.58024 -8.39705,5.90595c-2.16036,-1.0237 -2.36176,-4.16858 -3.30186,-6.36661c-0.30893,-0.72231 -0.60797,-1.43833 -0.86992,-2.15282c-0.38483,0.43211 -0.80392,0.82566 -1.28512,1.14908c-1.57433,1.05811 -3.59588,1.20947 -5.40136,1.79112c-3.17275,1.02214 -6.36506,1.98255 -9.54758,2.97383c0,0 -2.3869,0.74346 -3.13035,-1.64344c-0.74346,-2.3869 1.64344,-3.13035 1.64344,-3.13035c3.18253,-0.99128 6.35415,-2.01828 9.54758,-2.97383c1.36199,-0.40754 2.92194,-0.37555 4.10169,-1.16883c1.18621,-0.79762 1.75229,-2.25912 2.65029,-3.37126c0.47404,-0.58708 0.94949,-1.17305 1.4264,-1.75783c0.01431,-0.02836 0.0288,-0.05673 0.04348,-0.08513c0.27869,-0.53903 0.68964,-0.97773 1.15348,-1.37631zM374.78213,204.72488c-0.5661,0.77869 -1.27146,1.4755 -1.9438,2.1908c0.25032,0.26571 0.4639,0.62912 0.605,1.12299c0.68681,2.40381 -1.717,3.09061 -1.717,3.09061l-2.75782,0.7211c-3.08253,2.53501 -0.82767,3.98116 -0.18576,7.51552c0.08542,0.47034 0.0769,0.94753 0.0363,1.4267c1.87474,-2.2021 5.43604,-2.92485 6.70994,-5.52562c0.44976,-0.91823 -0.34466,-2.01773 -0.43876,-3.03586c-0.23017,-2.49045 -0.11727,-5.01554 -0.3081,-7.50624z" fill="#df5224" stroke="none" stroke-width="0.5"/><path d="M270.2506,220.82477c-1.50001,-1.99999 0.49999,-3.5 0.49999,-3.5l1.36471,-0.63563c-0.57324,-2.58958 -1.03598,-4.20136 -0.88622,-7.18629c0.05256,-1.04763 1.6765,-2.46463 0.80147,-3.04308c-0.86915,-0.57456 -1.38725,1.95061 -2.42901,1.96717c-1.63136,0.02594 -3.37053,-0.7076 -4.52894,-1.85655c-1.09226,-1.08333 -1.15617,-2.85214 -1.67774,-4.29941c-1.13013,-3.13591 -2.10818,-6.32456 -3.16227,-9.48684c0,0 -0.79057,-2.37171 1.58114,-3.16228c2.37171,-0.79057 3.16228,1.58114 3.16228,1.58114c1.22009,3.66028 1.99327,8.53822 3.73445,11.93723c0.90904,1.77455 4.38517,-2.25317 5.90378,-0.96119c1.80442,1.53514 1.207,4.58863 1.59892,6.92507c0.47378,2.82451 0.42221,6.77039 0.45995,9.64084l-2.9225,2.5798c0,0 -1.99999,1.50001 -3.5,-0.49999z" fill="#df5224" stroke="none" stroke-width="0.5"/><path d="M462.42427,148.41496c-1.97337,1.53486 -3.50823,-0.43851 -3.50823,-0.43851l-0.68165,-0.8764c-3.69121,-4.74685 -7.79124,-9.15546 -11.48585,-13.89198c-0.76793,-0.9845 -0.97907,-2.62226 -2.14407,-3.07142c-1.0616,-0.4093 -2.21188,0.56193 -3.26817,0.98474c-3.75483,1.50298 -7.28603,3.54451 -11.30119,4.45061c-8.02357,1.81069 -16.96877,1.78512 -25.15678,2.63804c0,0 -2.48655,0.25902 -2.74556,-2.22753c-0.25902,-2.48655 2.22753,-2.74556 2.22753,-2.74556c7.9882,-0.83211 16.74892,-0.77637 24.57414,-2.5423c3.80119,-0.85782 7.11534,-3.32459 10.77919,-4.30263c2.12884,-0.56828 4.44557,-1.66784 6.53765,-0.97639c1.98756,0.65691 2.91404,3.00733 4.31454,4.56314c4.05631,4.50613 7.89373,9.26773 11.61532,14.05156l0.68165,0.8764c0,0 1.53486,1.97337 -0.43851,3.50823z" fill="#df5224" stroke="none" stroke-width="0.5"/><path d="M176.83025,191.7396c-1.88965,-1.63683 -0.25282,-3.52648 -0.25282,-3.52648l2.95714,-3.40331c3.79666,-3.2592 8.63842,-9.09168 14.14986,-9.24078c1.1238,-0.0304 1.49047,1.8989 2.58138,2.17051c0.48102,0.11976 -0.00729,-1.0402 0.24524,-1.46676c0.77102,-1.30237 2.06895,-2.25923 2.75827,-3.60663c1.95587,-3.82312 2.49086,-9.27115 3.71361,-13.39027c0.55869,-1.88209 0.58064,-4.04575 1.74762,-5.62453c1.16698,-1.57878 3.22901,-2.23448 4.8644,-3.32071c5.55093,-3.68693 11.21804,-7.2116 16.82357,-10.81515c0,0 2.10295,-1.35189 3.45484,0.75105c1.35189,2.10295 -0.75105,3.45484 -0.75105,3.45484c-4.20589,2.70379 -8.41178,5.40758 -12.61768,8.11136c-1.40196,0.90126 -2.78805,1.82772 -4.20589,2.70379c-1.16708,0.72113 -2.73191,0.98364 -3.54738,2.08687c-0.81547,1.10323 -0.60739,2.67622 -0.95442,4.0035c-0.4216,1.61246 -0.90068,3.20934 -1.35102,4.81402c-1.50425,5.35999 -2.22082,9.47733 -5.93487,13.83186c-1.03949,1.21875 -1.82355,3.11687 -3.40107,3.39498c-1.44212,0.25424 -2.38841,-2.01875 -3.84949,-2.11674c-1.14711,-0.07693 -2.09073,0.98662 -3.02569,1.65568c-2.56147,1.83298 -4.77933,4.10389 -7.17495,6.14887l-2.70312,3.13122c0,0 -1.63683,1.88965 -3.52648,0.25282z" fill="#df5224" stroke="none" stroke-width="0.5"/><path d="M289.20338,256.01401c0.28824,2.48333 -2.19509,2.77157 -2.19509,2.77157l-2.52946,0.29359c-0.38831,0.04507 -10.0388,1.17127 -10.2428,1.16954c-6.18989,-0.05261 -12.35663,-2.38843 -18.52916,-2.5192c-3.37442,-0.07149 -6.06729,3.27692 -9.36614,3.72771c-1.64313,0.22454 -3.29788,-0.35375 -4.94683,-0.53062c0,0 -2.4807,-0.31007 -2.17063,-2.79077c0.31007,-2.4807 2.79077,-2.17063 2.79077,-2.17063c1.20921,0.18037 2.41504,0.69715 3.62763,0.54112c3.59144,-0.46211 6.0066,-3.71711 9.92647,-3.7749c6.22617,-0.09179 12.48436,2.46454 18.71039,2.51746c3.23011,0.02745 6.41514,-0.76394 9.62382,-1.13637l2.52946,-0.29359c0,0 2.48333,-0.28824 2.77157,2.19509z" fill="#df5224" stroke="none" stroke-width="0.5"/><path d="M365.85454,100.8896c0,2.5 -2.5,2.5 -2.5,2.5l-0.76225,-0.01027c-4.20685,-0.38244 -8.53525,-0.50485 -12.70542,-1.15504c-2.25045,-0.35088 -5.15758,0.31328 -6.69468,-1.36749c-1.35241,-1.47881 -0.24301,-4.01666 -0.05372,-6.01167c0.10975,-1.15674 1.4983,-2.33555 0.94254,-3.35595c-0.49302,-0.90522 -2.05772,-0.23186 -3.04952,-0.51261c-1.60366,-0.45394 -3.15163,-1.08741 -4.70813,-1.68331c-1.25248,-0.4795 -2.37751,-1.6225 -3.71621,-1.54189c-1.33871,0.08061 -2.33623,1.31778 -3.50435,1.97666c0,0 -2.23607,1.11804 -3.3541,-1.11803c-1.11804,-2.23607 1.11803,-3.3541 1.11803,-3.3541c1.8133,-0.83183 3.44852,-2.37559 5.43991,-2.49549c0.50496,-0.03041 9.48768,3.12741 10.40817,3.50803c1.90425,0.78739 4.57042,0.80928 5.61529,2.58534c1.11207,1.89029 0.0819,4.40411 -0.22587,6.57555c-0.11691,0.82484 -1.6756,1.75241 -1.02893,2.27762c0.85303,0.69282 2.16532,-0.46087 3.26426,-0.46213c4.18712,-0.0048 8.52805,0.77528 12.70542,1.15504l0.30957,-0.01027c0,0 2.5,0 2.5,2.5z" fill="#df5224" stroke="none" stroke-width="0.5"/><path d="M226.97638,175.35378c-0.35312,-0.22184 -0.61033,-0.46559 -0.7938,-0.71775c-0.44618,0.79112 -0.92313,1.53765 -1.44272,2.21352l-2.21185,4.42369c-0.40086,0.84561 -1.26228,1.43041 -2.26029,1.43041c-1.38071,0 -2.5,-1.11929 -2.5,-2.5c0,-0.36939 0.08011,-0.72006 0.22391,-1.0356c3.28266,-7.65954 7.94959,-18.54904 11.23225,-26.20858c0,0 0.9848,-2.29786 3.28266,-1.31306c2.29786,0.9848 1.31306,3.28266 1.31306,3.28266c-0.54025,1.26059 -1.0805,2.52117 -1.62075,3.78176c0.1274,0.07804 0.25668,0.17069 0.38745,0.27967c1.92055,1.60046 0.32009,3.52101 0.32009,3.52101l-0.10505,0.12497c0.56564,0.6297 1.11219,1.26584 1.17094,2.06694c0.15776,2.15129 -0.90896,4.21728 -1.36344,6.32592l-2.18562,3.53746c0,0 -1.32993,2.11691 -3.44683,0.78698z" fill="#4e0f08" stroke="none" stroke-width="0.5"/><path d="M286.22862,209.43062c-2.43169,0.5804 -3.01209,-1.8513 -3.01209,-1.8513l-1.1035,-4.62334c-0.79625,-3.35651 -1.34449,-6.78155 -1.6357,-10.21889c0,0 -0.20762,-2.49136 2.28374,-2.69898c2.49136,-0.20762 2.69898,2.28374 2.69898,2.28374c0.26086,3.18732 0.76931,6.36384 1.51636,9.47334l1.1035,4.62334c0,0 0.5804,2.43169 -1.8513,3.01209z" fill="#4e0f08" stroke="none" stroke-width="0.5"/><path d="M287.43352,242.51203c0.92848,2.32119 -1.39271,3.24967 -1.39271,3.24967c-3.09492,1.23797 -10.30274,4.12112 -13.39766,5.35909c0,0 -2.32119,0.92848 -3.24967,-1.39271c-0.92848,-2.32119 1.39271,-3.24967 1.39271,-3.24967c3.09492,-1.23797 6.18984,-2.47595 9.28476,-3.71392l4.1129,-1.64517c0,0 2.32119,-0.92848 3.24967,1.39271z" fill="#4e0f08" stroke="none" stroke-width="0.5"/><path d="M361.83364,204.6265c-1.02796,1.22053 -2.03827,2.45857 -3.1254,3.62377c-1.66202,1.78138 -2.93088,5.22104 -5.35471,4.97471c-2.2865,-0.23238 -2.39589,-3.92276 -3.59383,-5.88414c0,0 -0.87781,-2.34082 1.46301,-3.21863c2.34082,-0.87781 3.21863,1.46301 3.21863,1.46301c-0.12613,0.89678 -0.94275,3.3986 -0.37839,2.69035c0.64257,-0.80641 0.16556,-2.11257 0.64529,-3.02529c1.65032,-3.13985 4.40188,-5.3727 6.90159,-7.7568l3.62063,-3.44161c0.44871,-0.42823 1.05653,-0.6912 1.72576,-0.6912c1.38071,0 2.5,1.11929 2.5,2.5c0,0.65101 -0.24883,1.24389 -0.65657,1.68874l-5.73951,6.30874c0,0 -0.48768,0.53604 -1.2265,0.76835z" fill="#4e0f08" stroke="none" stroke-width="0.5"/><path d="M320.47483,137.55426c1.92055,1.60046 0.32009,3.52101 0.32009,3.52101l-2.67953,3.21543c0,0 -1.60046,1.92055 -3.52101,0.32009c-1.92055,-1.60046 -0.32009,-3.52101 -0.32009,-3.52101l2.67953,-3.21543c0,0 1.60046,-1.92055 3.52101,-0.32009z" fill="#4e0f08" stroke="none" stroke-width="0.5"/><path d="M348.03212,113.4973c-0.81778,2.36247 -3.18024,1.54469 -3.18024,1.54469c-3.14995,-1.09037 -10.78359,-3.73278 -13.93355,-4.82315c0,0 -2.36247,-0.81778 -1.54469,-3.18024c0.81778,-2.36247 3.18024,-1.54469 3.18024,-1.54469c3.14995,1.09037 6.29991,2.18074 9.44986,3.27111l4.48369,1.55205c0,0 2.36247,0.81778 1.54469,3.18024z" fill="#4e0f08" stroke="none" stroke-width="0.5"/><path d="M396.15832,157.16272c-1.07483,2.25715 -3.33199,1.18232 -3.33199,1.18232c-3.00954,-1.43311 -8.24448,-3.92594 -11.25402,-5.35906c0,0 -2.25715,-1.07483 -1.18232,-3.33199c1.07483,-2.25715 3.33199,-1.18232 3.33199,-1.18232c3.00954,1.43311 6.01907,2.86622 9.02861,4.29934l2.22541,1.05972c0,0 2.25715,1.07483 1.18232,3.33199z" fill="#4e0f08" stroke="none" stroke-width="0.5"/><path d="M444.81951,152.64939c-1.92056,-1.60045 -0.32011,-3.52101 -0.32011,-3.52101l2.13976,-1.1712c-1.93275,-0.1233 -4.02065,2.53479 -5.62587,1.45127c-0.42606,-0.28759 -0.78842,-0.63443 -1.10497,-1.02386l-0.23206,0.19339l-2.66906,-3.20283c-0.36807,-0.43538 -0.58996,-0.99832 -0.58996,-1.61308c0,-1.38071 1.11929,-2.5 2.5,-2.5c0.36939,0 0.72006,0.08011 1.0356,0.22391l3.70054,1.58595c0,0 0.26661,0.11426 0.57928,0.35575c0.65357,-0.34055 1.1619,-0.57971 1.25819,-0.55381c2.37493,0.63885 4.04594,2.79716 6.0689,4.19574l-3.21923,5.25967c0,0 -1.60045,1.92056 -3.52101,0.32011z" fill="#4e0f08" stroke="none" stroke-width="0.5"/><path d="M407.78821,207.26563c-1.87442,-1.65425 -0.22017,-3.52867 -0.22017,-3.52867l1.14517,-1.29758c0.96234,-1.02798 2.32976,-1.79076 2.88701,-3.08394c0.55725,-1.29318 0.14877,-2.81264 0.25885,-4.21646c0.24236,-3.09069 0.27264,-6.21995 -0.07817,-9.30022c0,0 -0.27606,-2.48471 2.20865,-2.76077c2.48471,-0.27606 2.76077,2.20865 2.76077,2.20865c0.37086,3.41505 0.43372,6.88731 0.08822,10.30502c-0.19374,1.91648 0.11579,3.97348 -0.6465,5.74247c-0.76229,1.769 -2.48666,2.9425 -3.72999,4.41375l-1.14517,1.29758c0,0 -1.65425,1.87442 -3.52867,0.22017z" fill="#4e0f08" stroke="none" stroke-width="0.5"/><path d="M393.65158,229.55166c2.09893,1.35813 0.7408,3.45705 0.7408,3.45705l-0.46245,0.71469c-0.89773,1.3874 -1.9078,2.78479 -3.10711,3.94495l0.39085,0.2529l-0.00569,0.00879c0.6228,0.24585 1.2515,0.7847 1.41675,1.94147c0.35355,2.47487 -2.12132,2.82842 -2.12132,2.82842l-3.7088,0.52982c-0.12902,0.02054 -0.26132,0.03121 -0.39612,0.03121c-1.38071,0 -2.5,-1.11929 -2.5,-2.5c0,-0.51379 0.15499,-0.99138 0.42077,-1.38856l2.69656,-4.16742l0.24177,0.15644c0.75115,-1.49429 1.56771,-2.95289 2.47449,-4.35429l0.46245,-0.71469c0,0 1.35813,-2.09893 3.45705,-0.7408z" fill="#4e0f08" stroke="none" stroke-width="0.5"/><path d="M250.98461,113.67847c-1.53485,-1.97338 0.43854,-3.50823 0.43854,-3.50823l0.11247,-0.08748l-0.1688,-0.2465l0.14331,-0.09814l-0.23045,-0.36295c0,0 0.92134,-1.75755 2.68818,-1.32008l1.49777,-1.02566c0.40693,-0.28696 0.90335,-0.45551 1.43913,-0.45551c1.38071,0 2.5,1.11929 2.5,2.5c0,0.81138 -0.38653,1.53248 -0.98549,1.9892l-3.92643,3.05387c0,0 -1.97338,1.53485 -3.50823,-0.43854z" fill="#4e0f08" stroke="none" stroke-width="0.5"/><path d="M152.17161,180c0,-92.68904 75.13935,-167.8284 167.8284,-167.8284c92.6891,0 167.8284,75.1394 167.8284,167.8284c0,92.68904 -75.13929,167.8284 -167.8284,167.8284c-92.6891,0 -167.8284,-75.1394 -167.8284,-167.8284z" fill="none" stroke="none" stroke-width="0"/></g></g></svg>