<svg version="1.1" xmlns="http://www.w3.org/2000/svg" xmlns:xlink="http://www.w3.org/1999/xlink" width="42.13805" height="42.13805" viewBox="0,0,42.13805,42.13805"><defs><radialGradient cx="240" cy="180" r="14.0872" gradientUnits="userSpaceOnUse" id="color-1"><stop offset="0" stop-color="#ffd9d9"/><stop offset="1" stop-color="#ffd9d9" stop-opacity="0"/></radialGradient><radialGradient cx="240" cy="180" r="14.0872" gradientUnits="userSpaceOnUse" id="color-2"><stop offset="0" stop-color="#ffd9d9"/><stop offset="1" stop-color="#ffd9d9" stop-opacity="0"/></radialGradient></defs><g transform="translate(-218.93097,-158.93097)"><g stroke="none" stroke-miterlimit="10"><path d="M225.9128,180c0,-7.78015 6.30705,-14.0872 14.0872,-14.0872c7.78015,0 14.0872,6.30705 14.0872,14.0872c0,7.78015 -6.30705,14.0872 -14.0872,14.0872c-7.78015,0 -14.0872,-6.30705 -14.0872,-14.0872z" fill="url(#color-1)" fill-rule="nonzero" stroke-width="0"/><path d="M225.9128,180c0,-7.78015 6.30705,-14.0872 14.0872,-14.0872c7.78015,0 14.0872,6.30705 14.0872,14.0872c0,7.78015 -6.30705,14.0872 -14.0872,14.0872c-7.78015,0 -14.0872,-6.30705 -14.0872,-14.0872z" fill="url(#color-2)" fill-rule="nonzero" stroke-width="0"/><path d="M239.66051,201.06903c0,-5.53816 -2.07124,-10.3802 -6.21029,-14.51925c-4.13905,-4.13905 -8.97765,-6.21029 -14.51925,-6.21029v-0.67898c5.54159,0 10.3802,-2.07124 14.51925,-6.22057c4.13905,-4.14934 6.21029,-8.98794 6.21029,-14.50896h0.67898c0,5.53816 2.07124,10.3802 6.21029,14.51925c4.13905,4.13905 8.97765,6.21029 14.51925,6.21029v0.67898c-5.53816,0 -10.3802,2.07124 -14.51925,6.21029c-4.13905,4.13905 -6.21029,8.97765 -6.21029,14.51925z" fill="#ab4040" fill-rule="evenodd" stroke-width="1"/><path d="M239.93806,183.84397c0,-1.01042 -0.37789,-1.89383 -1.13304,-2.64899c-0.75516,-0.75516 -1.63794,-1.13304 -2.64899,-1.13304v-0.12388c1.01105,0 1.89383,-0.37789 2.64899,-1.13492c0.75516,-0.75703 1.13304,-1.63982 1.13304,-2.64711h0.12388c0,1.01042 0.37789,1.89383 1.13304,2.64899c0.75516,0.75516 1.63794,1.13304 2.64899,1.13304v0.12388c-1.01042,0 -1.89383,0.37789 -2.64899,1.13304c-0.75516,0.75516 -1.13304,1.63794 -1.13304,2.64899z" fill="#ffffff" fill-rule="evenodd" stroke-width="1"/></g></g></svg>