<svg version="1.1" xmlns="http://www.w3.org/2000/svg" xmlns:xlink="http://www.w3.org/1999/xlink" width="323.23562" height="323.23562" viewBox="0,0,323.23562,323.23562"><defs><radialGradient cx="320.00005" cy="180.00002" r="56.42837" gradientUnits="userSpaceOnUse" id="color-1"><stop offset="0" stop-color="#ff9696"/><stop offset="1" stop-color="#b04646"/></radialGradient></defs><g transform="translate(-158.3822,-18.3822)"><g stroke-miterlimit="10"><path d="M263.57162,180.00002c0,-31.16452 25.26385,-56.42837 56.42837,-56.42837c31.16454,0 56.42837,25.26387 56.42837,56.42837c0,31.16452 -25.26383,56.42837 -56.42837,56.42837c-31.16454,0 -56.42837,-25.26387 -56.42837,-56.42837z" fill="url(#color-1)" stroke="none" stroke-width="0"/><path d="M263.57162,180.00002c0,-31.16452 25.26385,-56.42837 56.42837,-56.42837c31.16454,0 56.42837,25.26387 56.42837,56.42837c0,31.16452 -25.26383,56.42837 -56.42837,56.42837c-31.16454,0 -56.42837,-25.26387 -56.42837,-56.42837z" fill="none" stroke="#b04646" stroke-width="3.5"/><path d="M158.38221,180.00002c0,-89.25903 72.35878,-161.61781 161.61781,-161.61781c89.25909,0 161.61781,72.35882 161.61781,161.61781c0,89.25903 -72.35872,161.61781 -161.61781,161.61781c-89.25909,0 -161.61781,-72.35884 -161.61781,-161.61781z" fill="none" stroke="none" stroke-width="0"/></g></g></svg>