<svg version="1.1" xmlns="http://www.w3.org/2000/svg" xmlns:xlink="http://www.w3.org/1999/xlink" width="1830.87087" height="6288.65867" viewBox="0,0,1830.87087,6288.65867"><defs><radialGradient cx="319.99994" cy="180.00006" r="574.63759" gradientUnits="userSpaceOnUse" id="color-1"><stop offset="0" stop-color="#c5deff" stop-opacity="0.24314"/><stop offset="1" stop-color="#c5deff" stop-opacity="0"/></radialGradient><radialGradient cx="319.99994" cy="180.00006" r="915.43544" gradientUnits="userSpaceOnUse" id="color-2"><stop offset="0" stop-color="#c5deff" stop-opacity="0.24314"/><stop offset="1" stop-color="#c5deff" stop-opacity="0"/></radialGradient><radialGradient cx="319.99994" cy="180.00006" r="347.43903" gradientUnits="userSpaceOnUse" id="color-3"><stop offset="0" stop-color="#c5deff" stop-opacity="0.24314"/><stop offset="1" stop-color="#c5deff" stop-opacity="0"/></radialGradient></defs><g transform="translate(595.43544,2964.32933)"><g stroke="none" stroke-miterlimit="10"><path d="M-254.63759,180.00006c0,-317.36352 257.27396,-574.63753 574.63759,-574.63753c317.36352,0 574.63759,257.27401 574.63759,574.63759c0,317.36352 -257.27401,574.63759 -574.63759,574.63759c-317.36352,0 -574.63753,-257.27401 -574.63753,-574.63759z" fill="url(#color-1)" fill-rule="nonzero" stroke-width="0"/><path d="M-595.43544,180.00006c0,-505.58091 409.85435,-915.43538 915.43544,-915.43538c505.58097,0 915.43544,409.8544 915.43544,915.43544c0,505.58097 -409.85435,915.43544 -915.43544,915.43544c-505.58091,0 -915.43538,-409.85435 -915.43538,-915.43544z" fill="url(#color-2)" fill-rule="nonzero" stroke-width="0"/><path d="M314.95012,3324.32933c0,-826.51382 -30.80973,-1549.13423 -92.37793,-2166.84394c-61.56837,-617.70965 -133.54291,-926.81828 -215.97401,-926.81828v-101.33165c82.43111,0 154.40547,-309.11101 215.97401,-928.35546c61.56837,-619.24439 92.37793,-1341.35487 92.37793,-2165.30933h10.09993c0,826.51143 30.80991,1549.13423 92.37793,2166.84406c61.56837,617.70965 133.54291,926.81828 215.97401,926.81828v101.33165c-82.38042,0 -154.40547,309.11101 -215.97401,926.81828c-61.56837,617.70965 -92.37793,1339.82031 -92.37793,2166.84394z" fill-opacity="0.24314" fill="#c5deff" fill-rule="evenodd" stroke-width="1"/><path d="M314.95012,950.1999c0,-202.45351 -30.80973,-379.45875 -92.37793,-530.76595c-61.56837,-151.3072 -133.54291,-227.02298 -215.97401,-227.02298v-24.82106c82.43111,0 154.40547,-75.71648 215.97401,-227.39964c61.56837,-151.68316 92.37793,-328.56322 92.37793,-530.38999h10.09993c0,202.45298 30.80991,379.45875 92.37793,530.76595c61.56837,151.3072 133.54291,227.02298 215.97401,227.02298v24.82106c-82.38042,0 -154.40547,75.71631 -215.97401,227.02298c-61.56837,151.3072 -92.37793,328.18743 -92.37793,530.76595z" fill-opacity="0.24314" fill="#c5deff" fill-rule="evenodd" stroke-width="1"/><path d="M314.95012,1819.38672c0,-430.92689 -30.80973,-807.68579 -92.37793,-1129.74657c-61.56837,-322.06066 -133.54291,-483.2233 -215.97401,-483.2233v-52.8323c82.43111,0 154.40547,-161.16404 215.97401,-484.02486c61.56837,-322.86088 92.37793,-699.35387 92.37793,-1128.9464h10.09993c0,430.92538 30.80991,807.68579 92.37793,1129.74657c61.56837,322.06066 133.54291,483.2233 215.97401,483.2233v52.8323c-82.38042,0 -154.40547,161.16387 -215.97401,483.22348c-61.56837,322.06066 -92.37793,698.55383 -92.37793,1129.74645z" fill-opacity="0.24314" fill="#c5deff" fill-rule="evenodd" stroke-width="1"/><path d="M308.65667,362.43085c0,-47.95346 -69.20595,-89.87932 -207.50315,-125.7181c-138.2972,-35.83889 -299.96849,-53.77318 -485.12893,-53.77318v-5.87908c185.16009,0 346.83173,-17.93423 485.12893,-53.86228c138.2972,-35.92788 207.50315,-77.824 207.50315,-125.62911h22.68649c0,47.95346 69.20595,89.87932 207.50315,125.7181c138.2972,35.83889 299.96849,53.77318 485.12893,53.77318v5.87908c-185.04573,0 -346.83173,17.93423 -485.12893,53.77318c-138.2972,35.83889 -207.50315,77.73501 -207.50315,125.7181z" fill="#ff8b42" fill-rule="evenodd" stroke-width="1"/><path d="M314.91497,495.59116c0,-82.95576 -31.02489,-155.48417 -93.02334,-217.48262c-61.99845,-61.99845 -134.47547,-93.02334 -217.48262,-93.02334v-10.17035c83.00698,0 155.48417,-31.02489 217.48262,-93.17745c61.99845,-62.15256 93.02334,-134.62957 93.02334,-217.32845h10.17035c0,82.95576 31.02489,155.48417 93.02334,217.48262c61.99845,61.99845 134.47547,93.02334 217.48262,93.02334v10.17035c-82.95576,0 -155.48417,31.02489 -217.48262,93.02334c-61.99845,61.99845 -93.02334,134.47547 -93.02334,217.48262z" fill="#ff8b42" fill-rule="evenodd" stroke-width="1"/><path d="M316.53479,395.06584c0,-56.53187 -21.14256,-105.95768 -63.39252,-148.20776c-42.25008,-42.25008 -91.64102,-63.39252 -148.20776,-63.39252v-6.93089c56.56673,0 105.95768,-21.14256 148.20776,-63.49762c42.25008,-42.35507 63.39252,-91.74596 63.39252,-148.10283h6.93089c0,56.5317 21.14256,105.95768 63.39252,148.20776c42.25008,42.25008 91.64102,63.39252 148.20776,63.39252v6.93089c-56.53187,0 -105.95768,21.14256 -148.20776,63.39252c-42.25008,42.25008 -63.39252,91.64102 -63.39252,148.20776z" fill="#ffffff" fill-rule="evenodd" stroke-width="1"/><path d="M-27.43909,180.00006c0,-191.88525 155.55372,-347.43903 347.43903,-347.43903c191.88525,0 347.43903,155.55372 347.43903,347.43903c0,191.88525 -155.55372,347.43897 -347.43903,347.43897c-191.88525,0 -347.43903,-155.55372 -347.43903,-347.43897z" fill="url(#color-3)" fill-rule="nonzero" stroke-width="0"/></g></g></svg>