<svg version="1.1" xmlns="http://www.w3.org/2000/svg" xmlns:xlink="http://www.w3.org/1999/xlink" width="334.48562" height="334.48562" viewBox="0,0,334.48562,334.48562"><g transform="translate(-152.75719,-12.75719)"><g stroke="none" stroke-miterlimit="10"><path d="M329.94196,151.2884l-0.12118,0.38735l-0.05593,0.40198l-0.43599,1.08145l0.00428,0.01813l-0.03076,0.04755l-0.05744,0.14248l-0.31788,0.43763l-0.29382,0.45413l-0.11224,0.10489l-0.03329,0.04582l-0.01845,0.00252l-1.35335,1.26474l-0.09276,0.05147l-0.06482,0.08397l-1.08281,0.85508l-0.26498,0.11943l-0.22558,0.18328l-2.7285,1.27565l-0.2274,0.04428l-0.20343,0.11085l-2.27974,0.59164l-0.10139,0.0009l-0.0926,0.04129l-2.50775,0.44205l-0.15122,-0.01068l-0.14481,0.04483l-2.84264,0.15711l-0.02171,-0.00417l-0.02123,0.00617l-3.94693,0.15015l-0.1045,-0.02194l-0.10466,0.02114l-3.32644,-0.15201l-4.09578,0.11896l-0.00517,-0.00113l-0.00511,0.00141l-3.41338,0.08509l-4.20597,0.2223l-3.52878,0.42505l-0.0418,-0.00525l-0.03983,0.01373l-3.50528,0.30589l-4.18004,0.68025l-3.02063,0.77194l-3.63276,1.4705l-2.48493,1.57024l-3.36945,2.66082l-2.61158,2.27215l-3.09121,3.18116l-2.08424,2.39856l-0.00752,0.00526l-0.00422,0.00814l-2.55017,2.89288l-0.04008,0.02762l-0.024,0.04236l-2.942,3.09241l-0.03386,0.02148l-0.02084,0.03425l-1.11126,1.09733l-0.28849,0.17063l-0.24367,0.23012l-1.44615,0.81239l-0.39255,0.10731l-0.36976,0.16998l-2.00904,0.37787l-0.37815,-0.02237l-0.37573,0.04836l-1.69565,-0.19926l-0.335,-0.12685l-0.35375,-0.05638l-1.98785,-0.84755l-0.15531,-0.11758l-0.1854,-0.05977l-1.94513,-1.2109l-0.23085,-0.23854l-0.27831,-0.18095l-2.1804,-2.34366l-0.09647,-0.17478l-0.14821,-0.13375l-1.88123,-2.79967l-0.05703,-0.15789l-0.1087,-0.12792l-1.28988,-2.60739l-0.01686,-0.07738l-0.04745,-0.06341l-1.24718,-2.97073l-0.01934,-0.12582l-0.06572,-0.10901l-0.97648,-3.1845l-0.00304,-0.05781l-0.02762,-0.05087l-1.0122,-3.92544l-0.00102,-0.13835l-0.05243,-0.12803l-0.81294,-5.62109l0.0134,-0.13172l-0.03718,-0.12708l-0.09293,-2.34393l0.04043,-0.19414l-0.02531,-0.19667l0.24196,-2.05901l0.05958,-0.15734l0.00076,-0.16825l0.91145,-3.5766l0.12011,-0.22277l0.05158,-0.24777l1.46011,-3.02097l0.13844,-0.16597l0.0794,-0.20103l2.35064,-3.2847l0.14833,-0.12613l0.09841,-0.16801l2.37212,-2.42264l0.11613,-0.07135l0.08107,-0.10958l3.26265,-2.68636l0.07847,-0.03732l0.05631,-0.06618l2.94924,-2.10923l0.10433,-0.04117l0.0799,-0.0787l3.29838,-1.94543l0.06764,-0.02003l0.05291,-0.04666l4.44008,-2.29906l0.13104,-0.03107l0.10985,-0.07791l6.05363,-2.36175l0.11097,-0.01416l0.09657,-0.05649l4.19615,-1.22596l0.07915,-0.00311l0.07072,-0.03568l4.2888,-0.9695l0.14567,0.0033l0.13674,-0.05033l4.35299,-0.4708l0.0891,0.01231l0.08638,-0.02506l5.54993,-0.20736l0.08605,0.01813l0.08594,-0.01863l4.28182,0.13479l0.07107,0.02016l0.07298,-0.01147l4.37448,0.39125l0.06812,0.02365l0.07174,-0.00716l4.22489,0.61927l0.10283,0.04233l0.1112,-0.00136l5.1369,1.21759l0.09252,0.04789l0.10394,0.00722l4.73085,1.53826l0.09123,0.05711l0.10638,0.01649l4.44592,1.87313l0.05151,0.03865l0.06307,0.01305l3.3701,1.62392l0.08087,0.06729l0.10092,0.02973l2.87138,1.68811l0.06053,0.05946l0.07963,0.02932l2.61492,1.78076l0.1422,0.15956l0.18527,0.10654l2.75752,2.65706l0.02656,0.04246l0.04241,0.02665l1.85975,1.93761l0.00852,0.01489l0.0144,0.00931l1.39449,1.49218l1.59437,1.61465l1.29703,1.23395l0.0964,0.15194l0.14243,0.10996l0.51308,0.64972l0.62348,0.56614l0.01658,0.02484l0.02599,0.01473l0.44178,0.42028l0.09641,0.15195l0.14245,0.10997l0.21377,0.2707l0.52942,1.17467l-0.94208,2.33669l-0.58492,0.08796z" fill="#5a4c46" stroke-width="0.5"/><path d="M355.353,228.15915c0,0 0.1672,0.11059 0.37559,0.31648c0.25343,0.13358 0.51044,0.32859 0.76451,0.6025c1.70009,1.83294 -0.13285,3.53303 -0.13285,3.53303c-10.38499,9.63233 -24.55258,18.65998 -39.63037,16.02552c-22.81002,-3.98547 -16.17481,-23.00723 -3.5178,-34.36938c10.9824,-6.84792 23.68213,-11.87106 30.53752,-23.39398c3.25356,-5.46875 4.79015,-10.74042 3.03755,-17.12116c-0.75593,-2.75214 -2.31373,-5.86388 -3.96013,-8.18342c-2.32197,-3.27132 -4.82228,-5.16609 -8.3202,-6.90923l-2.42846,-0.85739c-0.26685,-0.08725 -0.52343,-0.22128 -0.75778,-0.40359c-1.08978,-0.84779 -1.28596,-2.41849 -0.43818,-3.50827c0.45111,-0.57987 1.10691,-0.90675 1.78602,-0.95795l4.97481,-0.39299l0.05396,0.68301c30.26196,-5.07604 62.95584,21.18625 47.08524,53.75728c-9.5065,11.47506 -23.24264,14.31506 -37.48623,14.77214c2.49982,2.36668 5.28434,4.58562 8.05683,6.40739z" fill="#5a4c46" stroke-width="0.5"/><path d="M271.42895,248.57395c-1.06197,2.26323 -3.32521,1.20125 -3.32521,1.20125c-0.79287,-0.37481 -1.58574,-0.74962 -2.37862,-1.12443l-2.47403,-0.7171c-1.17592,-0.31841 -1.97286,-1.45811 -1.82641,-2.70438c0.04453,-0.37896 0.17163,-0.72811 0.3612,-1.03159c-12.32306,3.44012 -24.24496,7.04643 -37.23709,7.37733c-12.40079,0.30913 -31.5301,1.94218 -41.66583,-6.69575c-4.00653,-3.41447 -8.46654,-15.04221 -2.58578,-19.24479c0.9382,-0.67047 31.38954,5.84892 37.96323,5.63487c34.9934,-0.93415 33.44946,-22.66879 47.63036,-43.90538c6.05854,-9.07295 14.95527,-14.9621 25.22499,-9.15263c3.75744,2.16221 8.96081,4.43582 10.36887,9.05125c2.54465,8.34104 -11.83367,15.13152 -15.8358,20.42076c-7.94393,10.49873 -12.23077,25.00454 -13.73495,37.86316c0,0 -0.06106,0.51965 -0.36505,1.05555c0.21452,0.50824 0.25946,1.16341 -0.11988,1.97187z" fill="#5a4c46" stroke-width="0.5"/><path d="M175.41121,166.0126c-1.60497,-1.91679 0.31182,-3.52175 0.31182,-3.52175l0.68991,-0.57378c3.35612,-3.09779 6.47684,-6.38028 9.26974,-9.93867c-1.5755,-1.13607 -0.68835,-3.02676 -0.68835,-3.02676c6.93151,-14.77227 15.96112,-28.13798 27.01031,-39.7214c8.14179,-10.61511 17.40911,-19.00034 28.85668,-23.27937c0.03735,-0.02289 0.0747,-0.04577 0.11208,-0.06863c18.04054,-11.00945 78.07034,-26.11619 96.87884,-14.83662c10.41671,9.54615 15.29625,28.93433 -3.99775,31.11957c-20.09323,2.27576 -39.42732,-6.72941 -58.42737,-11.9028c-12.7529,-3.4806 -23.33398,-3.03087 -32.39842,0.22564c-10.26843,6.34606 -19.43924,13.82079 -27.49205,22.27655c-4.94835,6.56274 -9.45856,14.00205 -13.84115,21.78541c-2.79431,3.98338 -4.30985,8.61857 -6.78227,12.79269c-4.08127,6.89032 -9.25332,12.83078 -15.10677,18.24646l-0.8735,0.73529c0,0 -1.91679,1.60496 -3.52175,-0.31183z" fill="#5a4c46" stroke-width="0.5"/><path d="M409.90832,172.78284c1.46196,5.01673 2.40627,10.36265 2.77091,16.15481c4.16339,28.71618 -2.24227,58.28725 -18.23228,82.66012c0,0 -1.37137,2.0903 -3.46167,0.71894c-2.09031,-1.37136 -0.71894,-3.46166 -0.71894,-3.46166c15.39119,-23.46012 21.4241,-51.78395 17.43963,-79.40105c-1.05114,-16.48478 -6.90812,-31.46165 -17.9576,-43.99298c-6.46993,-7.33762 -19.31907,-16.22827 -20.44015,-26.95612c-0.55438,-5.30491 2.18104,-8.80473 5.21189,-12.65521c30.25857,-20.01582 50.88681,29.05048 42.15377,52.41322c-1.43235,4.92843 -3.85482,9.41612 -5.82478,14.14002z" fill="#5a4c46" stroke-width="0.5"/><path d="M209.32051,170.38325c-1.33959,3.89911 -2.64921,7.68202 -2.63634,12.05996c0.00151,0.51383 0.79403,8.86177 0.91574,9.39914c1.58276,6.98789 5.39072,13.16259 5.50766,20.39416c0,0 0.01847,2.49993 -2.48146,2.5184c-0.1263,0.00093 -0.24627,-0.00457 -0.36022,-0.01584c-0.63067,0.68934 -1.28098,1.33393 -2.15569,1.46727c-3.37096,0.51387 -7.62125,-4.04236 -9.45714,-6.24344c-0.71505,-0.85727 -1.5848,-1.97743 -2.70113,-1.97983c-5.09216,1.1243 -11.93786,4.20557 -15.48689,-1.36687c-6.90793,-10.84636 15.03047,-28.11974 23.5049,-37.28512c1.75556,-5.86696 4.07304,-11.67632 5.25356,-17.50431l0.07225,-0.10199l-0.04046,-0.0123l0.79823,-2.62672c0.32916,-1.16 1.46035,-1.94269 2.69635,-1.79744c1.03224,0.1213 1.84335,0.85522 2.11258,1.79563l1.31138,4.22065l-0.07147,0.02221c0.06978,0.20562 0.13099,0.41464 0.18236,0.62757c1.08355,4.49104 -2.23225,10.4232 -6.96422,16.42887z" fill="#5a4c46" stroke-width="0.5"/><path d="M344.5852,291.41937c-0.29177,2.48292 -2.77468,2.19115 -2.77468,2.19115l-0.99225,-0.23021c-1.35392,17.62537 -38.54786,23.28493 -51.83429,21.70685c-7.26695,-0.86313 -13.4815,-4.46147 -19.28802,-8.61294c-11.05198,-9.32723 -6.75666,-23.29446 5.35675,-30.30218c12.67911,-7.33499 31.65157,-3.56654 43.4436,2.86418c7.80686,2.94154 16.67092,5.26914 23.73589,9.85521l0.16186,-0.24673c0,0 2.48291,0.29177 2.19114,2.77468z" fill="#5a4c46" stroke-width="0.5"/><path d="M373.43615,214.31333l-0.32996,-0.23632l-0.36428,-0.17893l-0.89066,-0.75256l-0.01855,-0.0016l-0.03554,-0.0441l-0.11734,-0.09915l-0.31615,-0.43888l-0.33936,-0.42119l-0.06449,-0.13943l-0.0331,-0.04595l0.00338,-0.01831l-0.77762,-1.6812l-0.01985,-0.10421l-0.05946,-0.08785l-0.47322,-1.29603l-0.0305,-0.28905l-0.10347,-0.27161l-0.35759,-2.99068l0.02911,-0.22983l-0.04161,-0.2279l0.15161,-2.35038l0.03087,-0.09658l-0.01024,-0.10087l0.36503,-2.52011l0.05747,-0.14028l0.00275,-0.15157l0.74048,-2.749l0.01076,-0.01931l0.00078,-0.02209l1.09272,-3.79563l0.05354,-0.09238l0.01268,-0.10602l1.18549,-3.11174l1.16892,-3.92724l0.00269,-0.00456l0.00026,-0.0053l0.98751,-3.26853l1.10526,-4.06423l0.70075,-3.48452l0.01807,-0.03806l-0.00058,-0.04213l0.80657,-3.4249l0.6622,-4.18294l0.21224,-3.11047l-0.25963,-3.91049l-0.71361,-2.85154l-1.47256,-4.03295l-1.34062,-3.19152l-2.05384,-3.93155l-1.62573,-2.73023l-0.00264,-0.00878l-0.00641,-0.00656l-1.94938,-3.32747l-0.01369,-0.04672l-0.03272,-0.03605l-2.01625,-3.76205l-0.0098,-0.03888l-0.02601,-0.03051l-0.69439,-1.39887l-0.07176,-0.32739l-0.1423,-0.30345l-0.31895,-1.62776l0.02094,-0.40641l-0.04571,-0.40438l0.26991,-2.02638l0.1396,-0.35215l0.07166,-0.37198l0.71996,-1.5481l0.22532,-0.27847l0.16426,-0.31833l1.42713,-1.62271l0.16028,-0.11071l0.11479,-0.15738l1.75885,-1.46842l0.29881,-0.14459l0.25896,-0.20769l2.90833,-1.33733l0.1962,-0.03692l0.17342,-0.0989l3.2478,-0.91047l0.1678,-0.00475l0.15552,-0.06321l2.8801,-0.40901l0.07877,0.00821l0.07508,-0.02522l3.21182,-0.25474l0.12555,0.02101l0.12411,-0.02829l3.33013,0.06928l0.05586,0.0152l0.05696,-0.01031l4.04502,0.26725l0.13171,0.04233l0.13801,-0.00972l5.59312,0.98721l0.12091,0.05395l0.13233,0.00447l2.25526,0.64535l0.17173,0.09916l0.19472,0.03752l1.87983,0.87423l0.13079,0.10583l0.15956,0.05338l3.11165,1.98507l0.17398,0.1838l0.21918,0.12654l2.4122,2.33226l0.11431,0.18344l0.16608,0.13832l2.38397,3.26059l0.07337,0.18036l0.12877,0.14605l1.55849,3.01119l0.03142,0.13263l0.0787,0.1113l1.53024,3.93951l0.01088,0.08621l0.04523,0.07419l1.0802,3.46122l0.00644,0.11197l0.04974,0.10052l0.81535,3.74155l-0.00214,0.07051l0.02776,0.06485l0.79388,4.93657l-0.01151,0.13418l0.03962,0.12871l0.34841,6.48868l-0.02128,0.10983l0.02342,0.1094l-0.14895,4.36903l-0.02182,0.07615l0.01175,0.07833l-0.42153,4.37676l-0.04873,0.13732l0.00501,0.14562l-0.91526,4.28164l-0.03957,0.08078l-0.00324,0.08989l-1.54009,5.33599l-0.04415,0.07606l-0.0092,0.08746l-1.46816,4.02451l-0.04139,0.06119l-0.01195,0.0729l-1.74073,4.03225l-0.04378,0.05729l-0.01566,0.07038l-1.91047,3.8188l-0.07239,0.08442l-0.03351,0.10604l-2.76417,4.49774l-0.07445,0.07288l-0.03939,0.09646l-2.94165,4.01172l-0.0828,0.06878l-0.04895,0.09587l-3.17052,3.6363l-0.05284,0.03682l-0.03213,0.05582l-2.59712,2.69252l-0.08922,0.05575l-0.05982,0.08654l-2.50199,2.19878l-0.07542,0.03888l-0.05277,0.06645l-2.50972,1.9262l-0.19605,0.08512l-0.15917,0.14262l-3.38662,1.78737l-0.04864,0.01193l-0.03858,0.03194l-2.42233,1.15987l-0.01681,0.00343l-0.01335,0.01076l-1.85367,0.8574l-2.03254,1.00891l-1.5779,0.84566l-0.17448,0.044l-0.14901,0.10086l-0.77766,0.28395l-0.73283,0.41496l-0.02879,0.00797l-0.02212,0.02008l-0.53743,0.28804l-0.17449,0.044l-0.14903,0.10088l-0.324,0.1183l-1.28136,0.13517l-1.92444,-1.62609l0.09952,-0.58307z" fill="#7c6861" stroke-width="0.5"/><path d="M292.47426,214.38852c0,0 -0.15736,0.12418 -0.41813,0.25766c-0.20618,0.19889 -0.47185,0.38196 -0.8115,0.53753c-2.27295,1.041 -3.31395,-1.23195 -3.31395,-1.23195c-5.89808,-12.87799 -10.03797,-29.15928 -2.81679,-42.655c10.92437,-20.41664 26.91376,-8.16132 33.74364,7.41594c3.06658,12.57391 3.86257,26.20774 12.66095,36.32518c4.17568,4.80172 8.70158,7.91105 15.31028,8.24356c2.85046,0.14342 6.29344,-0.3622 9.01173,-1.19991c3.8337,-1.18145 6.41582,-2.96311 9.16618,-5.73972l1.57437,-2.0381c0.16639,-0.22613 0.37399,-0.42787 0.62049,-0.59339c1.14627,-0.76969 2.69947,-0.46441 3.46916,0.68186c0.40955,0.60994 0.51475,1.33509 0.35083,1.99611l-1.18378,4.84787l-0.66558,-0.16252c-4.65044,30.33027 -39.82588,53.16196 -65.79329,27.89457c-7.92318,-12.62038 -6.32133,-26.55527 -2.29746,-40.2263c-3.03017,1.6335 -6.00914,3.58364 -8.60713,5.64665z" fill="#7c6861" stroke-width="0.5"/><path d="M299.35184,128.29144c-1.81714,-1.71697 -0.10017,-3.53411 -0.10017,-3.53411c0.60414,-0.63573 1.20827,-1.27146 1.81241,-1.90719l1.4554,-2.1253c0.67045,-1.01718 2.00233,-1.41738 3.14014,-0.88823c0.34598,0.1609 0.63781,0.39089 0.86671,0.66593c0.58961,-12.78064 0.89583,-25.23228 4.64785,-37.67524c3.58763,-11.87452 8.02375,-30.55386 19.40001,-37.47685c4.4969,-2.73657 16.93634,-3.33323 19.08722,3.56741c0.34314,1.1009 -15.37943,27.9819 -17.23358,34.29231c-10.06509,33.52767 11.06082,38.86386 26.79209,58.97896c6.7209,8.59382 9.52965,18.88678 0.79782,26.82227c-3.22959,2.89192 -7.01753,7.12227 -11.84178,7.01504c-8.71841,-0.19379 -10.66757,-15.97503 -14.43848,-21.43153c-7.48495,-10.83073 -19.92028,-19.44225 -31.66209,-24.89538c0,0 -0.47443,-0.22064 -0.88826,-0.67708c-0.54985,0.04467 -1.18617,-0.11769 -1.83527,-0.73102z" fill="#7c6861" stroke-width="0.5"/><path d="M407.81705,62.93794c2.32282,-0.92441 3.24722,1.3984 3.24722,1.3984l0.32902,0.83483c1.89175,4.15706 4.0326,8.14835 6.53808,11.91464c1.57209,-1.14077 3.09013,0.29356 3.09013,0.29356c11.86066,11.20672 21.72876,23.9659 29.27202,38.08537c7.53356,11.05508 12.597,22.48122 13.07816,34.69292c0.01005,0.04264 0.02009,0.08527 0.0301,0.12792c4.80996,20.57993 0.36947,82.32191 -16.23013,96.65515c-12.32679,6.90559 -32.26809,5.47183 -28.30486,-13.53677c4.1274,-19.796 18.73136,-35.34026 29.59151,-51.76656c7.29717,-11.02282 10.18171,-21.21305 9.92582,-30.84132c-2.8134,-11.73874 -7.04228,-22.78826 -12.55283,-33.08298c-4.68428,-6.75376 -10.33821,-13.36574 -16.35885,-19.9642c-2.90868,-3.90065 -6.83665,-6.79077 -10.02725,-10.4454c-5.26678,-6.03277 -9.29002,-12.80423 -12.60159,-20.05861l-0.42496,-1.05974c0,0 -0.92441,-2.32281 1.3984,-3.24722z" fill="#7c6861" stroke-width="0.5"/><path d="M327.99357,283.53473c-5.22225,-0.18164 -10.59515,-0.95794 -16.21042,-2.42446c-28.57652,-5.03343 -54.65705,-20.37249 -72.80082,-43.18741c0,0 -1.55607,-1.95669 0.40062,-3.51277c1.95669,-1.55607 3.51276,0.40062 3.51276,0.40062c17.4643,21.96052 42.47691,36.55518 69.95357,41.41455c15.98556,4.16111 32.0431,3.28589 47.40314,-3.28638c8.99394,-3.84834 21.45947,-13.2693 31.99921,-10.97643c5.2119,1.13382 7.67974,4.82718 10.38818,8.91089c9.53982,35.00295 -43.51761,39.23793 -62.9733,23.63153c-4.23252,-2.9029 -7.73656,-6.60822 -11.60655,-9.95771z" fill="#7c6861" stroke-width="0.5"/><path d="M393.05299,93.77566c-3.28395,-2.49264 -6.46691,-4.92044 -10.62893,-6.27844c-0.48849,-0.15938 -8.66507,-2.01944 -9.21353,-2.07203c-7.13219,-0.68384 -14.18848,1.00023 -21.09334,-1.15205c0,0 -2.38012,-0.76489 -1.61522,-3.14501c0.03865,-0.12025 0.08141,-0.23247 0.12779,-0.33717c-0.45732,-0.81473 -0.86599,-1.63412 -0.71886,-2.50661c0.567,-3.36243 6.22459,-5.97316 8.88968,-7.02792c1.038,-0.41081 2.37409,-0.88628 2.72577,-1.94577c0.52594,-5.18821 -0.25794,-12.65436 6.14532,-14.28101c12.46348,-3.16615 22.00271,23.0763 28.05527,33.99356c5.02275,3.50361 9.8149,7.52288 14.98061,10.46816l0.07426,0.10054l0.02434,-0.03458l2.24492,1.58025c0.9987,0.67568 1.38802,1.995 0.86322,3.12345c-0.43828,0.94242 -1.38919,1.48307 -2.36662,1.44444l-4.41904,-0.07549l0.00128,-0.07484c-0.21712,0.00192 -0.43481,-0.00537 -0.65312,-0.02322c-4.60454,-0.37651 -9.20087,-5.38237 -13.42379,-11.75627z" fill="#7c6861" stroke-width="0.5"/><path d="M235.76241,184.3624c-2.26685,-1.05422 -1.21263,-3.32107 -1.21263,-3.32107l0.5292,-0.87034c-16.3161,-6.80232 -10.05029,-43.89894 -4.39308,-56.02394c3.09419,-6.63171 8.45679,-11.40782 14.21703,-15.62328c12.3177,-7.57746 24.23884,0.87356 27.1032,14.57166c2.99814,14.33783 -6.51901,31.17762 -16.31734,40.36452c-5.23716,6.49399 -10.22212,14.18421 -16.78899,19.45887l0.18368,0.23095c0,0 -1.05422,2.26685 -3.32107,1.21263z" fill="#7c6861" stroke-width="0.5"/><path d="M152.75719,180c0,-92.36563 74.87718,-167.24281 167.24281,-167.24281c92.36569,0 167.24281,74.87722 167.24281,167.24281c0,92.36563 -74.87712,167.24281 -167.24281,167.24281c-92.36569,0 -167.24281,-74.87724 -167.24281,-167.24281z" fill="none" stroke-width="0"/><path d="M297.88602,233.84508l0.07514,-0.39884l0.00863,-0.40576l0.3068,-1.12494l-0.00637,-0.0175l0.025,-0.05082l0.04042,-0.14821l0.26463,-0.47174l0.23881,-0.48532l0.09923,-0.11727l0.02771,-0.04939l0.01803,-0.00466l1.1965,-1.41404l0.08612,-0.06194l0.05458,-0.09096l0.97561,-0.97561l0.24923,-0.14954l0.20265,-0.20836l2.56098,-1.58537l0.22067,-0.07052l0.1891,-0.13383l2.19512,-0.85366l0.10059,-0.01273l0.08715,-0.05182l2.43902,-0.73171l0.15143,-0.00704l0.13859,-0.06142l2.80488,-0.4878l0.02205,0.00161l0.02036,-0.00861l3.90244,-0.60976l0.10634,0.00959l0.10148,-0.03321l3.32145,-0.23725l4.05391,-0.59616l0.00527,0.00052l0.00491,-0.002l3.38013,-0.48288l4.15128,-0.71165l3.45506,-0.83398l0.04213,0.00034l0.03796,-0.01829l3.44562,-0.71289l4.07209,-1.16345l2.90989,-1.1192l3.43632,-1.88442l2.28469,-1.84952l3.03588,-3.03588l2.32856,-2.56142l2.69882,-3.52019l1.79006,-2.62542l0.00685,-0.0061l0.00324,-0.00858l2.19512,-3.17074l0.03659,-0.03211l0.01889,-0.04487l2.56098,-3.41463l0.03112,-0.02528l0.0167,-0.03645l0.9756,-1.21952l0.2666,-0.20313l0.21515,-0.25699l1.34146,-0.97561l0.37734,-0.15239l0.34739,-0.21197l1.95122,-0.60976l0.37818,-0.02192l0.36751,-0.09188h1.70732l0.34751,0.08688l0.35791,0.01471l2.07318,0.60976l0.16797,0.09865l0.19111,0.03772l2.07316,0.97561l0.25711,0.20997l0.29752,0.14723l2.43902,2.07317l0.11621,0.16233l0.16281,0.11554l2.19512,2.56098l0.07507,0.15015l0.12289,0.11436l1.58537,2.43903l0.02577,0.07489l0.05453,0.05744l1.58537,2.80487l0.03389,0.1227l0.07799,0.1006l1.34146,3.04878l0.00977,0.05706l0.03337,0.0473l1.46341,3.78048l0.01716,0.13728l0.06701,0.12104l1.46341,5.4878l0.00207,0.13238l0.05175,0.12187l0.36585,2.31707l-0.0175,0.19753l0.04809,0.19238v2.07317l-0.04081,0.16322l0.01888,0.16719l-0.4878,3.65854l-0.09329,0.23526l-0.02231,0.2521l-1.09756,3.17073l-0.11813,0.181l-0.05539,0.20892l-1.95122,3.53659l-0.1326,0.14258l-0.07813,0.17835l-2.07317,2.68293l-0.10701,0.08442l-0.06773,0.11829l-2.92683,3.04878l-0.07358,0.04622l-0.0482,0.0723l-2.68292,2.43902l-0.09881,0.05306l-0.07017,0.08749l-3.04879,2.31708l-0.06484,0.02779l-0.0471,0.05252l-4.14142,2.80154l-0.12652,0.04615l-0.1,0.0902l-5.73663,3.05212l-0.10856,0.02702l-0.08932,0.06737l-4.02439,1.70731l-0.07825,0.01233l-0.06607,0.04369l-4.14634,1.46341l-0.14506,0.01372l-0.12993,0.06595l-4.26829,0.97561l-0.08993,-0.00182l-0.08287,0.03497l-5.4878,0.85366l-0.08758,-0.00796l-0.08318,0.02854l-4.26829,0.36585l-0.07294,-0.01173l-0.07114,0.0199l-4.39025,0.12196l-0.07041,-0.01554l-0.07042,0.01548l-4.26829,-0.12196l-0.10707,-0.03004l-0.11028,0.01433l-5.2439,-0.60975l-0.09748,-0.03677l-0.10407,0.00496l-4.87805,-0.97562l-0.09728,-0.04608l-0.10757,-0.00396l-4.63415,-1.34146l-0.05567,-0.03238l-0.06416,-0.0056l-3.53659,-1.21951l-0.08817,-0.05739l-0.1037,-0.01775l-3.04878,-1.34146l-0.06706,-0.05199l-0.08251,-0.01983l-2.80488,-1.46341l-0.15985,-0.14187l-0.19644,-0.08419l-3.04878,-2.31707l-0.03133,-0.03907l-0.04523,-0.02151l-2.07317,-1.70732l-0.0102,-0.01379l-0.01539,-0.00757l-1.55911,-1.31924l-1.77192,-1.41754l-1.43218,-1.07414l-0.11347,-0.13965l-0.15429,-0.09258l-0.5854,-0.5854l-0.68529,-0.4895l-0.01937,-0.02274l-0.02753,-0.01159l-0.48781,-0.36585l-0.11348,-0.13966l-0.15431,-0.09259l-0.2439,-0.2439l-0.6629,-1.10486l0.66293,-2.43067l0.57066,-0.15563z" fill="#cc9684" stroke-width="0.5"/><path d="M263.67718,160.46533c0,0 -0.17896,-0.09032 -0.40995,-0.27048c-0.26729,-0.10309 -0.54531,-0.26677 -0.8296,-0.50915c-1.9024,-1.622 -0.2804,-3.52439 -0.2804,-3.52439c9.18985,-10.77852 22.20702,-21.39796 37.48924,-20.5412c23.11928,1.29612 18.74941,20.96227 7.50495,33.72395c-10.10814,8.08286 -22.13484,14.55384 -27.59857,26.79809c-2.59308,5.81109 -3.50392,11.22607 -1.01861,17.35867c1.07197,2.64511 2.98229,5.55378 4.88814,7.66531c2.68789,2.97797 5.39225,4.56798 9.06971,5.89098l2.51192,0.56811c0.27521,0.05552 0.54568,0.15868 0.7997,0.31239c1.18128,0.7148 1.55943,2.25188 0.84463,3.43316c-0.38035,0.62856 -0.99352,1.02974 -1.66201,1.15984l-4.89495,0.9709l-0.1333,-0.67204c-29.46274,8.57317 -64.99823,-13.694 -53.03738,-47.89467c8.10231,-12.50613 21.41312,-16.92984 35.50603,-19.04614c-2.75895,-2.05875 -5.78341,-3.93756 -8.74957,-5.42331z" fill="#cc9684" stroke-width="0.5"/><path d="M344.64513,130.39541c0.79058,-2.3717 3.16228,-1.58112 3.16228,-1.58112c0.8312,0.27971 1.6624,0.55943 2.4936,0.83914l2.54082,0.42346c1.20504,0.17899 2.12955,1.2179 2.12955,2.47274c0,0.38157 -0.08548,0.74317 -0.23834,1.06669c11.83736,-4.85481 23.2569,-9.82786 36.12163,-11.6728c12.27997,-1.7543 31.08796,-5.60873 42.16254,1.78725c4.37765,2.92354 10.16423,13.9513 4.81414,18.8115c-0.85354,0.77538 -31.85766,-2.14554 -38.36144,-1.16575c-34.64524,5.01179 -30.57524,26.41772 -42.18075,49.16421c-4.95824,9.71803 -13.10688,16.60526 -23.98443,12.03405c-3.98411,-1.70891 -9.41726,-3.35971 -11.35436,-7.77927c-3.50073,-7.98705 9.98683,-16.4092 13.34432,-22.12938c6.66436,-11.3541 9.22894,-26.26109 9.22214,-39.2074c0,0 0,-0.52322 0.23937,-1.09094c-0.27237,-0.47973 -0.39347,-1.12518 -0.11107,-1.97238z" fill="#cc9684" stroke-width="0.5"/><path d="M449.6423,201.18649c1.8177,1.71638 0.10132,3.53408 0.10132,3.53408l-0.61823,0.65037c-2.97165,3.46831 -5.68795,7.09258 -8.04647,10.95261c1.69732,0.94443 1.03688,2.92574 1.03688,2.92574c-5.16009,15.48028 -12.5681,29.80849 -22.18991,42.60228c-6.84728,11.49278 -15.07264,20.90228 -25.94259,26.48809c-0.03442,0.02709 -0.06885,0.05417 -0.1033,0.08124c-16.63237,13.0397 -74.48885,35.04917 -94.48523,26.04179c-11.45964,-8.2652 -18.5686,-26.9514 0.33853,-31.37348c19.69032,-4.60525 39.94325,2.08193 59.41724,5.0025c13.07197,1.96845 23.52825,0.28688 32.15068,-4.00526c9.45762,-7.5011 17.6934,-15.99506 24.70432,-25.33286c4.14861,-7.0954 7.75977,-15.01025 11.20402,-23.25191c2.31033,-4.28228 3.27454,-9.06265 5.24291,-13.49681c3.24923,-7.31956 7.69263,-13.82304 12.87403,-19.88485l0.78171,-0.83221c0,0 1.71638,-1.8177 3.53408,-0.10132z" fill="#cc9684" stroke-width="0.5"/><path d="M215.95754,221.83026c-2.03746,-4.81183 -3.59924,-10.011 -4.63738,-15.72102c-7.48636,-28.03404 -4.57565,-58.15063 8.46057,-84.2231c0,0 1.11803,-2.23607 3.3541,-1.11804c2.23607,1.11803 1.11804,3.3541 1.11804,3.3541c-12.54802,25.09608 -15.23407,53.93043 -8.05369,80.89379c2.96787,16.24946 10.53274,30.44041 22.96923,41.59654c7.28208,6.53237 21.08102,13.86268 23.44646,24.38637c1.16971,5.20396 -1.13855,8.9991 -3.6993,13.177c-27.71578,23.41047 -53.92949,-22.91304 -47.98275,-47.13534c0.84738,-5.06192 2.72953,-9.80166 4.13472,-14.72318z" fill="#cc9684" stroke-width="0.5"/><path d="M415.45465,200.8032c0.87538,-4.02881 1.73455,-7.9387 1.21082,-12.28523c-0.06147,-0.51014 -1.82285,-8.70855 -2.00644,-9.22804c-2.38749,-6.75541 -6.89006,-12.4435 -7.85019,-19.612c0,0 -0.31011,-2.48069 2.17059,-2.7908c0.12533,-0.01567 0.24512,-0.02421 0.35961,-0.02631c0.54591,-0.75823 1.11654,-1.47431 1.96971,-1.70883c3.28795,-0.90378 8.04094,3.12528 10.12117,5.09704c0.81021,0.76796 1.80475,1.77895 2.91374,1.65106c4.92615,-1.71091 11.36545,-5.57008 15.54058,-0.44991c8.12658,9.96603 -11.64595,29.68175 -18.99279,39.77354c-1.05883,6.03176 -2.68248,12.07188 -3.17476,17.99783l-0.05985,0.10973l0.04161,0.00749l-0.48622,2.70193c-0.19152,1.19049 -1.22364,2.09984 -2.46815,2.09984c-1.03935,0 -1.93056,-0.63424 -2.30771,-1.53681l-1.795,-4.03876l0.06839,-0.0304c-0.0933,-0.19606 -0.17848,-0.39652 -0.25436,-0.602c-1.60029,-4.33389 1.00052,-10.61249 4.99925,-17.12938z" fill="#cc9684" stroke-width="0.5"/><path d="M266.9884,96.38072c0,-2.5 2.5,-2.5 2.5,-2.5l1.01233,0.11283c-0.71236,-17.66293 35.56688,-27.62467 48.94669,-27.60801c7.31802,0.00911 13.91007,2.85758 20.16142,6.30302c12.06502,7.97364 9.42913,22.34671 -1.78363,30.72028c-11.73642,8.76463 -31.01902,7.23617 -43.48099,2.22563c-8.09681,-2.01031 -17.17195,-3.2875 -24.72387,-7.01769l-0.13195,0.26394c0,0 -2.5,0 -2.5,-2.5z" fill="#cc9684" stroke-width="0.5"/></g></g></svg>