<svg version="1.1" xmlns="http://www.w3.org/2000/svg" xmlns:xlink="http://www.w3.org/1999/xlink" width="720" height="720" viewBox="0,0,720,720"><defs><radialGradient cx="240" cy="180" r="360" gradientUnits="userSpaceOnUse" id="color-1"><stop offset="0" stop-color="#ffffff"/><stop offset="1" stop-color="#ffffff" stop-opacity="0"/></radialGradient></defs><g transform="translate(120,180)"><g stroke="none" stroke-miterlimit="10"><path d="M-120,180c0,-198.82248 161.17749,-360 360,-360c198.82248,0 360,161.17749 360,360c0,198.82248 -161.17749,360 -360,360c-198.82248,0 -360,-161.17749 -360,-360z" fill="url(#color-1)" fill-rule="nonzero" stroke-width="0"/><path d="M239.70106,198.55192c0,-4.87653 -1.82379,-9.14009 -5.46835,-12.78465c-3.64456,-3.64456 -7.9051,-5.46835 -12.78465,-5.46835v-0.59786c4.87954,0 9.14009,-1.82379 12.78465,-5.47741c3.64456,-3.65362 5.46835,-7.91416 5.46835,-12.77559h0.59786c0,4.87653 1.82379,9.14009 5.46835,12.78465c3.64456,3.64456 7.9051,5.46835 12.78465,5.46835v0.59786c-4.87653,0 -9.14009,1.82379 -12.78465,5.46835c-3.64456,3.64456 -5.46835,7.9051 -5.46835,12.78465z" fill="#ffffff" fill-rule="evenodd" stroke-width="1"/><path d="M239.79628,192.64257c0,-3.32321 -1.24286,-6.22869 -3.72651,-8.71235c-2.48366,-2.48366 -5.38709,-3.72651 -8.71235,-3.72651v-0.40743c3.32526,0 6.22869,-1.24286 8.71235,-3.73269c2.48366,-2.48983 3.72651,-5.39326 3.72651,-8.70618h0.40743c0,3.3232 1.24286,6.22869 3.72651,8.71235c2.48366,2.48366 5.38709,3.72651 8.71235,3.72651v0.40743c-3.32321,0 -6.22869,1.24286 -8.71235,3.72651c-2.48366,2.48366 -3.72651,5.38709 -3.72651,8.71235z" fill="#ffffff" fill-rule="evenodd" stroke-width="1"/></g></g></svg>