<svg version="1.1" xmlns="http://www.w3.org/2000/svg" xmlns:xlink="http://www.w3.org/1999/xlink" width="164.48562" height="164.48562" viewBox="0,0,164.48562,164.48562"><g transform="translate(-237.75719,-97.75719)"><g stroke-miterlimit="10"><path d="M291.28517,180.00001c0,-15.85876 12.85607,-28.71483 28.71483,-28.71483c15.85877,0 28.71483,12.85608 28.71483,28.71483c0,15.85876 -12.85606,28.71483 -28.71483,28.71483c-15.85877,0 -28.71483,-12.85608 -28.71483,-28.71483z" fill="#c99e61" stroke="none" stroke-width="0"/><path d="M294.65698,179.31373c0.23703,-2.48874 2.72576,-2.25171 2.72576,-2.25171l2.91773,0.69673c0.27494,-1.53252 -0.09603,-3.11331 -0.08236,-4.67024c0.01929,-2.19829 0.3606,-4.37891 0.64101,-6.56278c-1.0834,-0.7625 -2.05614,-1.7759 -3.14986,-2.51498c0,0 -2,-1.5 -0.5,-3.5c1.5,-2 3.5,-0.5 3.5,-0.5c0.95296,0.84196 1.60896,2.29197 2.85889,2.52589c1.42172,0.26608 2.85993,-1.83088 4.1668,-1.21105c3.87947,1.83998 2.38977,5.78352 4.63124,8.08472c0.45033,0.46233 1.09059,-0.82859 1.29258,-1.44156c0.51972,-1.57715 -0.00973,-3.65643 1.14697,-4.84788c1.52749,-1.5734 4.03699,-1.71403 6.0555,-2.57104l3.80159,2.01436c0,0 2.12914,1.31025 0.81889,3.43939c-1.31025,2.12914 -3.43939,0.81889 -3.43939,0.81889l-1.56356,-1.28729c-0.59532,0.24354 -1.49678,0.15607 -1.78595,0.73062c-0.57726,1.14694 0.04251,2.65698 -0.50386,3.81895c-1.37692,2.92827 -4.26577,5.11495 -7.78693,3.92361c-1.29098,-0.43678 -3.41555,-4.33323 -3.92344,-5.69484c-0.27587,-0.73958 0.24389,-2.1319 -0.51843,-2.31447c-0.27582,2.40502 -0.69302,4.80112 -0.74375,7.22006c-0.03225,1.53783 0.56869,3.13328 0.14586,4.61219c-0.46833,1.63804 -1.80298,2.89124 -2.70446,4.33687l-5.7491,-0.12868c0,0 -2.48874,-0.23702 -2.25171,-2.72576z" fill="#947447" stroke="none" stroke-width="0.5"/><path d="M346.05589,179.24179c-0.2376,1.59554 -0.51424,2.94117 -0.96674,4.07072c0.18173,0.30111 0.31248,0.68402 0.35672,1.17074c0.22634,2.48973 -2.2634,2.71607 -2.2634,2.71607l-1.3639,0.07276c-0.08633,1.21986 -0.07312,2.46429 -0.49418,3.60159c-0.86269,2.33017 -2.99466,4.10225 -3.65161,6.49857c-0.41402,1.5102 -0.47141,3.09617 -0.70711,4.64425c0,0 -0.38595,2.47003 -2.85598,2.08408c-2.47003,-0.38594 -2.08408,-2.85598 -2.08408,-2.85598c0.8039,-5.0308 0.49594,-5.76925 3.01036,-10.39499c0.57677,-1.06108 1.5771,-1.95314 1.90317,-3.10034c-0.14895,0.01343 -0.29559,0.04077 -0.43889,0.08868c-3.08347,1.03107 -2.50948,4.95373 -6.17612,5.98368c0.13648,0.42408 0.15213,0.94681 -0.06009,1.58347c-0.79057,2.37171 -3.16228,1.58114 -3.16228,1.58114l-0.02023,-0.08542c-2.03244,-0.16913 -4.10406,-0.47854 -5.9866,-1.26304c-0.36188,-0.15081 -0.85602,-1.01653 -0.98309,-0.64565c-0.28502,0.83186 0.74759,1.85938 0.30658,2.62014c-0.78763,1.35869 -2.12209,2.49657 -3.5925,3.04821c-3.38227,1.26889 -6.08514,0.50133 -8.77489,-1.41602c-0.53038,-0.37807 -0.56749,-1.36631 -1.19313,-1.54747c-0.37471,-0.1085 -0.06213,0.77944 -0.13731,1.16223c-0.28697,1.46111 -0.63221,2.91017 -0.94831,4.36525c0,0 -0.14017,0.60742 -0.58384,1.14563c-1.201,-1.08237 -2.66575,-1.87771 -4.28617,-2.27798c0.64941,-2.69416 1.09297,-8.46898 5.10303,-9.3219c3.48128,-0.74045 5.17007,4.08748 9.01648,3.2271c2.21028,-0.49441 0.32178,-3.59903 1.66656,-4.64931c1.80312,-1.40824 4.26775,-0.95923 6.62554,-0.35031c-0.86212,-1.68429 -1.20312,-3.83713 -1.33877,-5.87434c-0.35334,0.03425 -0.60473,0.00064 -0.60473,0.00064l-2.30793,-0.30884c-1.86434,-0.30465 -3.81151,-0.28563 -5.59302,-0.91396c-0.57621,-0.20323 -1.07462,-0.58282 -1.52171,-1.02141c0.08539,1.64746 -1.2967,3.48928 -2.353,4.43958c-1.17809,1.05988 -4.44228,0.72889 -5.96949,1.23422c-2.89693,0.95854 -5.59028,2.44883 -8.40692,3.62252c0,0 -2.30769,0.96153 -3.26923,-1.34616c-0.96154,-2.30769 1.34615,-3.26923 1.34615,-3.26923c2.98598,-1.24406 5.84972,-2.80837 8.92675,-3.80619c0.95986,-0.31126 1.98417,-0.38545 2.98864,-0.48168c0.45162,-0.04327 1.01882,0.36467 1.35953,0.06507c1.54519,-1.35871 -0.09121,-4.80922 1.6162,-5.95746c4.72238,-3.17581 4.50238,0.92548 7.30301,1.94691c1.35736,0.49506 2.86705,0.36066 4.30057,0.54099l1.49077,0.19921c0.09169,-0.54274 0.31398,-0.93174 0.31398,-0.93174c0.67654,-1.18392 3.2838,-6.03987 4.36206,-6.45574c1.35728,-0.52347 2.82332,0.84012 4.27785,0.8637c0.46826,0.0076 0.91793,-0.12552 1.36336,-0.29067l0.01264,-0.26382c0.4527,-2.09205 1.59028,-3.3284 -0.60219,-4.59015c-1.18594,-0.6825 -3.06437,-0.33613 -3.83353,-1.46778c-2.53472,-3.7293 -1.4056,-7.9092 -0.9378,-11.83403c0,0 0.31009,-2.48069 2.79078,-2.17061c2.4807,0.31008 2.1706,2.79078 2.1706,2.79078c-0.07722,0.58589 -1.23183,6.72846 -0.28747,7.89099c0.63524,0.78199 2.15931,0.0498 2.94486,0.68065c1.40391,1.12744 2.76811,2.57356 3.26306,4.30477c0.40456,1.41505 -0.15643,2.91198 -0.44558,4.38586c1.31267,0.0611 2.637,-0.0061 3.93186,-0.21321l0.94236,-0.23668c1.20827,-1.50493 2.7747,-2.93628 4.53601,-2.45526c0.82267,0.22468 1.42215,0.81021 1.94538,1.51901c-0.15322,0.69575 -0.23399,1.41867 -0.23399,2.16046c0,1.58935 0.37078,3.0921 1.03055,4.42647c-0.9482,0.42699 -1.72864,0.13913 -2.25222,-0.22493zM326.88435,181.61429c-0.00209,1.31662 -0.05044,2.63397 -0.00629,3.94985c0.02315,0.69007 -0.01762,1.40834 0.20797,2.06091c1.49524,4.32523 6.05551,-3.77393 7.46856,-4.393c0.3657,-0.16021 0.75375,-0.25285 1.15358,-0.30883c0.44705,-0.67853 1.21579,-1.12634 2.08913,-1.12634c0.19817,0 0.39094,0.02306 0.57581,0.06663l1.73127,0.37099c1.21445,-0.76259 0.89215,-2.51301 0.99013,-3.6129l0.31502,-0.92674c-1.938,0.27687 -3.91558,0.36079 -5.86751,0.22147c0,0 -0.52587,-0.04045 -1.07594,-0.32573l-0.39586,0.05209c-1.32679,0.29967 -2.6217,0.96383 -3.98036,0.89901c-0.87124,-0.04156 -1.45583,-1.26761 -2.32542,-1.19983c-0.4677,0.03645 0.00122,0.96406 -0.18328,1.39537c-0.26084,0.60978 -0.60353,1.17884 -0.9544,1.74383c0.2576,0.58374 0.2576,1.13321 0.2576,1.13321z" fill="#947447" stroke="none" stroke-width="0.5"/><path d="M326.57964,180.46429c0.35087,-0.56499 0.69931,-1.14538 0.96015,-1.75516c0.1845,-0.43132 -0.27981,-1.36471 0.18789,-1.40117c0.8696,-0.06778 1.45834,1.15425 2.32958,1.19581c1.35866,0.06482 2.68663,-0.61141 4.01342,-0.91108l0.39943,-0.05193c0.55008,0.28528 1.08597,0.32759 1.08597,0.32759c1.95193,0.13932 3.95577,0.07381 5.89377,-0.20306l-0.31314,0.92951c-0.09798,1.09989 0.2316,2.86995 -0.98285,3.63254l-1.82882,-0.35002c-0.18486,-0.04358 -0.3768,-0.06398 -0.57496,-0.06398c-0.87333,0 -1.54518,0.42571 -1.99223,1.10424c-0.39983,0.05597 -0.78871,0.16491 -1.15441,0.32513c-1.41305,0.61907 -6.06408,8.73483 -7.55932,4.4096c-0.22559,-0.65257 -0.1902,-1.38188 -0.21335,-2.07195c-0.04415,-1.31588 0.00256,-2.65975 0.00466,-3.97636c0,0 0.00183,-0.55596 -0.25577,-1.1397z" fill="#5796b5" stroke="none" stroke-width="0.5"/><path d="M291.28517,180.00001c0,-15.85876 12.85607,-28.71483 28.71483,-28.71483c15.85877,0 28.71483,12.85608 28.71483,28.71483c0,15.85876 -12.85606,28.71483 -28.71483,28.71483c-15.85877,0 -28.71483,-12.85608 -28.71483,-28.71483z" fill="none" stroke="#735a37" stroke-width="3.5"/><path d="M237.7572,180.00001c0,-45.42144 36.82137,-82.24281 82.24281,-82.24281c45.42147,0 82.24281,36.82139 82.24281,82.24281c0,45.42144 -36.82134,82.24281 -82.24281,82.24281c-45.42147,0 -82.24281,-36.8214 -82.24281,-82.24281z" fill="none" stroke="none" stroke-width="0"/></g></g></svg>