<svg version="1.1" xmlns="http://www.w3.org/2000/svg" xmlns:xlink="http://www.w3.org/1999/xlink" width="164.48562" height="164.48562" viewBox="0,0,164.48562,164.48562"><g transform="translate(-237.75721,-97.75721)"><g stroke-miterlimit="10"><path d="M304.29202,174.04905c-9.7422,1.19158 -6.34871,-7.5845 -12.68257,-10.43915c-2.48566,-1.12028 -3.08114,2.31866 -3.36192,3.76329c-1.01536,5.22428 -0.36188,11.38224 -3.69251,15.53325c-5.87297,7.31959 -7.79938,8.05853 -17.54408,6.97534c-4.01484,-0.44628 -7.40497,2.33157 -10.02758,-1.94102c-1.19575,-1.94805 -7.41182,-21.15781 3.39033,-14.67651c2.84262,1.70558 1.86232,6.36373 2.86412,9.52378c0.05577,0.17593 3.20315,-0.42171 4.2609,-0.35242c3.26842,0.2141 4.61428,2.01124 7.90042,-0.28988c6.14206,-4.30101 3.19563,-12.73222 5.93949,-18.52482c1.77459,-3.74634 5.53884,-6.67848 9.1295,-8.68754c4.73525,-2.64949 11.35356,10.36224 11.57215,10.59766c1.21642,1.31004 4.51085,0.72895 4.74406,2.50137c0.4798,0.6301 0.76468,1.41667 0.76468,2.26977c0,1.74283 -1.18892,3.20797 -2.79996,3.62861c-0.14252,0.05793 -0.29432,0.09838 -0.45703,0.11828z" fill="#000000" stroke="none" stroke-width="0.5"/><path d="M306.48486,157.92895c-3.51609,-3.88011 -0.47017,-10.8213 2.50593,-13.85875c6.49506,-6.62895 23.25912,-3.8737 30.87538,-4.0555c11.08955,-0.26471 22.17706,-0.66071 33.26924,-0.76923c1.97484,-0.01932 3.78071,1.28487 3.83568,3.66232c0.05497,2.37759 -1.68869,3.76363 -3.66232,3.83568c-16.68073,0.60894 -31.24649,0.80064 -47.3423,0.96255c-1.05745,0.01064 -9.72506,-0.51854 -11.25825,1.46938c-0.97538,1.26468 -3.18351,3.05185 -2.15922,4.27725c2.07804,2.48603 4.4416,4.72367 6.52159,7.20807c0.04847,0.05315 0.09544,0.10771 0.14082,0.16359c0.41746,0.47644 0.94533,1.04218 0.7611,1.60525c0.05015,0.24457 0.07649,0.49782 0.07649,0.75722c0,2.07107 -1.67893,3.75 -3.75,3.75c-0.26433,0.19428 -0.75889,0.04056 -1.25931,-0.21669c-0.59416,-0.21178 -1.11921,-0.56918 -1.53217,-1.02924c-2.43268,-2.50118 -4.67976,-5.17643 -7.02267,-7.7619z" fill="#000000" stroke="none" stroke-width="0.5"/><path d="M340.47484,164.05715c0.19851,0.1316 0.38534,0.2964 0.56206,0.48761c0.31689,0.31008 0.57903,0.67591 0.77054,1.08161c1.20827,2.09711 1.91129,5.22763 2.95019,5.73349c7.05565,3.4355 17.8005,-4.13404 24.7387,-1.65611c9.92891,3.54604 9.74149,17.08891 10.53177,24.81829c0.25344,2.47884 0.72078,7.78453 -0.98592,9.24741c-2.68438,2.30089 -4.24228,2.18106 -6.54317,-0.50332c-1.46689,-1.71137 -0.08459,-4.51185 0.05001,-6.76183c0.2425,-4.05386 0.63234,-17.22446 -5.94045,-19.3678c-3.46609,-1.13027 -7.30033,0.58191 -10.83993,1.45515c-13.43596,3.31474 -15.51166,0.41583 -20.65538,-9.58585c-0.28632,-0.52972 -0.44886,-1.13616 -0.44886,-1.78056c0,-2.07107 1.67893,-3.75 3.75,-3.75c0.31185,0 0.61481,0.03807 0.90448,0.1098c0.40947,0.08227 0.80214,0.23755 1.15597,0.47211z" fill="#000000" stroke="none" stroke-width="0.5"/><path d="M335.04901,189.34062c0.65739,-4.08854 6.63794,-4.9559 7.45631,-0.5742c1.95977,10.49282 7.4416,21.29742 4.85271,31.65299c-2.2803,9.12118 -23.76763,10.06288 -27.31474,10.68828c-2.14,0.37731 -9.28975,2.11902 -11.49626,0.02264c-2.56315,-2.43522 -2.60313,-3.9972 -0.16791,-6.56035c2.24759,-2.36567 6.48773,-0.79764 9.74984,-0.87915c6.08154,-0.15195 14.31207,0.23633 18.31631,-3.17835c1.13989,-0.97206 3.4776,-1.42815 3.41228,-2.9248c-0.40619,-9.30618 -3.16131,-18.3599 -4.74197,-27.53985c-0.04371,-0.22903 -0.06659,-0.46544 -0.06659,-0.7072c0,-2.07107 1.67893,-3.75 3.75,-3.75c2.07107,0 3.75,1.67893 3.75,3.75c0,2.07107 -1.67893,3.75 -3.75,3.75c-1.82931,0 -3.35269,-1.30984 -3.68341,-3.0428z" fill="#000000" stroke="none" stroke-width="0.5"/><path d="M312.49045,200.41557c-1.7362,1.78478 -5.22245,2.23532 -7.39185,2.63736c-4.89267,0.90672 -15.63104,-3.05665 -17.0751,-0.07919c-1.18885,2.45125 0.13377,5.90931 -1.59341,8.01616c-2.45992,3.00066 -4.41276,3.84961 -8.59045,6.44563c-1.67893,1.04329 -3.80258,1.08326 -5.21247,-0.97734c-3.46715,-5.06739 5.88684,-7.47195 7.23219,-9.49209c2.16481,-3.2506 -0.77881,-8.23913 3.33767,-10.15425c8.73527,-4.06394 16.34022,0.10828 25.41472,-2.58044c0.36203,-0.11638 0.74807,-0.17923 1.14878,-0.17923c2.07107,0 3.75,1.67893 3.75,3.75c0,0.21678 -0.01839,0.42926 -0.05371,0.63596c-0.07635,0.689 -0.37782,1.3724 -0.96639,1.97743z" fill="#000000" stroke="none" stroke-width="0.5"/><path d="M291.28517,180.00003c0,-15.85876 12.85607,-28.71483 28.71483,-28.71483c15.85877,0 28.71483,12.85608 28.71483,28.71483c0,15.85876 -12.85606,28.71483 -28.71483,28.71483c-15.85877,0 -28.71483,-12.85608 -28.71483,-28.71483z" fill="#b04646" stroke="none" stroke-width="0"/><path d="M291.28517,180.00003c0,-15.85876 12.85607,-28.71483 28.71483,-28.71483c15.85877,0 28.71483,12.85608 28.71483,28.71483c0,15.85876 -12.85606,28.71483 -28.71483,28.71483c-15.85877,0 -28.71483,-12.85608 -28.71483,-28.71483z" fill="#000000" stroke="#00060f" stroke-width="3.5"/><path d="M237.75722,180.00003c0,-45.42144 36.82137,-82.24281 82.24281,-82.24281c45.42147,0 82.24281,36.82139 82.24281,82.24281c0,45.42144 -36.82134,82.24281 -82.24281,82.24281c-45.42147,0 -82.24281,-36.8214 -82.24281,-82.24281z" fill="none" stroke="none" stroke-width="0"/><path d="M309.56248,207.36275c-0.55901,1.11803 -1.67705,0.55901 -1.67705,0.55901l-1.63795,-0.82227c-6.81297,-4.65456 -14.45008,-11.28403 -17.1139,-19.27547c0,0 -0.39529,-1.18585 0.79057,-1.58114c1.18586,-0.39529 1.58114,0.79057 1.58114,0.79057c2.47154,7.41464 9.70153,13.56773 16.0111,17.91202l1.48705,0.74023c0,0 1.11804,0.55902 0.55902,1.67705z" fill="#001aff" stroke="none" stroke-width="0.5"/><path d="M300.71826,204.18143c0.22618,0.34742 0.22618,0.7473 0.22618,0.7473l-2.44003,0.53876c-1.6114,-5.01325 -2.86809,-9.98748 -3.64022,-15.19933c0,0 -0.18319,-1.2365 1.05332,-1.41969c1.23651,-0.18319 1.41969,1.05331 1.41969,1.05331c0.7253,4.89582 1.8911,9.57281 3.38107,14.27964z" fill="#001aff" stroke="none" stroke-width="0.5"/><path d="M331.03589,205.6857l1.48705,-0.74023c6.30957,-4.34429 13.53956,-10.49738 16.0111,-17.91202c0,0 0.39529,-1.18585 1.58114,-0.79057c1.18586,0.39529 0.79057,1.58114 0.79057,1.58114c-2.66381,7.99144 -10.30093,14.62091 -17.1139,19.27548l-1.63795,0.82227c0,0 -1.11804,0.55902 -1.67705,-0.55901c-0.55901,-1.11803 0.55902,-1.67705 0.55902,-1.67705z" fill="#001aff" stroke="none" stroke-width="0.5"/><path d="M342.70215,189.9018c0,0 0.18318,-1.2365 1.41969,-1.05331c1.23651,0.18319 1.05332,1.41969 1.05332,1.41969c-0.77213,5.21185 -2.02882,10.18608 -3.64022,15.19933l-2.44004,-0.53876c0,0 0,-0.39989 0.22618,-0.7473c1.48996,-4.70683 2.65576,-9.38382 3.38107,-14.27964z" fill="#001aff" stroke="none" stroke-width="0.5"/><path d="M306.25143,156.84648c-0.69062,-1.0419 0.35128,-1.73251 0.35128,-1.73251l1.52926,-1.01013c7.43099,-3.58633 16.98487,-6.90278 25.24061,-5.22888c0,0 1.22507,0.2484 0.97668,1.47347c-0.24839,1.22507 -1.47346,0.97669 -1.47346,0.97669c-7.65985,-1.55308 -16.59781,1.64786 -23.50891,4.95243l-1.38293,0.92021c0,0 -1.0419,0.69062 -1.73252,-0.35128z" fill="#001aff" stroke="none" stroke-width="0.5"/><path d="M332.41351,157.19775l-1.38293,-0.92021c-6.91111,-3.30457 -15.84906,-6.50551 -23.50891,-4.95243c0,0 -1.22508,0.24838 -1.47346,-0.97669c-0.24839,-1.22507 0.97668,-1.47347 0.97668,-1.47347c8.25574,-1.6739 17.80962,1.64255 25.24061,5.22888l1.52926,1.01013c0,0 1.0419,0.69061 0.35128,1.73251c-0.69062,1.0419 -1.73252,0.35128 -1.73252,0.35128z" fill="#001aff" stroke="none" stroke-width="0.5"/><path d="M253.75574,176.03613c-0.88453,-1.32679 0.52927,-7.68888 3.48892,-6.20906c0.06892,-0.00377 0.13833,-0.00568 0.2082,-0.00568c2.07107,0 3.75,1.67893 3.75,3.75c0.26765,0.42679 0.03465,1.15214 -0.5044,1.87969c-0.37892,0.65285 -0.94917,1.18087 -1.634,1.50731c-1.62808,1.0395 -3.79869,1.34276 -5.30871,-0.92226z" fill="#001aff" stroke="none" stroke-width="0.5"/><path d="M272.05622,216.60024c-0.23477,-0.41737 -0.37567,-0.87618 -0.43208,-1.34852c-0.02417,-0.17202 -0.03667,-0.34779 -0.03667,-0.52648c0,-0.33509 0.04395,-0.65991 0.1264,-0.96902c0.39439,-1.6833 1.746,-3.1656 3.6236,-3.1656c0.38824,0 0.95804,0.2778 1.55097,0.71938c0.90317,0.41082 1.61472,1.16937 1.96363,2.10464c0.75489,1.20636 0.96816,2.49902 -0.2828,3.21385c-0.65232,1.10528 -1.85547,1.84675 -3.23181,1.84675c-1.22036,0 -2.30457,-0.58293 -2.98936,-1.48554c-0.11177,-0.11545 -0.21017,-0.24417 -0.29189,-0.38946z" fill="#001aff" stroke="none" stroke-width="0.5"/><path d="M313.53391,227.01566c-0.38332,2.32445 -3.01152,6.09481 -5.64277,3.94827c-0.95796,-0.78149 -4.01643,-5.80387 -1.00459,-6.91694c0.6879,-0.8198 1.72008,-1.34098 2.87399,-1.34098c1.64488,0 3.04241,1.05904 3.54792,2.53246c0.25242,0.45402 0.35057,1.01846 0.22544,1.77719z" fill="#001aff" stroke="none" stroke-width="0.5"/><path d="M379.88426,198.91479c0.93001,2.86466 -1.59629,6.41712 -4.513,5.83378c-2.0929,-0.41858 -5.35309,-5.97714 -1.86697,-7.13917c0.68664,-0.76692 1.68432,-1.24954 2.79472,-1.24954c1.48884,0 2.77504,0.86765 3.38053,2.12489c0.08473,0.13126 0.15401,0.27384 0.20472,0.43004z" fill="#001aff" stroke="none" stroke-width="0.5"/><path d="M377.08027,139.581c0.23477,0.41737 0.37567,0.87618 0.43208,1.34852c0.02417,0.17202 0.03667,0.34779 0.03667,0.52648c0,0.33509 -0.04395,0.65991 -0.1264,0.96902c-0.39439,1.6833 -1.746,3.1656 -3.6236,3.1656c-0.38824,0 -0.95804,-0.2778 -1.55097,-0.71938c-0.90317,-0.41082 -1.61472,-1.16937 -1.96363,-2.10464c-0.75489,-1.20636 -0.96816,-2.49902 0.2828,-3.21385c0.65232,-1.10528 1.85547,-1.84675 3.23181,-1.84675c1.22036,0 2.30457,0.58293 2.98936,1.48554c0.11177,0.11545 0.21017,0.24417 0.29189,0.38946z" fill="#001aff" stroke="none" stroke-width="0.5"/><path d="M307.02236,189.56035l0.55139,-0.41489c9.04361,-5.42521 16.32001,-13.18831 23.76145,-20.57647c0,0 0.88705,-0.8807 1.76775,0.00635c0.8807,0.88706 -0.00635,1.76775 -0.00635,1.76775c-7.58865,7.53431 -15.01406,15.41354 -24.23677,20.9462l-0.30968,0.24991c0,0 -0.98943,0.76389 -1.75332,-0.22554c-0.76389,-0.98943 0.22554,-1.75332 0.22554,-1.75332z" fill="#001aff" stroke="none" stroke-width="0.5"/><path d="M333.20323,191.31367c-0.76389,0.98943 -1.75332,0.22554 -1.75332,0.22554l-0.30968,-0.24991c-9.22271,-5.53266 -16.64813,-13.41189 -24.23678,-20.9462c0,0 -0.88705,-0.8807 -0.00635,-1.76775c0.8807,-0.88706 1.76776,-0.00635 1.76776,-0.00635c7.44144,7.38816 14.71783,15.15126 23.76144,20.57647l0.55139,0.41488c0,0 0.98942,0.76389 0.22553,1.75332z" fill="#001aff" stroke="none" stroke-width="0.5"/></g></g></svg>