<svg version="1.1" xmlns="http://www.w3.org/2000/svg" xmlns:xlink="http://www.w3.org/1999/xlink" width="960" height="960" viewBox="0,0,960,960"><defs><radialGradient cx="320.00001" cy="180.00003" r="480" gradientUnits="userSpaceOnUse" id="color-1"><stop offset="0" stop-color="#ff0000"/><stop offset="1" stop-color="#ff0000" stop-opacity="0"/></radialGradient><radialGradient cx="320.00002" cy="180.00003" r="253.15631" gradientUnits="userSpaceOnUse" id="color-2"><stop offset="0" stop-color="#ff8c8c"/><stop offset="1" stop-color="#ff0000"/></radialGradient></defs><g transform="translate(159.99998,299.99997)"><g stroke="none" stroke-width="0" stroke-miterlimit="10"><path d="M-159.99998,180.00003c0,-265.09685 214.90315,-480 480,-480c265.09685,0 480,214.90315 480,480c0,265.09685 -214.90315,480 -480,480c-265.09685,0 -480,-214.90315 -480,-480z" fill="url(#color-1)"/><path d="M66.8437,180.00003c0,-139.81438 113.34193,-253.15631 253.15631,-253.15631c139.81438,0 253.15631,113.34193 253.15631,253.15631c0,139.81438 -113.34193,253.15631 -253.15631,253.15631c-139.81438,0 -253.15631,-113.34193 -253.15631,-253.15631z" fill="url(#color-2)"/></g></g></svg>