<svg version="1.1" xmlns="http://www.w3.org/2000/svg" xmlns:xlink="http://www.w3.org/1999/xlink" width="164.48562" height="164.48562" viewBox="0,0,164.48562,164.48562"><g transform="translate(-237.75719,-97.75719)"><g stroke-miterlimit="10"><path d="M291.28517,180.00001c0,-15.85876 12.85607,-28.71483 28.71483,-28.71483c15.85877,0 28.71483,12.85608 28.71483,28.71483c0,15.85876 -12.85606,28.71483 -28.71483,28.71483c-15.85877,0 -28.71483,-12.85608 -28.71483,-28.71483z" fill="#4d9dff" stroke="none" stroke-width="0"/><path d="M302.72513,159.45116c1.04391,0.33 2.82938,4.27768 4.07186,4.29187c1.34249,0.01533 2.71569,-1.00375 3.98691,-0.57188c4.69446,1.59482 2.04277,13.36852 7.01708,12.64332c3.70924,-0.30491 8.82654,2.91103 8.30344,7.43049c-0.09203,0.79513 -0.47163,1.60419 -1.04629,2.16139c-1.11889,1.08489 -4.19516,-1.32356 -4.67274,0.15996c-0.59477,1.84758 -0.62796,4.54144 -1.07186,6.52842c-0.30289,1.3558 -1.08494,7.68394 -2.38992,8.20723c-1.86713,0.74871 -9.25324,-5.40066 -10.43667,-6.8175c7.35611,20.04322 0.06978,14.56223 -9.96266,2.79121c-6.00855,-11.9094 -3.36909,-19.98023 -1.80115,-32.50401c0.02324,-0.0422 0.04641,-0.08445 0.0695,-0.12674c2.32278,-0.62434 4.31142,-2.0643 5.63998,-3.99394c0.78851,-0.20525 1.59511,-0.42024 2.29251,-0.19978z" fill="#6a7a25" stroke="none" stroke-width="0.5"/><path d="M291.28517,180.00001c0,-15.85876 12.85607,-28.71483 28.71483,-28.71483c15.85877,0 28.71483,12.85608 28.71483,28.71483c0,15.85876 -12.85606,28.71483 -28.71483,28.71483c-15.85877,0 -28.71483,-12.85608 -28.71483,-28.71483z" fill="none" stroke="#3f82d3" stroke-width="3.5"/><path d="M309.76937,206.8388c-10.80717,-4.12197 -18.48418,-14.58386 -18.48418,-26.83879c0,-8.76133 3.92383,-16.60621 10.11004,-21.87317" fill="none" stroke="#4d591b" stroke-width="3.5"/><path d="M310.16655,168.45971c0,1.25 -1.25,1.25 -1.25,1.25h-2.11961c-1.17829,-0.00055 -2.33714,0.1897 -3.44987,0.25668c-0.20625,0.40666 -0.62833,0.68536 -1.1155,0.68536h-2.5v-0.02526l-0.07554,0.02298c-2.93975,-0.35504 -5.13178,-0.50578 -7.18309,-1.78215l-0.26463,0.39694l-1.39695,-0.9313c-0.34463,-0.22257 -0.57275,-0.61005 -0.57275,-1.05081c0,-0.6204 0.45197,-1.13523 1.0446,-1.2332c0.03373,-0.66023 0.57974,-1.18519 1.24835,-1.18519c0.04347,0 0.08642,0.00222 0.12875,0.00655l2.43167,0.22107c0.44747,-0.00043 0.89493,-0.00085 1.34239,-0.00127c0,0 1.25,0 1.25,1.25c0,0.73777 -0.43544,1.0401 -0.79232,1.16398c0.29886,0.06927 0.59557,0.14256 0.88488,0.21438c0.0758,-0.01907 0.15435,-0.03123 0.23494,-0.03575l2.48542,-0.16035l0.01786,0.27691c1.99861,-0.44153 3.94994,-0.58853 6.28177,-0.58956h2.11961c0,0 1.25,0 1.25,1.25z" fill-opacity="0.55686" fill="#d4d4d4" stroke="none" stroke-width="0.5"/><path d="M345.1672,182.87938c0,0 -0.39429,0.06958 -0.77596,-0.09317l-0.9355,0.10275c-0.05059,0.00623 -0.10211,0.00944 -0.15438,0.00944c-0.69036,0 -1.25,-0.55964 -1.25,-1.25c0,-0.62153 0.45362,-1.13711 1.04784,-1.23374l2.43823,-0.44331l0.03103,0.17069c0.08505,-0.0088 0.17088,-0.01646 0.25732,-0.02286c0.74135,-0.25982 1.49716,-0.46981 2.26716,-0.60867l2.00712,-0.05379c0,0 0.1023,-0.00255 0.24909,0.02308l0.05504,-0.00786c0.06451,-0.01027 0.13066,-0.0156 0.19806,-0.0156c0.69036,0 1.25,0.55964 1.25,1.25c0,0.62742 -0.46225,1.14687 -1.06477,1.23637l-2.44571,0.40762l-0.00507,-0.03039c-1.0565,0.18652 -2.11301,0.37298 -3.16952,0.55943z" fill-opacity="0.55686" fill="#d4d4d4" stroke="none" stroke-width="0.5"/><path d="M336.49873,186.0564l0.78093,-0.23367l-0.03087,-0.23215l1.53004,-0.20344c0.0604,-0.00896 0.12222,-0.01361 0.18511,-0.01361c0.69036,0 1.25,0.55964 1.25,1.25c0,0.57561 -0.38907,1.06035 -0.91857,1.20559l-0.16395,0.04905c-0.06887,1.14354 -1.24685,1.14354 -1.24685,1.14354l-1.33555,-0.00241c-0.39951,0.05041 -0.80068,0.07148 -1.20276,0.0717l0.01463,0.07625l-1.93941,0.37217c-0.43895,0.12542 -0.8779,0.25082 -1.31685,0.37624c0,0 -1.20191,0.34341 -1.54531,-0.8585c-0.3434,-1.20191 0.8585,-1.54531 0.8585,-1.54531c0.20402,-0.05829 0.40803,-0.11658 0.61205,-0.17487c0.08478,-0.05066 0.17606,-0.09156 0.27229,-0.12115l2.34437,-0.78145c0.59547,-0.19707 1.21859,-0.31949 1.85217,-0.37799z" fill-opacity="0.55686" fill="#d4d4d4" stroke="none" stroke-width="0.5"/><path d="M307.76863,194.32207c0.09207,0.0442 0.18338,0.08408 0.27398,0.11997c0.32666,-0.61944 1.10944,-0.61944 1.10944,-0.61944c1.52026,0.00058 3.04097,-0.06833 4.55735,-0.17686l0.03339,0.0095l-0.00019,-0.01055l2.49586,-0.04535c0.0088,-0.00018 0.01761,-0.00028 0.02644,-0.00028c0.69036,0 1.25,0.55964 1.25,1.25c0,0.62256 -0.45511,1.13881 -1.05078,1.23421l-0.70418,0.12618c-0.2476,0.81968 -1.19108,0.81969 -1.19108,0.81969h-0.79719c-0.6657,0 -1.28563,0.01236 -1.87419,0.01965c-1.53098,0.34985 -3.08352,0.37192 -4.56501,-0.24359l-0.03449,0.20694l-1.3928,-0.23213c-0.60251,-0.0895 -1.06477,-0.60896 -1.06477,-1.23638c0,-0.69036 0.55964,-1.25 1.25,-1.25h1.41307v0.12987z" fill-opacity="0.55686" fill="#d4d4d4" stroke="none" stroke-width="0.5"/><path d="M317.32255,174.11201c0,-1.25 1.25,-1.25 1.25,-1.25l0.22437,0.02457c3.45274,-0.69469 5.82186,-1.41341 8.62051,-1.26185c0.06489,-0.01054 0.12997,-0.02106 0.19525,-0.03156v-0.37976h2.5c0.69036,0 1.25,0.55964 1.25,1.25c0,0.63082 -0.46728,1.1525 -1.07459,1.23779l-1.9858,0.31355c-2.11521,0.33331 -4.02224,0.69053 -6.14803,0.85822c-1.01314,0.15418 -1.99653,0.28978 -2.86402,0.46446l-0.71768,0.02458c0,0 -1.25,0 -1.25,-1.25z" fill-opacity="0.55686" fill="#d4d4d4" stroke="none" stroke-width="0.5"/><path d="M300.85247,183.33447c0.142,-0.88501 0.81679,-1.03359 1.18726,-1.04682c0.29003,-0.19245 0.59844,-0.23101 0.59844,-0.23101c3.82934,-0.47868 7.51881,-0.22025 11.3634,-0.38681l2.154,-0.09237c0.02049,-0.001 0.04111,-0.00151 0.06185,-0.00151c0.69036,0 1.25,0.55964 1.25,1.25c0,0.64883 -0.49435,1.18221 -1.12695,1.24402l-2.10462,0.23385l-0.01567,-0.14107l-0.1115,0.00478c-0.1518,0.00645 -0.30334,0.01222 -0.45464,0.01738c-3.65396,1.04093 -7.59539,1.23649 -11.3385,0.65029l-0.42688,-0.06849c0,0 -1.23422,-0.19803 -1.03619,-1.43224z" fill-opacity="0.55686" fill="#d4d4d4" stroke="none" stroke-width="0.5"/><path d="M323.88469,201.96804c0,0 -1.24313,0.13085 -1.37399,-1.11228c-0.13085,-1.24313 1.11228,-1.37398 1.11228,-1.37398c0.97339,-0.10246 1.94978,-0.19797 2.92717,-0.29402c0.36833,-0.41939 0.97188,-0.41939 0.97188,-0.41939l2.22567,0.00672c2.41989,-0.51819 4.04263,-0.80004 5.85659,-0.71895c0.06219,-0.01105 0.12436,-0.02221 0.1865,-0.03347l-0.0179,-0.25057l2.48077,-0.1772c0.03362,-0.00271 0.06761,-0.0041 0.10193,-0.0041c0.69036,0 1.25,0.55964 1.25,1.25c0,0.62837 -0.46364,1.14844 -1.06749,1.23677l-1.2808,0.21034c-4.39687,0.87534 -8.91296,1.21068 -13.37261,1.68012z" fill-opacity="0.55686" fill="#d4d4d4" stroke="none" stroke-width="0.5"/><path d="M315.2234,207.83964c-0.05916,-0.02157 -0.11808,-0.04367 -0.17674,-0.06633c0,0 -1.1606,-0.46423 -0.69636,-1.62483c0.46423,-1.1606 1.62483,-0.69636 1.62483,-0.69636c2.94118,1.23317 7.09378,0.60806 10.25819,0.62334l0.11269,0.05855l0.0081,-0.04048l2.33242,0.46648c0.58424,0.10493 1.02756,0.61583 1.02756,1.23027c0,0.67194 -0.53018,1.22004 -1.19503,1.24881l-2.48943,0.12447l-0.01377,-0.27537c-3.0542,0.58862 -6.0483,0.54181 -9.33703,-0.1077l-1.15477,-0.65669c0,0 -0.15174,-0.10116 -0.30066,-0.28415z" fill-opacity="0.55686" fill="#d4d4d4" stroke="none" stroke-width="0.5"/><path d="M294.21675,201.4446c0.69338,-1.04006 1.73344,-0.34669 1.73344,-0.34669l0.13167,0.26672c0.85943,0.08185 1.778,0.08847 2.69788,0.11461c0.27065,-0.9075 1.29113,-0.82246 1.29113,-0.82246c0.84823,0.07107 1.69645,0.14214 2.54468,0.21321l0.05032,0.02378l0.00271,-0.0159l2.44384,0.41679c0.6004,0.09134 1.06043,0.60981 1.06043,1.23572c0,0.63892 -0.47935,1.16588 -1.09804,1.24086l-2.45925,0.33678l-0.0426,-0.31106c-2.05991,0.4612 -3.8405,0.33143 -6.72812,0.05642l-1.2814,-0.67533c0,0 -1.04006,-0.69338 -0.34669,-1.73344z" fill-opacity="0.55686" fill="#d4d4d4" stroke="none" stroke-width="0.5"/><path d="M289.25082,181.86203c0.25147,-0.06342 0.4575,-0.04625 0.4575,-0.04625c0.84823,0.07107 1.69645,0.14214 2.54468,0.21322l0.05025,0.02412l0.00277,-0.01624l2.44384,0.41679c0.6004,0.09134 1.06043,0.60981 1.06043,1.23572c0,0.65498 -0.50376,1.19231 -1.14497,1.24565l-2.47562,0.23515l-0.01443,-0.15193c-0.97978,0.20399 -1.92919,0.17986 -3.65085,-0.0079l-0.8123,-2.34418c0,0 0.38583,-1.1575 1.5387,-0.80415z" fill-opacity="0.55686" fill="#d4d4d4" stroke="none" stroke-width="0.5"/><path d="M341.59088,158.50496c0.25653,-0.29871 0.60865,-0.41609 0.60865,-0.41609l1.25688,-0.29002c0.73363,0.10611 1.59278,-0.10553 2.2009,0.31834c0.08951,0.06239 0.17403,0.12993 0.25434,0.20184l0.03008,-0.03958l1.19963,0.91155c0.30637,0.22782 0.50485,0.59259 0.50485,1.00372c0,0.69036 -0.55964,1.25 -1.25,1.25c-0.05188,0 -0.10301,-0.00316 -0.15323,-0.0093l-2.45011,-0.26702c-0.82155,-0.05861 -1.6431,-0.11722 -2.46465,-0.17584c0,0 -1.24682,-0.08906 -1.15776,-1.33589c0.08906,-1.24682 1.33589,-1.15776 1.33589,-1.15776c0.02818,0.00202 0.05636,0.00403 0.08454,0.00605z" fill-opacity="0.55686" fill="#d4d4d4" stroke="none" stroke-width="0.5"/><path d="M312.1183,149.20396c-0.02374,-0.28314 0.06057,-0.61166 0.3891,-0.94018c0.71976,-0.71974 1.4395,-0.26729 1.68199,-0.07443c1.41543,0.16657 2.5607,0.35374 3.70721,0.65039h0.0761l0.02157,-0.22897l2.4759,0.23325c0.64162,0.05293 1.14584,0.59044 1.14584,1.24572c0,0.69036 -0.55964,1.25 -1.25,1.25h-2.42259c-1.78244,0.29388 -3.4382,0.23551 -5.25868,0.23551c0,0 -1.25,0 -1.25,-1.25c0,-0.6641 0.35282,-0.97537 0.68357,-1.12128z" fill-opacity="0.55686" fill="#d4d4d4" stroke="none" stroke-width="0.5"/><path d="M325.03301,161.53556c-0.87383,0.13286 -1.76197,0.35683 -2.89213,0.60798c0,0 -1.22023,0.27116 -1.4914,-0.94907c-0.19872,-0.89424 0.40353,-1.27877 0.73951,-1.42041c0.25332,-0.80729 1.18727,-0.80729 1.18727,-0.80729l0.77224,0.00173c0.92537,0.0487 1.78227,-0.0361 2.5599,-0.00313c0.8821,-0.05207 1.81125,-0.02044 2.9369,0.12327l0.07939,0.06485l0.0122,-0.04186l1.26341,0.36834c0.53372,0.14243 0.92685,0.62922 0.92685,1.20783c0,0.69036 -0.55964,1.25 -1.25,1.25c-0.05286,0 -0.10496,-0.00328 -0.15609,-0.00965l-2.10156,-0.23351l0.02495,-0.22455c-0.85935,0.0681 -1.70269,0.08379 -2.61143,0.06547z" fill-opacity="0.55686" fill="#d4d4d4" stroke="none" stroke-width="0.5"/><path d="M335.20721,164.03588c0.06061,-0.34256 0.27033,-0.72801 0.86421,-0.90798c1.19628,-0.36251 1.55879,0.83377 1.55879,0.83377c0.50867,1.67863 1.01735,3.35725 1.52602,5.03588c0.80096,1.45856 1.56922,3.00775 1.62793,4.10102c0.00381,0.07097 0.00512,0.14172 0.00417,0.21227l0.033,-0.003l0.16398,1.80379c0.00433,0.04233 0.00655,0.08528 0.00655,0.12875c0,0.69036 -0.55964,1.25 -1.25,1.25c-0.57412,0 -1.05783,-0.38705 -1.20445,-0.91445c-0.18702,-0.61716 -0.77373,-2.55332 -0.96075,-3.17048c-1.01872,-1.58167 -1.64361,-3.9138 -2.27011,-5.27574l-0.66984,-1.45617c0,0 -0.50911,-1.10677 0.57049,-1.63767z" fill="#6a7a25" stroke="none" stroke-width="0.5"/><path d="M326.41787,193.59944c0,-1.25 1.25,-1.25 1.25,-1.25l0.23047,0.30807c0.26472,-0.0285 0.57335,0.03977 0.90056,0.31244c0.96028,0.80023 0.16005,1.76051 0.16005,1.76051l-0.82087,0.98505c-0.22925,0.27908 -0.57703,0.4571 -0.96639,0.4571c-0.69036,0 -1.25,-0.55964 -1.25,-1.25c0,-0.28595 0.09602,-0.54948 0.25758,-0.7601l0.25336,-0.33781c-0.00961,-0.07017 -0.01474,-0.14515 -0.01474,-0.22526z" fill="#6a7a25" stroke="none" stroke-width="0.5"/><path d="M237.7572,180.00001c0,-45.42144 36.82137,-82.24281 82.24281,-82.24281c45.42147,0 82.24281,36.82139 82.24281,82.24281c0,45.42144 -36.82134,82.24281 -82.24281,82.24281c-45.42147,0 -82.24281,-36.8214 -82.24281,-82.24281z" fill="none" stroke="none" stroke-width="0"/></g></g></svg>