<svg version="1.1" xmlns="http://www.w3.org/2000/svg" xmlns:xlink="http://www.w3.org/1999/xlink" width="164.48562" height="164.48562" viewBox="0,0,164.48562,164.48562"><g transform="translate(-237.75721,-85.75724)"><g stroke-miterlimit="10"><path d="M291.28517,168.00006c0,-15.85876 12.85607,-28.71483 28.71483,-28.71483c15.85877,0 28.71483,12.85608 28.71483,28.71483c0,15.85876 -12.85606,28.71483 -28.71483,28.71483c-15.85877,0 -28.71483,-12.85608 -28.71483,-28.71483z" fill="#8a8e7a" stroke="none" stroke-width="0"/><path d="M303.83553,160.24597l-0.00436,-0.00249l-0.00461,-0.01845l-0.10575,-0.24675l-0.08011,-0.4967l-0.12202,-0.4881v-0.26845l-0.00303,-0.01878l0.00303,-0.00401v-1.11501l0.08457,-0.33829l0.01162,-0.34851l0.625,-2.1875l0.17548,-0.30417l0.10833,-0.33403l0.78125,-1.25l0.12434,-0.1199l0.0751,-0.15556l0.78125,-0.9375l0.18494,-0.13515l0.13515,-0.18494l0.9375,-0.78125l0.08568,-0.04136l0.06169,-0.07242l1.09375,-0.78125l0.34745,-0.13687l0.31506,-0.20049l0.9375,-0.3125h0.00001v0l0.9375,-0.3125l0.40069,-0.03082l0.38988,-0.09747h0.47349l0.32643,-0.08161h0.13125l0.12155,-0.04952l1.02504,-0.14643l0.71319,-0.14264h0.00001h0.00001l0.78125,-0.15625l0.04135,0.00197l0.03796,-0.0165l0.89772,-0.14962l0.4353,-0.08706v0h0.00002l0.30638,-0.06128l0.4903,0.02334l0.4903,-0.02334l0.30638,0.06128h0.00002v0l0.47484,0.09497l0.30176,0.14294l0.32595,0.07243l0.625,0.3125l0.17254,0.14789l0.20944,0.08819l0.625,0.46875l0.11347,0.13965l0.1543,0.09258l0.46875,0.46875l0.62501,0.625l0.09258,0.1543l0.13965,0.11347l0.46875,0.625v0v0l0.46875,0.625l0.06131,0.1456l0.10931,0.11406l0.61179,1.07065l0.45506,0.75844l0.09104,0.29912l0.1598,0.26875l0.42796,1.42654l0.41283,0.96328l0.00499,0.03091l0.01833,0.02538l0.31251,0.78125l0.01534,0.11252l0.05804,0.09761l0.45787,1.52623l0.45677,1.37032l0.00427,0.05554l0.02784,0.04825l0.29756,1.04151l0.29532,0.88596l0.00427,0.05552l0.02783,0.04823l0.27739,0.97082l0.26501,0.66255l0.02323,0.17037l0.08092,0.15171l0.06603,0.26412l0.27736,0.46227l0.02855,0.09379l0.0638,0.07444l0.31248,0.62499l0.93749,1.87499l0.01631,0.07338l0.04549,0.05985l0.46875,1.09375l0.01689,0.10473l0.05695,0.0895l0.3125,0.9375l0.0191,0.24827l0.08989,0.23221l0.15625,1.25l-0.03759,0.31009l0.03759,0.31009l-0.15625,1.25l-0.02564,0.06624l0.00462,0.07088l-0.3125,1.71876l-0.01653,0.03654l0.00136,0.04008l-0.46516,2.17074l-0.30913,1.54571l-0.0261,0.05511v0.06098l-0.31251,1.24999l-0.09525,0.1786l-0.03223,0.19983l-0.46875,1.09376l-0.04549,0.05986l-0.01631,0.0734l-0.18937,0.37874l0.0015,0.00844l-0.01811,0.02478l-0.10652,0.21303l-0.33336,0.38892l-0.30223,0.41358l-0.18297,0.15248l-0.01997,0.0233l-0.00856,0.00048l-0.726,0.60501l-0.19989,0.0965l-0.16025,0.15357l-1.09375,0.62499l-0.23969,0.06741l-0.21006,0.13368l-0.9375,0.31251l-0.05555,0.00427l-0.04826,0.02784l-1.09374,0.31249l-0.21192,0.00706l-0.19877,0.07383l-1.38925,0.15437l-1.23304,0.15412l-0.15682,-0.01901l-0.15325,0.03831h-0.9375l-0.33829,-0.08457l-0.34851,-0.01162l-1.09375,-0.3125l-0.11271,-0.06503l-0.12893,-0.01758l-0.78125,-0.31249l-0.16412,-0.11853l-0.19367,-0.05894l-0.78125,-0.46875l-0.21762,-0.21762l-0.26391,-0.15834l-0.46875,-0.46875l-0.09258,-0.15431l-0.13966,-0.11348l-0.46875,-0.62501l-0.02756,-0.06546l-0.05255,-0.04778l-0.3125,-0.46875l-0.11231,-0.31447l-0.17927,-0.28172l-0.04775,-0.14324l-0.28581,-0.28581l-0.20676,-0.34461l-0.26154,-0.30513l-0.3125,-0.62499l-0.3125,-0.62498l-0.05973,-0.26878l-0.12957,-0.24294l-0.04623,-0.18493l-0.37767,0.09442l-1.04708,0.39266l-1.33832,0.5948l-0.2479,0.04338l-0.22509,0.11255l-1.37416,0.30538l-1.17769,0.29441l-1.05369,0.30105l-0.14383,0.00479l-0.13198,0.05738l-0.82912,0.13819l-0.02527,0.02261l-0.07552,-0.00581l-0.00759,0.00126l-0.60071,-0.04806l-0.60086,-0.04622l-0.0073,-0.00243l-0.0755,-0.00604l-0.02143,-0.02627l-0.20977,-0.06992l-0.02709,0.00739l-0.06157,-0.03694l-0.06609,-0.02203l-0.48463,-0.3084l-0.49257,-0.29554l-0.04926,-0.04926l-0.06058,-0.03855l-0.00551,-0.02754l-0.35341,-0.35341l-0.12811,-0.21352l-0.18425,-0.1675l-0.3125,-0.46875l-0.11231,-0.31447l-0.17927,-0.28172l-0.3125,-0.9375l-0.00752,-0.09773l-0.04613,-0.08649l-0.15625,-0.62499v-0.06097l-0.0261,-0.0551l-0.14458,-0.72292l-0.14182,-0.56727v-0.30777l-0.07464,-0.29858v-0.46875l0.06039,-0.24157l-0.01184,-0.24872l0.15625,-0.78126l0.06763,-0.14277l0.01212,-0.15751l0.15625,-0.46875l0.09661,-0.15182l0.03904,-0.17566l0.3125,-0.62499l0.10281,-0.11994l0.05313,-0.14877l0.3125,-0.46875l0.08185,-0.07441l0.04609,-0.10056l0.625,-0.78126l0.11198,-0.08532l0.07243,-0.12072l2.16871,-2.16871l0.17518,-0.26278l0.18425,-0.1675l0.12811,-0.21352l0.02563,-0.02563l0.13107,-0.26214l0.26154,-0.30513l0.20676,-0.34461l0.13746,-0.13746l0.16332,-0.24498l-0.30078,-0.30078l-0.20676,-0.34461l-0.26154,-0.30513l-0.0833,-0.1666l-0.02438,-0.01393l-0.01742,-0.06966l-0.03115,-0.06231l-0.02777,-0.12497l-0.01059,-0.01765l0.00367,-0.01347l-0.08992,-0.40466l-0.13932,-0.55728v-0.06966l-0.01558,-0.07009l0.011,-0.0165l-0.011,-0.0165l0.01558,-0.07009v-0.06966l0.13932,-0.55728l0.01437,-0.06468l-0.01302,-0.01953l0.01558,-0.07009v-0.06966l0.13932,-0.55728l0.12461,-0.56075l0.03115,-0.06231l0.01742,-0.06966l0.02438,-0.01393l0.16009,-0.32019l0.10007,-0.3002l0.09661,-0.15181l0.03903,-0.17566l0.0103,-0.02061z" fill="#696c5d" stroke="none" stroke-width="0.5"/><path d="M340.82701,151.04502c0.36854,0.01406 0.8019,-0.17267 1.2768,0.07096c1.25469,0.64368 5.39774,13.40775 5.76044,15.03972c1.50565,6.77465 -4.58669,17.81574 -8.75929,22.68414c-1.58461,1.84885 -7.40395,4.2378 -10.21348,5.06048c-3.74747,1.09732 -8.5965,3.27839 -12.27211,0.76673c-2.164,-1.47873 -1.19406,-3.49459 0.62403,-4.70658c4.21918,-2.81264 9.40497,0.49353 14.19609,-4.62787c6.2518,-6.68276 8.57962,-10.27894 7.25478,-20.09149c-0.2697,-1.99754 -0.02126,-4.44148 -0.65382,-6.33917c-0.09499,-0.2642 -0.14675,-0.54902 -0.14675,-0.84593c0,-0.85593 0.43015,-1.6114 1.08606,-2.06203c0.90054,-1.39144 -2.78355,-5.12557 1.84724,-4.94897z" fill="#696c5d" stroke="none" stroke-width="0.5"/><path d="M291.28517,168.00004c0,-15.85876 12.85607,-28.71483 28.71483,-28.71483c15.85877,0 28.71483,12.85608 28.71483,28.71483c0,15.85876 -12.85606,28.71483 -28.71483,28.71483c-15.85877,0 -28.71483,-12.85608 -28.71483,-28.71483z" fill="none" stroke="#717464" stroke-width="3.5"/><path d="M332.12799,149.28955c-1.6209,4.8624 -5.53434,0.51585 -7.31199,-1.9011c-0.43613,-0.33279 -0.75954,-0.80579 -0.90296,-1.35173c-0.05342,-0.20336 -0.08187,-0.41684 -0.08187,-0.63697c0,-1.18042 0.8181,-2.16976 1.91824,-2.43196c3.03964,-1.49506 7.03386,4.35603 6.37858,6.32176z" fill="#696c5d" stroke="none" stroke-width="0.5"/><path d="M299.19227,164.3303c-0.32302,1.29206 -1.92189,1.63112 -2.91234,1.39731c-5.39935,-1.27461 1.23431,-10.40597 3.35136,-6.70113c0.73685,0.43488 1.23117,1.23698 1.23117,2.15454c0,0.95947 -0.5405,1.79269 -1.33363,2.21181c-0.13464,0.28171 -0.24805,0.58345 -0.33656,0.93748z" fill="#696c5d" stroke="none" stroke-width="0.5"/><path d="M343.87181,152.03597c3.0589,4.56504 4.84306,10.05621 4.84306,15.96409c0,15.85876 -12.85606,28.71483 -28.71483,28.71483c-1.50964,0 -2.99207,-0.1165 -4.43879,-0.34099" fill="none" stroke="#57594d" stroke-width="3.5"/><path d="M310.16656,156.45977c0,1.25 -1.25,1.25 -1.25,1.25h-2.11961c-1.17829,-0.00055 -2.33714,0.1897 -3.44987,0.25668c-0.20625,0.40666 -0.62833,0.68536 -1.1155,0.68536h-2.5v-0.02526l-0.07554,0.02298c-2.93975,-0.35504 -5.13178,-0.50578 -7.18309,-1.78215l-0.26463,0.39694l-1.39695,-0.9313c-0.34463,-0.22257 -0.57275,-0.61005 -0.57275,-1.05081c0,-0.6204 0.45197,-1.13523 1.0446,-1.2332c0.03373,-0.66023 0.57974,-1.18519 1.24835,-1.18519c0.04347,0 0.08642,0.00222 0.12875,0.00655l2.43167,0.22107c0.44747,-0.00043 0.89493,-0.00085 1.34239,-0.00127c0,0 1.25,0 1.25,1.25c0,0.73777 -0.43544,1.0401 -0.79232,1.16398c0.29886,0.06927 0.59557,0.14256 0.88488,0.21438c0.0758,-0.01907 0.15435,-0.03123 0.23494,-0.03575l2.48542,-0.16035l0.01786,0.27691c1.99861,-0.44153 3.94994,-0.58853 6.28177,-0.58956h2.11961c0,0 1.25,0 1.25,1.25z" fill-opacity="0.55686" fill="#404040" stroke="none" stroke-width="0.5"/><path d="M345.16719,170.87945c0,0 -0.39429,0.06958 -0.77596,-0.09317l-0.9355,0.10275c-0.05059,0.00623 -0.10211,0.00944 -0.15438,0.00944c-0.69036,0 -1.25,-0.55964 -1.25,-1.25c0,-0.62153 0.45362,-1.13711 1.04784,-1.23374l2.43823,-0.44331l0.03103,0.17069c0.08505,-0.0088 0.17088,-0.01646 0.25732,-0.02286c0.74135,-0.25982 1.49716,-0.46981 2.26716,-0.60867l2.00712,-0.05379c0,0 0.1023,-0.00255 0.24909,0.02308l0.05504,-0.00786c0.06451,-0.01027 0.13066,-0.0156 0.19806,-0.0156c0.69036,0 1.25,0.55964 1.25,1.25c0,0.62742 -0.46225,1.14687 -1.06477,1.23637l-2.44571,0.40762l-0.00507,-0.03039c-1.0565,0.18652 -2.11301,0.37298 -3.16952,0.55943z" fill-opacity="0.55686" fill="#404040" stroke="none" stroke-width="0.5"/><path d="M336.49876,174.05647l0.78093,-0.23367l-0.03087,-0.23215l1.53004,-0.20344c0.0604,-0.00896 0.12222,-0.01361 0.18511,-0.01361c0.69036,0 1.25,0.55964 1.25,1.25c0,0.57561 -0.38907,1.06035 -0.91857,1.20559l-0.16395,0.04905c-0.06887,1.14354 -1.24685,1.14354 -1.24685,1.14354l-1.33555,-0.00241c-0.39951,0.05041 -0.80068,0.07148 -1.20276,0.0717l0.01463,0.07625l-1.93941,0.37217c-0.43895,0.12542 -0.8779,0.25082 -1.31685,0.37624c0,0 -1.20191,0.34341 -1.54531,-0.8585c-0.3434,-1.20191 0.8585,-1.54531 0.8585,-1.54531c0.20402,-0.05829 0.40803,-0.11658 0.61205,-0.17487c0.08478,-0.05066 0.17606,-0.09156 0.27229,-0.12115l2.34437,-0.78145c0.59547,-0.19707 1.21859,-0.31949 1.85217,-0.37799z" fill-opacity="0.55686" fill="#404040" stroke="none" stroke-width="0.5"/><path d="M307.76864,182.32214c0.09207,0.0442 0.18338,0.08408 0.27398,0.11997c0.32666,-0.61944 1.10944,-0.61944 1.10944,-0.61944c1.52026,0.00058 3.04097,-0.06833 4.55735,-0.17686l0.03339,0.0095l-0.00019,-0.01055l2.49586,-0.04535c0.0088,-0.00018 0.01761,-0.00028 0.02644,-0.00028c0.69036,0 1.25,0.55964 1.25,1.25c0,0.62256 -0.45511,1.13881 -1.05078,1.23421l-0.70418,0.12618c-0.2476,0.81968 -1.19108,0.81969 -1.19108,0.81969h-0.79719c-0.6657,0 -1.28563,0.01236 -1.87419,0.01965c-1.53098,0.34985 -3.08352,0.37192 -4.56501,-0.24359l-0.03449,0.20694l-1.3928,-0.23213c-0.60251,-0.0895 -1.06477,-0.60896 -1.06477,-1.23638c0,-0.69036 0.55964,-1.25 1.25,-1.25h1.41307v0.12987z" fill-opacity="0.55686" fill="#404040" stroke="none" stroke-width="0.5"/><path d="M317.32256,162.11202c0,-1.25 1.25,-1.25 1.25,-1.25l0.22437,0.02457c3.45274,-0.69469 5.82186,-1.41341 8.62051,-1.26185c0.06489,-0.01054 0.12997,-0.02106 0.19525,-0.03156v-0.37976h2.5c0.69036,0 1.25,0.55964 1.25,1.25c0,0.63082 -0.46728,1.1525 -1.07459,1.23779l-1.9858,0.31355c-2.11521,0.33331 -4.02224,0.69053 -6.14803,0.85822c-1.01314,0.15418 -1.99653,0.28978 -2.86402,0.46446l-0.71768,0.02458c0,0 -1.25,0 -1.25,-1.25z" fill-opacity="0.55686" fill="#404040" stroke="none" stroke-width="0.5"/><path d="M300.85246,171.33451c0.142,-0.88501 0.81679,-1.03359 1.18726,-1.04682c0.29003,-0.19245 0.59844,-0.23101 0.59844,-0.23101c3.82934,-0.47868 7.51881,-0.22025 11.3634,-0.38681l2.154,-0.09237c0.02049,-0.001 0.04111,-0.00151 0.06185,-0.00151c0.69036,0 1.25,0.55964 1.25,1.25c0,0.64883 -0.49435,1.18221 -1.12695,1.24402l-2.10462,0.23385l-0.01567,-0.14107l-0.1115,0.00478c-0.1518,0.00645 -0.30334,0.01222 -0.45464,0.01738c-3.65396,1.04093 -7.59539,1.23649 -11.3385,0.65029l-0.42688,-0.06849c0,0 -1.23422,-0.19803 -1.03619,-1.43224z" fill-opacity="0.55686" fill="#404040" stroke="none" stroke-width="0.5"/><path d="M323.8847,189.96809c0,0 -1.24313,0.13085 -1.37399,-1.11228c-0.13085,-1.24313 1.11228,-1.37398 1.11228,-1.37398c0.97339,-0.10246 1.94978,-0.19797 2.92717,-0.29402c0.36833,-0.41939 0.97188,-0.41939 0.97188,-0.41939l2.22567,0.00672c2.41989,-0.51819 4.04263,-0.80004 5.85659,-0.71895c0.06219,-0.01105 0.12436,-0.02221 0.1865,-0.03347l-0.0179,-0.25057l2.48077,-0.1772c0.03362,-0.00271 0.06761,-0.0041 0.10193,-0.0041c0.69036,0 1.25,0.55964 1.25,1.25c0,0.62837 -0.46364,1.14844 -1.06749,1.23677l-1.2808,0.21034c-4.39687,0.87534 -8.91296,1.21068 -13.37261,1.68012z" fill-opacity="0.55686" fill="#404040" stroke="none" stroke-width="0.5"/><path d="M315.22343,195.83969c-0.05916,-0.02157 -0.11808,-0.04367 -0.17674,-0.06633c0,0 -1.1606,-0.46423 -0.69636,-1.62483c0.46423,-1.1606 1.62483,-0.69636 1.62483,-0.69636c2.94118,1.23317 7.09378,0.60806 10.25819,0.62334l0.11269,0.05855l0.0081,-0.04048l2.33242,0.46648c0.58424,0.10493 1.02756,0.61583 1.02756,1.23027c0,0.67194 -0.53018,1.22004 -1.19503,1.24881l-2.48943,0.12447l-0.01377,-0.27537c-3.0542,0.58862 -6.0483,0.54181 -9.33703,-0.1077l-1.15477,-0.65669c0,0 -0.15174,-0.10116 -0.30066,-0.28415z" fill-opacity="0.55686" fill="#404040" stroke="none" stroke-width="0.5"/><path d="M294.21675,189.44463c0.69338,-1.04006 1.73344,-0.34669 1.73344,-0.34669l0.13167,0.26672c0.85943,0.08185 1.778,0.08847 2.69788,0.11461c0.27065,-0.9075 1.29113,-0.82246 1.29113,-0.82246c0.84823,0.07107 1.69645,0.14214 2.54468,0.21321l0.05032,0.02378l0.00271,-0.0159l2.44384,0.41679c0.6004,0.09134 1.06043,0.60981 1.06043,1.23572c0,0.63892 -0.47935,1.16588 -1.09804,1.24086l-2.45925,0.33678l-0.0426,-0.31106c-2.05991,0.4612 -3.8405,0.33143 -6.72812,0.05642l-1.2814,-0.67533c0,0 -1.04006,-0.69338 -0.34669,-1.73344z" fill-opacity="0.55686" fill="#404040" stroke="none" stroke-width="0.5"/><path d="M289.25083,169.86209c0.25147,-0.06342 0.4575,-0.04625 0.4575,-0.04625c0.84823,0.07107 1.69645,0.14214 2.54468,0.21322l0.05025,0.02412l0.00277,-0.01624l2.44384,0.41679c0.6004,0.09134 1.06043,0.60981 1.06043,1.23572c0,0.65498 -0.50376,1.19231 -1.14497,1.24565l-2.47562,0.23515l-0.01443,-0.15193c-0.97978,0.20399 -1.92919,0.17986 -3.65085,-0.0079l-0.8123,-2.34418c0,0 0.38583,-1.1575 1.5387,-0.80415z" fill-opacity="0.55686" fill="#404040" stroke="none" stroke-width="0.5"/><path d="M341.59093,146.50499c0.25653,-0.29871 0.60865,-0.41609 0.60865,-0.41609l1.25688,-0.29002c0.73363,0.10611 1.59278,-0.10553 2.2009,0.31834c0.08951,0.06239 0.17403,0.12993 0.25434,0.20184l0.03008,-0.03958l1.19963,0.91155c0.30637,0.22782 0.50485,0.59259 0.50485,1.00372c0,0.69036 -0.55964,1.25 -1.25,1.25c-0.05188,0 -0.10301,-0.00316 -0.15323,-0.0093l-2.45011,-0.26702c-0.82155,-0.05861 -1.6431,-0.11722 -2.46465,-0.17584c0,0 -1.24682,-0.08906 -1.15776,-1.33589c0.08906,-1.24682 1.33589,-1.15776 1.33589,-1.15776c0.02818,0.00202 0.05636,0.00403 0.08454,0.00605z" fill-opacity="0.55686" fill="#404040" stroke="none" stroke-width="0.5"/><path d="M312.11831,137.20397c-0.02374,-0.28314 0.06057,-0.61166 0.3891,-0.94018c0.71976,-0.71974 1.4395,-0.26729 1.68199,-0.07443c1.41543,0.16657 2.5607,0.35374 3.70721,0.65039h0.0761l0.02157,-0.22897l2.4759,0.23325c0.64162,0.05293 1.14584,0.59044 1.14584,1.24572c0,0.69036 -0.55964,1.25 -1.25,1.25h-2.42259c-1.78244,0.29388 -3.4382,0.23551 -5.25868,0.23551c0,0 -1.25,0 -1.25,-1.25c0,-0.6641 0.35282,-0.97537 0.68357,-1.12128z" fill-opacity="0.55686" fill="#404040" stroke="none" stroke-width="0.5"/><path d="M325.03301,149.53561c-0.87383,0.13286 -1.76197,0.35683 -2.89213,0.60798c0,0 -1.22023,0.27116 -1.4914,-0.94907c-0.19872,-0.89424 0.40353,-1.27877 0.73951,-1.42041c0.25332,-0.80729 1.18727,-0.80729 1.18727,-0.80729l0.77224,0.00173c0.92537,0.0487 1.78227,-0.0361 2.5599,-0.00313c0.8821,-0.05207 1.81125,-0.02044 2.9369,0.12327l0.07939,0.06485l0.0122,-0.04186l1.26341,0.36834c0.53372,0.14243 0.92685,0.62922 0.92685,1.20783c0,0.69036 -0.55964,1.25 -1.25,1.25c-0.05286,0 -0.10496,-0.00328 -0.15609,-0.00965l-2.10156,-0.23351l0.02495,-0.22455c-0.85935,0.0681 -1.70269,0.08379 -2.61143,0.06547z" fill-opacity="0.55686" fill="#404040" stroke="none" stroke-width="0.5"/><path d="M237.75722,168.00006c0,-45.42144 36.82137,-82.24281 82.24281,-82.24281c45.42147,0 82.24281,36.82139 82.24281,82.24281c0,45.42144 -36.82134,82.24281 -82.24281,82.24281c-45.42147,0 -82.24281,-36.8214 -82.24281,-82.24281z" fill="none" stroke="none" stroke-width="0"/><path d="M283.68412,141.1915c0.5558,-0.54549 7.21651,-0.99365 7.7245,-1.0556c4.6451,-0.56643 9.9431,-2.19324 14.61586,-1.8483c1.94297,0.14343 4.28246,-0.19033 5.73982,1.10265c6.7993,6.03239 -3.83478,9.20211 -7.78359,10.05495c-1.73763,0.37528 -3.50852,0.59659 -5.27875,0.75926c-4.50929,0.41436 -8.75442,0.12921 -13.19582,-0.57279l-0.13175,-0.09225l-0.01569,0.05493l-2.50815,-0.71661c-1.06582,-0.27842 -1.85445,-1.24261 -1.86621,-2.3929c-0.11805,-0.29042 -0.18308,-0.60804 -0.18308,-0.94085c0,-0.57191 0.19204,-1.09897 0.51515,-1.5202l1.63139,-2.17519l0.11955,0.08966c0.18016,-0.26698 0.38332,-0.51764 0.61679,-0.74677z" fill-opacity="0.55686" fill="#404040" stroke="none" stroke-width="0.5"/><path d="M302.36606,160.56474c0.41997,-0.03089 0.83806,-0.07025 1.2532,-0.12271c5.93248,-0.74969 11.82559,-1.6992 17.7421,-2.5532c2.09702,-0.30269 8.87181,-1.57279 10.40511,0.60304c3.5174,4.99136 -2.44951,7.30873 -4.98062,8.53502c-7.07225,3.42643 -15.28623,4.27477 -23.05568,4.33431c-2.22202,0.01703 -8.84216,0.5716 -10.23223,-2.97301c-0.63972,-0.05433 -1.28642,-0.11623 -1.94145,-0.18504l-0.05651,-0.03204l-0.00363,0.02348l-2.68462,-0.41554c-1.21799,-0.16756 -2.15612,-1.2125 -2.15612,-2.47654c0,-1.18343 0.82229,-2.17481 1.92668,-2.43395l4.79001,-1.23613l0.00643,0.02491c0.05692,-0.02171 0.11403,-0.04303 0.17131,-0.06394c2.13995,-0.78123 4.44849,-0.8398 6.7529,-0.92497l0.31969,-0.11596c0,0 0.87785,-0.29262 1.74342,0.01227zM314.11027,164.07524c0.14265,0.64371 0.06281,1.15541 -0.12585,1.55848c2.24886,-0.31638 4.47087,-0.77175 6.62443,-1.43672c1.07111,-0.33073 2.08286,-0.82401 3.10608,-1.28696c-2.16781,0.34974 -4.52286,0.39943 -6.18742,0.65549c-1.13817,0.17509 -2.27733,0.34474 -3.41724,0.50971z" fill-opacity="0.55686" fill="#404040" stroke="none" stroke-width="0.5"/><path d="M336.17025,194.7091c-0.83445,0.05191 -1.66898,0.10214 -2.50362,0.1504l-0.43519,-0.24034l-0.04385,0.13154l-4.68873,-1.56291c-1.02156,-0.31417 -1.76412,-1.26534 -1.76412,-2.38994c0,-0.95153 0.5316,-1.7789 1.314,-2.20132l4.31151,-2.43346c1.28091,-0.95065 2.65529,-1.77249 4.22351,-2.34793c0.7798,-0.28614 9.06324,-1.78221 9.9006,-1.93894c6.49781,-1.21616 12.01957,-2.42293 18.58357,-1.53797c1.95284,0.26328 10.61844,1.21226 11.55337,2.64197c2.96439,4.53318 -5.32318,7.41873 -6.84614,8.19951c-7.7188,3.95717 -17.54509,4.44639 -26.14407,4.71485c-2.20704,0.0689 -4.89864,1.29211 -6.62378,-0.08617c-0.37836,-0.30229 -0.6454,-0.67645 -0.83707,-1.09928z" fill-opacity="0.55686" fill="#404040" stroke="none" stroke-width="0.5"/><path d="M307.3518,199.14034c-7.89777,1.08028 -40.43645,-3.75998 -22.6707,-11.55834c2.0965,-0.92027 32.05137,1.58094 34.34395,2.856c11.89322,6.61464 -2.45997,9.3974 -7.94171,9.18891c-1.24639,-0.15923 -2.49011,-0.32029 -3.73154,-0.48657z" fill-opacity="0.55686" fill="#404040" stroke="none" stroke-width="0.5"/><path d="M334.45545,135.07251c0.01039,0.1143 0.01506,0.22384 0.0145,0.3288c1.65314,0.19348 3.30871,0.36256 4.97555,0.48411c2.11451,-2.35796 9.51361,-1.05269 12.11763,-0.77607l0.00119,0.00055l0.00005,-0.00041l4.06162,0.44524c1.2668,0.12207 2.25723,1.18955 2.25723,2.48836c0,1.28392 -0.96787,2.34179 -2.21379,2.4838l-4.92517,0.63551l-0.00292,-0.02265c-0.04649,0.01256 -0.09306,0.02487 -0.13973,0.03692c-1.6893,0.43616 -3.48928,0.11177 -5.23356,0.07375c-0.40076,-0.00874 -0.8011,-0.02035 -1.20104,-0.03465c0.20263,0.26398 0.38957,0.52669 0.50583,0.78365c0,0 0.43446,2.46196 -2.0275,2.89642c-2.46196,0.43446 -2.89642,-2.0275 -2.89642,-2.0275c-0.03551,-0.62062 -0.18523,-1.27741 -0.35638,-1.94098c-3.74693,-0.30995 -7.47304,-0.79412 -11.21075,-1.299h-2.43634c-1.38071,0 -2.5,-1.11929 -2.5,-2.5c0,-1.07977 0.68454,-1.99966 1.64331,-2.34936l4.1535,-1.62529l2.69709,-0.34458c0,0 2.48973,-0.22635 2.71608,2.26339z" fill-opacity="0.55686" fill="#404040" stroke="none" stroke-width="0.5"/><path d="M333.38897,173.91373l4.07747,-0.80834c0.17285,-0.0378 0.35239,-0.05772 0.53659,-0.05772c1.38071,0 2.5,1.11929 2.5,2.5c0,1.13161 -0.75185,2.08762 -1.78327,2.39574l-4.70158,1.52484l-0.00797,-0.02457c-0.04596,0.02266 -0.09209,0.04505 -0.13838,0.06715c-3.78124,1.80559 -9.4761,1.42434 -13.60829,1.82273l-0.05191,-0.01578l0.00106,0.01913l-3.27225,0.18179c-0.05274,0.00332 -0.10593,0.00501 -0.15951,0.00501c-1.38071,0 -2.5,-1.11929 -2.5,-2.5c0,-0.38857 0.08865,-0.75643 0.24682,-1.08447c-0.566,-2.38847 1.82979,-2.98743 1.82979,-2.98743l2.50357,-0.40265c0.67489,0.11916 1.35355,0.21981 2.03291,0.31436c2.31548,-0.59285 6.18727,-0.9307 7.38091,-1.07481l0.08485,0.02264l-0.0015,-0.02842l3.45614,-0.1819c0.05005,-0.00299 0.10049,-0.0045 0.15128,-0.0045c0.46416,0 0.89877,0.12649 1.27125,0.34689c0.05067,-0.00991 0.10134,-0.0198 0.15201,-0.02967z" fill-opacity="0.55686" fill="#404040" stroke="none" stroke-width="0.5"/><path d="M355.20198,161.75836c0,0 -2.49317,0.18468 -2.67785,-2.30849c-0.01357,-0.18319 -0.01268,-0.35392 0.00061,-0.51302c-0.25631,-2.29685 2.08157,-2.68649 2.08157,-2.68649l1.69364,-0.21011c0.86996,0.06471 1.72853,0.20458 2.5782,0.39673l0.00676,-0.20288l4.98705,0.16624c1.3469,0.03868 2.42689,1.14269 2.42689,2.49895c0,1.38071 -1.11929,2.5 -2.5,2.5h-3.77248c-1.60813,0.11969 -3.21627,0.23938 -4.8244,0.35907z" fill-opacity="0.55686" fill="#404040" stroke="none" stroke-width="0.5"/><path d="M272.31236,179.10524c-0.3824,-0.64835 -0.64665,-1.65958 0.28678,-2.7797c1.60046,-1.92055 3.52101,-0.32009 3.52101,-0.32009l0.14139,0.41971c0.7101,0.19578 1.40922,0.42686 2.10008,0.68272v-0.03534h2.74423c1.38071,0 2.5,1.11929 2.5,2.5c0,1.28062 -0.96288,2.33634 -2.20416,2.48268l-2.70966,0.36129l-0.01011,-0.07585l-0.15473,0.09229c-1.27485,0.00183 -2.5497,0.00366 -3.82456,0.00549c0,0 -2.5,0 -2.5,-2.5c0,-0.31599 0.03994,-0.59204 0.10972,-0.8332z" fill-opacity="0.55686" fill="#404040" stroke="none" stroke-width="0.5"/><path d="M317.2215,210.4017c-0.69124,-0.02158 -1.38248,-0.04316 -2.07373,-0.06473c0,0 -2.49878,-0.07809 -2.42069,-2.57687c0.07809,-2.49878 2.57687,-2.42069 2.57687,-2.42069c1.65367,0.05173 3.30734,0.10347 4.96101,0.1552l3.39367,0.02658c1.37284,0.0092 2.48289,1.12494 2.48289,2.49994c0,1.38071 -1.11929,2.5 -2.5,2.5h-5.67142c0,0 -0.32916,0 -0.7486,-0.11944z" fill-opacity="0.55686" fill="#404040" stroke="none" stroke-width="0.5"/><path d="M307.05444,128.43826c0,-0.37243 0.05548,-0.68937 0.14991,-0.9591c-0.00085,-0.27847 0.04741,-0.5874 0.16133,-0.92916c0.79057,-2.37171 3.16228,-1.58114 3.16228,-1.58114c1.04273,0.34891 2.08547,0.69782 3.1282,1.04673l2.41225,0.51691c1.15273,0.22253 2.02335,1.2369 2.02335,2.45461c0,1.38071 -1.11929,2.5 -2.5,2.5c-0.06863,0 -0.13662,-0.00277 -0.20386,-0.00819l-2.53555,-0.18111l0.02399,-0.33582l-0.25815,-0.05532c-0.83512,0.10759 -1.67201,0.12462 -2.50256,0.00647l-0.56119,0.02513c0,0 -2.5,0 -2.5,-2.5z" fill-opacity="0.55686" fill="#404040" stroke="none" stroke-width="0.5"/></g></g></svg>