<svg version="1.1" xmlns="http://www.w3.org/2000/svg" xmlns:xlink="http://www.w3.org/1999/xlink" width="164.48562" height="164.48562" viewBox="0,0,164.48562,164.48562"><g transform="translate(-237.75719,-97.75719)"><g stroke-miterlimit="10"><path d="M291.28517,180.00001c0,-15.85876 12.85607,-28.71483 28.71483,-28.71483c15.85877,0 28.71483,12.85608 28.71483,28.71483c0,15.85876 -12.85606,28.71483 -28.71483,28.71483c-15.85877,0 -28.71483,-12.85608 -28.71483,-28.71483z" fill="#b04646" stroke="none" stroke-width="0" stroke-linecap="butt"/><path d="M330.91776,154.77565h-21.80028" fill="none" stroke="#e8e8e8" stroke-width="3.5" stroke-linecap="round"/><path d="M309.46232,205.1668h21.80028" fill="#732d2d" stroke="#e8e8e8" stroke-width="3.5" stroke-linecap="round"/><path d="M291.28517,180.00001c0,-15.85876 12.85607,-28.71483 28.71483,-28.71483c15.85877,0 28.71483,12.85608 28.71483,28.71483c0,15.85876 -12.85606,28.71483 -28.71483,28.71483c-15.85877,0 -28.71483,-12.85608 -28.71483,-28.71483z" fill="none" stroke="#732d2d" stroke-width="3.5" stroke-linecap="butt"/><path d="M319.72497,180.94095c-1.79181,1.74339 -3.5352,-0.04843 -3.5352,-0.04843l-3.4363,-3.53175c-0.71387,-0.95575 -1.00419,-2.50761 -2.14162,-2.86724c-0.84335,-0.26665 -1.31162,1.39864 -2.19058,1.49749c-1.75967,0.19788 -4.16733,0.72612 -5.27134,-0.65835c-0.39385,-0.4939 -0.72401,-0.9437 -0.99715,-1.35319c-1.00273,0.24154 -1.93705,0.26181 -2.66972,-0.37025c-2.3705,-2.04498 1.05983,-7.13311 2.09714,-8.96966c0,0 1.24035,-2.17061 3.41096,-0.93026c0.80333,0.45905 1.13946,1.04551 1.24418,1.6022c0.06852,-0.00564 0.13782,-0.00851 0.20779,-0.00851c1.38071,0 2.5,1.11929 2.5,2.5c0,0.1348 -0.01067,0.26712 -0.03121,0.39614l-0.29409,2.05857c0.93859,-0.5456 1.92603,-0.96862 2.88734,-0.68372c2.0672,0.61264 3.22129,2.86668 4.83193,4.30002l3.4363,3.53175c0,0 1.74339,1.79181 -0.04843,3.5352z" fill="#732d2d" stroke="none" stroke-width="0.5" stroke-linecap="butt"/><path d="M332.68438,197.2911c-0.30723,0.6352 -0.93206,1.28112 -2.2028,1.28112c-2.5,0 -2.5,-2.5 -2.5,-2.5l0.88966,-2.10459c3.01753,-2.53363 6.15742,-5.28942 8.42392,-8.56996c0.15991,-0.23145 0.31551,-0.46669 0.46598,-0.70552c-0.9539,-0.15848 -1.72526,-0.85702 -1.98929,-1.77083l-1.07898,-3.43326l0.07319,-0.023l-0.13781,-0.22717c-0.34659,-3.45678 -0.5809,-6.92729 -0.68403,-10.39987c0,0 -0.07349,-2.49892 2.42543,-2.57241c2.49892,-0.07349 2.57241,2.42543 2.57241,2.42543c0.04831,1.65941 0.12289,3.31861 0.22603,4.97597c0.4584,-0.52923 1.13532,-0.86401 1.89043,-0.86401c0.90176,0 1.69201,0.47744 2.13175,1.19332l1.32355,2.07987l-0.04814,0.03064c0.15982,0.2438 0.29078,0.5056 0.38415,0.79083c0.65216,1.99211 -0.19339,4.23081 -0.79964,6.23737c-1.7361,5.74614 -6.88914,10.36131 -11.3658,14.15608z" fill="#732d2d" stroke="none" stroke-width="0.5" stroke-linecap="butt"/><path d="M312.97796,197.66098c-1.18387,0.92079 -2.20991,0.57895 -2.84142,0.15804c-0.43035,0.35065 -0.97965,0.56089 -1.57805,0.56089c-0.48518,0 -0.93808,-0.13821 -1.32148,-0.37741l-3.81091,-2.28655l0.04239,-0.07065l-0.26271,-0.07802c-1.09341,-1.01861 -2.18682,-2.03722 -3.28022,-3.05583c0,0 -1.82385,-1.70985 -0.114,-3.5337c1.70985,-1.82385 3.5337,-0.114 3.5337,-0.114c0.32384,0.30578 0.64768,0.61156 0.97151,0.91734c0.45464,-0.47088 1.09247,-0.76372 1.7987,-0.76372c0.49303,0 0.95273,0.14272 1.34004,0.3891l3.94753,2.41866l2.01344,2.32761c0,0 1.53485,1.97338 -0.43853,3.50823z" fill="#732d2d" stroke="none" stroke-width="0.5" stroke-linecap="butt"/><path d="M324.61618,170.20683c-1.18532,0 -2.17798,-0.82492 -2.43519,-1.93198l-0.11242,0.01843c-0.19231,-0.96154 -0.38462,-1.92308 -0.57692,-2.88462c0,0 -0.49029,-2.45145 1.96116,-2.94174c2.45145,-0.49029 2.94174,1.96116 2.94174,1.96116c0.01377,0.06887 0.02755,0.13774 0.04132,0.20661c0.89443,0.60672 1.0046,1.53409 0.95809,2.15454c0.06948,0.22955 0.10683,0.47306 0.10683,0.72529c0,1.05577 -0.65445,1.95869 -1.57981,2.32521c-0.37983,0.23286 -0.82664,0.3671 -1.30481,0.3671z" fill="#732d2d" stroke="none" stroke-width="0.5" stroke-linecap="butt"/><path d="M319.71234,194.34144c0,-1.38071 1.11929,-2.5 2.5,-2.5c1.38071,0 2.5,1.11929 2.5,2.5c0,1.38071 -1.11929,2.5 -2.5,2.5c-1.38071,0 -2.5,-1.11929 -2.5,-2.5z" fill="#732d2d" stroke="none" stroke-width="0.5" stroke-linecap="butt"/><path d="M237.7572,180.00001c0,-45.42144 36.82137,-82.24281 82.24281,-82.24281c45.42147,0 82.24281,36.82139 82.24281,82.24281c0,45.42144 -36.82134,82.24281 -82.24281,82.24281c-45.42147,0 -82.24281,-36.8214 -82.24281,-82.24281z" fill="none" stroke="none" stroke-width="0" stroke-linecap="butt"/></g></g></svg>