<svg version="1.1" xmlns="http://www.w3.org/2000/svg" xmlns:xlink="http://www.w3.org/1999/xlink" width="206.45438" height="206.45438" viewBox="0,0,206.45438,206.45438"><defs><radialGradient cx="320.00001" cy="180.00001" r="103.22719" gradientUnits="userSpaceOnUse" id="color-1"><stop offset="0" stop-color="#ffd9d9"/><stop offset="1" stop-color="#ffd9d9" stop-opacity="0"/></radialGradient><radialGradient cx="320.00001" cy="180.00001" r="43.46408" gradientUnits="userSpaceOnUse" id="color-2"><stop offset="0" stop-color="#ffffff"/><stop offset="1" stop-color="#ffa2a2"/></radialGradient></defs><g transform="translate(-216.7728,-76.77281)"><g stroke="none" stroke-width="0" stroke-miterlimit="10"><path d="M216.77281,180.00001c0,-57.01084 46.21635,-103.22719 103.22719,-103.22719c57.01084,0 103.22719,46.21635 103.22719,103.22719c0,57.01084 -46.21635,103.22719 -103.22719,103.22719c-57.01084,0 -103.22719,-46.21635 -103.22719,-103.22719z" fill="url(#color-1)"/><path d="M276.53592,180.00001c0,-24.00455 19.45953,-43.46408 43.46408,-43.46408c24.00455,0 43.46408,19.45953 43.46408,43.46408c0,24.00455 -19.45953,43.46408 -43.46408,43.46408c-24.00455,0 -43.46408,-19.45953 -43.46408,-43.46408z" fill="url(#color-2)"/></g></g></svg>