<svg version="1.1" xmlns="http://www.w3.org/2000/svg" xmlns:xlink="http://www.w3.org/1999/xlink" width="374.48562" height="374.48562" viewBox="0,0,374.48562,374.48562"><defs><radialGradient cx="320.00008" cy="180.00002" r="65.37526" gradientUnits="userSpaceOnUse" id="color-1"><stop offset="0" stop-color="#ff9696"/><stop offset="1" stop-color="#b04646"/></radialGradient><radialGradient cx="320.00004" cy="180.00002" r="65.37526" gradientUnits="userSpaceOnUse" id="color-2"><stop offset="0" stop-color="#732d2d"/><stop offset="1" stop-color="#b54b4b"/></radialGradient></defs><g transform="translate(-132.7572,7.2428)"><g stroke-miterlimit="10"><path d="M254.62473,180.00002c0,-36.10576 29.26951,-65.37526 65.37526,-65.37526c36.10578,0 65.37526,29.26953 65.37526,65.37526c0,36.10576 -29.26949,65.37526 -65.37526,65.37526c-36.10578,0 -65.37526,-29.26953 -65.37526,-65.37526z" fill="url(#color-1)" stroke="none" stroke-width="0"/><path d="M254.62473,180.00002c0,-36.10576 29.26951,-65.37526 65.37526,-65.37526c36.10578,0 65.37526,29.26953 65.37526,65.37526c0,36.10576 -29.26949,65.37526 -65.37526,65.37526c-36.10578,0 -65.37526,-29.26953 -65.37526,-65.37526z" fill="none" stroke="url(#color-2)" stroke-width="3.5"/><path d="M278.02177,235.34115c0.5014,0.09401 0.94943,0.22453 1.34963,0.38429c6.57604,-8.85339 13.96826,-17.33328 19.33277,-26.94711c5.58344,-10.00615 8.60436,-21.21295 13.82501,-31.38275c0.74681,-1.45477 1.50065,-2.91271 2.26129,-4.3731c-0.91867,-0.27589 -1.83519,-0.56066 -2.74924,-0.85538c-19.66522,-6.34065 -40.81852,-20.15152 -61.86117,-21.02833c-0.37199,2.93511 -1.12622,5.75028 -2.44985,8.34734c-1.6145,3.16777 -5.49144,4.51799 -8.26579,6.74158c-9.1224,7.31142 -18.2627,13.48189 -28.04551,19.04944l0.26394,0.32992l-7.96989,6.37592c-0.97953,0.79746 -2.22944,1.27557 -3.59103,1.27557c-3.14347,0 -5.69177,-2.5483 -5.69177,-5.69177c0,-0.14601 0.00549,-0.29074 0.0163,-0.43396l0.52999,-7.94994l0.13041,0.0087l-0.08192,-0.46185c3.29913,-14.41668 5.76531,-29.71105 10.4013,-43.75142c2.08724,-6.32135 6.36654,-11.72857 9.97564,-17.14994c6.30819,-9.47584 12.6289,-18.94337 18.94334,-28.41502c0,0 3.15722,-4.73585 7.89307,-1.57862c0.09744,0.06495 0.19154,0.13059 0.2824,0.19684l11.03272,1.13803c0,0 1.28106,3.84315 -1.56061,6.12571c-2.22983,8.84938 -4.3639,18.02724 -3.85749,27.07235c0.29656,5.2969 1.44448,11.35287 2.01596,17.41879c22.64985,1.12055 44.16136,14.61942 65.40186,21.55243c1.5613,0.50962 3.1483,0.923 4.75065,1.27837c9.93831,-18.43939 20.84421,-36.99784 32.1752,-54.25002c-4.79629,-1.14992 -9.82406,-1.89279 -15.42711,-2.10413c0,0 -5.06781,-0.20272 -5.44431,-5.0093c-3.3183,-4.51904 1.1894,-7.89976 1.1894,-7.89976l0.85955,-0.27216c2.14336,-3.07674 3.86535,-6.49483 6.43006,-9.23025c5.79005,-6.17545 13.783,-8.65019 20.71649,-13.09255c2.33349,-1.49509 4.25341,-4.09329 6.99591,-4.4924c4.04662,-0.58889 8.93819,-0.82658 12.14846,1.70641c2.96612,2.34036 2.59283,7.10492 3.62502,10.73943c2.7173,9.56791 4.72408,19.29366 7.04202,28.95653l3.70885,5.76929c0.59971,0.90164 0.94916,1.98408 0.94916,3.14814c0,3.14347 -2.5483,5.69177 -5.69177,5.69177c-0.85288,0 -1.66195,-0.1876 -2.3882,-0.52376l-8.84781,-3.85549c-5.12755,-2.23436 -9.85687,-4.28463 -14.53992,-6.02337c-11.14551,16.69591 -21.87474,34.80163 -31.69948,52.85114c0.30906,0.05712 0.61776,0.1155 0.92605,0.17542c20.71915,4.02713 42.52801,9.90231 60.24024,21.6646l1.99221,1.18917c0.78328,0.04701 1.52385,0.25242 2.19012,0.58461c1.0091,-12.37122 1.85276,-24.81256 3.00266,-37.57976c0,0 0.3836,-4.21954 4.1294,-5.04655c0.63673,-0.48221 1.46996,-0.86922 2.55743,-1.08674c5.58123,-1.11632 6.69755,4.46492 6.69755,4.46492l0.23716,1.67088c9.00816,22.52039 17.06879,45.63869 29.12769,66.7514c15.93659,35.83565 -53.9122,38.15559 -54.17327,37.84202c-3.15602,-3.79092 0.98081,-9.82921 1.89861,-14.67575c2.68355,-14.17039 4.33396,-27.98023 5.60992,-41.78673c-0.51449,0.15284 -1.05942,0.23489 -1.62352,0.23489c-0.8297,0 -1.61794,-0.17754 -2.32878,-0.49666c-1.55094,-0.13811 -2.7343,-0.84812 -2.7343,-0.84812l-2.89734,-1.74589c-18.50558,-12.39137 -39.9355,-15.04756 -60.88505,-20.02289c-1.14532,2.18261 -2.2758,4.35989 -3.39054,6.52916c-5.30823,10.32992 -8.38088,21.67248 -14.07146,31.84228c-6.54335,11.69383 -15.85148,21.79446 -23.4461,32.75888l-0.33636,0.20258l0.09253,0.08412l-5.32135,5.85346c-0.06238,0.06912 -0.1264,0.13672 -0.19206,0.2027c4.09411,2.94121 8.01005,6.04573 11.52715,9.48463c2.64016,2.58144 8.54749,5.0093 7.17693,8.43798c-4.39307,10.99005 -12.30738,6.55935 -18.83982,10.75202c-2.14129,1.37433 -14.39202,12.2493 -17.59515,11.95096c-7.84499,-0.73066 -9.86684,-9.02286 -11.08192,-14.62636c-2.48714,-11.46985 -2.99738,-22.94534 -3.75213,-34.55652c-0.00792,-0.00608 -0.01585,-0.01218 -0.02375,-0.01826c0,0 -4.51143,-3.47034 -1.04107,-7.98177c1.84416,-2.39737 3.9823,-2.54081 5.58119,-2.14878c0.33078,-0.04729 0.6852,-0.07263 1.06498,-0.07263c3.81544,0 5.07323,2.55765 5.48787,4.24396c3.91833,2.78494 8.02289,5.44887 12.11495,8.1459l1.3525,-7.21331c0,0 1.04892,-5.59428 6.6432,-4.54536z" fill="#dadada" stroke="none" stroke-width="0.5"/><path d="M132.7572,180.00002c0,-103.41133 83.83148,-187.24281 187.24281,-187.24281c103.41139,0 187.24281,83.83153 187.24281,187.24281c0,103.41133 -83.83142,187.24281 -187.24281,187.24281c-103.41139,0 -187.24281,-83.83155 -187.24281,-187.24281z" fill="none" stroke="none" stroke-width="0"/></g></g></svg>