<svg version="1.1" xmlns="http://www.w3.org/2000/svg" xmlns:xlink="http://www.w3.org/1999/xlink" width="2741.06545" height="2011.95195" viewBox="0,0,2741.06545,2011.95195"><g transform="translate(970.71296,774.68468)"><g stroke="none" stroke-miterlimit="10"><path d="M0.80912,80.25781c12.45879,4.73138 20.58112,11.81765 34.92979,14.31551c21.74872,3.78613 42.41853,1.73893 64.40677,8.10469c19.78313,5.72738 42.32073,20.15244 61.77576,19.59273c34.3588,-0.01348 59.32233,14.34342 92.52064,19.93018c43.95673,7.39724 87.83954,2.20238 132.17667,-0.82055c43.91393,-10.91334 90.58916,-5.82959 135.2808,-11.99595c31.54014,-4.35177 59.56768,-23.27489 90.9939,-30.59695c-14.18255,-14.85269 -5.12744,-41.45341 -8.23035,-60.4618c-7.00693,-42.92459 -32.96026,-95.32367 -62.76471,-124.79341c-2.5402,-7.61066 -8.23315,-21.20648 -14.62114,-26.30675c-5.89262,-4.7048 -42.96463,-7.96913 -52.85414,-10.46599c-42.56139,-10.74555 -76.64391,-35.57856 -121.7548,-35.56087c-59.87013,0.02346 -134.33615,11.86762 -187.37646,41.71523c-11.21488,6.311 -17.14926,18.41312 -27.74305,24.93533c-6.1457,3.78369 -12.87024,8.46071 -15.3985,15.22046c-7.60019,5.21922 -17.09069,7.43169 -24.35602,13.1078c-13.20568,10.31708 -16.62175,28.74405 -25.95386,41.50153c-25.08598,34.29389 -52.00851,64.32711 -71.01407,102.54547c0,0 -0.00577,0.01152 -0.01729,0.03331zM-516.76862,132.56285c0.31431,-2.44996 2.1174,-4.19257 2.1174,-4.19257l9.30703,-8.95777c11.46982,-7.66931 19.90092,-11.23604 32.51047,-16.26995c7.97811,-3.185 16.45018,-10.64445 24.86479,-12.26516c3.2999,-0.63561 7.04104,2.24668 10.05325,0.75673c2.44241,-1.20814 1.2348,-5.80044 3.42389,-7.42309c3.967,-2.94052 9.41603,-3.10579 13.81279,-5.35348c8.35719,-4.27233 11.27378,-9.42911 20.41501,-11.85597c2.56202,-0.68018 5.37433,0.61363 7.95237,-0.00312c6.77866,-1.62159 14.18925,-7.31626 20.6929,-10.17475c10.35641,-20.73315 36.51801,-24.75287 52.44693,-40.85318c38.06972,-38.47941 69.65981,-83.99375 109.22149,-120.40693c1.42971,-10.72 83.87164,-107.8407 97.48484,-117.86415c22.11522,-16.28359 46.05556,-17.31146 63.60343,-39.78683c17.73744,-6.10852 28.86883,-20.89691 43.72562,-31.82667c7.71666,-5.67696 97.72831,-46.80268 105.71175,-48.82825c10.7374,-2.72436 45.33487,-5.91913 48.92726,-12.51292c13.23118,-6.7115 54.72063,-16.63809 63.2071,-25.53098c4.80969,-5.04 11.19251,-17.3184 17.09736,-20.83794c23.32132,-13.9006 77.40583,10.90947 102.88954,10.89949c11.43688,0.10399 18.97945,5.42734 29.35754,8.11799c48.51934,12.57921 133.27809,-12.93445 182.90939,11.85687c18.45631,-0.00726 70.93343,39.48531 86.24605,53.02076c5.5745,4.9275 5.51131,14.49394 11.17037,19.32416c4.12747,3.52296 19.01406,6.82492 25.06295,12.86907c12.60767,12.5978 22.74572,35.57538 38.96845,43.0334c4.58351,4.57991 6.05821,12.19146 11.54423,15.63932c7.40982,4.65694 22.27024,8.16181 29.6209,17.50626c2.12966,2.7073 27.5661,40.58164 29.52538,41.82359c2.38484,1.51167 6.22915,-1.44051 8.46595,0.28258c18.16679,13.99445 25.42116,48.24134 37.7736,65.46165c8.72182,12.15889 21.36489,19.77508 20.58518,37.04584c16.30935,15.00517 18.86227,32.90754 31.07383,50.31719c23.93812,34.12783 56.72938,60.7339 89.98631,85.94119c7.09016,5.37403 18.18736,6.35647 24.67242,12.60831c3.22181,3.10595 4.70911,8.28768 8.77229,10.1632c33.85491,-0.94557 66.55036,18.71924 97.58251,27.98642c23.78874,7.10407 51.8815,5.16629 74.01375,19.09475c21.21946,13.35405 34.62404,36.64854 54.84888,50.68338c4.37018,12.11822 17.14233,37.6957 8.34284,51.23385c-11.98253,18.43533 -128.69055,27.04741 -155.40409,27.05787c-74.27194,0.0291 -152.43711,-5.99433 -223.16517,11.96645c-76.19553,0.3266 -151.26308,8.02927 -227.79826,8.10324c-79.77505,2.30203 -160.54582,17.49874 -240.17499,1.37489c-57.94138,-11.74062 -156.04073,-1.23155 -220.75306,-1.20618c-77.30184,0.03029 -149.99171,-7.89358 -226.60614,-7.86358c-14.30471,-0.3883 -30.80274,5.96748 -45.52104,7.91175c-53.04356,7.00698 -111.60108,0.10224 -165.21386,0.12324c-46.52005,-0.08689 -92.2421,-11.12008 -136.71932,-20.00446c-27.31559,-5.45634 -61.99034,0.20142 -89.94045,0.21235c-22.23592,-0.06366 -43.26763,-4.14471 -64.67346,-8.01251c-11.23686,-2.03038 -42.99672,6.50855 -51.49337,-1.9963c-3.66063,-3.66418 -2.25063,-10.53648 -0.82649,-15.51623c1.60949,-5.62786 57.41972,-76.56407 66.32903,-90.29675c11.26771,-7.68033 21.80652,-15.18061 31.97266,-22.57594z" fill="#ffaa4e" fill-rule="nonzero" stroke-width="0.5"/><path d="M-86.77159,-134.56993c92.38826,-124.85559 240.52433,-205.64951 407.56067,-205.71498c167.03634,-0.06549 315.23692,80.61228 407.71953,205.39542l13.92994,18.8428c84.99957,115.14395 186.09285,252.07661 338.22757,311.66069l68.86852,26.98449l-207.67757,0.0814l-222.5123,0.08723l-796.67189,0.31227l-222.50902,0.08723l-207.68639,0.0814l68.85514,-27.03846c152.08469,-59.70332 253.07033,-196.71518 337.98187,-311.92473zM-275.14161,335.79877l-530.22249,0.20783c-27.07008,0.01062 -50.31905,-19.24209 -55.35883,-45.83479c-5.03878,-26.59267 9.55593,-53.01295 34.75358,-62.91271l346.13738,-135.89143c121.02039,-47.51461 204.19727,-159.99287 295.42697,-283.35906l7.08582,-9.58074c112.70592,-152.31325 293.82203,-251.27457 498.06387,-251.35465c204.24184,-0.08005 385.43094,98.73924 498.25623,250.96537l7.10012,9.57393c91.32182,123.29438 174.58561,235.70765 295.64899,283.12738l346.23499,135.62c25.21296,9.88001 39.82184,36.28884 34.80845,62.88546c-5.02472,26.59664 -28.25504,45.86757 -55.3229,45.87816l-530.22704,0.20783c-73.46434,260.06208 -312.3929,450.68935 -596.01318,450.80052c-283.62507,0.11117 -522.7073,-190.32847 -596.37224,-450.33315zM-157.00981,335.75245c69.6548,196.84778 257.53118,337.82409 478.19603,337.73761c220.66512,-0.08649 408.42839,-141.21004 477.9301,-338.1124l-121.76574,0.04772c-63.19606,133.16737 -198.85931,225.36138 -356.2085,225.42309c-157.33789,0.06168 -293.07565,-92.02599 -356.37608,-225.14376zM320.87739,-115.00151c115.44643,-0.04526 214.76723,69.42706 258.25229,168.86131l-516.37541,0.2024c43.41039,-99.46833 142.67669,-169.01848 258.12312,-169.06371zM320.83325,-227.64334c-195.39943,0.07661 -357.45311,142.24435 -388.66869,328.76207c-2.73529,16.33406 1.86262,33.04834 12.56851,45.69383c10.70713,12.64549 26.43569,19.92714 43.0021,19.92065l666.50296,-0.26124c16.56969,-0.00649 32.29153,-7.30048 42.98748,-19.95433c10.69595,-12.65391 15.28532,-29.37176 12.53043,-45.70368c-31.35371,-186.49317 -193.52333,-328.53386 -388.92278,-328.45727z" fill="#000000" fill-rule="evenodd" stroke-width="1"/><path d="M-35.11436,335.76143c63.30043,133.11777 198.91847,225.01633 356.25636,224.95468c157.34923,-0.06168 292.89291,-92.06653 356.08897,-225.23388l122.01016,-0.14867c-69.50171,196.90233 -257.38974,338.20246 -478.05485,338.28895c-220.66485,0.08651 -408.66614,-141.06633 -478.32094,-337.91408z" fill="#ffaa4e" fill-rule="evenodd" stroke-width="0.5"/><path d="M-86.77159,-134.56993c92.38826,-124.85559 240.52433,-205.64951 407.56067,-205.71498c167.03634,-0.06549 315.23692,80.61228 407.71953,205.39542l13.92994,18.8428c84.99957,115.14395 186.09285,252.07661 338.22757,311.66069l68.86852,26.98449l-207.67757,0.0814l-222.5123,0.08723l-796.67189,0.31227l-222.50902,0.08723l-207.68639,0.0814l68.85514,-27.03846c152.08469,-59.70332 253.07033,-196.71518 337.98187,-311.92473zM-275.14161,335.79877l-530.22249,0.20783c-27.07008,0.01062 -50.31905,-19.24209 -55.35883,-45.83479c-5.03878,-26.59267 9.55593,-53.01295 34.75358,-62.91271l346.13738,-135.89143c121.02039,-47.51461 204.19727,-159.99287 295.42697,-283.35906l7.08582,-9.58074c112.70592,-152.31325 293.82203,-251.27457 498.06387,-251.35465c204.24184,-0.08005 385.43094,98.73924 498.25623,250.96537l7.10012,9.57393c91.32182,123.29438 174.58561,235.70765 295.64899,283.12738l346.23499,135.62c25.21296,9.88001 39.82184,36.28884 34.80845,62.88546c-5.02472,26.59664 -28.25504,45.86757 -55.3229,45.87816l-530.22704,0.20783c-73.46434,260.06208 -312.3929,450.68935 -596.01318,450.80052c-283.62507,0.11117 -522.7073,-190.32847 -596.37224,-450.33315zM-157.00981,335.75245c69.6548,196.84778 257.53118,337.82409 478.19603,337.73761c220.66512,-0.08649 408.42839,-141.21004 477.9301,-338.1124l-121.76574,0.04772c-63.19606,133.16737 -198.85931,225.36138 -356.2085,225.42309c-157.33789,0.06168 -293.07565,-92.02599 -356.37608,-225.14376zM320.87739,-115.00151c115.44643,-0.04526 214.76723,69.42706 258.25229,168.86131l-516.37541,0.2024c43.41039,-99.46833 142.67669,-169.01848 258.12312,-169.06371z" fill="#000000" fill-rule="evenodd" stroke-width="1"/><path d="M-970.71296,1237.26727v-2011.95195h2741.06545v2011.95195z" fill="none" fill-rule="nonzero" stroke-width="0"/></g></g></svg>