<svg version="1.1" xmlns="http://www.w3.org/2000/svg" xmlns:xlink="http://www.w3.org/1999/xlink" width="164.48562" height="164.48562" viewBox="0,0,164.48562,164.48562"><g transform="translate(-237.75719,-97.75719)"><g stroke-miterlimit="10"><path d="M291.28517,180c0,-15.85876 12.85607,-28.71483 28.71483,-28.71483c15.85877,0 28.71483,12.85608 28.71483,28.71483c0,15.85876 -12.85606,28.71483 -28.71483,28.71483c-15.85877,0 -28.71483,-12.85608 -28.71483,-28.71483zM304.42913,176.9627c0,1.052 0.16244,2.06605 0.46361,3.01844c-0.15012,0.68903 -0.2292,1.40458 -0.2292,2.13861c0,3.43408 1.731,6.46387 4.36806,8.26442c1.51409,3.41921 4.88887,5.83076 8.84001,5.95033c0.70279,0.15652 1.43345,0.23907 2.1834,0.23907c2.55665,0 4.88921,-0.95945 6.65727,-2.53792c4.2442,-0.84751 7.51898,-4.38151 7.97625,-8.75388c0.78204,-1.42548 1.22677,-3.06225 1.22677,-4.8029c0,-1.11674 -0.18305,-2.19072 -0.52079,-3.19359c0.03436,-0.33727 0.05197,-0.67948 0.05197,-1.02581c0,-4.44077 -2.89462,-8.20547 -6.89999,-9.51021c-1.40771,-0.75938 -3.01822,-1.1911 -4.72941,-1.19302c-1.62427,-1.14001 -3.60309,-1.80914 -5.7382,-1.80914c-3.41628,0 -6.43245,1.7131 -8.23632,4.32713c-3.21552,1.66262 -5.41343,5.01888 -5.41343,8.88848z" fill="#b04646" stroke="none" stroke-width="0"/><path d="M291.28517,180c0,-15.85876 12.85607,-28.71483 28.71483,-28.71483c15.85877,0 28.71483,12.85608 28.71483,28.71483c0,15.85876 -12.85606,28.71483 -28.71483,28.71483c-15.85877,0 -28.71483,-12.85608 -28.71483,-28.71483zM304.42913,176.9627c0,1.052 0.16244,2.06605 0.46361,3.01844c-0.15012,0.68903 -0.2292,1.40458 -0.2292,2.13861c0,3.43408 1.731,6.46387 4.36806,8.26442c1.51409,3.41921 4.88887,5.83076 8.84001,5.95033c0.70279,0.15652 1.43345,0.23907 2.1834,0.23907c2.55665,0 4.88921,-0.95945 6.65727,-2.53792c4.2442,-0.84751 7.51898,-4.38151 7.97625,-8.75388c0.78204,-1.42548 1.22677,-3.06225 1.22677,-4.8029c0,-1.11674 -0.18305,-2.19072 -0.52079,-3.19359c0.03436,-0.33727 0.05197,-0.67948 0.05197,-1.02581c0,-4.44077 -2.89462,-8.20547 -6.89999,-9.51021c-1.41085,-0.76108 -3.02542,-1.19303 -4.74088,-1.19303c-0.27799,0 -0.55334,0.01134 -0.82559,0.03359c-0.2501,-0.08876 -0.50477,-0.16784 -0.76358,-0.23681c-1.15411,-0.46507 -2.41493,-0.72106 -3.73554,-0.72106c-2.66052,0 -5.07837,1.03898 -6.86995,2.73334c-4.15071,1.21683 -7.18182,5.05314 -7.18182,9.5974z" fill="#b04646" stroke="none" stroke-width="0"/><path d="M291.28517,180.00001c0,-15.85876 12.85607,-28.71483 28.71483,-28.71483c15.85877,0 28.71483,12.85608 28.71483,28.71483c0,15.85876 -12.85606,28.71483 -28.71483,28.71483c-15.85877,0 -28.71483,-12.85608 -28.71483,-28.71483z" fill="none" stroke="#732d2d" stroke-width="3.5"/><path d="M304.17783,180.00001c0,-8.73836 7.08383,-15.82219 15.82219,-15.82219c8.73836,0 15.82219,7.08384 15.82219,15.82219c0,8.73836 -7.08383,15.82219 -15.82219,15.82219c-8.73836,0 -15.82219,-7.08384 -15.82219,-15.82219z" fill="none" stroke="#732d2d" stroke-width="3.5"/><path d="M237.7572,180.00001c0,-45.42144 36.82137,-82.24281 82.24281,-82.24281c45.42147,0 82.24281,36.82139 82.24281,82.24281c0,45.42144 -36.82134,82.24281 -82.24281,82.24281c-45.42147,0 -82.24281,-36.8214 -82.24281,-82.24281z" fill="none" stroke="none" stroke-width="0"/></g></g></svg>