<svg version="1.1" xmlns="http://www.w3.org/2000/svg" xmlns:xlink="http://www.w3.org/1999/xlink" width="319.48562" height="319.48562" viewBox="0,0,319.48562,319.48562"><g transform="translate(-160.25721,-20.25722)"><g stroke-miterlimit="10"><path d="M264.52835,185.79676c-3.20145,-30.63615 19.03878,-58.06695 49.67493,-61.2684c30.63617,-3.20145 58.06696,19.0388 61.2684,49.67493c3.20145,30.63615 -19.03876,58.06695 -49.67493,61.2684c-30.63617,3.20145 -58.06696,-19.0388 -61.2684,-49.67493z" fill="#b04646" stroke="none" stroke-width="0"/><path d="M264.54614,185.96458c2.68937,-1.45303 4.98054,-3.47759 8.76172,-3.62739c11.11064,-0.44015 22.37915,0.82438 33.6833,0.54556c11.33248,-0.27952 22.64196,-2.13941 34.02716,-1.63666c6.67208,0.29462 12.87139,2.54874 19.4305,3.51551c5.22172,0.76964 10.06203,-0.96114 15.21242,-1.08216c-0.44953,6.92581 -2.18251,13.55856 -4.98358,19.63263c-11.0596,-0.22504 -22.13919,-0.76766 -33.13548,-0.42388c-1.64894,0.05155 -3.27635,1.08114 -4.90304,1.09111c-2.05503,0.0126 -11.29119,0.93426 -12.71244,0.42207c-4.54066,-1.63637 -8.61651,-1.2725 -13.28047,-2.23065c-2.77587,-0.57027 -5.55005,-1.80308 -8.38394,-2.01029c-3.05867,-0.22365 -6.18937,1.4759 -9.19554,0.89574c-5.91532,-1.14159 -12.14656,-5.12327 -18.24774,-5.29794c-0.21706,-0.00621 -0.42286,0.0163 -0.61893,0.06364c-1.26114,0.12821 -2.38369,0.72512 -3.19072,1.61376c-1.19909,-3.65631 -2.03556,-7.49248 -2.46323,-11.47105z" fill="#813333" stroke="none" stroke-width="0"/><path d="M325.79675,235.47169c-23.16116,2.42032 -44.49028,-9.70047 -54.90308,-28.99699c3.33966,1.05137 16.44875,4.96525 19.8055,4.73824c2.03927,-0.13791 4.87939,-1.47011 6.86285,-1.05249c7.50723,1.58064 15.24451,3.56807 22.79521,4.36443c5.72464,0.60377 12.30527,-1.61406 17.99635,-1.63667c7.20092,-0.0286 14.38574,0.1247 21.60676,0.27278c0.83522,0.01713 2.47773,0.23208 4.53535,0.46739c-8.99185,11.89245 -22.70063,20.17152 -38.69894,21.84332z" fill="#813333" stroke="none" stroke-width="0"/><path d="M269.54116,156.21925c1.68084,0.82314 3.71427,1.52056 4.39015,1.8585c5.97961,2.9898 11.32171,5.08439 18.05712,4.89229c4.74752,-0.1354 9.67681,-1.02618 14.45714,-0.81833c3.96133,0.17224 9.10193,1.15982 13.09332,0.27278c7.67994,-1.70675 16.07502,-3.31635 23.57777,-5.7739c3.93676,-1.2895 7.391,-3.55347 11.299,-4.85088c1.04823,-0.348 7.30417,-1.36776 12.09834,-2.59629c4.81119,7.25339 7.99038,15.74339 8.95767,24.99987c0.00007,0.00073 0.00016,0.00146 0.00023,0.0022c-4.47052,0.39979 -8.84065,1.55643 -13.50125,0.66367c-6.80374,-1.30328 -13.38697,-3.355 -20.33682,-3.62306c-11.83785,-0.45659 -23.4881,1.33628 -35.25822,1.63666c-7.81754,0.1995 -15.73494,-0.6134 -23.44228,-0.54556c-3.95596,0.03482 -12.12068,-0.1496 -18.40106,1.71977c0.66703,-6.2845 2.39189,-12.29853 5.00889,-17.83772z" fill="#813333" stroke="none" stroke-width="0"/><path d="M288.76637,133.7789c0.02686,0.06165 0.05494,0.12266 0.08418,0.18298c-0.10826,1.5698 3.40022,2.90699 4.4981,3.29909c0.7817,0.27918 2.83258,-0.02326 3.20785,0.5601c0.50452,0.78428 0.65465,1.85298 1.38801,2.42903c1.22812,0.96468 6.00033,1.10592 7.64587,1.49438c3.73489,0.88169 7.52954,1.17567 11.27459,0.23941c2.19448,-0.54862 3.71687,-4.13695 6.41809,-3.45926c0.84339,0.21159 1.25256,1.43186 2.52304,1.56329c6.32981,0.6548 13.65361,-2.44558 19.15489,-5.19622c0.77127,-0.38564 2.57601,-1.25344 4.52562,-2.2365c3.51693,2.19376 6.78125,4.77217 9.72886,7.68329c-0.77567,0.18292 -1.43525,0.33114 -1.92212,0.40683c-6.26002,0.9732 -11.24126,4.62536 -17.23327,6.37148c-6.91208,2.01423 -14.48774,3.89849 -21.41987,5.30769c-2.71145,0.5512 -8.98854,-0.30394 -11.9285,-0.30394c-6.21515,0 -12.31191,0.88048 -18.5491,0.84949c-4.60838,-0.0229 -8.78654,-4.12103 -13.22134,-5.84049c3.78794,-5.18908 8.46102,-9.71912 13.8251,-13.35065z" fill="#813333" stroke="none" stroke-width="0"/><path d="M314.20328,124.52836c8.31895,-0.86932 16.40156,0.13728 23.82688,2.67851c-0.36429,0.18098 -0.73122,0.35637 -1.10302,0.52143c-1.60996,0.71473 -4.15524,1.7951 -5.96423,1.65215c-1.52177,-0.12026 -3.45907,-1.08357 -5.15015,-1.2331c-5.42492,-0.4797 -11.32745,2.44696 -16.25295,3.81348c-1.02981,0.28571 -6.99014,-2.31053 -10.64765,-3.60987c4.77558,-1.94728 9.90353,-3.25959 15.29111,-3.82259z" fill="#813333" stroke="none" stroke-width="0"/><path d="M264.75318,187.65272c1.45744,-0.02624 3.26829,-0.7466 4.69379,-0.8359c6.32817,-0.39642 12.59071,-1.02566 18.923,-1.09027c4.62835,-0.04723 9.02565,1.11485 13.61766,1.38405c6.63026,0.38869 13.79713,0.17467 20.41915,-0.20936c14.33474,-0.83131 28.89294,-2.411 43.29076,-0.77712c3.59441,0.40789 6.59002,0.98951 9.63411,0.98352c-0.82934,6.5003 -2.79175,12.69436 -5.70086,18.35229c-0.35062,-0.1527 -0.64754,-0.25078 -0.84963,-0.27943c-4.58609,-0.65029 -13.43499,1.50215 -19.54023,0.79981c-3.61116,-0.41542 -14.32448,-0.63452 -18.0772,-0.50803c-4.33319,0.14605 -9.84573,2.47825 -14.35397,2.08004c-9.53162,-0.84192 -18.59111,-4.00724 -28.19364,-4.0776c-4.32904,-0.03172 -13.94457,-2.916 -18.31883,-1.21926c-0.20386,0.07907 -0.38793,0.18163 -0.55541,0.30386c-0.20783,0.11481 -0.40619,0.24383 -0.59389,0.38562c-2.14412,-4.75394 -3.64897,-9.8837 -4.39483,-15.29222z" fill="#a24141" stroke="none" stroke-width="0"/><path d="M325.79675,235.47169c-20.71383,2.16458 -39.96234,-7.30133 -51.24734,-23.12913c0.23611,0.0245 0.39852,0.04051 0.45633,0.04932c6.18957,0.94314 12.04998,0.97734 18.34605,1.14509c6.47494,0.17253 12.39123,4.0974 18.63472,4.17072c6.85036,0.08044 13.50482,-1.3018 20.30645,-1.97189c7.15882,-0.70528 15.20463,0.32896 22.44261,0.46186c1.98299,0.03641 4.74733,0.23575 7.5606,0.15839c-8.95482,10.42169 -21.75472,17.57484 -36.4994,19.11564z" fill="#a24141" stroke="none" stroke-width="0"/><path d="M267.84281,160.20912c0.01893,0.00608 0.03691,0.01188 0.05393,0.0174c7.96016,2.58593 15.37622,4.24139 23.65458,5.23444c27.38151,3.28459 50.83998,-6.5112 76.76506,-13.34972c3.80244,6.57904 6.31449,14.04599 7.15529,22.09205c0.11543,1.10467 0.1978,2.20518 0.24788,3.30053c-0.08987,0.00566 -0.1801,0.00914 -0.27073,0.01023c-5.40413,0.0654 -10.27082,-1.81635 -15.84079,-1.30185c-5.51319,0.50926 -11.57341,-0.92692 -17.19027,-0.56938c-1.12106,0.07136 -2.45751,-0.95739 -3.81067,-0.81599c-2.9974,0.31322 -5.88709,1.56107 -8.98009,1.85689c-14.52666,1.38933 -29.33019,-0.03066 -43.75873,-0.99539c-2.74523,-0.18356 -15.73933,0.13141 -21.58294,1.58075c0.28415,-5.94775 1.51493,-11.68985 3.55747,-17.05997z" fill="#a24141" stroke="none" stroke-width="0"/><path d="M288.83858,133.73009c0.23715,0.02233 0.47638,0.03625 0.71736,0.04151c3.96616,0.84319 8.68321,1.4842 12.68149,1.9252c14.15349,1.5611 29.69823,-0.4652 43.30047,-5.28741c6.22836,3.21479 11.80462,7.57774 16.42134,12.8396c-10.37954,2.90648 -20.68701,6.32556 -30.95462,9.11197c-14.4029,3.90865 -29.62035,4.85533 -44.45758,2.64309c-4.89109,-0.72926 -9.57869,-2.32407 -14.27479,-3.8677c4.1812,-6.90218 9.83098,-12.86174 16.56633,-17.40626z" fill="#a24141" stroke="none" stroke-width="0"/><path d="M265.60234,192.33731c0.5324,0.08098 0.97305,0.14359 1.27053,0.19175c9.97148,1.61433 20.29864,1.12953 30.39536,0.7553c14.06297,-0.52123 24.57401,-1.5645 39.16644,-1.99108c13.4504,-0.3932 25.99543,-0.38813 38.53665,-1.78242c-0.36461,2.11398 -0.84953,4.19166 -1.44812,6.22485c-1.18807,0.40657 -2.38092,0.79962 -3.57956,1.17633c-21.19421,6.66101 -43.60445,6.86217 -65.50337,4.50936c-8.14016,-0.87457 -16.86115,-0.63946 -24.82315,-2.22884c-2.88378,-0.57566 -6.7169,-2.29845 -10.20016,-3.08864c-0.69372,-0.19528 -1.41551,-0.31696 -2.15539,-0.35695c-0.26759,-0.02462 -0.53102,-0.04008 -0.78956,-0.04524c-0.32315,-1.10635 -0.61345,-2.22815 -0.86966,-3.36442z" fill="#8b3838" stroke="none" stroke-width="0"/><path d="M325.79675,235.47169c-17.48753,1.82743 -33.93066,-4.63475 -45.41921,-16.21625c4.95529,0.51514 9.95626,0.76373 15.07482,1.29531c19.0019,1.97343 38.70536,3.99554 57.67177,0.66403c1.89558,-0.33297 3.76832,-0.69828 5.62209,-1.09354c-8.64875,8.36377 -20.0555,14.00304 -32.94947,15.35045z" fill="#8b3838" stroke="none" stroke-width="0"/><path d="M266.04676,165.80711c1.1259,1.09603 2.5043,1.92372 4.02638,2.39482c0.30723,0.09509 0.62032,0.17565 0.93838,0.24096c2.97409,0.70896 6.44696,1.07065 7.01939,1.15381c11.06658,1.60766 22.59733,0.92649 33.79453,0.35053c20.60295,-1.05977 40.67471,-4.31836 60.44298,-9.44663c1.04285,2.80136 1.86984,5.71677 2.45896,8.72841c-12.56308,1.79976 -24.1527,2.41258 -37.9543,2.17771c-15.47069,-0.26327 -30.65749,1.99815 -46.10975,2.0066c-5.33391,0.00292 -10.66944,0.09271 -16.00165,-0.04183c-3.15641,-0.07964 -6.55876,-1.33461 -9.84271,-1.57274c0.30039,-2.03108 0.71158,-4.03066 1.22779,-5.99162z" fill="#8b3838" stroke="none" stroke-width="0"/><path d="M278.14589,143.13579c7.49626,1.0914 14.48795,0.88037 22.38493,0.215c16.64689,-1.4026 32.82098,-4.65285 49.34577,-6.93751c1.40652,-0.19447 2.82691,-0.36626 4.25831,-0.52139c2.6458,2.04815 5.10742,4.33215 7.35106,6.82456c-8.96999,2.24579 -18.03793,4.14059 -27.14854,5.38173c-15.44937,2.10466 -31.3856,2.66894 -46.96091,2.33098c-4.2812,-0.09289 -9.01828,-1.82576 -13.42789,-1.89502c1.28823,-1.8834 2.69022,-3.68642 4.19728,-5.39834z" fill="#8b3838" stroke="none" stroke-width="0"/><path d="M298.56505,229.88843c3.65751,-1.29934 9.61784,-3.89558 10.64765,-3.60987c4.9255,1.36652 10.82803,4.29318 16.25295,3.81348c1.69108,-0.14953 3.62838,-1.11284 5.15015,-1.2331c1.80899,-0.14296 4.35427,0.93741 5.96423,1.65214c0.3718,0.16506 0.73873,0.34045 1.10302,0.52143c-7.42532,2.54123 -15.50793,3.54782 -23.82688,2.67851c-5.38759,-0.563 -10.51553,-1.87531 -15.29111,-3.82259z" fill="#702d2d" stroke="none" stroke-width="0"/><path d="M264.52835,185.79676c-3.20145,-30.63615 19.03878,-58.06695 49.67493,-61.2684c30.63617,-3.20145 58.06696,19.0388 61.2684,49.67493c3.20145,30.63615 -19.03876,58.06695 -49.67493,61.2684c-30.63617,3.20145 -58.06696,-19.0388 -61.2684,-49.67493z" fill="none" stroke="#732d2d" stroke-width="3.5"/><path d="M160.25722,180.00004c0,-88.2235 71.51931,-159.74281 159.74281,-159.74281c88.22356,0 159.74281,71.51935 159.74281,159.74281c0,88.2235 -71.51925,159.74281 -159.74281,159.74281c-88.22356,0 -159.74281,-71.51937 -159.74281,-159.74281z" fill="none" stroke="none" stroke-width="0"/><path d="M290.52821,189.49727c0.49029,2.45145 -1.96116,2.94174 -1.96116,2.94174l-2.84361,0.35895c-1.0774,-0.26576 -2.26404,-0.25496 -3.23218,-0.79729c-1.57493,-0.88225 -4.45835,-5.32922 -6.78701,-5.01421c-0.70986,0.09602 -1.13932,0.8686 -1.70898,1.3029c0,0 -2.14373,1.28624 -3.42997,-0.8575c-1.28624,-2.14373 0.85749,-3.42997 0.85749,-3.42997c1.25983,-0.6634 2.35983,-1.88155 3.77949,-1.99018c2.00356,-0.1533 3.53678,0.58007 4.91056,1.58046c0.62482,-1.50665 2.43116,-1.4063 2.43116,-1.4063c3.0786,0.17529 7.2754,0.60365 10.04084,-1.25693c0.78686,-0.5294 1.37973,-1.30117 2.079,-1.94343c-0.69535,0.28635 -1.28907,0.50605 -1.92941,0.88024c-0.10868,0.35433 -0.3239,0.72495 -0.69453,1.09558c-1.76778,1.76775 -3.53553,-0.00003 -3.53553,-0.00003l-0.18122,-4.06855c1.87083,-1.48487 3.77666,-3.49153 6.56823,-3.12598c5.11946,0.67039 7.0795,2.70257 4.46918,7.45703c-2.86586,5.21989 -9.0487,6.10115 -14.46834,6.04483c0.58421,0.30569 1.20354,0.533 1.87887,0.64031l0.81538,-0.37284c0,0 2.45145,-0.49029 2.94174,1.96116z" fill="#813333" stroke="none" stroke-width="0.5"/><path d="M368.25358,172.88564c2.46598,0.411 2.05499,2.87698 2.05499,2.87698l-0.44775,1.87194c-3.25914,5.95897 -6.97978,7.65693 -13.57103,8.079c0,0 -0.09085,0.00568 -0.23897,-0.00247c0.3637,1.31104 -0.7105,2.38524 -0.7105,2.38524l-1.05326,0.74854c-1.05491,0.35964 -2.05066,1.04679 -3.16472,1.07892c-3.56826,0.10289 -5.78512,-2.35312 -8.48585,-3.98558c-3.05734,-1.84802 -7.41477,-1.33997 -10.54287,-0.18248c0,0 -2.3421,0.83647 -3.1886,-1.49516c-1.10648,0.43725 -2.22235,0.86506 -3.34843,1.29407c0,0 -2.33622,0.88998 -3.22621,-1.44624c-0.88999,-2.33622 1.44624,-3.2262 1.44624,-3.2262c1.16832,-0.44504 2.33234,-0.8867 3.48923,-1.33931c-0.66813,-0.20668 -1.38778,-0.72205 -1.59029,-1.95735c-0.40444,-2.46707 2.06264,-2.87151 2.06264,-2.87151l1.29162,-0.21174c1.64826,-0.27021 3.31516,-0.41634 4.98868,-0.47613l-0.05455,-0.33274l4.88809,-0.80133c0.14613,-0.02659 0.29669,-0.04048 0.45049,-0.04048c1.38071,0 2.5,1.11929 2.5,2.5c0,0.69036 -0.27983,1.31536 -0.73224,1.76777l-2.67458,2.67457c2.3382,0.09732 4.64428,0.64652 6.72032,1.80238c2.57795,1.4353 3.98769,3.85612 6.90638,2.7796c0.31041,-0.23755 0.92539,-0.61769 1.66487,-0.60023c-0.02319,-0.12551 -0.03968,-0.25912 -0.04857,-0.40133c-0.15594,-2.49513 2.33919,-2.65107 2.33919,-2.65107c4.88127,-0.29675 7.11302,-0.97392 9.48055,-5.45923l-0.08185,-0.32345c0,0 0.411,-2.46599 2.87698,-2.05499zM338.2398,179.77739l-0.00623,0.01055c0.00579,0.00019 0.01157,0.00038 0.01736,0.00057z" fill="#813333" stroke="none" stroke-width="0.5"/><path d="M329.11949,189.26228c0.54233,2.44047 -1.89814,2.98279 -1.89814,2.98279l-1.89676,0.40831c-3.41753,0.34053 -4.03884,0.92561 -7.21146,-0.86547c-2.538,-1.43281 -4.02478,-5.01432 -6.72395,-6.03075c-2.73143,-1.02858 -7.34275,1.25292 -9.81113,2.18044c0,0 -2.34082,0.87781 -3.21864,-1.46301c-0.87781,-2.34082 1.46301,-3.21864 1.46301,-3.21864c3.8379,-1.43647 9.08501,-3.71312 13.24047,-2.21034c3.41658,1.23557 5.46048,6.79982 9.14124,7.00672c0.85276,0.04793 1.69082,-0.24314 2.53623,-0.36471l1.39632,-0.32349c0,0 2.44047,-0.54233 2.9828,1.89814z" fill="#813333" stroke="none" stroke-width="0.5"/><path d="M307.30296,155.42466c0.71731,2.39488 -1.67758,3.11219 -1.67758,3.11219l-2.46458,0.66179c-9.98827,0.48428 -19.97654,0.96856 -29.9648,1.45284c0,0 -2.49707,0.12107 -2.61814,-2.376c-0.12107,-2.49706 2.376,-2.61814 2.376,-2.61814c9.98827,-0.48428 19.97654,-0.96856 29.9648,-1.45284l1.27211,-0.45741c0,0 2.39489,-0.71731 3.11219,1.67757z" fill="#813333" stroke="none" stroke-width="0.5"/><path d="M325.70401,165.37423c1.56174,1.95217 -0.39043,3.51391 -0.39043,3.51391l-3.85194,1.9686c-1.46341,-0.46982 -3.29953,-0.32655 -4.39025,-1.40944c-0.71663,-0.71149 0.32229,-2.10209 -0.07974,-3.02846c-0.15641,-0.3604 -0.77599,0.15352 -1.16885,0.15141c-1.56462,-0.00841 -3.12704,-0.11872 -4.69037,-0.18292c-3.33053,-0.13678 -6.6605,-0.28647 -9.99076,-0.42971c0,0 -2.4977,-0.10743 -2.39026,-2.60512c0.10743,-2.49769 2.60512,-2.39026 2.60512,-2.39026c4.80991,0.20688 10.59059,-0.31521 15.29115,0.67652c1.53442,0.32373 3.28584,0.6385 4.351,1.78946c0.64006,0.69162 -0.53428,2.00044 -0.07974,2.82591c0.24069,0.43711 0.9761,-0.20783 1.46415,-0.31174l-0.19298,-0.95858c0,0 1.95217,-1.56174 3.51391,0.39043z" fill="#813333" stroke="none" stroke-width="0.5"/><path d="M329.97875,149.43162c-0.79057,-2.37171 1.58114,-3.16227 1.58114,-3.16227l2.31685,-0.76889c1.94301,-0.53936 6.94103,-1.98507 8.505,-2.09448c1.57032,-0.10986 3.40884,-0.42676 4.69842,0.47598c9.03708,6.32615 -1.88697,9.61025 -6.20129,11.88613c-2.26063,1.19252 -3.47429,1.54452 -1.6688,3.22982c0,0 1.3519,2.10295 -0.75105,3.45484c-2.10295,1.35189 -3.45484,-0.75105 -3.45484,-0.75105c-0.68108,-1.31865 -2.10262,-2.47299 -2.04323,-3.95595c0.17136,-4.2791 5.74869,-6.50928 8.87743,-7.76219c1.18109,-0.47297 2.87117,-0.28704 3.57003,-1.35018c0.1456,-0.22151 -0.4473,-0.33085 -0.7112,-0.3558c-0.62752,-0.05933 -1.26767,-0.00316 -1.88774,0.11007c-1.46736,0.26794 -2.9091,0.66238 -4.35475,1.02984c-1.08632,0.27613 -2.15983,0.60038 -3.23976,0.90057l-2.07393,0.69471c0,0 -2.37171,0.79057 -3.16228,-1.58114z" fill="#813333" stroke="none" stroke-width="0.5"/><path d="M366.98644,163.35011c-2.45146,-0.49026 -1.9612,-2.94172 -1.9612,-2.94172l0.33653,0.5603c-0.84418,-3.20845 -3.10774,-1.17814 -6.08749,-2.84481c-1.0854,-0.60709 -1.73666,-1.78063 -2.60498,-2.67094c0,0 -1.68931,-1.84288 0.15357,-3.5322c1.84289,-1.68931 3.5322,0.15357 3.5322,0.15357c0.4733,0.57328 0.76561,1.3669 1.4199,1.71984c1.952,1.05297 4.73618,0.2975 6.42272,1.73786c0.98554,0.84169 1.1732,2.31139 1.75981,3.46708l-0.02934,2.38981c0,0 -0.49026,2.45146 -2.94172,1.9612z" fill="#813333" stroke="none" stroke-width="0.5"/><path d="M304.21696,202.59071c1.11804,2.23607 -1.11803,3.3541 -1.11803,3.3541l-0.66458,0.33101c-3.17553,1.70412 -6.50869,3.30399 -10.10088,3.92316c-2.37349,0.40911 -3.81367,0.26867 -6.08047,-0.15459c-0.62097,-0.11595 -1.2871,-0.77645 -1.83704,-0.4656c-0.43723,0.24714 -0.00321,1.00446 -0.00482,1.5067c0,0 -0.79057,2.37171 -3.16228,1.58114c-2.37171,-0.79057 -1.58113,-3.16227 -1.58113,-3.16227c0.60823,-1.32726 0.59545,-3.19402 1.82467,-3.98178c2.44737,-1.56842 5.13133,-0.21049 7.59842,-0.10402c3.89029,0.16789 7.65483,-1.75163 10.97302,-3.54508l0.79901,-0.40079c0,0 2.23606,-1.11803 3.3541,1.11804z" fill="#813333" stroke="none" stroke-width="0.5"/><path d="M325.75765,220.41589c-0.79057,2.37171 -3.16228,1.58113 -3.16228,1.58113l-1.60881,-0.5366c-1.05394,-0.33307 -5.29863,-1.72777 -6.51999,-1.91705c-1.95682,-0.30326 -3.98361,0.48862 -5.9381,0.17066c-2.2099,-0.35951 -4.5071,-1.95562 -6.37024,-3.06757c0,0 -2.14373,-1.28624 -0.85749,-3.42997c1.28624,-2.14373 3.42997,-0.8575 3.42997,-0.8575c0.70495,0.42553 3.49248,2.27057 4.60672,2.42091c1.90738,0.25735 3.86698,-0.47853 5.77067,-0.19521c1.74823,0.26019 5.66017,1.56378 7.38412,2.10781l1.68428,0.56109c0,0 2.37171,0.79057 1.58114,3.16228z" fill="#813333" stroke="none" stroke-width="0.5"/><path d="M359.52666,205.20782c0.33041,2.47807 -2.14766,2.80848 -2.14766,2.80848l-2.31982,0.27115c-6.57531,3.50216 -13.78722,6.72257 -21.03197,8.46436c0,0 -2.43201,0.57906 -3.01107,-1.85295c-0.57906,-2.43202 1.85296,-3.01108 1.85296,-3.01108c7.14337,-1.68235 14.15893,-5.02449 20.68043,-8.36698l3.16866,-0.46064c0,0 2.47807,-0.33041 2.80848,2.14766z" fill="#813333" stroke="none" stroke-width="0.5"/><path d="M318.50259,137.09606c0.56804,2.43461 -1.86658,3.00265 -1.86658,3.00265l-0.66246,0.15456c-11.36309,2.65121 -22.73438,5.26739 -34.10265,7.8963c0,0 -2.43572,0.56326 -2.99898,-1.87246c-0.56326,-2.43572 1.87246,-2.99898 1.87246,-2.99898c11.36508,-2.62817 22.73319,-5.24362 34.0931,-7.89409l0.66246,-0.15456c0,0 2.43461,-0.56804 3.00265,1.86657z" fill="#8b3838" stroke="none" stroke-width="0.5"/><path d="M330.22817,152.6074c-0.49031,2.45145 -2.94176,1.96114 -2.94176,1.96114l-1.54246,-0.39834c-2.06223,-1.03139 -4.64907,-2.74568 -6.99094,-3.06556c-2.89762,-0.39579 -5.84841,-0.08856 -8.77235,-0.14704c0,0 -2.4995,-0.04999 -2.44951,-2.54949c0.04999,-2.4995 2.54949,-2.44951 2.54949,-2.44951c3.1744,0.06349 6.38318,-0.25544 9.52259,0.21886c2.8913,0.43681 5.80253,2.23382 8.37678,3.5206l0.28701,-0.03242c0,0 2.45145,0.49031 1.96114,2.94176z" fill="#8b3838" stroke="none" stroke-width="0.5"/><path d="M332.97085,133.77879c0.22634,-2.48973 2.71607,-2.2634 2.71607,-2.2634l1.608,0.17903c3.98165,-0.27572 8.89513,-1.00407 9.80974,4.742c0.2219,1.39408 -1.22071,2.54571 -1.83106,3.81857c0,0 -1.31024,2.12914 -3.43939,0.81891c-2.12914,-1.31024 -0.8189,-3.43939 -0.8189,-3.43939c2.6522,-2.26988 -2.12342,-1.04451 -3.36417,-0.95279l-2.41689,-0.18686c0,0 -2.48974,-0.22633 -2.2634,-2.71607z" fill="#8b3838" stroke="none" stroke-width="0.5"/><path d="M330.82557,201.51335c0,2.5 -2.5,2.5 -2.5,2.5l-1.68268,-0.00431c-3.40751,0.19494 -6.75966,0.61361 -9.71049,-1.60389c-2.49244,-1.87303 -3.61844,-5.50129 -6.80276,-6.57838c-0.37254,-0.12601 -4.53956,-0.39624 -4.85082,-0.41836c0,0 -2.49365,-0.1781 -2.31554,-2.67175c0.17811,-2.49365 2.67175,-2.31554 2.67175,-2.31554c3.68527,0.26445 6.56463,0.27568 9.6247,2.74358c1.83062,1.47637 2.92059,3.72434 4.70049,5.26148c1.56582,1.35226 4.64661,0.69713 6.38904,0.5915l1.9763,-0.00431c0,0 2.5,0 2.5,2.5z" fill="#8b3838" stroke="none" stroke-width="0.5"/><path d="M347.19122,194.18488c-1.45309,2.03433 -3.48742,0.58124 -3.48742,0.58124l0.17246,-0.44907c-2.7341,-0.12521 -3.00886,0.07089 -4.20205,2.52718c0,0 -1.18524,2.20118 -3.38642,1.01593c-2.20118,-1.18525 -1.01594,-3.38643 -1.01594,-3.38643c2.2755,-3.9787 4.02319,-5.03029 8.60441,-5.15668l2.73372,1.3804c0,0 2.03433,1.45309 0.58124,3.48743z" fill="#8b3838" stroke="none" stroke-width="0.5"/><path d="M365.91148,195.02881c0.44722,2.45968 -2.01246,2.90689 -2.01246,2.90689l-3.03224,0.33977c-2.13227,-0.50235 -4.25131,-1.06415 -6.35312,-1.68168c0,0 -2.39841,-0.70542 -1.69299,-3.10384c0.70542,-2.39841 3.10384,-1.69299 3.10384,-1.69299c2.01357,0.59288 4.04406,1.13128 6.08745,1.61141l0.99263,-0.39202c0,0 2.45967,-0.44722 2.90689,2.01245z" fill="#8b3838" stroke="none" stroke-width="0.5"/><path d="M271.57065,199.7042c-1.11803,-2.23607 1.11804,-3.3541 1.11804,-3.3541l2.79158,-1.17381c3.25813,-0.19141 6.15784,0.19958 9.39652,0.55927c0,0 2.48471,0.27607 2.20864,2.76078c-0.27607,2.48471 -2.76078,2.20864 -2.76078,2.20864c-2.95195,-0.32812 -5.57294,-0.73651 -8.53249,-0.53842l-0.86741,0.65568c0,0 -2.23607,1.11804 -3.3541,-1.11803z" fill="#8b3838" stroke="none" stroke-width="0.5"/><path d="M292.07278,170.53456c-0.85436,2.34948 -3.20384,1.49513 -3.20384,1.49513l-1.46817,-0.60059c-4.6504,-0.62124 -8.65526,1.12259 -13.23298,1.47655c0,0 -2.49365,0.17812 -2.67176,-2.31553c-0.17812,-2.49364 2.31552,-2.67176 2.31552,-2.67176c4.94479,-0.31671 9.12412,-2.05152 14.20938,-1.45065l2.55671,0.86301c0,0 2.34949,0.85436 1.49513,3.20384z" fill="#8b3838" stroke="none" stroke-width="0.5"/><path d="M318.66567,176.43688c-2,1.5 -3.5,-0.5 -3.5,-0.5l0.52268,0.0894c-3.14062,-1.28274 -5.5743,-1.53474 -8.59048,-3.2876c0,0 -2.14374,-1.28624 -0.8575,-3.42997c1.28624,-2.14373 3.42997,-0.8575 3.42997,-0.8575c2.6001,1.62885 4.99835,1.8016 7.87495,2.93268l1.62037,1.55298c0,0 1.5,2 -0.5,3.5z" fill="#8b3838" stroke="none" stroke-width="0.5"/><path d="M347.28246,160.16503c0.83825,-0.65648 1.6606,-1.36995 2.67462,-1.3966c2.72442,-0.07162 6.7935,3.5605 6.62842,6.39423c-0.07858,1.34891 -2.01599,1.8092 -2.90731,2.82471c-0.53307,0.60735 -0.89551,1.34544 -1.34325,2.01816c0,0 -1.42303,2.05548 -3.47851,0.63245c-2.05548,-1.42302 -0.63245,-3.4785 -0.63245,-3.4785c0.70484,-0.98994 1.56049,-2.28991 2.66146,-2.70691c-0.01503,-0.00346 -0.02888,-0.0076 -0.04135,-0.01249c-0.27303,-0.10716 -0.31502,-0.7238 -0.57857,-0.68617c-0.2031,0.34845 -0.41366,0.55901 -0.41366,0.55901l-0.14586,-0.14178c-0.1959,0.25313 -0.35492,0.56424 -0.56479,0.79542l-2.63174,-3.90263l-0.21431,-0.20833c0.01774,-0.01011 0.03544,-0.02036 0.0531,-0.03074l-0.03197,-0.04742c0,0 0.38102,-0.38104 0.96618,-0.61241z" fill="#8b3838" stroke="none" stroke-width="0.5"/><path d="M295.86298,217.55706c-0.00933,0.07463 -0.02062,0.14674 -0.03375,0.2164c0.79262,0.82236 1.63251,1.60134 2.4924,2.34875c0,0 1.88144,1.64626 0.23518,3.5277c-1.64626,1.88144 -3.5277,0.23518 -3.5277,0.23518c-1.83846,-1.61812 -3.59153,-3.3611 -5.09198,-5.29679l3.75524,-3.82202c0,0 2.4807,0.31009 2.17061,2.79078z" fill="#8b3838" stroke="none" stroke-width="0.5"/><path d="M349.40541,218.50729c1.11802,2.23607 -1.11804,3.3541 -1.11804,3.3541l-2.27155,0.97642c-3.19428,0.1629 -3.11337,1.3422 -4.45126,4.25522c0,0 -1.06449,2.26205 -3.32654,1.19755c-2.26205,-1.06449 -1.19756,-3.32654 -1.19756,-3.32654c1.17088,-2.44066 1.96555,-5.03356 4.59119,-6.46243c1.11714,-0.60795 2.50932,-0.41679 3.76399,-0.62519l0.65566,-0.48718c0,0 2.23608,-1.11803 3.3541,1.11804z" fill="#8b3838" stroke="none" stroke-width="0.5"/></g></g></svg>