<svg version="1.1" xmlns="http://www.w3.org/2000/svg" xmlns:xlink="http://www.w3.org/1999/xlink" width="480" height="480" viewBox="0,0,480,480"><defs><radialGradient cx="240" cy="180" r="147.7082" gradientUnits="userSpaceOnUse" id="color-1"><stop offset="0" stop-color="#ff0000"/><stop offset="1" stop-color="#ff0000" stop-opacity="0"/></radialGradient><radialGradient cx="240" cy="180" r="240" gradientUnits="userSpaceOnUse" id="color-2"><stop offset="0" stop-color="#ff0000"/><stop offset="1" stop-color="#ff0000" stop-opacity="0"/></radialGradient><radialGradient cx="240" cy="180" r="72.14579" gradientUnits="userSpaceOnUse" id="color-3"><stop offset="0" stop-color="#ff0000"/><stop offset="1" stop-color="#ff0000" stop-opacity="0"/></radialGradient></defs><g transform="translate(0,60)"><g stroke="none" stroke-miterlimit="10"><path d="M92.2918,180c0,-81.57698 66.13122,-147.7082 147.7082,-147.7082c81.57698,0 147.7082,66.13122 147.7082,147.7082c0,81.57698 -66.13122,147.7082 -147.7082,147.7082c-81.57698,0 -147.7082,-66.13122 -147.7082,-147.7082z" fill="url(#color-1)" fill-rule="nonzero" stroke-width="0"/><path d="M0,180c0,-132.54833 107.45167,-240 240,-240c132.54833,0 240,107.45167 240,240c0,132.54833 -107.45167,240 -240,240c-132.54833,0 -240,-107.45167 -240,-240z" fill="url(#color-2)" fill-rule="nonzero" stroke-width="0"/><path d="M167.85422,180c0,-39.84501 32.30077,-72.14578 72.14578,-72.14578c39.84501,0 72.14579,32.30077 72.14579,72.14579c0,39.84501 -32.30077,72.14578 -72.14579,72.14578c-39.84501,0 -72.14578,-32.30077 -72.14578,-72.14578z" fill="url(#color-3)" fill-rule="nonzero" stroke-width="0"/><path d="M238.29412,285.86792c0,-27.82824 -10.40759,-52.15857 -31.20554,-72.9565c-20.79795,-20.79795 -45.11103,-31.20554 -72.9565,-31.20554v-3.41175c27.84547,0 52.15857,-10.40759 72.9565,-31.25723c20.79795,-20.84964 31.20554,-45.16273 31.20554,-72.90482h3.41175c0,27.82824 10.40759,52.15857 31.20554,72.9565c20.79795,20.79795 45.11103,31.20554 72.9565,31.20554v3.41175c-27.82824,0 -52.15857,10.40759 -72.9565,31.20554c-20.79795,20.79795 -31.20554,45.11103 -31.20554,72.9565z" fill="#ff0000" fill-rule="evenodd" stroke-width="1"/><path d="M238.8375,252.14578c0,-18.96411 -7.09246,-35.54447 -21.26562,-49.71765c-14.17318,-14.17318 -30.74179,-21.26562 -49.71765,-21.26562v-2.32502c18.97586,0 35.54447,-7.09246 49.71765,-21.30085c14.17318,-14.20839 21.26562,-30.77704 21.26562,-49.68243h2.32502c0,18.96409 7.09245,35.54448 21.26562,49.71765c14.17318,14.17318 30.74181,21.26562 49.71765,21.26562v2.32502c-18.96411,0 -35.54447,7.09246 -49.71765,21.26562c-14.17317,14.17318 -21.26562,30.74179 -21.26562,49.71765z" fill="#ffcaca" fill-rule="evenodd" stroke-width="1"/></g></g></svg>