<svg version="1.1" xmlns="http://www.w3.org/2000/svg" xmlns:xlink="http://www.w3.org/1999/xlink" width="314.59459" height="1080.56668" viewBox="0,0,314.59459,1080.56668"><defs><radialGradient cx="320" cy="180" r="98.73874" gradientUnits="userSpaceOnUse" id="color-1"><stop offset="0" stop-color="#c5deff" stop-opacity="0.24314"/><stop offset="1" stop-color="#c5deff" stop-opacity="0"/></radialGradient><radialGradient cx="320" cy="180" r="157.2973" gradientUnits="userSpaceOnUse" id="color-2"><stop offset="0" stop-color="#c5deff" stop-opacity="0.24314"/><stop offset="1" stop-color="#c5deff" stop-opacity="0"/></radialGradient><radialGradient cx="320" cy="180" r="59.6997" gradientUnits="userSpaceOnUse" id="color-3"><stop offset="0" stop-color="#c5deff" stop-opacity="0.24314"/><stop offset="1" stop-color="#c5deff" stop-opacity="0"/></radialGradient></defs><g transform="translate(-162.7027,360.28336)"><g stroke="none" stroke-miterlimit="10"><path d="M221.26127,180c0,-54.53189 44.20683,-98.73873 98.73874,-98.73873c54.53189,0 98.73874,44.20684 98.73874,98.73874c0,54.53189 -44.20684,98.73874 -98.73874,98.73874c-54.53189,0 -98.73873,-44.20684 -98.73873,-98.73874z" fill="url(#color-1)" fill-rule="nonzero" stroke-width="0"/><path d="M162.70271,180c0,-86.87288 70.42439,-157.29729 157.2973,-157.29729c86.87289,0 157.2973,70.4244 157.2973,157.2973c0,86.87289 -70.42439,157.2973 -157.2973,157.2973c-86.87288,0 -157.29729,-70.42439 -157.29729,-157.2973z" fill="url(#color-2)" fill-rule="nonzero" stroke-width="0"/><path d="M319.1323,720.28333c0,-142.01809 -5.29397,-266.1844 -15.8731,-372.32413c-10.57916,-106.13972 -22.94639,-159.25319 -37.11035,-159.25319v-17.4116c14.16396,0 26.53116,-53.11388 37.11035,-159.51732c10.57916,-106.40343 15.8731,-230.48212 15.8731,-372.06044h1.73545c0,142.01768 5.294,266.1844 15.8731,372.32415c10.57916,106.13972 22.94639,159.25319 37.11035,159.25319v17.4116c-14.15525,0 -26.53116,53.11388 -37.11035,159.25319c-10.57916,106.13972 -15.8731,230.21844 -15.8731,372.32413z" fill-opacity="0.24314" fill="#c5deff" fill-rule="evenodd" stroke-width="1"/><path d="M319.1323,312.34178c0,-34.78715 -5.29397,-65.20158 -15.8731,-91.20037c-10.57916,-25.99879 -22.94639,-39.00887 -37.11035,-39.00887v-4.26495c14.16396,0 26.53116,-13.0102 37.11035,-39.07359c10.57916,-26.06339 15.8731,-56.45631 15.8731,-91.13577h1.73545c0,34.78706 5.294,65.20158 15.8731,91.20037c10.57916,25.99879 22.94639,39.00887 37.11035,39.00887v4.26495c-14.15525,0 -26.53116,13.01017 -37.11035,39.00887c-10.57916,25.99879 -15.8731,56.39174 -15.8731,91.20037z" fill-opacity="0.24314" fill="#c5deff" fill-rule="evenodd" stroke-width="1"/><path d="M319.1323,461.69228c0,-74.04524 -5.29397,-138.78291 -15.8731,-194.12192c-10.57916,-55.33899 -22.94639,-83.03122 -37.11035,-83.03122v-9.07806c14.16396,0 26.53116,-27.69247 37.11035,-83.16895c10.57916,-55.47649 15.8731,-120.16847 15.8731,-193.98443h1.73545c0,74.04498 5.294,138.78291 15.8731,194.12192c10.57916,55.33899 22.94639,83.03122 37.11035,83.03122v9.07806c-14.15525,0 -26.53116,27.69244 -37.11035,83.03125c-10.57916,55.33899 -15.8731,120.031 -15.8731,194.1219z" fill-opacity="0.24314" fill="#c5deff" fill-rule="evenodd" stroke-width="1"/><path d="M318.05091,211.34669c0,-8.23974 -11.89151,-15.44377 -35.65482,-21.60187c-23.76331,-6.15812 -51.54294,-9.23973 -83.35866,-9.23973v-1.01019c31.81566,0 59.59535,-3.0816 83.35866,-9.25504c23.76331,-6.17341 35.65482,-13.37233 35.65482,-21.58658h3.89817c0,8.23974 11.89151,15.44377 35.65482,21.60187c23.76331,6.15812 51.54294,9.23973 83.35866,9.23973v1.01019c-31.79601,0 -59.59535,3.0816 -83.35866,9.23973c-23.76331,6.15812 -35.65482,13.35704 -35.65482,21.60187z" fill="#ff8b42" fill-rule="evenodd" stroke-width="1"/><path d="M319.12626,234.22734c0,-14.25411 -5.33094,-26.71651 -15.984,-37.36957c-10.65306,-10.65306 -23.10663,-15.984 -37.36957,-15.984v-1.74755c14.26291,0 26.71651,-5.33094 37.36957,-16.01048c10.65306,-10.67954 15.984,-23.13311 15.984,-37.34308h1.74755c0,14.25411 5.33094,26.71651 15.984,37.36957c10.65306,10.65306 23.10663,15.984 37.36957,15.984v1.74755c-14.25411,0 -26.71651,5.33094 -37.36957,15.984c-10.65306,10.65306 -15.984,23.10663 -15.984,37.36957z" fill="#ff8b42" fill-rule="evenodd" stroke-width="1"/><path d="M319.40459,216.95429c0,-9.71375 -3.63288,-18.20648 -10.8926,-25.46622c-7.25974,-7.25974 -15.74648,-10.8926 -25.46622,-10.8926v-1.19092c9.71974,0 18.20648,-3.63288 25.46622,-10.91066c7.25974,-7.27778 10.8926,-15.76451 10.8926,-25.44819h1.19092c0,9.71372 3.63288,18.20648 10.8926,25.46622c7.25974,7.25974 15.74648,10.8926 25.46622,10.8926v1.19092c-9.71375,0 -18.20648,3.63288 -25.46622,10.8926c-7.25974,7.25974 -10.8926,15.74648 -10.8926,25.46622z" fill="#ffffff" fill-rule="evenodd" stroke-width="1"/><path d="M260.3003,180c0,-32.97123 26.72846,-59.6997 59.6997,-59.6997c32.97123,0 59.6997,26.72846 59.6997,59.6997c0,32.97123 -26.72846,59.69969 -59.6997,59.69969c-32.97123,0 -59.6997,-26.72846 -59.6997,-59.69969z" fill="url(#color-3)" fill-rule="nonzero" stroke-width="0"/></g></g></svg>