<svg version="1.1" xmlns="http://www.w3.org/2000/svg" xmlns:xlink="http://www.w3.org/1999/xlink" width="122.88" height="122.88" viewBox="0,0,122.88,122.88"><defs><radialGradient cx="240" cy="180" r="41.0801" gradientUnits="userSpaceOnUse" id="color-1"><stop offset="0" stop-color="#ffd9d9"/><stop offset="1" stop-color="#ffd9d9" stop-opacity="0"/></radialGradient><radialGradient cx="240" cy="180" r="61.44" gradientUnits="userSpaceOnUse" id="color-2"><stop offset="0" stop-color="#ffd9d9"/><stop offset="1" stop-color="#ffd9d9" stop-opacity="0"/></radialGradient></defs><g transform="translate(-178.56,-118.56)"><g stroke="none" stroke-miterlimit="10"><path d="M198.9199,180c0,-22.68791 18.39219,-41.0801 41.0801,-41.0801c22.68791,0 41.0801,18.39219 41.0801,41.0801c0,22.68791 -18.39219,41.0801 -41.0801,41.0801c-22.68791,0 -41.0801,-18.39219 -41.0801,-41.0801z" fill="url(#color-1)" fill-rule="nonzero" stroke-width="0"/><path d="M178.56,180c0,-33.93237 27.50763,-61.44 61.44,-61.44c33.93237,0 61.44,27.50763 61.44,61.44c0,33.93237 -27.50763,61.44 -61.44,61.44c-33.93237,0 -61.44,-27.50763 -61.44,-61.44z" fill="url(#color-2)" fill-rule="nonzero" stroke-width="0"/><path d="M239.01,241.44c0,-16.15 -6.04,-30.27 -18.11,-42.34c-12.07,-12.07 -26.18,-18.11 -42.34,-18.11v-1.98c16.16,0 30.27,-6.04 42.34,-18.14c12.07,-12.1 18.11,-26.21 18.11,-42.31h1.98c0,16.15 6.04,30.27 18.11,42.34c12.07,12.07 26.18,18.11 42.34,18.11v1.98c-16.15,0 -30.27,6.04 -42.34,18.11c-12.07,12.07 -18.11,26.18 -18.11,42.34z" fill="#ffa2a2" fill-rule="evenodd" stroke-width="1"/><path d="M239.57222,206.54859c0,-6.97852 -2.60992,-13.07985 -7.82544,-18.29537c-5.21552,-5.21552 -11.31253,-7.82544 -18.29537,-7.82544v-0.85557c6.98284,0 13.07985,-2.60992 18.29537,-7.8384c5.21552,-5.22848 7.82544,-11.3255 7.82544,-18.28241h0.85557c0,6.97851 2.60991,13.07985 7.82544,18.29537c5.21552,5.21552 11.31254,7.82544 18.29537,7.82544v0.85557c-6.97852,0 -13.07985,2.60992 -18.29537,7.82544c-5.21552,5.21552 -7.82544,11.31253 -7.82544,18.29537z" fill="#ffffff" fill-rule="evenodd" stroke-width="1"/></g></g></svg>