<svg version="1.1" xmlns="http://www.w3.org/2000/svg" xmlns:xlink="http://www.w3.org/1999/xlink" width="224.54568" height="224.54568" viewBox="0,0,224.54568,224.54568"><defs><radialGradient cx="320.00003" cy="180.00003" r="57.1393" gradientUnits="userSpaceOnUse" id="color-1"><stop offset="0" stop-color="#ffd9d9"/><stop offset="1" stop-color="#ffd9d9" stop-opacity="0"/></radialGradient><radialGradient cx="320.00002" cy="180.00001" r="27.5" gradientUnits="userSpaceOnUse" id="color-2"><stop offset="0" stop-color="#ffffff"/><stop offset="1" stop-color="#ab4040"/></radialGradient></defs><g transform="translate(-207.72716,-67.72716)"><g stroke="none" stroke-miterlimit="10"><path d="M262.86072,180.00003c0,-31.55719 25.58212,-57.1393 57.1393,-57.1393c31.55719,0 57.1393,25.58212 57.1393,57.1393c0,31.55719 -25.58212,57.1393 -57.1393,57.1393c-31.55719,0 -57.1393,-25.58212 -57.1393,-57.1393z" fill="url(#color-1)" stroke-width="0"/><path d="M292.50002,180.00001c0,-15.18783 12.31217,-27.5 27.5,-27.5c15.18783,0 27.5,12.31217 27.5,27.5c0,15.18783 -12.31217,27.5 -27.5,27.5c-15.18783,0 -27.5,-12.31217 -27.5,-27.5z" fill="url(#color-2)" stroke-width="0"/><path d="M232.36558,156.79797c0.27508,-0.2918 0.52576,-0.44848 0.52576,-0.44848l2.09343,-1.30575c8.06113,-5.97815 12.36573,-16.61093 18.22712,-24.52254c2.40927,-3.25199 4.51043,-8.00959 8.24381,-10.01583c1.08622,-0.58371 4.95983,-1.02671 6.1637,-1.23399c3.4431,-0.59283 5.92547,-0.88261 8.59113,-0.86454l-0.04419,-0.33142l4.05086,-0.5401c0.12111,-0.01803 0.24507,-0.02737 0.3712,-0.02737c1.38071,0 2.5,1.11929 2.5,2.5c0,0.73276 -0.31525,1.39189 -0.81753,1.84916l-3.17521,2.9106c-8.82088,10.56255 -16.47755,21.88515 -23.95986,33.42489c-0.13063,0.20147 -5.26758,8.24378 -5.28635,8.26749c-1.44149,1.82084 -2.48541,4.47274 -4.71232,5.13168c-1.54308,0.45659 -2.81101,-1.58063 -4.11856,-2.51866c-3.2847,-2.35643 -5.995,-5.71532 -8.84277,-8.56309c0,0 -1.76777,-1.76776 -0.00001,-3.53554c0.06329,-0.06329 0.12658,-0.12205 0.18979,-0.17652z" fill="#dadada" stroke-width="0.5"/><path d="M386.51268,186.88331c0.29618,0.07916 0.48562,0.17389 0.48562,0.17389l1.87897,2.01855c0.47012,2.40071 1.28585,6.03772 1.13895,8.46029c-0.15792,2.60414 -1.70273,5.34035 -2.62492,7.66772c-2.58729,6.52968 -4.81158,13.36924 -7.03831,20.03276c-1.79352,5.36712 -1.92046,12.55738 -8.0781,14.96144c-2.55694,0.99828 -5.47119,0.50966 -8.17782,0.96647c-3.14055,0.53005 -6.19246,1.12398 -9.26396,1.66818l0.07945,0.17876l-4.51942,2.00862c-0.32309,0.15235 -0.68409,0.23753 -1.06498,0.23753c-1.38071,0 -2.5,-1.11929 -2.5,-2.5c0,-0.84002 0.4143,-1.58329 1.04972,-2.03659l3.05332,-2.23249c16.71882,-12.21452 24.58085,-31.78952 31.51209,-50.60501c0,0 0.86426,-2.34586 3.21012,-1.48159c0.35536,0.13092 0.63706,0.29584 0.85926,0.48146z" fill="#dadada" stroke-width="0.5"/><path d="M254.10387,198.22283c0.07021,-0.74554 0.44798,-1.70059 1.83602,-2.07074c2.41558,-0.64416 3.05974,1.77143 3.05974,1.77143c0.68372,2.56394 0.70894,5.38717 2.00055,7.70515c2.17142,3.89694 6.14845,7.58369 9.30391,10.66205c2.30613,2.24979 4.31362,4.84688 6.89923,6.76898c3.22217,2.39531 7.66901,4.10254 11.35395,5.57248l2.36084,0.83919c0.99745,0.32844 1.71749,1.26768 1.71749,2.37509c0,0.88153 -0.45625,1.6565 -1.14551,2.10164l-4.05939,2.70626l-0.13441,-0.20161c-4.46603,3.84814 -9.39472,7.41126 -14.4834,10.05756c-1.681,0.87418 -3.39356,2.55503 -5.25037,2.1779c-1.49689,-0.30403 -1.82714,-2.45572 -2.60107,-3.77259c-1.3798,-2.34776 -2.48102,-4.84877 -3.76196,-7.25189c-1.97467,-3.70461 -4.8301,-7.77969 -6.14571,-11.77987c-0.08972,-0.27281 -2.14304,-9.61307 -2.24681,-10.08352c-1.02197,-4.63294 -2.05429,-8.36605 -1.67242,-13.09811l0.89557,-2.7429c0,0 0.54176,-1.62527 2.07376,-1.73649z" fill="#dadada" stroke-width="0.5"/><path d="M384.91552,188.29346c-0.90963,-2.32864 1.41901,-3.23827 1.41901,-3.23827l-0.1026,1.25812c0.94115,-4.51743 2.40157,-9.34648 2.89159,-13.93223c0.33012,-3.08933 -1.05142,-5.81718 -1.60923,-8.81614c-1.27369,-6.84769 -2.30381,-13.69246 -5.02006,-20.19772c-0.66618,-1.59546 -1.73863,-2.97318 -2.76653,-4.37839c-0.95868,3.32709 -2.08644,6.04192 -3.0252,6.67775c-2.5286,1.71265 -10.40659,-4.24366 -12.5519,-5.2605c-6.08909,-1.5188 -13.39296,-3.21233 -18.36019,-7.31732c-0.15812,-0.13068 -3.80563,-4.31073 -4.072,-4.61514l-1.48108,-0.97582c0,0 -0.18487,-0.13204 -0.40333,-0.37225c-0.52673,0.14571 -1.17567,0.10702 -1.92354,-0.36041c-2.12,-1.32499 -0.79501,-3.44499 -0.79501,-3.44499c0.60512,-0.95989 1.54077,-2.34669 2.66449,-3.81327c-4.69622,-1.61508 -9.38404,-2.57336 -14.50751,-2.72778c-2.25545,-0.06798 -4.4909,0.55045 -6.74737,0.54599c-2.21359,-0.00438 -4.38655,-0.60422 -6.58803,-0.83554c-4.77065,-0.50127 -9.56226,0.01951 -14.34642,0.01729c-5.93477,-0.00276 -11.98985,0.38804 -16.86608,4.13721c0,0 -2,1.5 -3.5,-0.5c-1.5,-2 0.5,-3.5 0.5,-3.5c7.47324,-5.49963 15.80183,-4.88912 24.61668,-5.13624c3.39295,-0.09512 6.80607,-0.32794 10.18285,0.01632c1.99409,0.2033 3.95525,0.80588 5.95968,0.80113c2.30433,-0.00546 4.58809,-0.61042 6.8915,-0.54511c6.33951,0.17977 12.10355,1.50349 17.92913,3.69187c1.63245,-1.58653 3.34532,-2.81609 4.88723,-3.07598c1.41908,-0.23919 32.28304,10.19128 33.12128,11.39581c0.74017,1.06361 0.62387,4.22368 0.05406,7.82967c0.39838,0.93806 0.76732,1.89235 1.27225,2.77444c1.37147,2.39588 3.36696,4.44661 4.44493,6.9881c2.89429,6.82382 4.0176,14.05979 5.34546,21.26436c0.67521,3.66346 1.99572,6.45361 1.66409,10.27825c-0.40897,4.7165 -2.00115,9.77105 -2.96683,14.40641l-2.97304,2.37939c0,0 -2.32864,0.90963 -3.23827,-1.41901z" fill="#dadada" stroke-width="0.5"/><path d="M281.41835,235.78886c1.24036,-2.1706 3.41096,-0.93024 3.41096,-0.93024l2.16908,1.26173c1.97667,1.48764 4.05018,2.86017 6.21848,4.05128c12.54923,11.29438 40.623,4.70144 54.17494,-2.10515c0,0 2.23607,-1.11804 3.35411,1.11803c1.11804,2.23607 -1.11804,3.3541 -1.11804,3.3541c-15.19047,7.56413 -45.33757,14.28022 -59.30021,1.71376c-2.21574,-1.19944 -4.31134,-2.62336 -6.32928,-4.13202l-1.6498,-0.92052c0,0 -2.1706,-1.24036 -0.93024,-3.41096z" fill="#dadada" stroke-width="0.5"/><path d="M255.19239,201.75772c-2.37171,0.79057 -3.16228,-1.58114 -3.16228,-1.58114l0.01881,-0.22215c-6.05945,-9.09052 -10.0355,-19.96676 -11.04791,-30.89309c0,0 -0.22634,-2.48973 2.26339,-2.71607c2.48973,-0.22634 2.71607,2.26339 2.71607,2.26339c0.8977,10.09128 4.63738,20.18657 10.22869,28.57227l0.56436,1.41451c0,0 0.79057,2.3717 -1.58114,3.16227z" fill="#dadada" stroke-width="0.5"/><path d="M207.72716,180c0,-62.00656 50.26628,-112.27284 112.27284,-112.27284c62.00661,0 112.27284,50.26631 112.27284,112.27284c0,62.00656 -50.26624,112.27284 -112.27284,112.27284c-62.00661,0 -112.27284,-50.26631 -112.27284,-112.27284z" fill="none" stroke-width="0"/></g></g></svg>