<svg version="1.1" xmlns="http://www.w3.org/2000/svg" xmlns:xlink="http://www.w3.org/1999/xlink" width="257.50544" height="257.50544" viewBox="0,0,257.50544,257.50544"><defs><radialGradient cx="320.00001" cy="180.00002" r="128.75272" gradientUnits="userSpaceOnUse" id="color-1"><stop offset="0" stop-color="#ffb3b3"/><stop offset="1" stop-color="#ffb3b3" stop-opacity="0"/></radialGradient><radialGradient cx="320.00001" cy="180.00002" r="54.21167" gradientUnits="userSpaceOnUse" id="color-2"><stop offset="0" stop-color="#ffffff"/><stop offset="1" stop-color="#ff8080"/></radialGradient></defs><g transform="translate(-191.2473,-51.2473)"><g stroke="none" stroke-width="0" stroke-miterlimit="10"><path d="M191.2473,180.00002c0,-71.10821 57.64451,-128.75272 128.75272,-128.75272c71.10821,0 128.75272,57.64451 128.75272,128.75272c0,71.10821 -57.64451,128.75272 -128.75272,128.75272c-71.10821,0 -128.75272,-57.64451 -128.75272,-128.75272z" fill="url(#color-1)"/><path d="M265.78835,180.00002c0,-29.94028 24.27139,-54.21167 54.21167,-54.21167c29.94028,0 54.21167,24.27139 54.21167,54.21167c0,29.94028 -24.27139,54.21167 -54.21167,54.21167c-29.94028,0 -54.21167,-24.27139 -54.21167,-54.21167z" fill="url(#color-2)"/></g></g></svg>