<svg version="1.1" xmlns="http://www.w3.org/2000/svg" xmlns:xlink="http://www.w3.org/1999/xlink" width="211.28227" height="211.28227" viewBox="0,0,211.28227,211.28227"><defs><radialGradient cx="240" cy="180" r="61.44" gradientUnits="userSpaceOnUse" id="color-1"><stop offset="0" stop-color="#ff6666"/><stop offset="1" stop-color="#ff6666" stop-opacity="0"/></radialGradient><radialGradient cx="240" cy="180" r="105.64114" gradientUnits="userSpaceOnUse" id="color-2"><stop offset="0" stop-color="#ff6666"/><stop offset="1" stop-color="#ff6666" stop-opacity="0"/></radialGradient></defs><g transform="translate(-134.35886,-74.35886)"><g stroke="none" stroke-miterlimit="10"><path d="M178.56,180c0,-33.93237 27.50763,-61.44 61.44,-61.44c33.93237,0 61.44,27.50763 61.44,61.44c0,33.93237 -27.50763,61.44 -61.44,61.44c-33.93237,0 -61.44,-27.50763 -61.44,-61.44z" fill="url(#color-1)" fill-rule="nonzero" stroke-width="0"/><path d="M134.35886,180c0,-58.34398 47.29716,-105.64114 105.64114,-105.64114c58.34398,0 105.64114,47.29716 105.64114,105.64114c0,58.34398 -47.29716,105.64114 -105.64114,105.64114c-58.34398,0 -105.64114,-47.29716 -105.64114,-105.64114z" fill="url(#color-2)" fill-rule="nonzero" stroke-width="0"/><path d="M239.01,241.44c0,-16.15 -6.04,-30.27 -18.11,-42.34c-12.07,-12.07 -26.18,-18.11 -42.34,-18.11v-1.98c16.16,0 30.27,-6.04 42.34,-18.14c12.07,-12.1 18.11,-26.21 18.11,-42.31h1.98c0,16.15 6.04,30.27 18.11,42.34c12.07,12.07 26.18,18.11 42.34,18.11v1.98c-16.15,0 -30.27,6.04 -42.34,18.11c-12.07,12.07 -18.11,26.18 -18.11,42.34z" fill="#ff5555" fill-rule="evenodd" stroke-width="1"/><path d="M239.26812,225.42067c0,-11.9392 -4.46518,-22.37766 -13.38815,-31.30064c-8.92298,-8.92298 -19.35405,-13.38815 -31.30064,-13.38815v-1.46376c11.94659,0 22.37766,-4.46518 31.30064,-13.41033c8.92298,-8.94515 13.38815,-19.37624 13.38815,-31.27846h1.46376c0,11.93919 4.46517,22.37767 13.38815,31.30064c8.92298,8.92298 19.35406,13.38815 31.30064,13.38815v1.46376c-11.9392,0 -22.37766,4.46518 -31.30064,13.38815c-8.92297,8.92298 -13.38815,19.35405 -13.38815,31.30064z" fill="#ffffff" fill-rule="evenodd" stroke-width="1"/></g></g></svg>