<svg version="1.1" xmlns="http://www.w3.org/2000/svg" xmlns:xlink="http://www.w3.org/1999/xlink" width="368.61654" height="368.61654" viewBox="0,0,368.61654,368.61654"><defs><radialGradient cx="320.00002" cy="180.00003" r="184.30827" gradientUnits="userSpaceOnUse" id="color-1"><stop offset="0" stop-color="#ff4040"/><stop offset="1" stop-color="#ff4040" stop-opacity="0"/></radialGradient><radialGradient cx="320.00002" cy="180.00003" r="77.60348" gradientUnits="userSpaceOnUse" id="color-2"><stop offset="0" stop-color="#ffffff"/><stop offset="1" stop-color="#ff5555"/></radialGradient></defs><g transform="translate(-135.69174,4.30824)"><g stroke="none" stroke-width="0" stroke-miterlimit="10"><path d="M135.69174,180.00003c0,-101.79071 82.51756,-184.30827 184.30827,-184.30827c101.79071,0 184.30827,82.51756 184.30827,184.30827c0,101.79071 -82.51756,184.30827 -184.30827,184.30827c-101.79071,0 -184.30827,-82.51756 -184.30827,-184.30827z" fill="url(#color-1)"/><path d="M242.39653,180.00003c0,-42.85922 34.74426,-77.60348 77.60348,-77.60348c42.85922,0 77.60348,34.74426 77.60348,77.60348c0,42.85922 -34.74426,77.60348 -77.60348,77.60348c-42.85922,0 -77.60348,-34.74426 -77.60348,-77.60348z" fill="url(#color-2)"/></g></g></svg>