<svg version="1.1" xmlns="http://www.w3.org/2000/svg" xmlns:xlink="http://www.w3.org/1999/xlink" width="149.88698" height="149.88698" viewBox="0,0,149.88698,149.88698"><defs><radialGradient cx="240" cy="180" r="46.55744" gradientUnits="userSpaceOnUse" id="color-1"><stop offset="0" stop-color="#ffb3b3"/><stop offset="1" stop-color="#ffb3b3" stop-opacity="0"/></radialGradient><radialGradient cx="240" cy="180" r="74.94349" gradientUnits="userSpaceOnUse" id="color-2"><stop offset="0" stop-color="#ffb3b3"/><stop offset="1" stop-color="#ffb3b3" stop-opacity="0"/></radialGradient></defs><g transform="translate(-165.05651,-105.05651)"><g stroke="none" stroke-miterlimit="10"><path d="M193.44256,180c0,-25.71296 20.84448,-46.55744 46.55744,-46.55744c25.71296,0 46.55744,20.84448 46.55744,46.55744c0,25.71296 -20.84448,46.55744 -46.55744,46.55744c-25.71296,0 -46.55744,-20.84448 -46.55744,-46.55744z" fill="url(#color-1)" fill-rule="nonzero" stroke-width="0"/><path d="M165.05651,180c0,-41.39014 33.55335,-74.94349 74.94349,-74.94349c41.39014,0 74.94349,33.55335 74.94349,74.94349c0,41.39014 -33.55335,74.94349 -74.94349,74.94349c-41.39014,0 -74.94349,-33.55335 -74.94349,-74.94349z" fill="url(#color-2)" fill-rule="nonzero" stroke-width="0"/><path d="M239.01,241.44c0,-16.15 -6.04,-30.27 -18.11,-42.34c-12.07,-12.07 -26.18,-18.11 -42.34,-18.11v-1.98c16.16,0 30.27,-6.04 42.34,-18.14c12.07,-12.1 18.11,-26.21 18.11,-42.31h1.98c0,16.15 6.04,30.27 18.11,42.34c12.07,12.07 26.18,18.11 42.34,18.11v1.98c-16.15,0 -30.27,6.04 -42.34,18.11c-12.07,12.07 -18.11,26.18 -18.11,42.34z" fill="#ff8080" fill-rule="evenodd" stroke-width="1"/><path d="M239.45199,214.00965c0,-8.93972 -3.3434,-16.75573 -10.02465,-23.43699c-6.68126,-6.68126 -14.49174,-10.02465 -23.43699,-10.02465v-1.09602c8.94525,0 16.75573,-3.3434 23.43699,-10.04126c6.68126,-6.69786 10.02465,-14.50835 10.02465,-23.42038h1.09602c0,8.93971 3.34339,16.75573 10.02465,23.43699c6.68126,6.68126 14.49175,10.02465 23.43699,10.02465v1.09602c-8.93972,0 -16.75573,3.3434 -23.43699,10.02465c-6.68126,6.68126 -10.02465,14.49174 -10.02465,23.43699z" fill="#ffffff" fill-rule="evenodd" stroke-width="1"/></g></g></svg>